<?xml version="1.0" encoding="UTF-8" standalone="no"?>
<svg
   xmlns:dc="http://purl.org/dc/elements/1.1/"
   xmlns:cc="http://creativecommons.org/ns#"
   xmlns:rdf="http://www.w3.org/1999/02/22-rdf-syntax-ns#"
   xmlns:svg="http://www.w3.org/2000/svg"
   xmlns="http://www.w3.org/2000/svg"
   xmlns:sodipodi="http://sodipodi.sourceforge.net/DTD/sodipodi-0.dtd"
   xmlns:inkscape="http://www.inkscape.org/namespaces/inkscape"
   viewBox="0 -1008 1133 1000"
   id="svg3063"
   version="1.1"
   inkscape:version="0.48.4 r9939"
   width="100%"
   height="100%"
   sodipodi:docname="a_VSHUD.svg">
  <metadata
     id="metadata3073">
    <rdf:RDF>
      <cc:Work
         rdf:about="">
        <dc:format>image/svg+xml</dc:format>
        <dc:type
           rdf:resource="http://purl.org/dc/dcmitype/StillImage" />
      </cc:Work>
    </rdf:RDF>
  </metadata>
  <defs
     id="defs3071" />
  <sodipodi:namedview
     pagecolor="#ffffff"
     bordercolor="#666666"
     borderopacity="1"
     objecttolerance="10"
     gridtolerance="10"
     guidetolerance="10"
     inkscape:pageopacity="0"
     inkscape:pageshadow="2"
     inkscape:window-width="1920"
     inkscape:window-height="996"
     id="namedview3069"
     showgrid="false"
     inkscape:zoom="0.472"
     inkscape:cx="921.31181"
     inkscape:cy="78.236184"
     inkscape:window-x="1672"
     inkscape:window-y="-8"
     inkscape:window-maximized="1"
     inkscape:current-layer="svg3063" />
  <g
     transform="matrix(1 0 0 -1 0 800)"
     id="g3065">
    <path
       d="m 117.97,14.2949 c 10.04,3.347 -1.6733,3.347 -35.1399,0 C 72.7897,15.9681 61.913067,17.6416 50.2002,19.3154 40.1598,20.9886 30.956333,24.3353 22.5898,29.3555 14.223267,36.048833 9.2034333,45.251933 7.5303,56.9648 5.8564733,63.6582 5.01956,71.188167 5.01956,79.5547 l 0,-7.5293 c 0,-6.693333 0.8369133,-13.3867 2.51074,-20.0801 1.6731533,-10.040333 4.18293,-17.570267 7.52933,-22.5898 5.020133,-6.6934 11.713467,-10.877 20.08,-12.5508 13.386733,0 26.773467,-1.673167 40.1602,-5.0195 13.386733,-3.3470333 27.61013,-2.5104667 42.6702,2.5097 z m 143.07,0 c -3.34668,3.347 -15.06001,5.0205 -35.14,5.0205 -6.69333,1.6732 -12.55,2.5098 -17.57,2.5098 -6.69333,3.346333 -12.55,4.182933 -17.57,2.5098 -1.67333,1.673133 -6.69333,2.5097 -15.06,2.5097 1.67334,6.6934 5.85667,8.3669 12.55,5.0205 5.02,5.0202 4.18334,7.5303 -2.50999,7.5303 -10.04,0 -20.91667,-1.6735 -32.63,-5.0205 -8.36667,-1.6732 -17.57,-2.5098 -27.61,-2.5098 -11.71333,0 -24.26347,0.8366 -37.6504,2.5098 -13.386733,0 -25.099933,4.183267 -35.1396,12.5498 -21.753267,15.059867 -31.793333,17.569967 -30.1202,7.5303 0,-10.039733 10.040067,-16.7331 30.1202,-20.0801 15.059867,-3.346333 30.119733,-5.856433 45.1796,-7.5303 6.6936,1.673867 12.5504,0.8373 17.5704,-2.5097 1.67333,0 5.02,-2.5101 10.04,-7.5303 35.14,0 66.93333,-0.8366 95.38,-2.5098 l 40.16,0 z m -5.02,7.5303 c 3.34668,11.713533 8.36668,23.426733 15.06,35.1396 6.69333,10.0404 13.38667,20.917033 20.08,32.6299 3.34666,8.367533 4.18333,15.89797 2.51001,22.5913 -3.34668,13.386 -9.20335,25.93567 -17.57,37.649 -3.34668,6.69333 -7.53001,13.38667 -12.55,20.08 -6.69333,10.04067 -9.20333,20.08067 -7.53,30.12 -1.67333,11.71333 5.02001,19.24333 20.08,22.59 16.73333,15.06 17.56999,29.28333 2.50998,42.67 -5.02,5.02 -7.53,14.22333 -7.53,27.61 0,10.04 2.51,19.24367 7.53,27.611 1.67334,8.366 6.69334,14.22233 15.06,17.569 10.04,5.02 20.08,5.85667 30.12,2.51001 5.02,-5.02 10.04,-6.69333 15.06,-5.01999 5.02,3.34666 10.87667,5.85666 17.57,7.53 13.38667,3.34666 19.24333,-1e-5 17.57,-10.04 0,-5.02 -6.69333,-4.18333 -20.08,2.51001 -3.34666,0 -2.50999,-1.67334 2.51001,-5.02002 5.02,-3.34666 10.04,-5.85666 15.06,-7.53 8.36667,-3.34666 14.22333,1.67334 17.57,15.06 -3.34666,11.71333 -7.52999,25.1 -12.55,40.16 -3.34666,18.40667 -0.83666,24.26333 7.53,17.57 1.67334,-1.67334 5.85667,-11.71334 12.55,-30.12 3.34668,-11.71333 17.57001,-17.57 42.67,-17.57 10.04,0 20.91667,0.83667 32.63,2.51001 11.71333,1.67399 22.59,3.34732 32.63,5.01999 11.71333,3.34666 22.59,5.857 32.63,7.53101 15.06,3.34599 27.61,10.03899 37.65,20.079 5.02002,6.69333 10.87669,15.06 17.57,25.1 8.36667,5.02067 5.02,-3.34599 -10.04,-25.1 -6.69333,-8.36667 -9.20334,-13.38667 -7.53003,-15.06 5.02002,-8.36667 12.55002,-10.87667 22.59,-7.53 10.04,1.67401 15.06,5.02068 15.06,10.04 -5.02002,8.36667 -6.69336,16.73333 -5.02002,25.1 5.02002,8.36667 7.53003,16.73333 7.53003,25.1 0,10.04067 -6.69333,10.04067 -20.08,0 -6.69333,-5.02 -12.55,-11.71333 -17.57,-20.08 -3.34664,-10.04 -9.20331,-18.40667 -17.57,-25.1 -8.36667,-3.34666 -17.57,-5.85666 -27.61,-7.53 -10.04,-3.34599 -20.08,-6.69265 -30.12,-10.04 -11.71333,-1.67334 -23.42667,-3.34634 -35.14,-5.01901 -11.71333,-1.67399 -23.42667,-1.67399 -35.14,0 -11.71333,1.67267 -20.91667,5.85567 -27.61,12.549 -6.69333,8.36667 -11.71333,18.40667 -15.06,30.12 -3.34666,11.71333 -8.36666,23.42667 -15.06,35.14 -5.02,11.71333 -11.71333,22.59 -20.08,32.63 -8.36667,10.04067 -16.73333,20.08067 -25.1,30.12 -6.69333,10.04 -15.06,19.24333 -25.1,27.61 -8.36667,6.69333 -17.57,12.55 -27.61,17.57 l -30.12,15.06 c -10.04,3.34668 -20.91667,5.85667 -32.63,7.52997 -16.73333,1.67334 -25.1,-1.67299 -25.1,-10.039 0,-6.69333 4.18333,-17.57033 12.55,-32.631 6.69333,-10.04 5.85666,-21.75333 -2.51001,-35.14 -3.34666,-5.02 -5.01999,-10.87667 -5.01999,-17.57 -3.34667,-8.36667 -5.02,-16.73333 -5.02,-25.1 3.34667,-11.71333 4.18333,-22.59 2.50999,-32.63 -1.67333,-6.69333 -3.34666,-7.52999 -5.01999,-2.50998 -3.34667,8.36667 -4.18334,18.407 -2.51001,30.121 l 0,32.629 c -3.34666,11.71333 -3.34666,23.42667 0,35.14 3.34667,13.38667 2.51,24.26333 -2.50999,32.63 -8.36667,5.02002 -12.55,0.83669 -12.55,-12.55 1.67333,-8.36667 4.18333,-18.40667 7.53,-30.12 0,-6.69333 -0.83666,-15.06 -2.50999,-25.1 -1.67334,-15.06 -1.67334,-30.12 0,-45.18 3.34667,-11.71333 2.51,-22.59 -2.51001,-32.63 -1.67333,-3.34668 -2.50999,-5.85668 -2.50999,-7.53 3.34667,-6.69267 10.04,-12.54933 20.08,-17.57 6.69333,-5.02 14.22333,-8.36667 22.59,-10.04 25.1,-1.67267 41.83333,-9.20267 50.2,-22.59 8.36667,-16.73333 7.53,-36.81333 -2.51001,-60.24 0,-6.69333 -0.83667,-11.713 -2.51001,-15.059 -1.67333,-1.67399 -5.85666,-2.51099 -12.55,-2.51099 1.39626,-25.76753 3.82635,3.48455 5.02,-50.20001 l 0,-22.59 c -1.67334,-10.04 -1e-5,-20.08 5.01999,-30.12 1.67333,-8.36667 2.50999,-16.73333 2.50999,-25.1 0,-10.03933 -2.50999,-15.896 -7.52998,-17.57 -8.36667,0 -17.57,0.837 -27.61,2.51099 -8.36667,0 -17.57,0.83633 -27.61,2.509 -10.04,0 -19.24333,1.67333 -27.61,5.02 -15.06,5.02001 -23.42667,4.18334 -25.1,-2.50999 0,-10.03933 -2.51,-17.569267 -7.53,-22.5898 -1.67333,-1.673133 -10.03999,0.837137 -25.1,7.53081 -8.366733,1.67267 -9.2034,-1.67417 -2.51,-10.0405 8.36667,-6.6934 20.08,-10.877 35.14,-12.5508 11.71333,-1.6732 23.42667,-3.346367 35.14,-5.0195 11.71333,-6.6934 23.42667,-8.366933 35.14,-5.0206 20.08,5.0202 30.95667,4.183633 32.63,-2.5097 1.67333,-8.366533 -7.53001,-13.3864 -27.61,-15.0596 -10.04,-1.6732 -20.91667,-3.3467 -32.63,-5.0205 -11.71333,-1.6732 -23.42667,-1.6732 -35.14,0 -11.71333,0 -23.42667,0.8369 -35.14,2.5107 -10.04027,3.3464 -20.080233,5.0196 -30.1199,5.0196 -13.386733,-1.6732 -23.426767,-0.836633 -30.1201,2.5097 -11.7136,5.0202 -17.5704,14.223667 -17.5704,27.6104 l 0,35.1398 0,37.65 0,35.14 c -3.346333,13.38667 -1.6728,25.10033 5.0206,35.141 13.386667,18.406 20.9166,36.81233 22.5898,55.219 1.6732,13.38667 -6.693333,2.51 -25.0996,-32.63 -1.673867,-1.67267 -2.5108,-4.18267 -2.5108,-7.53 0,-3.346 -0.836567,-6.69267 -2.5097,-10.04 -1.6732,-11.71333 -3.346367,-22.59 -5.0195,-32.63 -3.347067,-13.38667 -3.347067,-25.93667 0,-37.65 0,-3.34666 -0.836933,-0.83666 -2.5108,7.53 -1.6732,5.02001 -1.6732,1e-5 0,-15.06 1.673867,-10.04 2.5108,-19.24333 2.5108,-27.61 l 0,-20.08 c -1.673867,-11.713533 -0.8373,-22.590133 2.5097,-32.6298 3.346333,-10.039733 10.0397,-17.5697 20.0801,-22.5899 8.366533,-6.693333 17.569667,-10.8766 27.6094,-12.5498 11.713533,-1.6738 22.59033,-2.5107 32.6304,-2.5107 l 37.65,0 c 11.71333,1.6738 23.42667,3.3473 35.14,5.0205 13.38667,0 25.93667,0.836567 37.65,2.5097 13.38667,0 25.1,-1.673167 35.14,-5.0195 3.34668,0 2.51002,-2.5101 -2.50999,-7.5303 -3.34666,-3.347 -6.69333,-6.693667 -10.04,-10.04 l 12.55,0 0,0 z m 17.57,230.9198 c -3.34666,5.02 -4.18333,9.20333 -2.51001,12.55 3.34668,1.67332 6.69335,-0.83635 10.04,-7.52902 1.67334,-3.34733 1.67334,-8.36767 0,-15.061 l -2.51001,2.50999 c 0,3.34667 -1.67333,5.85667 -5.01999,7.53 z m 67.77,102.91 c -6.69333,3.34666 -14.22333,5.857 -22.59,7.53101 -8.36667,1.67267 -16.73333,1.67267 -25.1,0 -8.36667,-1.67401 -16.73333,-3.34768 -25.1,-5.021 -10.04,0 -19.24333,-0.83667 -27.61,-2.51001 -8.36667,-1.67267 -15.89667,-0.836 -22.59,2.51001 -8.36667,1.67332 -15.89667,5.85665 -22.59,12.55 -5.02,3.34666 -8.36667,8.36666 -10.04,15.06 -1.67334,6.69333 -1.67334,10.87667 0,12.55 8.36667,-15.06 20.08,-25.1 35.14,-30.12 8.36667,-3.34599 15.06,-2.50932 20.08,2.51001 1.67333,5.02 2.50999,10.87667 2.50999,17.57 -1.67333,13.38667 -3.34666,18.40667 -5.02,15.06 -8.36667,-11.71333 -11.71333,-14.22333 -10.04,-7.53 1.67333,10.04 3.34666,21.75333 5.01999,35.14 0,11.71333 1.67333,23.42667 5.02,35.14 6.69333,11.71333 9.20333,23.42667 7.53,35.14 -1.67333,5.02002 -5.85666,12.55002 -12.55,22.59 -5.02,10.04 -1.67333,15.06 10.04,15.06 6.69333,0 15.06,-3.34667 25.1,-10.04 l 30.12,-20.08 c 10.04,-6.69267 19.24333,-15.05933 27.61,-25.1 8.36667,-10.04 15.06,-20.08 20.08,-30.12 10.04,-10.04 13.38667,-20.91667 10.04,-32.63 -1.67334,-6.69333 -4.18334,-14.22333 -7.53,-22.59 -3.34668,-8.36667 -2.51002,-18.40667 2.50998,-30.12 -3.34666,-5.02 -6.69333,-9.20333 -10.04,-12.55 l 0,0 z m -70.28,30.12 c -1.67332,3.34668 -4.18332,5.02002 -7.53,5.02002 0,3.34666 0.83667,5.01999 2.51001,5.01999 8.36667,3.34666 10.87667,5.85666 7.53,7.53 0,5.02 -3.34667,8.36667 -10.04,10.04 -1.67332,1.67399 -5.85665,5.02066 -12.55,10.04 -5.02,10.04 -6.69333,16.73333 -5.02,20.08 3.34667,6.69333 10.87667,7.53 22.59,2.51001 6.69333,-5.02002 11.71333,-5.85669 15.06,-2.51001 5.02,10.04 4.18333,13.38667 -2.51001,10.04 -8.36667,1.67332 -13.38667,3.34665 -15.06,5.01999 -5.02,3.34666 -6.69333,10.04033 -5.01999,20.081 l 0,32.629 c -15.06,23.42667 -17.57,20.91667 -7.53001,-7.53 6.69333,-10.03933 5.85667,-22.58933 -2.50999,-37.65 -5.02,-10.04 -8.36667,-20.91667 -10.04,-32.63 -5.02001,-15.06 -3.34668,-22.59 5.01999,-22.59 6.69333,0 10.87667,-0.83667 12.55,-2.51001 5.02,-5.02 3.34667,-13.38667 -5.02,-25.1 8.36667,-6.69267 20.91667,-10.039 37.65,-10.039 -15.06,5.01933 -21.75333,9.20233 -20.08,12.54901 z m -70.28,27.61 c 1.67333,11.71333 0.83666,23.42667 -2.51001,35.14 1.67334,13.38667 3.34667,26.77367 5.02,40.161 5.02,13.386 5.02,25.93567 0,37.649 -8.36667,13.38667 -10.87667,21.75367 -7.53,25.101 5.02,8.366 10.87667,3.34567 17.57,-15.061 3.34666,-6.69333 4.18332,-14.22333 2.50999,-22.59 0,-6.69333 -0.83666,-14.22333 -2.50999,-22.59 -6.69333,-8.366 -7.53,-15.896 -2.51001,-22.59 6.69333,-8.36667 10.04,-15.06 10.04,-20.08 11.71333,-15.05933 5.02,-26.77267 -20.08,-35.14 z m 15.06,-389.05 c 13.38667,-5.0202 20.91667,-2.510133 22.59,7.5302 0,8.366533 -5.85667,9.203133 -17.57,2.5098 -10.04,-3.346333 -11.71333,-6.693 -5.02,-10.04 z M 10.04,94.6152 c 1.6732,10.03987 1.6732,20.91647 0,32.6298 0,11.71333 -0.8365767,23.42667 -2.50973,35.14 -1.6738267,11.71333 -1.6738267,23.42667 0,35.14 1.6731533,10.04 4.18293,20.08033 7.52933,30.121 3.347,8.366 4.1839,15.05933 2.5107,20.08 -1.6738,3.346 -3.3473,1.67233 -5.0205,-5.021 -1.6732,-6.69333 -2.5098,-14.22333 -2.5098,-22.59 -3.34698,-8.36667 -5.02047,-16.73333 -5.02047,-25.1 -3.3463533,-6.69267 -4.18294,-13.38567 -2.50976,-20.079 0,-13.38733 1.6735,-26.77433 5.0205,-40.161 0,-13.38667 0.8365767,-26.77327 2.50973,-40.1598 z m 256.02,92.8698 c 5.02,10.04 10.87667,19.24333 17.57,27.61 10.04,8.36733 15.06,16.734 15.06,25.1 0,8.36667 -3.34667,17.57 -10.04,27.61 -6.69333,13.38667 -6.69333,26.77333 0,40.16 8.36667,10.04 17.57,18.40667 27.61,25.1 10.04,8.36667 0,1.67333 -30.12,-20.08 -11.71333,-6.69333 -14.22334,-18.40667 -7.53003,-35.14 6.69333,-11.71333 11.71333,-23.42667 15.06,-35.14 1.67332,-5.02 0.83665,-10.03967 -2.51001,-15.059 -5.02,-5.02066 -13.38667,-9.20433 -25.1,-12.551 -8.36667,-6.69333 -10.04,-15.89667 -5.01999,-27.61 1.67332,-1.67267 3.34665,-1.67267 5.01999,0 z m -238.4496,92.87 c 3.346333,10.04 7.5296,20.91667 12.5498,32.63 5.020133,10.04 10.039967,20.08 15.0595,30.12 6.6934,10.04 12.550167,20.08033 17.5703,30.121 6.6934,8.366 12.5502,17.569 17.5704,27.609 5.019473,11.71333 10.87601,21.75333 17.5696,30.12 1.67333,3.34735 3.34667,4.18402 5.02,2.51001 0,-8.36667 -1.67333,-15.06 -5.02,-20.08 -1.67333,-3.34668 -3.34667,-5.85668 -5.02,-7.53 -3.346933,-11.71333 -7.530133,-23.42667 -12.5496,-35.14 -3.347067,-11.71267 -9.203867,-22.58933 -17.5704,-32.63 -13.386667,-15.06 -18.4065,-27.60967 -15.0595,-37.649 1.673133,-8.36733 7.529567,-1.674 17.5693,20.08 5.0202,10.03933 10.0404,20.079 15.0606,30.119 3.346333,10.04 8.3662,20.08 15.0596,30.12 6.69333,10.04 14.22333,18.40667 22.59,25.1 10.04,8.36667 13.38667,15.06033 10.04,20.081 -3.34667,6.69333 -9.20333,5.85633 -17.57,-2.51102 l -10.04,-10.04 2.50999,2.51099 c 1.67333,3.34601 4.18334,6.69267 7.53001,10.04 3.34667,3.34599 6.69333,6.69265 10.04,10.04 5.02,3.34599 9.20333,5.01898 12.55,5.01898 8.36667,1.67334 12.55,0.83667 12.55,-2.51001 0,-16.73333 2.51,-24.263 7.53,-22.589 5.02,3.34601 5.85667,11.71234 2.51001,25.099 -5.02,13.38667 -5.85667,26.77333 -2.51001,40.16 3.34667,8.36667 5.02,15.89667 5.02,22.59 -1.67333,6.69333 -5.85666,12.55 -12.55,17.57 -5.02,5.01998 -10.04,9.20331 -15.06,12.55 -3.34667,1.67334 -6.69333,0 -10.04,-5.02002 -6.69333,-6.69333 -10.04,-13.38667 -10.04,-20.08 1.67333,-8.36667 5.01999,-10.87668 10.04,-7.53003 3.34666,1.67334 5.01999,5.85667 5.01999,12.55 0,8.36667 1.67333,12.55 5.02,12.55 6.69333,0 11.71333,-3.34667 15.06,-10.04 1.67334,-10.04 1.67334,-20.08 0,-30.12 -3.34666,-10.04 -8.36666,-13.38667 -15.06,-10.04 -3.34667,3.34666 -6.69333,8.36666 -10.04,15.06 l 0,-20.08 c 0,-3.34666 -3.34667,-8.36666 -10.04,-15.06 -1.67333,-3.34666 -2.51,-7.52999 -2.51,-12.55 l 0,2.51001 c -1.67333,3.34666 -2.51,6.69333 -2.51,10.04 1.67333,5.02 2.51,10.04 2.51,15.06 -1.67333,5.02067 -1.67333,10.04067 0,15.06 l 0,7.53 c -1.67333,1.67334 -2.51,1.67334 -2.51,0 l 0,-12.55 -5.02,-35.14 c -5.02,-8.36667 -10.04003,-17.57 -15.0601,-27.61 -6.6934,-10.04 -12.550167,-20.08 -17.5703,-30.12 -5.019533,-10.03933 -10.876,-20.07933 -17.5694,-30.12 -6.693333,-8.36667 -12.5501,-17.57 -17.5703,-27.61 -5.0202,-16.73333 -10.040033,-33.46667 -15.0595,-50.2 l 0,0 z m 434.2296,45.18 c 10.04,1.67334 20.91667,3.34667 32.63,5.01999 10.04,1.67334 20.91667,4.18334 32.63,7.53 10.04,3.34668 20.91667,6.69335 32.63,10.04 10.04,5.02 20.08,6.69367 30.12,5.021 15.06,-6.694 25.93667,-7.531 32.63,-2.51099 10.04,3.34666 10.04,10.03999 0,20.08 -1.67334,3.34666 -3.34666,-3.34667 -5.01996,-20.08 -1.67334,-3.34668 -11.71334,-0.83668 -30.12,7.53 -8.36667,1.67332 -18.4067,3.2e-4 -30.1201,-5.01901 -10.04,-5.02067 -20.08,-8.36767 -30.12,-10.041 -10.04,-1.67334 -20.08,-4.18334 -30.12,-7.53 -6.69333,-1.67334 -14.22333,-2.51001 -22.59,-2.51001 -8.36667,-1.67334 -16.73333,-3.34667 -25.1,-5.01999 -3.34668,0 -6.69335,-0.83667 -10.04,-2.51001 l 22.59,0 0,0 z m 10.04,12.55 c 8.36667,3.34668 17.57,5.02002 27.61,5.02002 15.06,1.67332 20.08,3.34665 15.06,5.01999 -3.34666,3.34733 -10.03999,2.51066 -20.08,-2.51001 -8.36667,-1.67332 -16.73333,-2.50998 -25.1,-2.50998 -6.69333,0 -13.38667,-1.67334 -20.08,-5.02002 l 15.06,0 z m -343.87,32.63 c 1.67334,1.67401 5.02001,4.18401 10.04,7.53 0,-1.67334 3.34667,-3.34633 10.04,-5.01898 6.69333,-1.67401 5.85667,2.50899 -2.50999,12.549 -5.02,8.36667 -11.71333,10.87667 -20.08,7.53 -8.36667,-3.34666 -11.71333,-8.36666 -10.04,-15.06 3.34667,-6.69333 7.53,-9.20333 12.55,-7.53 z m 394.07,12.55 c -3.34668,6.69333 -5.85669,10.87667 -7.53003,12.55 -6.69333,8.36667 -13.38667,15.89667 -20.08,22.59 -5.02,5.02067 -7.53,10.04067 -7.53,15.06 -1.67334,6.69333 -3.34667,14.22333 -5.01999,22.59 0,11.71333 -0.83667,15.89667 -2.51001,12.55 -1.67334,-6.69333 -2.51001,-12.55 -2.51001,-17.57 -1.67332,-18.40667 3.34668,-30.95667 15.06,-37.65 16.73333,-13.38667 24.26333,-23.42667 22.59,-30.12 -5.02,-13.386 -15.06,-8.366 -30.12,15.06 -11.71333,11.714 -15.89667,24.26433 -12.55,37.651 l 0,37.649 c 1.67334,1.67334 -3.34666,-2.50999 -15.06,-12.55 -1.67334,0 -9.20334,1.67333 -22.59,5.01999 -11.71333,1.67334 -15.06,-1.67333 -10.04,-10.04 5.02,-6.69333 14.22333,-15.06 27.61,-25.1 10.04,-6.69333 15.06,-16.73333 15.06,-30.12 10.04,-15.06 23.42667,-24.263 40.16,-27.609 10.04,3.34599 15.06,6.69232 15.06,10.039 z m 97.89,25.1 c 3.34668,11.714 10.04001,21.754 20.08,30.12 6.69333,8.36667 16.73333,13.38667 30.12,15.06 11.71333,1.67332 23.42667,2.50998 35.14,2.50998 l 35.14,0 32.63,0 32.63,0 32.63,0 c 10.04,1.67334 20.91663,1.67334 32.6299,0 11.71333,-1.67332 21.75337,-1.67332 30.1201,0 10.04,1.67334 16.73333,7.53001 20.08,17.57 1.67334,8.36667 2.51001,17.57 2.51001,27.61 1.67334,8.36667 1.67334,17.57 0,27.61 -5.01998,10.04007 -5.01998,19.2434 0,27.61 5.02002,6.69333 8.36669,13.38667 10.04,20.08 6.69333,20.08007 4.18334,29.28373 -7.52997,27.611 -6.69333,-1.67399 -20.91667,-0.83765 -42.67,2.50903 -3.34668,5.02063 -9.20335,4.18428 -17.57,-2.50903 -5.02002,-5.02067 -10.04002,-10.87767 -15.06,-17.571 -5.02002,-6.69333 -7.53003,-15.06 -7.53003,-25.1 l 0,-22.59 c -1.67334,-8.36667 -2.51001,-16.73333 -2.51001,-25.1 0,-6.69333 3.34667,-12.55 10.04,-17.57 6.69333,-5.01933 12.55,-6.69266 17.57,-5.01999 13.38667,0 19.24333,4.18333 17.57,12.55 -3.34668,5.02 -5.02002,12.55 -5.02002,22.59 3.34668,5.01998 9.20335,2.50997 17.57,-7.53003 10.04,-10.04 8.36666,-18.40667 -5.02002,-25.1 -5.01998,-8.36667 -11.71331,-14.22333 -20.08,-17.57 -18.40667,-6.69333 -30.95667,-5.02 -37.65,5.01999 -1.67334,6.69333 -3.34668,15.89667 -5.02002,27.61 0,8.36667 -6.69333,12.55 -20.08,12.55 l -27.61,0 -30.12,-2.51001 c -10.04,0 -20.08,0.83667 -30.12,2.51001 l -35.14,0 c -11.71333,-1.67334 -23.42667,-1.67334 -35.14,0 l -35.14,0 c -11.71333,-1.67334 -23.42667,-2.51001 -35.14,-2.51001 l -35.14,0 c -11.71333,-1.67334 -23.42667,-1.67334 -35.14,0 -13.38667,1.67334 -25.1,1.67334 -35.14,0 -16.73333,-1.67334 -25.1,-6.69334 -25.1,-15.06 0,-8.36666 6.69333,-11.71333 20.08,-10.04 11.71333,1.67334 23.42667,1.67334 35.14,0 11.71333,-1.67332 22.59,-4.18332 32.63,-7.53 11.71327,-3.34666 22.58993,-7.52999 32.63,-12.55 10.04,-3.34666 20.91663,-5.85666 32.6299,-7.53 11.71333,0 22.59,-0.83667 32.63,-2.51001 15.06,0 42.67,-1.67333 82.83,-5.01999 -23.42667,3.34666 -42.67,2.50999 -57.73,-2.51001 -20.08,-3.34666 -30.12,-3.34666 -30.12,0 -13.38667,-1.67332 -21.75333,-4.18332 -25.1,-7.53 -3.34664,0 4.18336,-1.67333 22.59,-5.01999 6.69333,-1.67334 4.18332,-9.20334 -7.53003,-22.59 0,-5.02 -0.83667,-9.20333 -2.51001,-12.55 l 0,0 z m 100.4,60.24 c -1.67334,11.71333 8.36666,15.89667 30.12,12.55 13.38667,-3.34666 26.77333,-4.18299 40.16,-2.509 20.08,3.34601 28.44667,1.67234 25.1,-5.021 -1.67334,-10.04 -11.71334,-12.55 -30.12,-7.53 -11.71333,1.67334 -22.59,1.67334 -32.63,0 -21.75333,-6.69333 -32.63,-5.85666 -32.63,2.51001 z m -45.18,0 c -8.36667,3.34666 -7.53,7.52999 2.51001,12.55 6.69333,3.34666 15.06,2.51033 25.1,-2.509 11.71333,-5.02067 15.06,-9.20434 10.04,-12.551 -11.71333,-8.36667 -24.26333,-7.53 -37.65,2.51001 z m 170.68,32.63 c -1.67334,6.69333 -1.67334,12.55 0,17.57 1.67334,3.34668 5.02001,4.18335 10.04,2.51001 5.02002,-1.67334 9.20335,-3.34668 12.55,-5.02002 5.01998,-3.34666 8.36665,-6.69333 10.04,-10.04 0,-3.34668 -0.83667,-5.85634 -2.51001,-7.52899 l -20.08,0 c -1.6733,0 -5.01997,0.83632 -10.04,2.50897 z m -286.14,0 c -1.67334,3.34668 -0.83667,6.69335 2.51001,10.04 1.67334,1.67332 5.85667,1.67332 12.55,0 5.02002,0 9.20335,-0.83666 12.55,-2.50998 1.6733,-1.67334 2.50995,-3.34668 2.50995,-5.02002 -6.69333,-1.67334 -13.38667,-3.34633 -20.08,-5.01898 -1.67334,0 -5.02001,0.83632 -10.04,2.50897 z m 306.22,42.67 c 5.01998,11.71327 11.71331,23.4266 20.08,35.14 10.04,11.71333 17.57,15.06 22.59,10.04 8.36667,-5.02002 10.87668,-14.22335 7.53003,-27.61 -1.67334,-8.36667 -5.02001,-15.05967 -10.04,-20.079 -5.01998,-6.694 -10.87665,-10.041 -17.57,-10.041 -8.36667,1.67334 -16.73333,4.18335 -25.1,7.53003 0,1.67399 0.83667,3.34733 2.51001,5.02002 z M 409.13,428.445 c 3.34666,5.02067 9.20333,11.71401 17.57,20.08 -8.36667,8.36667 -15.89667,1.67333 -22.59,-20.08 0,-3.34668 1.67334,-3.34668 5.02002,0 z m -27.61,22.59 c 6.69333,15.06 15.89667,25.1 27.61,30.12 11.71333,3.34666 21.75333,7.52999 30.12,12.55 6.69333,5.02 5.85666,12.55 -2.51001,22.59 -5.02,5.02002 -10.04,9.20335 -15.06,12.55 -6.69333,3.34668 -12.55,7.53035 -17.57,12.551 -6.69333,5.01933 -8.36666,8.36599 -5.01999,10.04 8.36667,3.34603 13.38667,8.36569 15.06,15.059 3.34668,11.71333 -1.67332,20.91667 -15.06,27.61 -11.71333,6.694 -22.59,14.224 -32.63,22.59 -13.38667,6.69333 -19.24333,15.89667 -17.57,27.61 1.67332,6.69333 5.85665,5.85666 12.55,-2.51001 6.69333,-6.69333 12.55,-10.04 17.57,-10.04 10.04,0 15.89667,4.18333 17.57,12.55 0,6.69333 -0.83666,13.38667 -2.50998,20.08 -3.34668,8.36733 -3.34668,17.57067 0,27.61 3.34666,8.36667 3.34666,13.38667 0,15.06 -6.69333,5.02002 -11.71333,3.34668 -15.06,-5.02002 -1.67334,-5.01998 -3.34668,-11.71331 -5.02002,-20.08 -1.67332,-5.02002 -5.85665,-10.87669 -12.55,-17.57 -8.36667,-3.34668 -11.71333,-4.18335 -10.04,-2.51001 5.02,6.69333 5.85667,13.38667 2.51001,20.08 -1.67334,3.34664 -10.87667,5.01996 -27.61,5.01996 -15.06,1.67334 -18.40667,5.02034 -10.04,10.041 3.34666,3.34599 12.54999,0.83565 27.61,-7.53101 10.04,-5.01998 15.89667,-2.50964 17.57,7.53101 0,5.01933 -1.67333,11.71233 -5.01999,20.079 -1.67334,5.02002 1.67333,9.20369 10.04,12.551 13.38667,3.34599 20.08,9.20232 20.08,17.569 1.67332,8.36733 0.83665,18.40733 -2.51001,30.12 -1.67334,6.69333 13.19605,6.27667 18.76581,11.57757 0.0312,1.38912 0.39271,1.25318 0.20549,2.89903 -7.34741,-0.45902 -16.31855,-2.22876 -21.4813,-9.4566 -3.34666,-5.01998 -5.01999,-13.38665 -5.01999,-25.1 1.67334,-11.71267 -3.34666,-18.406 -15.06,-20.08 -6.69333,-3.34664 -13.38667,-1.6733 -20.08,5.02002 -4.76423,5.95529 -15.98211,10.19896 -17.12175,17.10612 -0.40489,2.45393 -2.06771,0.58528 -4.40893,0.86702 -2.10686,-4.23729 -12.77265,-6.25981 -21.13932,-12.95314 -10.04,-6.69333 -15.89667,-14.22333 -17.57,-22.59 -3.34666,-11.71333 10e-6,-20.91633 10.04,-27.609 10.04,-8.36733 20.08,-14.22433 30.12,-17.571 16.73333,-5.02002 25.1,-11.71335 25.1,-20.08 0,-11.71333 -8.36667,-19.24333 -25.1,-22.59 -11.71333,-3.34668 -22.59,-8.36668 -32.63,-15.06 -11.71333,-8.36667 -17.57,-17.57 -17.57,-27.61 0,-6.69333 5.02,3.3e-4 15.06,20.081 5.02,5.01937 13.38667,9.20237 25.1,12.549 11.71333,3.34668 18.40667,4.18335 20.08,2.51001 3.34666,-6.69333 0.83666,-13.38667 -7.53,-20.08 -6.69333,-8.36667 -15.06,-14.22333 -25.1,-17.57 -6.69333,-5.01998 -15.06,-6.6933 -25.1,-5.01996 -10.04,1.67334 -19.24333,1.67334 -27.61,0 -8.36667,-5.02002 -17.57,-9.20335 -27.61,-12.55 -8.36667,-1.67269 -17.57,-2.50903 -27.61,-2.50903 -11.71333,1.67269 -23.42667,-9.8e-4 -35.14,-5.021 -8.36667,-5.01998 -16.73333,-10.87665 -25.1,-17.57 -8.36667,-5.01933 -14.22333,-10.87599 -17.57,-17.57 -3.34667,-16.73333 -2.51,-22.59 2.51,-17.57 3.34667,5.02002 8.36667,15.06005 15.06,30.1201 5.02,8.36667 16.73333,13.38667 35.14,15.06 13.38667,0 26.77333,2.50999 40.16,7.52997 13.38667,6.69333 25.1,8.367 35.14,5.021 10.04,-3.34733 19.24333,-9.20433 27.61,-17.571 10.04,-6.69333 20.08,-11.71333 30.12,-15.06 10.04,-5.02002 18.40667,-11.71335 25.1,-20.08 6.69333,-10.04 13.38667,-20.07967 20.08,-30.119 5.02,-5.02067 9.20333,-10.87767 12.55,-17.571 5.02,-3.34666 8.36667,-10.03999 10.04,-20.08 5.02,1.67334 10.04,1.67334 15.06,0 l 0,0 z m -57.73,100.401 c -10.04,-1.67399 -16.73333,2.50901 -20.08,12.549 -1.67332,5.02067 -0.83665,10.04067 2.51001,15.06 l 15.06,10.04 c 6.69333,3.34664 13.38667,4.18329 20.08,2.50995 10.04,-3.34664 14.22333,-9.20327 12.55,-17.5699 -3.34666,-13.38667 -13.38666,-20.91637 -30.12,-22.5891 z m 42.67,95.379 c -5.02,0 -5.02,3.34667 0,10.04 1.67334,5.02002 5.02001,8.36702 10.04,10.041 8.36667,1.67269 12.55,1.67269 12.55,0 -1.67332,-11.714 -9.20332,-18.40767 -22.59,-20.081 z m -15.06,50.201 c 1.67334,-5.02067 -5.01999,-3.34768 -20.08,5.01898 l -20.08,10.04 c -6.69333,5.01998 -8.36666,8.36665 -5.01999,10.04 6.69333,5.02067 13.38667,5.85734 20.08,2.51001 13.38667,-5.02002 21.75333,-14.22302 25.1,-27.609 z M 489.45,461.075 c 1.67332,10.04 5.85665,15.06 12.55,15.06 10.04,0 14.22333,0.837 12.55,2.51099 -3.34666,5.01933 -8.36666,6.69233 -15.06,5.01901 -3.34666,0 -6.69333,-0.83667 -10.04,-2.51001 -1.67334,-1.67267 -3.34668,-3.346 -5.02002,-5.01999 1.67334,-8.36667 2.51001,-15.89667 2.51001,-22.59 l 0,2.50998 c 1.67334,1.67334 2.51001,3.34668 2.51001,5.02002 z m -296.18,45.18 c 1.67333,11.71333 -1e-5,20.91667 -5.02,27.61 -1.67333,5.02067 -1.67333,-1.67266 0,-20.08 0,-8.36667 0.83666,-15.06 2.50999,-20.08 1.67334,-3.34599 2.51001,0.83735 2.51001,12.55 z m 253.51,12.55 c 6.69333,0 10.87667,2.51001 12.55,7.53003 0,3.34664 -2.51,5.85663 -7.53,7.52997 -8.36667,0 -13.38667,2.51034 -15.06,7.53101 -1.67332,5.01933 -1.67332,10.87566 0,17.569 5.02,13.38667 7.53,26.77333 7.53,40.16 l 0,42.67 c 1.67334,13.38667 0.83668,26.77333 -2.50998,40.16 -1.67334,13.38667 -0.83668,23.42667 2.50998,30.12 1.67334,3.34664 7.53001,2.50997 17.57,-2.51001 6.69333,-3.34668 15.06,-5.02002 25.1,-5.02002 l 12.55,0 c -6.69333,3.34668 -14.22333,5.02002 -22.59,5.02002 -11.71333,1.67334 -18.40667,6.69334 -20.08,15.06 0,3.34733 5.02,5.021 15.06,5.021 6.69333,1.67269 8.36666,3.34568 5.01999,5.01898 -3.34666,1.67334 -8.36666,1.67334 -15.06,0 -8.36667,0 -14.22333,-2.50999 -17.57,-7.52997 -1.67332,3.34668 -5.01999,3.34668 -10.04,0 -3.34668,-3.34668 -3.34668,-9.20335 0,-17.57 -1.67334,5.01998 -0.83668,0.83698 2.50998,-12.549 3.34668,-11.714 4.18335,-23.42767 2.51001,-35.141 -1.67334,-11.71333 -4.18334,-22.59 -7.53,-32.63 -1.67334,-11.71333 -3.34667,-22.59 -5.01999,-32.63 0,-3.34668 0.83666,-10e-6 2.50998,10.04 3.34668,16.73333 5.85668,22.58997 7.53,17.5699 5.02,-13.386 5.85667,-28.446 2.51001,-45.18 -3.34666,-10.04 -5.01999,-20.08 -5.01999,-30.12 -1.67334,-8.36667 -0.83668,-16.73333 2.50998,-25.1 l 10.04,-5.02002 0,0 z m 391.56,17.57 c -5.02002,8.36667 -11.71335,13.387 -20.08,15.061 -11.71333,0 -23.42667,-0.837 -35.14,-2.51099 l -37.65,0 -37.65,0 -37.65,0 c -11.71333,0 -23.42667,-0.83667 -35.14,-2.51001 l -37.65,0 c -11.71333,1.67334 -23.42667,2.51001 -35.14,2.51001 -13.38667,0 -25.93667,1.67334 -37.65,5.02002 -13.38667,3.34668 -26.77333,5.02002 -40.16,5.02002 -25.1,6.69333 -35.14,4.18365 -30.12,-7.52905 1.67334,-5.02063 13.38667,-5.02063 35.14,0 10.04,1.67269 21.75333,0.83569 35.14,-2.51099 11.71327,-1.67334 23.4266,-2.51001 35.14,-2.51001 11.7134,0 24.2634,-0.83665 37.65,-2.50995 l 35.14,0 32.63,0 32.63,0 30.12,0 32.63,0 32.6299,0 c 11.71333,1.6733 22.59,1.6733 32.63,0 5.02002,0 0.83669,-0.83634 -12.55,-2.50903 l -35.14,0 -32.63,0 -32.6299,0 -32.63,0 -35.14,0 -32.63,0 -32.63,0 -32.63,0 c -10.04,0 -20.91667,0.83634 -32.63,2.50903 -11.71333,1.6733 -22.59,1.6733 -32.63,0 -8.36667,-3.34668 -15.89667,-3.34668 -22.59,0 -6.69333,6.69333 -11.71333,9.20365 -15.06,7.53094 -10.04,-3.34733 -8.36666,-8.36767 5.02002,-15.061 8.36667,-1.67334 19.24333,-0.83667 32.63,2.51001 10.04,1.67399 20.91667,1.67399 32.63,0 10.04,-1.67334 20.91667,-1.67334 32.63,0 l 35.14,0 32.63,0 32.63,0 c 11.71333,-1.67334 23.42667,-2.51001 35.14,-2.51001 l 32.63,0 32.63,0 c 16.73333,-1.67334 33.46667,-0.83667 50.2,2.51001 20.08,3.34668 30.95667,0.83667 32.63,-7.53003 1.67334,-6.69333 -8.36666,-7.53 -30.12,-2.51001 -10.04,1.67334 -21.75333,1.67334 -35.14,0 l -32.63,0 -32.63,0 c -13.38667,-1.6733 -26.77333,-1.6733 -40.16,0 l -45.18,0 c -20.08,0 -26.77333,-1.67332 -20.08,-5.01996 10.04,-1.67334 20.91667,-1.67334 32.63,0 l 35.14,0 c 11.71333,-1.67334 23.42667,-1.67334 35.14,0 l 35.14,0 c 11.71333,-1.67334 23.42667,-1.67334 35.14,0 10.04,1.67334 19.24333,2.51001 27.61,2.51001 l 35.14,-5.02002 c 3.34668,5.01998 5.85669,10.03998 7.53003,15.06 l 0,0 z m -256.02,-10.04 c -6.69333,5.01998 -19.24333,5.85663 -37.65,2.50995 -11.71333,-3.34664 -25.1,-3.34664 -40.16,0 -23.42667,3.34668 -31.79333,2.51003 -25.1,-2.50995 6.69333,-5.02002 18.40667,-5.85669 35.14,-2.51001 l 32.63,0 c 30.12,-5.02002 41.83333,-4.18335 35.14,2.51001 z m -130.52,40.16 c 5.02,6.69333 7.53,14.22333 7.53,22.59 0,8.36667 -1.67333,16.73367 -5.01999,25.101 -1.67334,10.03933 -0.83667,16.73267 2.51001,20.08 11.71333,6.69267 20.91667,6.69267 27.61,0 5.02,-1.67399 10.04,-6.69433 15.06,-15.061 1.67334,0 7.53001,0.83667 17.57,2.51001 5.02002,3.34664 10.87669,9.20327 17.57,17.5699 5.01998,5.02002 14.22331,6.69336 27.61,5.02002 l 30.12,0 c 11.71333,-1.67334 23.42667,-2.51001 35.14,-2.51001 10.04,1.67334 20.91667,3.34668 32.63,5.02002 11.71333,1.67334 24.26333,2.51001 37.65,2.51001 13.38667,1.67334 26.77333,3.34666 40.16,5.01996 11.71333,3.34668 24.26333,5.02002 37.65,5.02002 11.71327,0 23.4266,0.83667 35.14,2.51001 8.36667,3.34733 10.87668,7.53067 7.53003,12.55 -1.67334,3.34668 -6.69334,5.02002 -15.06,5.02002 -8.36666,0 -16.73333,0.83667 -25.1,2.51001 -6.69333,1.67334 -12.54997,2.51001 -17.5699,2.51001 -11.71333,1.6733 -22.59,2.50995 -32.63,2.50995 l -32.63,0 c -11.71333,0 -22.59,0.83667 -32.63,2.51001 l -32.63,0 -32.63,0 -40.16,0 -40.16,0 c -15.06,-3.34664 -28.44667,-2.50997 -40.16,2.51001 -15.06,6.69333 -25.1,7.53 -30.12,2.51001 -3.34666,-6.69333 -2.50999,-18.40667 2.51001,-35.14 1.67332,-10.04 0.83665,-20.91667 -2.51001,-32.63 0,-11.71333 0.83667,-23.42667 2.51001,-35.14 1.67332,-11.71327 1.67332,-22.5899 0,-32.6299 l 2.50998,0 c -1.67332,3.34664 -1.67332,5.85663 0,7.52997 z m 5.02,85.34 c 5.02,10.04067 11.71333,13.38733 20.08,10.04 1.67334,-1.67334 7.53001,-4.18335 17.57,-7.53003 0,1.67334 5.02,4.18335 15.06,7.53003 10.04,3.34733 14.22333,-1.67267 12.55,-15.06 -1.67334,-3.34668 -7.53001,-4.18335 -17.57,-2.51001 -8.36667,1.67334 -16.73333,1.67334 -25.1,0 -6.69333,-1.67334 -13.38667,-2.51001 -20.08,-2.51001 -5.02,0 -5.85666,3.34667 -2.50998,10.04 z m 384.03,-72.79 c 5.02002,10.04 5.85669,19.24333 2.51001,27.61 -3.34664,13.38667 -10.87664,20.08 -22.59,20.08 -11.71336,0 -22.59003,-1.67332 -32.63,-5.01996 -18.40667,1.6733 -35.97667,1.6733 -52.71,0 -10.04,-1.67334 -20.91667,-3.34668 -32.63,-5.02002 -11.71333,-1.67269 -24.26333,-1.67269 -37.65,0 -11.71333,3.34668 -22.59,4.18335 -32.63,2.51001 -11.71333,-1.67334 -22.59,-1.67334 -32.63,0 -6.69333,1.67334 -13.38667,2.51001 -20.08,2.51001 -6.69333,1.6733 -14.22333,0.83663 -22.59,-2.51001 -6.69333,-1.67334 -13.38667,-4.18335 -20.08,-7.53003 -6.69333,-1.67334 -10.87667,-5.02001 -12.55,-10.04 -3.34668,-5.02002 -3.34668,-10.04002 0,-15.06 5.01998,-6.69333 11.71331,-10.87667 20.08,-12.55 18.40667,-5.02002 35.14,-3.3467 50.2,5.01996 5.02002,3.34668 1.67335,7.53001 -10.04,12.55 -5.02002,3.34668 -10.87669,5.02002 -17.57,5.02002 -8.36667,0 -14.22333,2.51034 -17.57,7.53101 -1.67334,1.67269 0.83665,3.34568 7.52997,5.01898 6.69333,1.67334 13.38667,2.51001 20.08,2.51001 8.36667,1.67399 15.89667,2.51099 22.59,2.51099 l 17.57,0 c 11.71333,-1.67399 23.42667,-2.51099 35.14,-2.51099 l 35.14,0 35.14,0 c 11.71333,1.67399 23.42667,2.51099 35.14,2.51099 11.71333,-1.67399 23.42667,-1.67399 35.14,0 l 35.14,0 c 5.02002,0 8.36669,-1.67367 10.04,-5.021 1.6733,-5.01998 2.50995,-10.87665 2.50995,-17.57 -1.6733,-6.69333 -2.50995,-13.38633 -2.50995,-20.079 l 0,-7.53101 c 0,5.02067 0.83665,10.04067 2.50995,15.06 l 0,0 z m 95.38,-5.02 37.65,0 c 11.71333,1.6733 23.42667,1.6733 35.14,0 l 35.14,0 c 23.2755,-0.15117 31.3071,-1.67335 48.0644,4.04757 1.6734,23.42667 2.1355,44.4791 2.1355,51.17243 0,5.02002 8.3667,5.85669 25.1,2.51001 16.7334,33.46667 17.5701,68.60667 2.51,105.42 -45.18,3.34668 -109.6033,5.02002 -193.26998,5.02002 -5.02002,8.36667 -11.71335,19.24333 -20.08,32.63 -6.69333,10.04 -19.24333,15.06 -37.65,15.06 -13.38667,0 -26.77333,0.837 -40.16,2.51099 l -32.63,0 c -10.04,-1.67399 -20.91667,-1.67399 -32.63,0 l -256.02,0 c -10.04,0 -20.91667,-0.837 -32.63,-2.51099 l -30.12,0 -32.63,0 c -3.34666,-3.34668 -5.85666,-5.02002 -7.53,-5.02002 15.06,0 20.08,-0.83667 15.06,-2.51001 -8.36667,0 -16.73333,-1.67332 -25.1,-5.01996 -3.34666,-3.34668 -5.01999,-10.04001 -5.01999,-20.08 1.67334,-10.04 4.18334,-15.89633 7.53,-17.569 13.38667,-5.02063 21.75333,-2.51094 25.1,7.52905 3.34666,8.36733 7.52999,15.89733 12.55,22.59 6.69333,5.02002 17.57,6.69336 32.63,5.02002 10.04,-1.67334 20.91667,-1.67334 32.63,0 6.69333,-1.67334 1.67333,-3.34668 -15.06,-5.02002 -11.71333,0 -18.40667,-1.67334 -20.08,-5.02002 -3.34666,-6.69333 0.83667,-10.87667 12.55,-12.55 11.71333,-1.67333 22.58999,-1.67333 32.63,0 l 32.63,0 32.63,0 32.63,0 c 11.71333,-1.67334 23.42667,-2.51001 35.14,-2.51001 l 97.89,0 c 10.04,3.34668 20.91667,4.18335 32.63,2.51001 15.06,-5.01998 25.93663,-5.01998 32.6299,0 l -15.06,17.57 c -5.01998,11.71333 -0.83665,14.22334 12.55,7.53003 5.01998,-3.34668 20.07998,-14.22335 45.18,-32.63 10.04,3.34664 20.91667,3.34664 32.63,0 23.42667,-5.02002 47.69,-8.36669 72.79,-10.04 25.1,1.67334 49.36337,2.51001 72.78997,2.51001 3.3467,-1.67334 6.6934,-3.34666 10.04,-5.01996 l 2.51,0 c 6.6933,1.6733 13.3866,1.6733 20.08,0 8.3667,-1.67269 4.1834,-4.1827 -12.5499,-7.53003 -10.04,1.67334 -20.0801,3.34701 -30.1201,5.021 -10.04,0 -20.07996,-0.837 -30.11996,-2.51099 -8.36667,0 -16.73333,-1.67334 -25.1,-5.02002 -6.69333,-3.34668 -12.55,-8.36668 -17.57,-15.06 -3.34668,-5.01998 -7.53001,-5.85665 -12.55,-2.51001 13.38667,-25.09933 -6.69333,-42.66933 -60.24,-52.71 6.69333,-5.02002 14.22333,-9.20335 22.59,-12.55 10.04,-3.34599 16.73333,-2.50932 20.08,2.51001 3.34664,8.36667 8.36664,15.89667 15.06,22.59 5.01998,3.34668 12.54998,2.51001 22.59,-2.51001 10.04,-1.67334 20.08,-4.18335 30.12,-7.53003 10.04,-3.34664 20.91666,-5.85663 32.62996,-7.52997 10.04,5.01998 20.0801,7.52997 30.1201,7.52997 16.7334,-3.34664 32.63,-5.85663 47.6899,-7.52997 8.3667,3.34668 17.57,10.04035 27.61,20.081 5.0201,5.01933 4.1834,0.83566 -2.51,-12.551 -1.6733,-3.34664 -5.8566,-5.01996 -12.5499,-5.01996 -5.02,0 -9.2033,-1.67334 -12.55,-5.02002 -6.6933,-1.67334 -9.2033,-5.85667 -7.53,-12.55 5.02,-13.38667 4.1834,-24.26333 -2.51,-32.63 -6.6933,-10.04 -19.2432,-15.06 -37.6499,-15.06 -18.4067,0 -35.9767,-0.83667 -52.71001,-2.51001 -13.38667,0 -26.77333,0.83667 -40.16,2.51001 -5.01998,-3.34668 -10.87665,-6.69335 -17.57,-10.04 l 0,0 z m 117.97,87.85 c -10.0399,1.67334 -20.9166,1.67334 -32.6299,0 -11.7133,0 -24.26333,0.83667 -37.65,2.51001 -13.38667,1.67399 -23.42667,5.02066 -30.12,10.04 -8.36667,8.36667 -10.03999,16.73333 -5.01996,25.1 6.69333,10.04 14.22333,13.38667 22.59,10.04 22.94375,-2.76595 28.41257,7.65 47.68996,12.55003 15.06,-3.34668 29.2833,-4.18335 42.67,-2.51001 l 40.16,0 c 6.6933,0 11.7133,-1.67332 15.0599,-5.01996 0,-1.67334 -2.51,-1.67334 -7.53,0 -5.02,-1.67334 -10.04,-2.51001 -15.0601,-2.51001 -5.02,0 -7.53,-1.67334 -7.53,-5.02002 1.6734,-1.67334 4.1834,-5.85667 7.53,-12.55 3.3467,-11.71267 4.1834,-20.91567 2.5101,-27.609 -6.6934,-8.36733 -20.9167,-10.041 -42.67,-5.021 z m -170.68,15.061 c 0,6.69267 -2.51001,16.73233 -7.53003,30.119 -3.34668,5.02002 -15.89668,10.04002 -37.65,15.06 -10.04,5.02067 -2.51,10.87767 22.59,17.571 10.04,0 21.75333,-0.837 35.14,-2.51099 13.38667,0 24.26333,-1.67332 32.63,-5.01996 6.69333,-3.34668 6.69333,-9.20335 0,-17.57 -3.34668,-5.02002 -7.53001,-6.69336 -12.55,-5.02002 -8.36667,1.67334 -15.06,4.18333 -20.08,7.52997 -8.36667,6.69333 -13.38667,8.36667 -15.06,5.02002 -3.34668,-1.67334 -1.67334,-5.85667 5.02002,-12.55 3.34664,-6.69333 7.52997,-10.87633 12.55,-12.549 5.01998,-1.67399 10.87665,-0.83765 17.57,2.50903 6.69333,1.6733 10.87667,0.83696 12.55,-2.50903 5.01998,-8.36733 4.18331,-15.06067 -2.51001,-20.08 -16.73333,-11.714 -30.95667,-11.714 -42.67,0 z M 652.6,764.785 c 6.69333,1.67334 12.55,3.34668 17.57,5.02002 l 25.1,0 c 6.69333,-1.67334 13.38667,-2.51001 20.08,-2.51001 8.36667,0 11.71333,-0.83667 10.04,-2.51001 -5.02002,-3.34599 -10.04002,-4.18264 -15.06,-2.50995 l -57.73,0 z m -32.63,10.04 c -8.36667,3.34664 -16.73333,4.18331 -25.1,2.51001 -13.38667,-1.67334 -18.40667,-0.83669 -15.06,2.50995 1.67334,3.34668 7.53001,5.02002 17.57,5.02002 8.36667,-1.67334 15.89667,-1.67334 22.59,0 6.69333,0 12.55,-1.67334 17.57,-5.02002 -5.01998,-1.6733 -10.87665,-3.34662 -17.57,-5.01996 z M 496.98,586.575 c 6.69333,11.714 1.67333,23.42733 -15.06,35.14 l -5.02002,0 c -1.67332,-1.67334 -3.34665,-2.51001 -5.01999,-2.51001 -6.69333,-11.71333 -7.53,-21.75333 -2.51001,-30.12 11.71333,-15.06 20.91667,-15.89667 27.61,-2.51001 z m 569.77,17.571 c 10.0401,3.34599 15.8967,9.20232 17.5699,17.569 1.6733,5.01998 0,10.03998 -5.0199,15.06 -6.6933,5.01998 -12.55,8.36665 -17.5701,10.04 -8.3666,1.67334 -15.8966,1.67334 -22.59,0 -11.7133,-3.34668 -15.8967,-8.36668 -12.55,-15.06 1.6733,-5.02002 8.3667,-5.85669 20.0801,-2.51001 11.7133,3.34733 18.4066,2.51066 20.08,-2.51001 5.02,-11.71333 2.51,-16.73333 -7.53,-15.06 -21.7534,5.02002 -30.9567,5.02002 -27.61,0 5.02,-11.71333 16.7333,-14.223 35.14,-7.52898 z m -45.18,-5.021 c -1.6733,6.69333 0,11.71367 5.02,15.061 5.02,5.01937 10.8767,5.85571 17.5701,2.50903 8.3666,-1.67269 14.2232,-0.83602 17.5699,2.51001 3.3466,5.01998 1.6733,7.52997 -5.0201,7.52997 l -22.59,0 c -8.3666,0 -15.8966,3.34667 -22.59,10.04 -6.6933,5.01998 -15.05996,7.52997 -25.09996,7.52997 -10.04,0 -18.40667,-2.50999 -25.1,-7.52997 -13.38667,-10.04 -17.57,-19.24333 -12.55,-27.61 5.01998,-10.04 14.22331,-13.38667 27.61,-10.04 l 45.17996,0 0,0 z m -87.85,20.08 c 3.34668,11.71333 0.83669,18.40667 -7.52997,20.08 -6.69333,-3.34599 -19.24333,-5.85598 -37.65,-7.52997 -18.40667,-1.67334 -28.44667,-5.02001 -30.12,-10.04 -3.34664,-6.69333 5.85669,-9.20302 27.61,-7.52905 15.06,3.34603 30.95663,5.01904 47.6899,5.01904 l 0,0 z m -42.67,5.02 c 1.67334,6.694 8.36667,8.36734 20.08,5.02002 3.34668,5.02002 7.53001,4.18335 12.55,-2.51001 -10.04,0 -17.57,-2.50999 -22.59,-7.52997 -1.67334,0 -5.02001,1.67332 -10.04,5.01996 z m -50.2,7.53 c 8.36667,3.34668 13.38667,9.20335 15.06,17.57 l -7.52997,5.01996 c -5.02002,1.67334 -6.69336,9.20367 -5.02002,22.591 -3.34664,10.03933 -6.69331,13.38567 -10.04,10.039 -10.04,-3.34664 -10.04,-10.03964 0,-20.079 0,-11.714 2.50999,-23.42767 7.52997,-35.141 l 0,0 z m -321.28,80.32 c 11.71333,0 25.1,0.83667 40.16,2.51001 15.06,0 29.28333,-0.83667 42.67,-2.51001 20.08,-3.34668 40.16,-3.34668 60.24,0 0,1.67334 1.67332,3.34666 5.01996,5.01996 10.04,6.69333 14.22333,6.69333 12.55,0 -1.67334,0 -7.53001,0.83667 -17.57,2.51001 -13.38667,1.67334 -27.61,1.67334 -42.67,0 -11.71327,1.67334 -25.09993,2.51001 -40.16,2.51001 -20.08,0 -32.63,4.18333 -37.65,12.55 -5.01998,8.36667 5.85669,10.04033 32.63,5.021 8.36667,-1.67399 18.40667,-3.34766 30.12,-5.021 10.04,1.67334 20.91667,1.67334 32.63,0 l 32.63,0 30.12,0 32.63,0 95.38,0 c 6.69333,5.02002 -10.04,9.20335 -50.2,12.55 -13.38667,-1.67334 -54.38333,-1.67334 -122.99,0 -11.71333,-1.67334 -23.42667,-2.51001 -35.14,-2.51001 l -37.65,0 c -11.71333,1.67334 -24.26333,2.51001 -37.65,2.51001 l -30.12,0 c -11.71333,1.6733 -23.42667,1.6733 -35.14,0 -13.38667,-1.67334 -17.57,-3.34668 -12.55,-5.02002 10.04,-1.67269 21.75333,-1.67269 35.14,0 11.71333,3.34668 19.24333,0.83667 22.59,-7.53003 -13.38667,5.02002 -23.42667,5.02002 -30.12,0 -8.36667,-5.01998 -7.53,-10.03998 2.51001,-15.06 l 7.53,12.55 c 5.01998,6.69333 10.87665,5.01999 17.57,-5.02002 3.34664,-5.02002 2.50997,-7.53003 -2.51001,-7.53003 -5.02002,-1.67334 -5.02002,-4.18333 0,-7.52997 z m 298.69,5.02 c -10.04,3.34668 -20.91667,5.85669 -32.63,7.53003 -13.38667,-3.34668 -26.77333,-4.18335 -40.16,-2.51001 -18.40667,3.34668 -30.95667,1.67334 -37.65,-5.02002 -8.36667,-5.01998 2.51,-5.01998 32.63,0 11.71333,1.67334 23.42667,1.67334 35.14,0 8.36667,-1.6733 17.57,-2.50995 27.61,-2.50995 5.01998,0 10.03998,0.83665 15.06,2.50995 z m -195.78,7.53 c -13.38667,3.34733 -25.93667,6.694 -37.65,10.04 -6.69333,1.67334 -10.04,3.5e-4 -10.04,-5.01898 0,-1.67399 2.51001,-3.34766 7.53003,-5.021 l 20.08,0 c 5.01998,0 10.87661,-0.83667 17.5699,-2.51001 l 10.04,0 -7.53003,2.51001 z"
       id="path3067"
       inkscape:connector-curvature="0"
       style="fill:currentColor"
       sodipodi:nodetypes="ccccccsccccccccccccscscccccccccccccccccccsccccsccscccccsccccccccccsccccccccsccccsccsccccccccccccccsccccccccccsccccccccccccccccccsccccccscccccsccccscccccccccccccccccccccccsccccccccccssccccsccccccccccscccccccccsscccccccccccccccccccccccccsccccccccccscccccccccccccccccccccccccsccccccccscccccccccssccccscccccccscccccccccccccccccccsccccsccccccssccccccsccccccccccccccccccccccccccsccccscccccccccsscscccccccccsccccccscccscsccccccccccccccccccccccsccccccscccccccsccccccccccccccccccccccccccccccccsccccccccsccccccccccccccscccccsccscscccscccccccccccccccccccccccccccccccccccccccccscccccccccccccccccsccsssccccscccccscccccccccccccccsccscccccsccccccccccccccccscccccccccccscccccccccsccccccccscccccsccccscccccccccsccsccsccsscccccccccsccccccccccccccccsccccccccccccccscscscsccccsccscccccccccsccccscccscccccccccccccssccccscccccccccccccccccccccccsccccsscccscccccccccccccsccscccccccccccccccccccccccccsccccccccccccccccccccccccccscccccccccsscsccccccccccccccccccccccccccccccccccccsscccccccccscsccccccccscccccccccscccc" />
  </g>
</svg>
