<?xml version="1.0" encoding="UTF-8" standalone="no"?>
<!-- Created with Inkscape (http://www.inkscape.org/) -->

<svg
   xmlns:dc="http://purl.org/dc/elements/1.1/"
   xmlns:cc="http://creativecommons.org/ns#"
   xmlns:rdf="http://www.w3.org/1999/02/22-rdf-syntax-ns#"
   xmlns:svg="http://www.w3.org/2000/svg"
   xmlns="http://www.w3.org/2000/svg"
   version="1.1"
   width="100%"
   height="100%"
   viewBox="0 -1008 1133 1000"
   id="svg3351">
  <metadata
     id="metadata3361">
    <rdf:RDF>
      <cc:Work
         rdf:about="">
        <dc:format>image/svg+xml</dc:format>
        <dc:type
           rdf:resource="http://purl.org/dc/dcmitype/StillImage" />
        <dc:title></dc:title>
      </cc:Work>
    </rdf:RDF>
  </metadata>
  <defs
     id="defs3359" />
  <g
     id="layer6"
     style="display:inline">
    <path
       d="m -1203.5339,883.31254 c -70.9417,-49.77085 -27.7896,-182.85105 -58.6039,-263.2617 -5.5707,-52.90123 -8.7116,-112.23649 1.0315,-17 4.2643,39.16198 14.7264,98.33775 14.7154,124.1686 11.4113,34.9335 9.8298,21.9912 7.8366,54.5814 9.1381,32.59911 -10.9156,88.31918 28.0003,96.4852 71.5503,-10.42837 184.2104,-79.13228 269.77715,-115.0819 182.02262,-84.24515 362.13727,-174.35454 545.20075,-255.0881 -268.2905,124.32851 -533.35978,257.52079 -804.0242,375.7859 l -3.9361,-0.5885 0,-9e-4 z m -33.8894,-129.6771 c -14.3795,-8.76061 22.5868,-9.66747 0,-10e-5 z m -9.615,-67.5846 c -9.8169,-42.03369 0.3983,-30.55448 0,0 z m -25.4578,-135.25 c -27.9949,-101.04772 -34.3312,-252.01274 113.7113,-225.72244 281.07578,-36.68834 560.60701,-84.55743 841.58544,-121.57173 127.20509,71.56971 253.350301,-34.33068 374.443522,-80.44998 C 116.72728,100.87271 97.794209,89.018043 89.299439,37.108773 155.32858,35.949665 283.63349,64.410761 239.08,-14.94916 251.43599,-43.102063 309.44202,69.162928 375.7994,13.07157 352.71646,34.976332 335.66916,32.902454 313.31407,38.335879 298.29172,25.316818 325.41203,20.488498 288.0753,28.3532 277.48826,20.211877 249.13499,-1.3403696 252.56269,11.567667 271.638,15.9001 238.50856,62.999396 203.9961,51.8478 92.632041,40.845974 93.1749,31.062779 113.5015,91.63993 c 22.3462,-5.228438 63.24781,-21.745981 69.9624,-17.1478 -34.37357,9.915455 -56.92949,30.18197 -77.6666,38.6823 -3.88005,17.14685 -110.3330703,100.84052 -205.82343,168.9989 33.644766,-3.60375 137.390999,-6.47384 232.56277,-20.16787 -6.06615,14.49177 -34.918351,15.18547 -49.70651,28.9416 -41.101895,38.23348 -226.21754,54.48018 -261.89641,84.41391 -47.50616,39.85654 -129.04072,141.36336 -51.69557,128.49703 -12.77591,10.59329 -25.14016,20.15663 -36.90346,28.43833 -56.36925,39.68558 -100.73792,-24.70725 -107.79303,-34.70764 11.63557,-38.36921 -919.26526,442.70511 -814.09156,353.3573 -36.445,0.25796 -81.2964,-273.51856 180.8084,-457.55122 173.08278,-121.5273 691.22678,-180.26474 680.49112,-179.51 85.78213,76.18226 158.12502,24.03887 285.71628,-42.93584 -62.0924,24.08474 -131.48045,77.84861 -203.75,61.9848 -10.9974,-5.17592 -21.34625,-12.88145 -28.9914,-18.3063 -57.07946,-23.01899 -119.57123,8.38624 -179.4051,9.64944 -101.09664,15.75683 -183.60356,28.28167 -286.20501,43.29456 -169.48119,25.87129 -340.49749,46.06394 -509.07529,75.0269 -31.8748,46.3634 5.3735,-19.98611 -25.2206,16.6073 -16.514,34.87248 -4.5021,124.82205 -2.7467,72.8474 5.0465,74.75298 24.7183,242.86726 5.4322,118.7497 l -10e-5,-0.002 z m -1.3504,-40.4567 c -8.9522,-97.48728 -6.2832,-25.63287 0,0 z M -198.33835,462.1746 c 132.225567,-313.44973 66.11278,-156.72487 0,0 z m -49.04099,17.73391 c 5.75614,-41.73584 75.2206,-42.04059 110.41254,-95.39907 12.51158,-1.24116 11.87086,-3.40559 14.0718,-7.4431 3.47991,4.62049 7.52514,14.10237 64.381987,-26.26045 -71.451787,63.80028 -59.503737,45.49407 -105.042537,87.04103 -46.43487,36.53733 -51.65496,8.78493 -83.82379,42.06159 z M -1271.5422,465.06424 c -6.0891,-17.3637 7.7246,3.60777 0,0 z m -1.507,-49.7634 c -12.0558,-7.26429 11.1215,-32.26419 0,0 z M 151.9661,405.02244 C 73.737214,398.7358 30.990668,283.23 -53.3264,349.19264 c 32.74734,-27.13487 69.234561,-14.63703 65.9596,-29.8078 10.949132,4.74048 72.429412,68.75656 65.8038,-11.3338 8.478161,53.88429 -85.139076,7.62489 -37.8588,1.6814 33.485004,-10.8198 80.80598,-31.17995 111.3973,-31.6814 41.17297,5.34311 -32.37404,41.11008 -24.8308,34.726 -15.60427,18.25052 -17.27,13.16045 -22.7494,47.0515 52.18449,49.1489 -2.32205,29.71451 -31.4292,-1.836 -14.150373,-50.99558 8.625226,54.56742 61,39.0838 27.88943,6.8424 48.66063,7.66569 86.8576,0.9759 41.50717,-2.619 83.1572,-18.38329 114.8924,-46.0392 -57.24033,36.22367 -128.24281,43.79222 -195.51398,44.54562 -42.494403,-27.5162 11.30778,-85.9491 -4.48602,-83.52252 -18.8312,22.89985 1.47418,-2.55287 9.8235,-9.8634 37.19597,-26.55933 67.81152,-9.39646 90.6325,-42.5353 34.30163,-22.8389 41.69823,-13.40228 51.3682,-13.0563 58.95906,-15.94125 77.30042,122.67153 67.31254,31.41792 -51.23412,-49.49882 -22.96254,-33.83742 0.11326,-60.63472 -43.50963,-11.15096 53.89302,21.8715 -33.0899,19.976 85.81635,50.09128 12.86795,153.49376 -63.1333,156.6088 -34.51312,10.16245 -71.05033,11.67241 -106.7768,10.0733 z m 33.5,-12.5216 c 107.32662,29.05131 246.84049,-130.15771 80.2292,-143.086 -87.1357,46.62962 -4.51886,175.52501 -56.5895,103.086 -0.55222,-58.93029 -4.07613,-104.69559 -81.53504,-24.59524 -37.134293,38.61276 19.19419,83.21031 57.89534,64.59524 z m -76.4702,-11.3943 c -30.876616,-49.59178 87.2427,-131.03402 3.4702,-87.573 -50.9496,16.81715 -53.133855,70.56151 -3.4702,87.573 z m 127.7853,-4.9854 c -51.15918,-15.16957 0.31407,-140.78417 9.1795,-116.0789 -30.30613,26.62261 -31.69636,17.0532 -39.496,63.5287 0.13369,14.19937 13.79779,57.52181 30.3165,52.5502 z m -14.8151,-5.8481 c -9.66399,-12.07949 -12.40812,-9.6265 0,0 z m 126.8786,-29.045 c 21.19047,-55.44777 -13.41689,23.34709 0,0 z M 70.1108,331.05084 c 11.797541,-33.96693 -10.997667,18.84808 0,0 z m -8.1685,-3.1475 c 81.42589,-71.62773 -95.405281,11.0717 0,0 z m 19.624,-17.3045 c 15.750608,-17.88063 -21.821371,20.38194 0,0 z m 18.1606,-11.548 c 5.37096,-9.96391 -23.692107,15.23108 0,0 z m -1375.7608,70.1986 c 7.9655,-19.07474 10.0538,-10.02416 0,0 z m 1397,-48.0243 c 10.96224,-16.87174 5.61343,0.93625 0,0 z m 30.5363,-23.1156 c 7.77119,-8.47285 14.02072,-2.21802 0,0 z m 91.4637,-45.5202 c 26.7478,-13.15145 5.92589,3.82227 0,0 z m 165.323,-21.2522 c 129.75388,-2.7635 95.88584,-4.36027 121.427,-6.597 19.11799,7.57397 107.00989,-10.53628 13.0463,5.01105 -44.7944,1.1146 -89.67063,3.28216 -134.4733,1.58595 z m -236.5096,-3.346 c -31.00581,11.41712 -110.877957,-23.44326 -59.8134,-33.9717 -24.904174,5.50639 25.35357,16.57966 19.3455,19.7967 0.26494,-6.30032 46.28337,6.33307 35.0722,-1.0954 20.56309,-7.43718 -13.28177,-4.77495 -28.7231,-17.5075 21.55384,5.51006 4.60622,-17.67113 -8.5496,-0.7521 -28.35556,-8.27297 50.48678,-15.17655 40.0871,-11.4104 -41.80562,13.75949 -17.32908,19.51501 6.3309,20.6823 -10.86975,18.84789 7.89902,20.49742 30.9372,12.714 68.80719,-0.26348 -16.91939,-10.99525 41.9688,-6.2747 1.63524,20.6492 15.99996,13.76051 20.5312,5.8423 60.1334,4.84661 -37.50726,-7.2284 -34.3366,2.9049 -23.60643,2.7077 20.41244,5.02041 -62.8502,9.0716 z m 9.6866,-3.1745 c 57.6026,-2.15956 -5.76627,0.5734 -9.1722,-2.6195 -27.40327,0.64119 4.64246,3.35098 9.1722,2.6195 z m -34.1667,-0.6893 c -29.27238,-3.42129 -15.21087,-1.65698 0,0 z m 98.0492,-1.2666 c -0.26465,-4.53229 -14.90603,-0.37996 0,0 z m -86.9643,-1.4169 c 4.28186,-8.03874 -30.84956,-2.62772 0,0 z m 67.5818,-1.0655 c -25.89211,-6.92846 -47.74772,3.97349 0,0 z m -114.9257,-3.658 c -8.62107,-9.7505 -5.27231,-6.0441 0,0 z m 8.5614,-0.1757 c -3.43005,-6.04229 -12.91292,0.49799 0,0 z m 60.7099,-1.4673 c -50.83591,-4.04222 -29.65456,4.44869 0,0 z m -27.3456,-25.2962 c -19.13142,-4.31107 -22.17016,3.18003 0,0 z m 233.0153,38.5801 c -15.87826,-4.09144 26.28851,-1.2886 0,0 z m 37.2012,-3.0441 c 22.38623,-1.35121 4.2513,1.35556 0,0 z m 104.5542,-4.4975 c -120.87105,-6.81716 115.64649,-7.27374 11.7293,-6.9167 48.85358,20.71028 23.53392,-49.21368 39,-42.883 39.66793,13.4476 -3.80823,57.56777 -50.7293,49.7997 z m 116.649,1.103 c 37.33912,-6.71379 27.22933,1.87526 0,0 z m -202.422,-1.1218 c 25.59823,-2.08194 21.92647,1.73392 0,0 z m 98.5023,0.4537 c 11.97146,-2.61259 -5.91757,2.29778 0,0 z m -217.6111,-1.7351 c 1.97874,-14.75896 6.23273,-1.55497 0,0 z m 400.1111,-0.3854 c 2.7667,-1.69897 36.44684,-31.98323 17.2101,-49.5499 -11.31037,-41.53118 34.60191,52.45759 -17.2101,49.5497 z m 27.09,-3.0276 c 54.81183,-9.13229 81.73827,-15.67873 115.41,-9.053 92.22533,-10.58859 167.6654,-14.48359 248.6246,-21.89135 -62.6233,-3.07473 -88.2458,1.12837 -116.01174,-8.2371 15.09034,-10.33077 61.44354,5.1039 109.88694,-2.87785 5.0005,-49.54326 420.3662,-33.05276 404.5557,-35.0934 74.9829,9.19566 -62.2499,-20.41753 47.9443,3.5874 -164.7724,20.80931 -43.8674,10.61655 23.62,23.65663 -214.9362,16.14232 -618.91375,38.2254 -834.0298,49.90867 z m -556.09,-1.1268 c 1.30567,-9.31538 20.83938,-3.85081 0,0 z m 149.5,-0.9288 c 0.3701,-7.71197 2.54611,4.80658 0,0 z m 169.6362,-1.75 c 27.99452,2.87895 10.50595,5.73808 0,0 z m 159.9664,0.5427 c 5.8961,-7.72807 25.94059,7.8832 0,0 z m -68.7134,-2.2359 c -5.76673,-5.28602 21.75701,-14.79761 -2.5578,3.9432 z m -328.0435,0.068 c 32.29308,-4.86907 -24.59846,6.57797 0,0 z m -151.7921,-0.5271 c 2.91823,-8.77784 11.47614,1.31593 0,0 z m 174.4464,-1.0538 c 11.84461,-10.30458 42.87492,-12.31019 54.4693,-41.5439 20.10299,-40.74256 5.19108,24.37472 -5.8088,14.3226 -17.30802,19.42823 -15.64499,22.24586 -48.6605,27.2213 z m 62.9173,-41.2056 c -1.44791,-16.84585 -12.75763,10.86585 0,0 z m 208.1768,37.1588 c -6.07379,-19.0657 10.92661,14.76533 0,0 z m 263.4059,3.0029 c -9.28985,-4.42331 20.13512,1.50984 0,0 z m -343.1667,-1.5 c 8.48676,-5.32028 9.05653,5.04052 0,0 z m -245.3333,-0.5 c -7.29714,-21.00925 28.05681,6.50668 0,0 z m 464,-1.059 c -11.70811,-6.54209 -7.45202,-22.73238 -8.8268,-14.746 9.65647,-15.71505 21.43026,-13.65856 16.2695,3.7249 4.08817,-3.0935 -5.60345,12.33427 7.5567,3.5799 -11.24808,-3.43687 5.03944,10.26059 -14.9994,7.4412 z m -54,-3.0532 c 0.70257,-22.16574 8.77321,-7.23423 0,0 z m 32.1643,-0.8581 c -10.41081,-3.97614 4.68082,-25.81355 7.0156,-20.6775 12.49682,-20.83912 -1.87631,18.9113 -2.6799,12.2558 13.37715,4.72464 -4.18851,4.06706 -4.3357,8.4217 z m -79.1643,-0.5297 c -20.89685,-36.17889 16.7065,6.44549 -8.4486,-38.5 -12.4576,-29.45581 -136.2603,-9.59727 -55.0507,-17.0249 27.03532,-4.24919 32.25553,-9.49036 57.5646,12.5245 10.63849,19.22514 26.66432,48.56661 5.9347,43.0004 z m 55.3936,0.3282 c -2.41448,-7.7108 31.28993,-2.90589 0,0 z m -555.3936,-0.7448 c 18.35342,-4.57328 14.44705,2.7892 0,0 z m 66.25,-0.7557 c 16.71559,-10.26937 -15.72066,-7.86609 17.2001,-11.0773 5.2564,7.23702 -15.79425,9.96048 -17.2001,11.0773 z m 586.2538,-3.9674 c 3.6039,-17.48776 10.39997,-17.53062 0,0 z m -313.5038,-0.3603 c 8.64049,-10.22637 9.36702,8.09744 0,0 z m -139,0 c 9.32713,-1.18975 16.16487,-7.87326 0,0 z m 172.8113,0.478 c 10.43128,-15.34687 9.2961,-3.6499 0,0 z m 20.58505,-87.67071 c 16.94329,-4.30824 106.63999,-8.830271 145.82437,-20.859747 515.74518,6.8646 1642.19118,6.499258 1614.85578,12.24316 17.6515,41.972527 -1747.74408,8.075697 -1760.68015,8.616587 z M 98.9661,193.49184 c -23.451834,-28.1601 146.91874,-112.416125 29,-40.454 -24.0502,19.56142 39.88931,-23.06591 -17.7202,23.307 -8.09077,5.95947 -3.26342,14.67997 -11.2798,17.147 z m 179.1622,-0.191 c 33.42184,-26.89372 -19.99358,2.30479 -17.1009,-11.25 11.42567,-19.21557 -6.63436,-8.64249 26.9391,-16.8916 4.92363,-28.32595 9.61897,22.23925 -9.8382,28.1416 z m 179.1394,1.1049 c -4.35016,-6.59804 15.09894,-2.79408 0,0 z m 48.9118,-2.1549 c 15.83658,-58.58078 0.73614,23.40825 0,0 z m 205.7866,-2.082 c 20.94079,-11.18393 9.60341,2.74771 0,0 z m -273,-0.5506 c 6.00684,-10.01181 6.85119,6.14879 0,0 z m -130.9791,-1.6065 c 26.4291,-7.93937 53.29432,-55.6889 23.474,-78.3202 -12.7463,6.08071 13.21854,-7.35718 -10.4645,-7.5121 -25.50581,-14.539646 29.16166,24.46153 -44.2686,-15.5044 -50.22725,27.11514 7.39789,-28.617262 44.33783,9.167059 73.16976,44.787881 -9.3453,102.929371 -0.42503,89.127141 -4.00198,-0.92351 -8.96871,8.24627 -12.6537,3.0425 z m -7.5209,-97.5961 c 10.18331,-3.549396 -17.54348,-4.958482 0,0 z m -52.4532,94.727 c -8.98645,-26.66736 9.96752,13.85365 0,0 z m 73.2865,2.5035 c 9.38007,-12.18749 24.40562,3.74139 0,0 z m 192.6667,0.5231 c -18.85061,-6.14827 16.15416,-21.72049 0,0 z m 0.2992,-5.3908 c -0.48076,-11.36193 -5.24761,11.94844 0,0 z m -323.5656,-3.029 c 27.87562,-21.29024 -1.4903,4.40764 0,0 z m 369.5164,4.6386 c -1.52901,-14.15887 7.38967,1.88859 0,0 z m -406.8735,-2.7598 c -7.92309,-9.66454 9.82615,1.02351 0,0 z m 20.3012,-3.6549 c 7.25358,-16.41874 19.39311,-10.47776 1.0723,-9.0819 -10.17672,4.5147 22.15243,-13.52504 31.0487,-23.4389 28.93393,-34.92271 17.84536,15.73232 12.14874,7.54845 -12.56378,-9.92902 -17.55493,30.83277 -44.26974,24.97235 z m 34.7275,-16.4181 c -7.09727,-9.40744 -0.56675,-1.77472 0,0 z m 92.5948,14.9366 c -5.26575,-8.06449 19.31141,-74.87278 30.5512,-54.191 14.10328,24.85502 -15.44301,49.54283 -9.9838,46.6409 1.32902,-0.21167 0.13785,2.50123 -20.5674,7.5501 z m 118,-1.5912 c 6.9635,-2.28136 36.99866,1.34771 0,0 z m 49.7198,-0.5805 c 20.15851,-1.38779 3.80866,1.36669 0,0 z m -5.2826,-2.5717 c -66.44732,-2.30295 72.53456,0.051 0,0 z m -40.4372,-0.6976 c -75.25324,11.73922 -53.37784,-95.956113 -122.1101,-98.3587 -93.85969,-34.864642 -28.50972,64.18198 -59.7974,25.8607 -10.63327,-56.635106 67.09347,-37.578033 108.6901,-7.5324 3.22581,26.42866 47.10298,84.10669 52.3447,74.6958 24.72364,-2.00713 53.60309,3.0555 92.7299,-0.5335 127.14756,9.34191 -75.59462,0.45018 -71.8572,5.8681 z m 44.7892,-3.7378 c -26.83605,-1.29899 -5.14143,1.30168 0,0 z m -94.6994,-14.0944 c -7.39471,-10.76002 -16.47652,-22.54979 0,0 z m 178.4484,11.7789 c 39.17031,-0.66221 -30.01525,2.32018 0,0 z m 100.4618,0.0533 c -9.35903,-28.79845 27.82266,-10.75254 4.5,0 -1.98496,-1.53725 -2.88938,3.0735 -4.5,0 z m 4.5855,-4.9056 c -7.33744,-10.09546 2.27568,14.2655 0,0 z m 28.3221,-9.1832 c -27.97375,1.23144 -15.96336,16.58514 -7.9076,9.5889 -16.04188,9.43465 11.33461,-3.94536 7.9076,-9.5889 z m -553.8681,10.5888 c 8.19534,-13.04399 61.25309,-24.53833 51.9605,-23.0424 -17.93087,6.13177 -35.70981,13.29232 -51.9605,23.0424 z m 122.9923,-1.2723 c 59.43083,-12.46289 34.14432,-15.4653 4.1127,-2.4529 l -2.5425,1.7252 -1.5706,0.7277 z m 193.9662,-0.6027 c -46.16496,-5.54126 65.21638,0.16726 0,0 z m 1693.7934,0.3866 c -91.9965,-37.07942 63.4464,-32.55916 -25.7914,-23.5232 1.5617,8.61147 32.4243,34.11774 51.3247,8.5736 43.4372,6.5472 -26.4427,-4.24036 -6.0745,-12.0467 52.0048,-5.14589 269.0233,0.61286 90.0551,-0.0273 -54.2405,-13.27181 -61.5476,22.34081 -109.5139,27.02359 z m -1441.5501,-0.5341 c -4.00831,-9.61547 22.15542,3.08275 0,0 z m 46.0244,-2.6842 c -1.51551,2.43313 -17.14335,-26.02133 -27.4565,-6.8636 20.38125,4.57589 -24.52649,-0.47654 -29.3197,-2.6715 -2.89792,-7.04637 -43.74341,-4.51423 -64.252,10.80391 -4.97577,2.69286 -48.58699,-14.99537 -11.49582,-17.28737 25.5126,-8.97032 45.38697,5.68219 96.94992,-1.70494 6.8823,2.50797 78.82344,-7.71545 45.3088,3.6734 -20.04462,3.2331 1.55634,36.49914 -8.1429,16.1896 l -1.5909,-2.1368 -9e-4,-0.003 z m -28.2657,-11.2932 c -8.69378,-8.14525 -5.37574,7.37847 0,0 z m -437.9847,11.2499 c 3.46449,-11.21433 7.58184,4.65091 0,0 z m 1304.7338,-4.86487 c -42.3747,-62.860098 223.3171,-3.27239 71.2509,-20.46893 -24.1499,-3.16715 -71.7797,-10.76166 -71.2509,20.46893 z m -825.561,1.15537 c -14.20266,-19.36399 8.11428,1.50882 0,0 z m -307.8409,-3.8717 c 56.82377,-9.21879 72.82699,-0.0777 0,0 z m 299.5895,0.255 c 5.14073,-5.97444 5.76704,2.29719 0,0 z m -369.254,-1.2219 c -15.11105,-20.03598 14.20506,5.38791 0,0 z m 1776.4913,-3.3633 c -18.1397,-6.79775 11.8831,1.34884 0,0 z m -1822.185,-5.5886 c 1.07967,-36.72612 1.49915,17.49673 0,0 z m 262.511,0.7796 c 12.89333,-3.68315 10.65057,-2.20516 0,0 z m -411.4696,-2.2796 c -31.89965,-5.85531 32.3994,-32.10665 52.5539,-22.8864 -34.55169,2.12641 -34.3724,16.42194 -52.5539,22.8864 z m 4.8014,-7.8289 c 20.15501,-8.94209 -21.30226,0.17922 0,0 z m 190.7551,2.4327 c -22.65122,-7.5126 -14.46737,-15.23559 8.9131,3.6387 l -3,-0.068 -5.9131,-3.5703 z m 2014.4131,0.6148 c -1.183,-1.81398 -12.5546,-5.2115 -8.5817,-6.91966 48.1809,-1.5747 52.7363,-0.0423 86.253,-2.73007 15.6286,-9.71731 19.2441,-71.353585 2.5513,-93.571752 -33.907,-10.387772 -66.4538,3.316692 -61.2516,-3.027496 -95.8721,3.089046 -205.6774,-1.758233 -313.2998,-1.071542 -497.5696,-3.307339 -998.4536,-6.028457 -1500.1717,-20.68697 600.9548,12.19417 1202.1477,19.080672 1803.25,18.93438 12.4421,-9.224958 56.3914,-6.197387 74.3209,0.479427 13.0103,26.631827 25.9525,50.3711 13.2235,106.313483 -72.945,1.85619 -51.1362,-0.34413 -96.2939,2.2802 z m -54.7219,-0.5801 c 43.2164,-2.14287 8.6114,2.17422 0,0 z m -625.7677,-1.4054 c 20.8618,-3.39497 4.2917,3.15272 0,0 z m 39.7333,0.4398 c 77.6605,-2.79614 82.405,2.02503 0,0 z m 77.1359,-0.228 c 41.2137,-1.21014 8.1842,2.31196 0,0 z m 27.4096,0.064 c 26.5028,-1.24529 5.4754,1.24789 0,0 z m 55.7108,0.2277 c 45.2292,-2.60796 9.41,1.86287 0,0 z m 59.6968,-0.2312 c 44.6242,-1.17218 8.6982,1.17289 0,0 z m 81.5532,0.013 c 18.8788,-1.35376 3.7574,1.35924 0,0 z m -767.5,-2.0068 c 25.5489,-1.27949 5.0977,1.28201 0,0 z m 55.4584,-3e-4 c 29.0603,-1.27751 5.5862,1.27971 0,0 z m -997.0303,-1.6569 c -5.82127,-12.06902 5.17411,-26.72175 0,0 z m 873.3219,-0.5192 c 25.8961,-2.05417 6.05,2.14029 0,0 z m 20.0795,1.27855 c 59.1557,-2.87892 58.7521,1.67247 0,0 z m 43.4673,-1.29425 c 99.2805,-3.01159 93.154,1.37772 0,0 z m -1036.809,-13.7611 c 1.45478,-7.03165 13.41494,3.9568 0,0 z m 95.4485,-7.0255 c -11.25787,-29.223241 6.95749,1.55733 0,0 z m -75.8966,-1.2829 c -2.45427,-16.09982 8.20125,0.78267 0,0 z M 431.76963,86.721076 c 5.71505,-31.391996 -3.12418,-35.122984 9.14747,-72.33549 -1.68321,44.669889 3.69424,61.794879 1.15829,120.967604 2.78352,-9.61891 -22.01676,-23.36919 -10.30576,-48.632114 z M 334.1002,89.55084 c -20.41128,-12.653689 17.53279,7.841685 0,0 z m 53.07554,-42.49531 c 17.47883,-38.3876114 25.53884,-11.603915 0,0 z m 20.79036,29.43631 c -9.31968,-0.83266 -8.88627,-26.770623 2.5003,-19.26062 15.04845,-2.912032 10.07437,21.225517 -2.5003,19.26062 z m -79.3333,-0.1077 c -0.30225,-30.861043 -27.7616,6.147515 -63.2216,-31.23985 -20.84478,-37.2826566 27.46315,29.12621 32.59499,8.053611 21.25763,0.463784 -5.19628,-23.349573 25.20991,5.125909 44.81016,-39.006327 7.96205,-18.131681 5.4167,18.06033 z m -133.1667,-5.161 c 72.91107,-19.954074 62.08991,-16.246394 9.7415,-6.24575 80.40276,-24.796038 55.96592,-1.759367 -9.7415,6.24575 z m 1707.1421,-6.6626 c 5.5783,-6.540969 5.236,2.937837 0,0 z M 360.67048,50.283891 C 364.4471,19.41242 405.85636,9.6096649 435.19042,8.8052199 391.45947,17.404128 379.38411,27.183907 373.94502,48.651527 370.84495,60.887272 367.2144,47.099344 360.67048,50.283891 z M 274.9661,50.55931 c -13.43331,-16.555951 3.11715,-3.939072 0,0 z m 1979,-15.52119 c -141.13,-3.582361 124.9566,-0.769324 85.3656,-0.808433 52.3207,1.495442 -80.9352,1.226901 -85.3656,0.808433 z m 117.5,-0.0349 c 14.0108,-2.254725 63.7819,3.311665 0,0 z m 66.5,-0.003 c 29.0717,-3.051414 6.8208,3.21796 0,0 z m -317.3325,-0.56943 c -60.7538,0.0628 -294.3827,-2.882621 -116.8725,-2.090594 37.9603,-0.206457 266.065,2.080072 116.8725,2.090594 z m -368.1695,-2.21855 c -133.3598,-2.748339 -266.7982,-1.446715 -400.1622,-3.83057 178.005,-0.322556 356.0636,1.355994 534.0565,3.49491 -44.6199,0.873534 -89.2704,0.966493 -133.8943,0.33566 z m 152.252,0.10136 c 23.3258,-1.301642 4.6515,1.304823 0,0 z m -665.75,-4.26276 c -72.2331,-2.004798 -17.4968,-4.087014 0,0 z m 17.0153,0.3777 c -28.9382,0.904481 17.4591,-5.09322 0,0 z m 29.4847,-1.3777 c 24.4746,-4.067653 3.3688,4.129054 0,0 z m -178.0613,-2.0992 c 44.7304,-1.619445 49.3724,3.541807 0,0 z m 566.9936,0.20872 c -36.1664,0.325927 11.4518,-2.315352 0,0 z M 1039.683,24.48431 C 952.24295,22.419633 887.65561,23.256927 907.18448,20.295393 905.765,21.84857 1097.1629,20.35606 1039.683,24.48428 z m 302.5424,-1.64345 c 47.6968,-2.331972 55.1476,2.960981 0,0 z M 829.4661,20.032 c 36.81525,-1.534928 61.78145,3.002153 0,0 z M 697.8477,18.30084 C 666.86042,14.840235 417.42251,8.7912308 526.7163,10.46705 c 39.36709,-2.610335 3.17578,2.066744 46.4284,-1.4009 67.50286,5.307532 138.81733,3.645758 207.8214,8.70558 -27.06954,1.124899 -57.6943,-1.930438 -83.1184,0.52911 z m 86.7987,-0.48469 c 5.77076,-2.876747 26.97827,3.520473 0,0 z M 547.7994,5.06308 c -119.97757,-5.488404 120.06714,-1.8087743 1.3091,0.98776 z"
       id="path3433"
       style="fill:#000000;display:inline" />
  </g>
</svg>
