<?xml version="1.0" encoding="UTF-8" standalone="no"?>
<!-- Created with Inkscape (http://www.inkscape.org/) -->

<svg
   xmlns:dc="http://purl.org/dc/elements/1.1/"
   xmlns:cc="http://creativecommons.org/ns#"
   xmlns:rdf="http://www.w3.org/1999/02/22-rdf-syntax-ns#"
   xmlns:svg="http://www.w3.org/2000/svg"
   xmlns="http://www.w3.org/2000/svg"
   version="1.1"
   width="100%"
   height="100%"
   viewBox="0 -200 1012 1000"
   id="svg3138">
  <metadata
     id="metadata3148">
    <rdf:RDF>
      <cc:Work
         rdf:about="">
        <dc:format>image/svg+xml</dc:format>
        <dc:type
           rdf:resource="http://purl.org/dc/dcmitype/StillImage" />
        <dc:title></dc:title>
      </cc:Work>
    </rdf:RDF>
  </metadata>
  <defs
     id="defs3146" />
  <g
     id="layer7"
     style="display:inline">
    <path
       d="m 57.069929,647.2741 c -0.694977,-0.35783 -1.992245,-1.51299 -2.882823,-2.56704 l -1.619229,-1.9164 -1.466622,-3.43589 -1.466618,-3.43588 -1.118804,-5.43104 c -0.615344,-2.98707 -1.50686,-8.9376 -1.981144,-13.22339 l -0.86234,-7.79236 0.234331,-11.8066 c 0.128885,-6.49363 0.451369,-13.93179 0.716632,-16.52925 l 0.482301,-4.72264 0.02761,-13.69566 0.02761,-13.69566 -0.520264,-4.95877 c -1.512741,-14.41828 -4.449605,-28.81291 -8.190063,-40.14245 -1.886814,-5.71501 -8.493169,-21.34826 -11.078424,-26.21595 -2.680486,-5.047 -2.680286,-5.04662 -3.770269,-7.3148 -0.561695,-1.16885 -1.446695,-2.95929 -1.966664,-3.97875 l -0.945396,-1.85355 -0.475837,-2.98472 -0.47584,-2.98471 0.266855,-1.68354 0.266852,-1.68354 1.377372,-1.80442 1.377372,-1.80442 1.892034,-0.9595 c 1.040616,-0.52772 4.854786,-1.72231 8.475932,-2.65465 3.621146,-0.93234 8.918194,-2.33034 11.771218,-3.10668 2.853024,-0.77633 10.125243,-2.48433 16.160486,-3.79555 6.035243,-1.31123 12.050535,-2.68037 13.367316,-3.04254 1.31678,-0.36217 4.279536,-1.01158 6.583901,-1.44314 2.304366,-0.43155 6.344488,-1.28353 8.978048,-1.89328 10.480288,-2.42651 28.044808,-6.42202 37.308778,-8.48686 5.37686,-1.19844 14.62425,-3.32073 20.54976,-4.71621 5.92551,-1.39548 14.00575,-3.20283 17.95608,-4.01633 3.95035,-0.8135 12.03059,-2.52458 17.9561,-3.80239 5.92551,-1.27781 13.64663,-2.87473 17.15805,-3.5487 12.58874,-2.41626 41.59498,-8.29521 46.53619,-9.4319 2.77072,-0.63738 7.97797,-1.70202 11.5717,-2.36587 3.59373,-0.66384 11.92088,-2.27259 18.50478,-3.57499 12.94798,-2.56131 15.79234,-3.07177 35.11414,-6.30174 15.0032,-2.50803 26.45358,-4.53923 33.11902,-5.87501 2.63357,-0.52778 6.44112,-1.19408 8.46124,-1.48068 l 3.67295,-0.52108 1.31486,0.74841 c 0.72317,0.41163 2.60386,1.96692 4.1793,3.4562 5.94091,5.616 14.86125,11.15639 21.77411,13.52378 l 3.49023,1.19529 5.21984,0.52441 5.21987,0.52441 2.84485,-0.56793 c 3.47199,-0.69312 6.11026,-1.74501 9.26275,-3.69316 1.31678,-0.81373 3.20217,-1.65774 4.18975,-1.87557 0.98759,-0.21783 4.48903,-1.79041 7.78098,-3.49463 3.29195,-1.70421 10.11527,-5.16159 15.16292,-7.68308 5.04766,-2.52148 11.61413,-5.82311 14.59212,-7.33696 2.978,-1.51385 7.28747,-3.63366 9.57659,-4.71069 9.10573,-4.28425 19.39194,-9.61418 20.58272,-10.66518 l 1.25772,-1.11013 2.99005,-0.97086 c 4.53327,-1.47198 17.54685,-8.25698 24.12813,-12.5799 2.13642,-1.40332 4.2435,-2.66308 4.68242,-2.79949 l 0.79805,-0.24801 1.10294,-2.78736 c 0.60664,-1.53304 1.95335,-4.07199 2.99269,-5.6421 1.03937,-1.57011 2.69776,-4.14787 3.68535,-5.72836 0.98758,-1.58049 3.59121,-4.94149 5.78585,-7.46889 l 3.99024,-4.59528 2.80283,-1.96868 2.80287,-1.96867 1.38688,-0.27417 1.38693,-0.27417 -0.92613,0.85498 c -0.5094,0.47024 -1.50676,1.42493 -2.21638,2.12153 -0.70959,0.6966 -1.77473,1.41048 -2.36698,1.5864 -6.54126,3.50966 -9.01307,11.25611 -8.81675,13.2816 l 0.25139,1.58599 -1.54159,1.6769 -1.5416,1.67689 c -1.79164,-0.43041 -2.34899,-0.21218 -3.79073,0.5653 0.13983,0.96885 -0.36106,1.7528 -0.79804,2.44585 -0.8941,0.95764 -1.06009,2.13063 -0.29927,2.11481 0.84214,-0.0175 3.89049,-1.80486 3.89049,-2.28111 l 0,-0.44862 c 0.93051,0.0313 1.86102,0.0625 2.79153,0.0938 6.05853,-4.0838 10.86848,-7.39127 15.36407,-9.63393 0.21947,-0.18908 0.84793,-0.46113 1.39659,-0.60457 2.96958,-0.77637 15.33814,-7.7737 23.61266,-13.35854 l 4.65901,-3.14456 c 0.78449,-1.62548 0.64401,-3.26452 0.0807,-4.50482 -0.89167,-0.19799 -1.78335,-0.39596 -2.67502,-0.59394 l -1.16718,-1.45136 c -1.14532,-1.42413 -3.84265,-3.25952 -4.79025,-3.25952 -0.26423,0 -1.40464,0.98347 -2.53424,2.1855 -2.10833,2.24347 -2.69697,2.41828 -2.22572,0.66097 l 0.26894,-1.00283 2.49694,-2.32244 c 3.81678,-3.55003 5.30854,-6.51839 6.42078,-12.77623 0.79402,-4.46747 0.74925,-6.0501 -0.26164,-9.24781 l -0.85455,-2.70319 -2.33765,-2.80129 -2.33764,-2.80128 0,-0.91986 c 0,-2.22557 1.19172,-3.67336 3.03258,-3.68412 l 1.23694,-0.007 1.74745,1.49817 c 6.08608,5.21794 8.51785,10.68875 10.14216,22.8169 l 0.63161,4.71611 0.6157,1.11215 0.61569,1.11216 3.85749,-0.16969 3.85745,-0.16969 5.38683,-3.13162 c 6.02901,-3.50495 9.09612,-4.8407 12.8244,-5.58516 l 2.53803,-0.50679 8.77854,-0.19593 c 4.8282,-0.10775 26.46529,-0.3237 48.08243,-0.47988 l 39.3039,-0.28396 5.38683,-0.47806 5.38683,-0.47806 22.34536,0.0222 c 12.28995,0.0122 25.75703,0.13557 29.92683,0.27415 l 7.58146,0.25197 2.38629,-0.59913 2.38632,-0.59913 0.45286,-2.42151 c 0.24907,-1.33183 0.57742,-2.66007 0.72969,-2.95165 l 0.2768,-0.52982 14.29864,0 14.29864,0 0.24221,0.74702 c 0.13323,0.41086 0.24221,1.5537 0.24221,2.53963 l 0,1.7926 0.65915,0.64816 0.65914,0.64816 12.4089,0.15628 c 6.82488,0.086 14.77595,0.0118 17.66904,-0.16474 l 5.26014,-0.32102 1.10358,-1.96045 1.10357,-1.96045 0.29472,-2.36132 c 0.16214,-1.29873 0.40721,-3.53018 0.54467,-4.95878 0.13751,-1.42859 0.33183,-3.07562 0.43186,-3.66004 l 0.18188,-1.0626 1.17545,0 1.1754,0 0.41307,0.91349 c 0.22721,0.50241 0.41307,1.33817 0.41307,1.85723 l 0,0.94375 0.80021,0.30059 c 0.44012,0.16532 1.33972,0.8379 1.99915,1.49462 l 1.19899,1.19404 0.43908,2.06393 0.43913,2.06393 0.65416,0.23893 c 0.97849,0.35739 13.65258,1.19856 18.13769,1.20379 l 3.91674,0.005 0.75464,0.478 0.75463,0.47801 0.25478,1.60729 0.25478,1.60731 0.8597,0.24368 c 0.47288,0.13403 30.93619,0.37724 67.69631,0.54047 36.76012,0.16324 80.79697,0.36104 97.85957,0.43956 l 31.0231,0.14276 0.5278,-0.52529 c 0.2903,-0.28891 0.829,-1.10137 1.1971,-1.80547 l 0.6693,-1.28018 1.6969,-0.60528 1.6969,-0.60528 6.7835,0.0547 6.7834,0.0548 1.7905,0.66909 1.7906,0.66908 0.9285,1.6339 0.9286,1.63388 0.8727,0.28198 c 0.8968,0.28976 71.8936,0.64159 253.4539,1.256 118.8655,0.40225 123.2912,0.40074 134.0601,-0.0456 l 7.9684,-0.33029 0.4111,-0.48576 0.4111,-0.48577 0.226,-5.05403 0.226,-5.05404 1.0351,-1.93076 1.0351,-1.93076 2.1214,-1.61122 2.1214,-1.61122 3.6005,0 3.6004,0 2.2848,1.32793 c 1.2567,0.73036 2.6271,1.84283 3.0453,2.47215 l 0.7605,1.14421 0.2874,3.19503 c 0.4246,4.72104 1.2489,9.49016 1.7681,10.23069 l 0.4564,0.65085 10.2631,0.31825 10.2632,0.31825 1.0693,0.48664 1.0693,0.48663 0.6225,1.55256 c 0.3424,0.85391 0.8304,2.61891 1.0846,3.92223 l 0.4622,2.36967 -0.3903,7.53926 -0.3903,7.53925 -0.7863,1.79313 -0.7862,1.79314 -1.3702,0.86973 c -0.7536,0.47836 -1.9117,0.8889 -2.5735,0.91233 l -1.2033,0.0426 1.3966,0.46685 c 1.8806,0.62869 3.3584,2.38378 4.3849,5.20791 l 0.8517,2.34305 0.3212,5.86301 0.3213,5.863 -0.2867,1.77404 c -0.1577,0.97571 -0.5264,2.69715 -0.8193,3.82543 l -0.5326,2.0514 -1.0509,1.33141 -1.0508,1.3314 -1.653,0.52681 -1.653,0.52681 -0.9128,-0.26281 c -0.502,-0.14454 -4.1838,-0.0734 -8.1818,0.15821 l -7.2691,0.42101 -1.0025,0.77744 c -0.5514,0.42759 -2.2182,1.13347 -3.7041,1.56863 l -2.7016,0.79118 -6.2044,-0.0201 -6.2043,-0.0201 -1.5766,-0.89369 -1.5766,-0.89386 -9.3771,0.0882 c -9.8236,0.0924 -43.0942,0.74348 -81.6005,1.59693 -20.4285,0.45277 -65.16,0.63645 -126.0917,0.51775 -11.851,-0.0231 -39.3238,0.15185 -61.0507,0.38875 l -39.5034,0.43074 -2.9843,0.5355 -2.9844,0.53551 -2.2219,1.10684 -2.2219,1.10683 -2.3752,0.25977 c -1.3064,0.14287 -10.9941,0.37909 -21.5284,0.52493 l -19.1532,0.26517 -11.8769,0.70438 -11.877,0.70438 -0.9827,0.44221 -0.9827,0.44222 -1.4426,2.37659 -1.4427,2.37659 -2.2572,0.82686 -2.2572,0.82686 -6.1849,-0.005 -6.1848,-0.005 -3.1143,-1.29909 -3.1141,-1.29909 -18.8322,0.47428 c -10.3577,0.26085 -21.4357,0.67424 -24.618,0.91862 -9.3049,0.71461 -20.7154,1.29214 -52.47166,2.65578 -12.07934,0.5187 -47.63389,1.14612 -65.24443,1.15134 l -18.55862,0.006 -7.37796,0.68703 -7.378,0.68702 -31.72244,0.27328 c -52.87512,0.4555 -54.70301,0.5214 -60.68582,2.18819 l -3.42582,0.95443 -2.71373,2.06621 -2.71372,2.06623 -1.91532,0.48614 -1.91527,0.48615 -12.89392,0.53612 -12.89395,0.53612 -25.13853,-0.0728 c -13.8262,-0.04 -30.97427,-0.0936 -38.10683,-0.11908 l -12.96829,-0.0463 -2.92313,0.7571 -2.92318,0.75711 -1.73803,1.31667 c -0.95594,0.72418 -3.52274,2.76367 -5.70397,4.53221 l -3.96594,3.21554 -3.74265,4.58615 c -2.05841,2.52239 -4.81998,6.13757 -6.13676,8.03372 l -2.39414,3.44757 0.0778,0.79348 c 0.0428,0.43641 0.19963,1.38565 0.34854,2.1094 l 0.27078,1.31593 -2.36869,2.93445 -2.36864,2.93445 -1.67499,3.60889 c -0.92123,1.98489 -2.39466,5.87666 -3.27431,8.6484 -2.36602,7.45513 -3.73391,10.8151 -6.15982,15.13021 l -2.18071,3.87898 -5.30084,6.35179 -5.30084,6.35179 -2.80749,2.18064 c -3.83834,2.98129 -11.31901,7.71168 -13.63941,8.62487 -1.04952,0.41303 -4.51185,1.62795 -7.69407,2.6998 l -5.78585,1.94884 -7.2569,0.20314 -7.2569,0.20313 -4.71383,-0.54465 c -2.59262,-0.29956 -6.6175,-0.66698 -8.94421,-0.81649 l -4.23038,-0.27184 -2.71811,1.0393 c -3.91204,1.49581 -6.16277,2.9624 -8.93005,5.81879 -4.16505,4.29924 -8.15298,6.68249 -21.78864,13.02135 -8.31467,3.86528 -12.66894,6.03382 -14.16537,7.05474 -0.76812,0.52404 -2.11482,1.22231 -2.99268,1.55171 -0.87785,0.3294 -2.74592,1.34652 -4.15133,2.26028 -1.40536,0.91375 -4.09878,2.34927 -5.98536,3.19005 -1.88655,0.84078 -6.81091,3.26186 -10.94293,5.38018 l -7.51283,3.85149 -2.66229,0.66783 c -3.67964,0.92301 -6.22186,0.84941 -10.74788,-0.31118 l -3.88187,-0.99541 -1.89624,-1.13728 -1.89628,-1.13727 -2.6994,-3.01389 -2.6994,-3.01388 -1.72383,-3.56589 c -0.94812,-1.96124 -2.60878,-6.14568 -3.69037,-9.29875 -3.01376,-8.7857 -3.63548,-9.77958 -7.88365,-12.60221 l -2.53464,-1.68411 -4.24877,-9.5e-4 c -3.79285,-9.4e-4 -8.83755,0.50357 -8.83755,0.88369 0,0.0787 0.33833,0.8459 0.75188,1.70492 l 0.75188,1.56185 0.25414,5.33931 0.2541,5.33932 -1.17481,1.39045 -1.17485,1.39045 -1.95115,0 -1.95115,0 -1.01156,-1.29873 c -1.05247,-1.35125 -5.50985,-9.222 -5.9878,-10.5731 l -0.27365,-0.77363 -4.5184,1.85879 c -2.48512,1.02234 -6.85268,2.81227 -9.7057,3.97762 -2.85303,1.16535 -7.16249,3.20169 -9.57659,4.52519 -17.34789,10.69537 -35.05004,16.1983 -52.07268,25.41712 -33.61575,14.19746 -67.56256,39.44084 -100.70658,50.07294 -3.57891,1.00782 -16.76935,6.17563 -21.41892,8.3916 -1.63274,0.77816 -6.73941,3.04075 -11.34814,5.02798 -4.60873,1.98723 -10.17512,4.45296 -12.36976,5.4794 -2.19463,1.02644 -8.20992,3.55393 -13.36731,5.61665 -5.15739,2.06271 -12.51939,5.12921 -16.36,6.81445 -3.84061,1.68524 -9.76612,4.23838 -13.1678,5.67365 -3.40169,1.43527 -7.44181,3.17267 -8.97805,3.86088 -1.53624,0.68822 -3.42163,1.46238 -4.18976,1.72036 -2.02964,0.68168 -6.33188,2.40017 -11.5717,4.6222 -2.52383,1.07027 -10.21418,4.18167 -17.08967,6.91422 -6.8755,2.73255 -14.776172,6.10739 -17.557069,7.49963 l -5.056181,2.53133 -5.386829,1.65883 c -6.487876,1.99792 -13.94924,5.10344 -15.480269,6.44316 -0.982589,0.8598 -4.777147,2.3692 -5.867533,2.33402 -0.219464,-0.007 -0.967642,-0.30565 -1.662615,-0.66344 z m 3.764727,-2.90617 -0.474436,-1.23242 0.782259,-0.67746 c 0.430244,-0.37262 1.709915,-0.99676 2.843715,-1.38704 1.1338,-0.39033 2.268461,-1.00484 2.521471,-1.36565 0.253013,-0.36083 1.028553,-0.80383 1.723426,-0.98446 0.694873,-0.18064 1.627497,-0.61078 2.0725,-0.95587 0.445,-0.3451 1.794341,-0.86555 2.998537,-1.15656 1.204191,-0.29102 2.638341,-0.90225 3.186999,-1.35831 l 0.997561,-0.82918 1.835408,-0.29488 c 1.009476,-0.16218 2.356183,-0.60605 2.992683,-0.98638 0.6365,-0.38033 1.965299,-0.93855 2.952884,-1.24049 0.987585,-0.30194 3.501439,-1.27673 5.586341,-2.16618 2.084902,-0.88946 3.97295,-1.6148 4.195665,-1.61186 0.222711,0.003 1.053756,-0.40623 1.846757,-0.90927 0.793001,-0.50303 2.496172,-1.27122 3.784824,-1.70707 2.62819,-0.88893 8.36024,-3.33247 9.42062,-4.01596 0.98685,-0.6361 3.99888,-1.84809 4.61312,-1.85624 0.28492,-0.004 1.26135,-0.43191 2.16982,-0.9514 0.90847,-0.51949 1.95823,-0.94453 2.33279,-0.94453 0.37456,0 2.4639,-0.84658 4.64298,-1.8813 3.7215,-1.76712 11.33429,-4.7304 12.1526,-4.7304 0.20366,0 2.02207,-0.81333 4.04092,-1.80741 2.01884,-0.99408 5.01734,-2.39513 6.66331,-3.11346 1.64598,-0.71832 3.53137,-1.58209 4.18976,-1.91949 1.8212,-0.93328 7.32725,-3.41556 9.89966,-4.46305 1.26057,-0.5133 2.56931,-1.26155 2.90831,-1.66276 l 0.61635,-0.72948 0.9857,0 c 0.54213,0 2.10046,-0.61264 3.46296,-1.36141 1.36249,-0.74878 3.10572,-1.51854 3.87385,-1.71056 0.76812,-0.19204 2.0334,-0.73051 2.81172,-1.19662 0.77834,-0.4661 2.12504,-1.00219 2.99269,-1.1913 0.86764,-0.18912 2.79284,-1.07336 4.2782,-1.96498 1.48537,-0.89163 2.92186,-1.52779 3.1922,-1.4137 0.50721,0.21406 3.52909,-1.0049 3.88323,-1.56641 0.10973,-0.17399 0.64842,-0.43758 1.19708,-0.58577 1.2719,-0.34353 12.22441,-4.78436 14.15787,-5.74049 l 1.46151,-0.72274 -0.25178,-0.48216 -0.25178,-0.48217 -1.57255,0 -1.57254,0 0,-0.46326 c 0,-0.2548 0.49379,-0.60084 1.09731,-0.76898 3.33801,-0.92997 15.88342,-5.09976 18.39637,-6.1145 1.6138,-0.65167 4.92894,-1.82678 7.36699,-2.61136 2.43804,-0.78459 5.24757,-1.92869 6.24338,-2.54244 0.99582,-0.61375 2.70838,-1.48911 3.8057,-1.94523 1.09732,-0.45613 2.17468,-0.97695 2.39414,-1.1574 0.21947,-0.18044 1.65596,-0.80245 3.1922,-1.38223 28.44988,-2.47197 47.95805,-29.93801 74.74848,-37.71907 18.76955,-10.05362 40.86782,-17.29098 60.04957,-28.88222 8.81677,-2.21901 25.04061,-17.25521 32.27488,-15.80865 l 1.59833,0.3196 2.65168,-1.30915 c 1.45843,-0.72003 3.4597,-1.99139 4.44728,-2.82525 2.18111,-1.84161 5.72908,-3.99381 6.58391,-3.99381 0.3438,0 1.472,-0.50274 2.50715,-1.11721 1.03518,-0.61447 3.40838,-1.69569 5.27382,-2.40271 3.29794,-1.24997 13.53738,-6.22686 26.33561,-12.80044 3.89998,-2.00317 10.91252,-5.48945 20.35024,-10.11713 3.62115,-1.77559 9.90578,-4.85969 13.96585,-6.85357 11.29969,-5.5492 12.87353,-6.28431 14.16537,-6.61644 l 1.19707,-0.30777 -1.21291,1.35781 -1.21292,1.35781 -3.37586,1.30119 c -5.99275,2.30985 -22.09155,10.50684 -24.1245,12.28343 -1.39946,1.22298 -0.36894,1.33393 2.45041,0.26382 6.02048,-2.28509 8.61789,-3.54451 15.50505,-7.51803 9.45664,-5.45595 9.18011,-5.31779 15.16292,-7.57561 5.48108,-2.06847 11.83195,-4.91595 13.16781,-5.90393 0.43892,-0.32462 1.19136,-0.72891 1.67203,-0.89841 0.4807,-0.1695 3.03622,-1.99406 5.67887,-4.05456 5.81467,-4.5337 8.85607,-6.59768 9.72211,-6.59768 0.35665,0 1.55899,-0.63541 2.67187,-1.41202 l 2.02337,-1.41201 4.27882,-0.0607 4.27878,-0.0607 0.6463,-0.40002 c 0.35545,-0.22001 0.9547,-1.1693 1.33166,-2.10954 l 0.68545,-1.70953 1.36171,-0.9509 c 1.84393,-1.28763 1.72486,-1.45154 -0.78468,-1.08044 l -2.1464,0.3174 -0.24619,-0.47149 -0.24624,-0.47149 1.89385,-1.42648 c 1.91396,-1.44164 2.90266,-1.99835 6.88161,-3.87469 1.20705,-0.56921 2.56533,-1.43734 3.01842,-1.92918 0.45305,-0.49184 1.20557,-0.89425 1.67227,-0.89425 0.82977,0 1.56857,-0.77781 1.17792,-1.24015 -0.28961,-0.34274 -7.67914,2.53262 -10.48021,4.07797 -1.32931,0.73339 -4.11251,2.1116 -6.18488,3.06271 -2.07233,0.95109 -4.70789,2.35027 -5.85676,3.10927 -1.14883,0.759 -2.28645,1.38001 -2.52802,1.38001 -0.41774,0 -2.24742,0.97245 -8.55093,4.54464 -1.53625,0.87059 -5.39681,2.78215 -8.57903,4.24791 -3.18221,1.46576 -5.96541,2.78963 -6.18487,2.94193 -0.21947,0.1523 -1.50999,0.73692 -2.86783,1.29917 l -2.4688,1.02226 -0.75683,-1.00659 c -0.41627,-0.55362 -1.24735,-2.0245 -1.84685,-3.26861 -0.59949,-1.24411 -1.63975,-3.00313 -2.31171,-3.90893 l -1.22177,-1.6469 -0.77526,0.29122 -0.77523,0.29122 -0.22313,-1.00973 -0.2231,-1.00975 -0.64669,0.14866 -0.6467,0.14867 -0.004,0.88684 -0.004,0.88685 -0.67292,0.50237 -0.67287,0.50236 -0.75308,-0.80661 c -39.10223,7.76103 -63.69165,34.73844 -96.05705,46.06646 -27.56031,20.04935 -48.43837,28.32684 -82.69006,41.44171 -91.89832,34.59862 -209.93318,87.8914 -256.485847,111.7587 -4.129151,-1.35807 1.319987,-5.77976 -0.124875,-7.50094 -4.117602,6.15431 -2.85869,7.76552 -2.85869,13.69137 l -0.626101,0.61499 -0.626106,0.615 -0.955643,-1.38363 -0.955643,-1.38363 -0.01436,-1.03473 c -7.715585,-9.75141 -15.635387,10.31103 -16.214231,-3.6189 -0.127688,-3.1549 -0.305728,-5.82473 -0.395644,-5.93296 -0.303794,-0.36566 -0.153493,9.13225 0.231047,14.60083 l 0.381902,5.43104 0.884433,3.77811 c 0.486439,2.07796 0.907709,4.73445 0.936155,5.9033 0.02845,1.16886 0.274741,2.91152 0.547322,3.87257 l 0.4956,1.74738 1.386107,1.4404 1.386107,1.44041 1.159641,0 c 0.6378,0 1.270613,0.21252 1.406249,0.47226 0.135636,0.25975 0.681067,0.47226 1.212068,0.47226 l 0.965456,0 -0.474436,-1.23237 z M 516.61298,429.12569 c 0,-0.27087 3.75055,-2.65593 4.17651,-2.65593 0.117,0 0.21276,0.28514 0.21276,0.63364 l 0,0.63364 -1.63763,0.58071 c -0.90068,0.31938 -1.88827,0.69454 -2.19464,0.83367 -0.30633,0.13914 -0.557,0.12756 -0.557,-0.0257 z m -307.44826,149.88537 0.24661,-0.47226 -0.82159,0 -0.8216,0 0,0.47226 c 0,0.25975 0.25874,0.47227 0.57498,0.47227 0.31625,0 0.68597,-0.21252 0.8216,-0.47227 z M 473.34729,515.3099 c -0.11998,-0.22977 -1.03287,-0.56237 -2.02864,-0.7391 -0.9958,-0.17673 -3.2615,-0.82061 -5.03497,-1.43085 l -3.22447,-1.10951 -1.15322,-1.30764 c -1.51901,-1.72241 -4.09359,-6.80961 -5.61443,-11.09375 l -1.2205,-3.43808 0.0303,-4.2815 0.0303,-4.28151 0.61087,-2.72345 c 0.33594,-1.4979 1.07122,-3.79874 1.63392,-5.11297 l 1.02306,-2.38952 2.87074,-3.38778 2.87074,-3.38779 5.58634,-2.53813 c 9.8024,-4.45369 22.611,-11.31858 23.1911,-12.4295 l 0.25178,-0.48214 -0.9478,0.33639 c -0.52124,0.18501 -2.02513,0.85933 -3.34191,1.49847 -1.31678,0.63915 -4.18975,1.97368 -6.38439,2.96561 -2.19463,0.99194 -5.18644,2.46558 -6.64842,3.27476 -1.46203,0.80918 -2.76336,1.47124 -2.89189,1.47124 -0.29356,0 -4.57741,2.30667 -9.01432,4.85383 l -3.39171,1.94711 -2.19918,2.63582 -2.19914,2.63582 -1.4481,3.29093 -1.44806,3.29092 -0.44276,2.50263 c -1.00267,5.66751 -0.38865,11.70083 1.71593,16.8602 l 1.3485,3.30585 1.89696,2.51779 c 2.28286,3.02999 4.30587,4.60829 7.76366,6.05702 l 2.59366,1.08668 2.71695,0.01 2.71696,0.01 -0.21815,-0.41777 z m 11.07923,-5.06547 c 5.45586,-2.58043 8.02825,-3.94943 17.03974,-9.06828 2.31326,-1.31403 7.16141,-3.76142 10.77366,-5.43865 3.61224,-1.67722 9.88958,-4.67394 13.94965,-6.65938 4.06007,-1.98543 8.998,-4.38493 10.97317,-5.33222 l 3.59122,-1.72235 2.63974,-3.10678 2.63975,-3.10678 1.21998,-2.86034 1.21997,-2.86035 0.37684,-3.27341 0.37688,-3.2734 -0.33059,-3.18725 c -0.99681,-9.6103 -5.70545,-16.22128 -13.50207,-18.95707 l -2.1673,-0.76049 -2.02245,0.0154 -2.02246,0.0154 -2.19463,0.95851 c -1.20705,0.52719 -4.04052,1.67186 -6.29657,2.54373 -2.25608,0.87186 -4.72405,2.01963 -5.48439,2.55058 -0.76034,0.53096 -3.13417,1.80523 -5.27514,2.8317 -12.79384,6.13392 -18.6004,9.24794 -24.15155,12.95229 -1.92489,1.28452 -5.33655,3.13956 -7.58146,4.12233 -13.14626,5.7551 -12.88613,5.60472 -16.05235,9.27991 l -2.39415,2.77903 -1.08674,2.38641 c -1.36765,3.0033 -2.29144,7.57775 -2.29906,11.38488 l -0.006,2.94087 1.01563,3.19361 c 1.2537,3.94201 2.63241,6.76672 4.49158,9.20236 l 1.42508,1.86689 1.85853,1.11467 c 1.02222,0.61307 3.09859,1.44319 4.61412,1.84472 l 2.75554,0.73004 3.1272,-0.21686 3.12715,-0.21687 5.65138,-2.67288 z m -58.87444,-12.66782 0.51518,-0.57592 -0.44081,-1.37214 -0.44076,-1.37214 0.27421,-3.46354 0.27425,-3.46355 -0.99261,-1.26747 c -1.07046,-1.36685 -1.89928,-3.80552 -1.89928,-5.58832 l 0,-1.11019 0.92131,0 c 0.50668,0 3.51433,-1.3806 6.68366,-3.068 6.76737,-3.60308 6.07371,-3.49159 8.9537,-1.43902 l 2.29048,1.63243 1.79015,0.31771 c 2.13338,0.37864 6.43363,-0.016 6.95974,-0.63861 l 0.37309,-0.44157 -2.68416,-0.29666 -2.6842,-0.29666 -1.80219,-1.0726 c -0.99118,-0.58992 -1.98806,-1.43878 -2.21526,-1.88635 l -0.41307,-0.81375 0.78923,-0.72061 c 0.43406,-0.39634 2.44015,-1.67832 4.45798,-2.84885 2.01782,-1.17053 3.77916,-2.3396 3.91403,-2.59794 0.13491,-0.25834 0.67981,-0.46971 1.21092,-0.46971 1.29507,0 7.00662,-2.28128 7.79721,-3.11433 0.34647,-0.36508 0.81609,-0.66378 1.04353,-0.66378 0.22744,0 0.84178,-0.39619 1.36514,-0.8804 0.5234,-0.48422 2.02134,-1.24678 3.32874,-1.69458 2.63332,-0.90193 5.76674,-2.64817 7.5985,-4.23459 0.65839,-0.57021 2.04812,-1.41325 3.08833,-1.87342 1.04018,-0.46018 1.99345,-1.03247 2.11842,-1.27175 l 0.22717,-0.43507 -0.9512,0 c -1.70866,0 -4.63514,1.34627 -24.63345,11.33203 -4.27953,2.1369 -8.76856,4.36803 -9.9756,4.95807 -3.86224,1.88795 -15.83197,8.63177 -17.41969,9.81435 l -1.53397,1.14255 -1.79561,0.24294 -1.79561,0.24294 -2.7227,1.46824 -2.72267,1.46822 0.99844,1.54929 c 0.54914,0.85211 1.36395,2.55853 1.8107,3.79203 l 0.81225,2.24273 0.76637,0 0.76632,0 0.6536,-1.18066 c 0.77627,-1.40211 1.65109,-1.51941 2.20445,-0.29558 l 0.40022,0.88509 -0.80032,0.85723 -0.80032,0.85722 0.24065,1.29664 0.24061,1.29664 -0.84445,0.99945 -0.84446,0.99945 0.26711,1.03844 c 0.72926,2.83502 3.57178,3.91999 5.2767,2.01407 z m 29.1425,-25.76754 c 2.6828,-1.9009 7.37074,-6.61366 6.57887,-6.61366 -0.23438,0 -0.64969,0.31878 -0.9229,0.7084 -0.27321,0.38962 -0.67982,0.7084 -0.90355,0.7084 -0.22373,0 -1.50356,0.81199 -2.84405,1.80443 -1.34052,0.99243 -3.64931,2.4689 -5.13069,3.28103 -3.13091,1.71644 -3.2815,1.9985 -1.06719,1.9985 l 1.62626,0 z m 142.1223,-8.26597 c 1.64597,-0.42681 4.35651,-1.29874 6.02343,-1.93763 l 3.03075,-1.16163 3.54453,-2.40543 c 1.94948,-1.32299 5.01414,-3.76366 6.81039,-5.42371 l 3.2659,-3.01826 1.79748,-2.86285 c 2.82198,-4.49453 5.82364,-12.66919 6.71518,-18.28805 l 0.42592,-2.68418 -0.1952,-5.03527 -0.19521,-5.03527 -0.74793,-1.7825 -0.74793,-1.7825 -2.39414,-1.55947 c -1.31678,-0.85771 -3.3572,-1.89363 -4.5342,-2.30205 l -2.14008,-0.74258 -0.57596,0.97326 -0.57599,0.97327 -1.37939,0 c -0.75862,0 -1.69114,-0.1907 -2.07225,-0.42378 -0.38107,-0.23308 -1.456,-0.79666 -2.38872,-1.25239 -0.93272,-0.45573 -1.72243,-1.06198 -1.75495,-1.3472 -0.0323,-0.28524 -0.0774,-0.94365 -0.0997,-1.46314 l -0.0407,-0.94453 -1.99513,-0.78351 c -1.09731,-0.43094 -3.37913,-1.12163 -5.07072,-1.53486 l -3.07564,-0.75135 -4.53906,0 -4.53902,0 -2.36095,0.54107 c -1.2985,0.29759 -2.63452,0.81826 -2.96886,1.15704 -0.33434,0.33878 -1.90079,1.23869 -3.48101,1.9998 -3.86706,1.86256 -8.27576,5.19146 -10.54138,7.95953 l -1.86153,2.27436 -1.49435,3.2466 -1.49438,3.24662 -0.52835,2.65669 -0.52839,2.65669 -0.006,4.5737 -0.006,4.5737 0.58222,3.27584 c 0.32022,1.80171 1.12824,4.90266 1.79561,6.891 1.35644,4.04133 1.40728,4.45925 0.75032,6.1658 l -0.46275,1.20288 -1.00917,0 -1.00917,0 -1.89122,-2.42201 c -2.10597,-2.69706 -4.08864,-6.78723 -4.94558,-10.20248 l -0.56546,-2.25365 0.14265,-4.4856 0.14269,-4.4856 0.70532,-2.06794 0.70531,-2.06795 -0.46291,-0.8773 c -0.62571,-1.18585 -0.59929,-1.27375 0.4349,-1.44759 l 0.89781,-0.15091 0,-2.24227 0,-2.24227 1.29682,-0.93857 c 0.71326,-0.51622 1.29683,-1.15422 1.29683,-1.41778 l 0,-0.47921 -0.79804,0 c -1.19261,0 -0.96257,-0.82671 0.32301,-1.1609 l 1.12105,-0.29142 3.35915,-3.99648 c 1.84756,-2.19806 3.27336,-3.99502 3.16845,-3.99323 -0.10486,0.002 -1.80674,0.7107 -3.78191,1.57536 l -3.59122,1.57211 -1.42503,2.21723 c -1.83252,2.85131 -1.90886,2.90861 -8.75009,6.57014 -3.18222,1.70317 -7.17202,3.93678 -8.86624,4.96358 l -3.08039,1.8669 -2.70546,0.80179 -2.70547,0.80179 -3.86435,2.32082 c -2.1254,1.27646 -5.57521,2.96946 -7.66629,3.76223 -2.09105,0.79278 -3.90905,1.6465 -4.03993,1.89716 -0.13088,0.25067 -0.5157,0.45575 -0.85515,0.45575 -0.33941,0 -1.15062,0.5313 -1.80267,1.18066 l -1.18554,1.18066 1.09002,0 c 0.59949,0 3.08222,-0.7711 5.51719,-1.71356 l 4.42721,-1.71357 2.81699,-0.23183 2.81699,-0.23183 3.35368,1.00373 c 1.84453,0.55206 4.45579,1.61415 5.80286,2.36021 l 2.44917,1.35646 2.90206,3.24016 c 1.59614,1.78209 3.62869,4.50653 4.51676,6.05432 3.29466,5.74208 7.15857,9.27996 12.9218,11.83137 1.93555,0.85688 4.417,1.98281 5.51432,2.50206 l 1.99512,0.94409 4.38927,0.7561 c 2.4141,0.41586 4.92795,0.8469 5.58634,0.95786 0.65839,0.11097 3.71093,0.1275 6.78341,0.0367 l 5.58635,-0.16504 2.99268,-0.776 z m -118.70975,-6.03527 c 3.73088,-1.95709 7.89562,-4.2158 9.25494,-5.01934 1.35935,-0.80355 2.63918,-1.461 2.84408,-1.461 0.2049,0 0.59606,-0.31878 0.86928,-0.7084 l 0.49674,-0.70839 -0.75811,0 c -0.41698,0 -1.12496,0.30411 -1.57335,0.6758 -1.11483,0.92417 -12.4723,6.44485 -15.30154,7.4378 -2.47256,0.86778 -8.01776,4.2299 -8.78792,5.32824 l -0.48888,0.69717 3.33069,-1.34176 c 1.83185,-0.73798 6.3832,-2.94303 10.11407,-4.90012 z m 86.95355,4.389 c -0.21607,-0.25574 -2.05481,-1.30569 -4.08604,-2.33321 l -3.69321,-1.86822 -1.92546,-1.90798 c -1.05901,-1.04939 -2.98206,-3.54744 -4.27351,-5.55122 -1.2914,-2.00379 -3.79097,-5.37816 -5.55462,-7.49862 l -3.20656,-3.85538 -1.95545,-1.02374 c -2.2497,-1.17781 -5.24817,-2.21524 -7.69212,-2.66139 l -1.69585,-0.30958 0,0.44958 0,0.44958 1.73979,0.28224 c 2.72825,0.44258 6.02834,2.09229 9.18645,4.59226 l 2.90291,2.29795 3.11825,4.99585 c 3.49067,5.59247 5.97906,8.45535 9.30988,10.71083 2.76771,1.87418 6.39329,3.66976 7.44033,3.68484 l 0.77809,0.0112 z M 30.800839,455.74735 c 1.316781,-0.3081 3.348804,-0.75745 4.515611,-0.99857 1.166807,-0.24113 2.693075,-0.74475 3.391707,-1.11915 l 1.270242,-0.68074 -1.596097,0.26218 c -1.853492,0.30446 -7.053793,1.39327 -10.068561,2.1081 -2.103278,0.4987 -2.743113,1.00147 -2.315826,1.81973 l 0.231977,0.44424 1.088402,-0.63782 c 0.598621,-0.3508 2.165765,-0.88989 3.482545,-1.19797 z m 473.841411,-6.09859 c 1.42652,-0.81029 2.23454,-1.37974 1.79561,-1.26543 -1.2193,0.31754 -6.7313,3.10807 -7.17864,3.63428 l -0.39524,0.46492 1.59231,-0.68025 c 0.87578,-0.37414 2.75945,-1.34323 4.18596,-2.15352 z m 61.36883,0.84594 0.11859,-1.16835 -1.40596,-3.88777 -1.40596,-3.88776 -0.65752,-3.84056 -0.65751,-3.84055 0.27114,-4.05417 c 0.35014,-5.23523 1.14939,-8.85373 2.86072,-12.95209 0.75831,-1.816 1.31176,-3.53214 1.22988,-3.81365 l -0.14888,-0.51183 -1.64478,3.00085 c -2.54737,4.64764 -4.44058,11.59827 -4.4567,16.36197 -0.0148,4.40533 2.92445,17.2845 4.43699,19.44155 0.64865,0.92499 1.31961,0.53544 1.45999,-0.84764 z M 63.121812,445.16461 c 0.877853,-0.0756 3.456827,-0.72318 5.731051,-1.43902 l 4.134953,-1.30151 0.852851,0.48608 c 0.469069,0.26735 1.672682,0.59979 2.6747,0.73877 l 1.82185,0.25268 0.626743,-0.86634 c 0.344709,-0.47649 0.871585,-0.96379 1.170833,-1.0829 l 0.54409,-0.21656 -0.516972,-0.74147 -0.516976,-0.74146 1.315025,-0.50716 c 0.723259,-0.27895 2.516004,-0.70578 3.983875,-0.94853 1.467871,-0.24275 2.994139,-0.6653 3.391707,-0.939 l 0.722852,-0.49764 -1.470365,-0.0143 c -0.808702,-0.008 -1.955574,0.20397 -2.548608,0.47083 -0.593034,0.26685 -2.894124,0.79428 -5.113537,1.17205 -4.725242,0.80431 -7.701748,1.50104 -10.295147,2.40987 -1.028821,0.36054 -2.659522,0.65552 -3.623776,0.65552 l -1.753189,0 -2.561102,0.92875 c -1.408608,0.5108 -4.149159,1.12586 -6.090113,1.36678 l -3.529015,0.43804 -0.461229,0.58168 -0.461232,0.58169 5.187317,-0.32465 c 2.853024,-0.17856 5.90556,-0.38653 6.783414,-0.46215 z m 440.722388,-1.38648 1.39659,-1.00223 -0.66821,-0.15235 c -0.82777,-0.18873 -3.92057,1.63034 -3.92057,2.30593 l 0,0.49449 0.8978,-0.3218 c 0.4938,-0.177 1.52627,-0.77281 2.29439,-1.32404 z M 95.423,441.14783 c 11.70418,-6.45063 37.91746,-8.89303 43.91246,-10.73162 l 0,-0.91055 -0.99311,-2.30091 c -10.64492,1.84766 -33.5656,6.7342 -43.451333,11.02732 l 0.02989,0.84867 c 0.01644,0.46678 -0.103072,1.22058 -0.265587,1.67514 l -0.295481,0.82646 0.418165,0 c 0.229994,0 0.52024,-0.19547 0.644995,-0.43438 z m 20.76905,-5.23279 c -77.461367,242.72331 -38.730683,121.36165 0,0 z m 308.34259,-28.98946 c 1.671,-1.30201 3.37187,-2.65218 5.49006,-2.65218 0.32022,-4.30411 -3.70397,-6.99833 -7.08808,-7.08396 -7.93,4.4111 -38.76676,24.53815 -38.99942,9.68139 l -1.09732,-0.14944 -1.09732,-0.14943 0,1.44816 c -1.97668,9.58882 -4.22252,8.01005 -12.64673,7.0808 l -0.55975,0.80414 -0.55975,0.80415 1.55244,-0.2957 c 1.84069,-0.61838 4.26817,2.07449 4.66728,3.3169 0.38529,1.19941 1.02106,1.9924 1.61114,2.00951 0.13714,0.004 0.35796,-0.63535 0.49068,-1.42071 l 0.24129,-1.42794 0.62383,-0.28333 c 0.88268,-0.40088 1.1962,0.1487 0.58342,1.02262 l -0.51878,0.73982 0.36216,0.40747 c 21.56138,2.67952 37.37357,-6.58392 46.94485,-13.85227 z m 217.59281,11.00262 0.26527,-0.50799 0.93807,0.27865 0.93806,0.27865 0.47568,-1.06685 c 0.26164,-0.58677 1.34619,-2.19969 2.41015,-3.58429 2.13609,-2.77993 2.25065,-3.12944 1.24439,-3.79593 l -0.68999,-0.45701 0.68999,-0.90237 c 0.37952,-0.4963 0.69,-1.16561 0.69,-1.48734 l 0,-0.58497 -0.89781,0.33114 c -0.49379,0.18213 -2.06495,1.16961 -3.49146,2.19439 l -2.59366,1.86325 -1.98594,-0.26395 -1.98595,-0.26396 -1.00674,-0.8597 c -0.55372,-0.47283 -2.05637,-1.44033 -3.33927,-2.15001 l -2.33254,-1.29031 0.45653,-0.65108 0.45656,-0.65108 -0.51813,-0.38851 c -0.28499,-0.21368 -1.59554,-0.52683 -2.91232,-0.69589 -1.31678,-0.16906 -3.07145,-0.6143 -3.89931,-0.98942 l -1.50512,-0.68203 -1.34874,-1.61577 c -1.95598,-2.34332 -3.4743,-3.74097 -4.06386,-3.74097 -0.28355,0 -0.65911,-0.2889 -0.8346,-0.642 -0.17549,-0.3531 -2.20449,-1.59953 -4.50886,-2.76985 -4.26182,-2.16445 -4.85074,-2.43535 -9.77609,-4.49698 l -2.79318,-1.16916 -4.93573,-0.0656 -4.93569,-0.0656 -0.59953,1.0626 c -0.32976,0.58442 -0.80902,1.06259 -1.06504,1.06259 -0.25605,0 -1.1699,0.42504 -2.03083,0.94453 -0.86094,0.51949 -1.96568,0.94453 -2.45496,0.94453 -1.15242,0 -1.4402,0.59499 -0.79382,1.64123 l 0.51642,0.83584 0.8674,-0.32583 0.8674,-0.32584 0,-0.62149 0,-0.62149 0.75635,-0.23409 c 0.41598,-0.12875 2.1667,-0.14863 3.89048,-0.0442 1.72379,0.10444 4.79448,0.2813 6.82376,0.393 l 3.68958,0.20311 4.53339,1.86956 c 15.48191,6.38471 28.6944,15.17523 25.19668,16.7638 -0.91201,0.41422 -0.71581,1.51871 0.42731,2.40519 l 1.02589,0.79555 3.46313,0.26554 3.46318,0.26555 2.62498,-1.24291 c 1.44371,-0.68359 2.84548,-1.2429 3.11498,-1.2429 l 0.49004,0 -0.719,1.44057 c -0.39543,0.79231 -1.57539,2.29521 -2.62207,3.33978 l -1.90302,1.89921 0.22955,0.43961 0.22956,0.43961 0.75161,-0.47608 c 0.41339,-0.26185 0.87099,-0.70468 1.01687,-0.98407 z m -94.39057,-1.37599 0,-0.47226 -0.79805,0 -0.79804,0 0,0.47226 0,0.47226 0.79804,0 0.79805,0 z m 25.20094,-9.25764 c 2.70898,-1.97477 5.64365,-3.92338 6.5215,-4.33025 0.87785,-0.40688 1.95522,-1.04429 2.39414,-1.41647 l 0.79805,-0.6767 -1.8875,0.22524 -1.88751,0.22525 -3.42646,2.30232 -3.42642,2.30231 -2.26754,2.4581 c -3.02368,3.27786 -2.62023,3.13967 3.18174,-1.0898 z m 43.34482,-0.38791 0.44072,-1.1448 -0.47639,-0.44796 c -0.70759,-0.66534 -4.2862,-2.45736 -4.90724,-2.45736 -0.29624,0 -0.82758,0.52195 -1.18071,1.15989 l -0.64215,1.1599 0.258,0.49405 0.25797,0.49406 1.56306,-0.29582 1.56302,-0.29582 0.39815,1.23933 0.3981,1.23932 0.94338,0 0.94341,0 z m -11.48528,-7.35053 c -0.76812,-0.49475 -2.35763,-1.14297 -3.53224,-1.4405 l -2.13566,-0.54095 -1.39658,0.31009 c -0.76812,0.17055 -1.32811,0.39109 -1.24448,0.49009 0.26268,0.31091 7.45597,1.95533 8.9075,2.0363 l 0.79805,0.0445 -1.39659,-0.89955 z m 30.93991,-4.75777 0.26216,-0.50203 -0.69945,-0.91476 c -0.83515,-1.09224 -1.68807,-1.14216 -2.77042,-0.16216 l -0.79805,0.72258 0.77454,0.67919 c 0.90595,0.79441 2.85319,0.90118 3.23122,0.17718 z m -61.74458,-2.89834 c 0.7164,-0.84789 0.57998,-1.87527 -0.45166,-3.40117 l -0.92653,-1.37044 -1.04002,0.30894 -1.04002,0.30895 -0.24819,0.92559 -0.24824,0.92559 0.48087,1.08043 c 0.81552,1.83238 2.46721,2.41346 3.47379,1.22211 z m -2.56864,-1.55709 -0.25071,-0.77326 0.40964,-0.48481 c 0.22529,-0.26665 0.74294,-0.40884 1.1503,-0.31599 l 0.74067,0.16883 0,0.93806 0,0.93806 -0.8996,0.15119 -0.89956,0.15118 z m 126.5455,-13.4609 c -1.10901,-0.56402 -2.49865,-0.56402 -2.79317,0 l -0.2466,0.47226 1.91891,-0.0332 1.91891,-0.0332 -0.79805,-0.40588 z m 159.0112,-10.24227 c 11.52183,-0.15389 23.10351,-0.35391 25.73707,-0.44448 6.30004,-0.21669 25.77674,-0.58125 36.31122,-0.67967 l 8.37951,-0.0783 1.79561,-0.41527 1.79561,-0.41528 15.16293,-0.18352 c 8.3396,-0.10094 18.66436,-0.33895 22.9439,-0.52892 4.27953,-0.18996 9.16862,-0.37994 10.86459,-0.42218 l 3.08362,-0.0768 0.1958,0.6039 c 0.27018,0.83331 1.23223,0.75622 2.00709,-0.16085 l 0.64614,-0.76475 4.07089,-0.14811 c 2.23901,-0.0814 9.97748,-0.27507 17.19667,-0.43027 7.2192,-0.1552 13.2605,-0.38074 13.4253,-0.50121 0.1646,-0.12046 4.3135,-0.34663 9.2195,-0.50258 4.9061,-0.15596 14.0376,-0.50359 20.2923,-0.77251 6.2547,-0.26894 13.8861,-0.44426 16.9586,-0.38962 l 5.5863,0.0993 5.506,-0.76004 c 6.2667,-0.86504 6.1027,-0.90731 6.4705,1.66851 l 0.2746,1.92397 0.8574,-0.9217 0.8574,-0.92172 3.1922,-0.34047 c 1.7557,-0.18726 4.7184,-0.41475 6.5839,-0.50552 1.8654,-0.0908 4.4477,-0.37515 5.7385,-0.63194 l 2.3468,-0.46691 1.1759,-1.68843 c 0.6468,-0.92864 1.5659,-1.94077 2.0425,-2.24919 l 0.8665,-0.56075 2.5937,-0.0931 c 1.4265,-0.0512 13.0979,-0.21711 25.9365,-0.36865 12.8387,-0.15154 24.6897,-0.4285 26.3357,-0.61546 3.7076,-0.42114 5.3172,-0.40967 9.4021,0.067 l 3.2173,0.37542 1.4712,-1.5289 c 0.8092,-0.84089 1.4713,-1.72531 1.4713,-1.96539 l 0,-0.43649 -2.6934,0.28101 c -1.4814,0.15456 -3.9504,0.4797 -5.4866,0.72253 -1.5362,0.24284 -6.7788,0.54538 -11.6502,0.67232 l -8.857,0.23079 -0.2266,-0.43391 -0.2265,-0.43391 0.7586,-0.28498 c 0.4173,-0.15675 2.7991,-0.36283 5.2929,-0.45798 2.4938,-0.0951 5.0729,-0.31322 5.7312,-0.48462 2.0605,-0.53644 11.0377,-1.68169 14.0977,-1.79849 l 2.925,-0.11164 0.5107,-0.82647 c 0.2809,-0.45455 0.8288,-0.82646 1.2176,-0.82646 l 0.7068,0 -0.2113,1.86472 -0.2114,1.86471 0.47,0.7606 0.4699,0.7606 1.1852,-0.60491 1.1852,-0.60491 27.1337,-0.11586 c 14.9235,-0.0637 31.7124,-0.32257 37.3087,-0.57522 l 10.1752,-0.45934 45.0897,-0.0554 c 24.7994,-0.0305 70.4976,-0.14088 101.5517,-0.2454 l 56.462,-0.19005 5.0283,-0.4752 5.0283,-0.4752 4.9473,0.20318 c 2.721,0.11174 7.6407,0.33671 10.9326,0.49992 l 5.9854,0.29675 2.9927,-0.72717 c 1.646,-0.39994 4.6599,-0.79158 6.6977,-0.87031 l 3.705,-0.14314 0.3877,0.70839 c 0.2133,0.38962 0.3416,1.2397 0.2853,1.88906 l -0.1025,1.18066 4.7882,-0.14512 4.7883,-0.14511 2.5937,-0.85358 c 5.264,-1.7324 6.231,-2.01054 8.3795,-2.41042 1.2071,-0.22464 5.1258,-0.55381 8.7083,-0.73147 l 6.5137,-0.32302 0.9137,0.57875 0.9137,0.57876 1.2476,-0.76361 c 1.5804,-0.96723 2.4668,-2.56335 2.7343,-4.92336 l 0.2101,-1.85407 -0.8562,-2.92788 -0.8561,-2.92788 0.2713,-1.72967 c 0.1491,-0.95132 0.5303,-2.20085 0.8468,-2.77673 l 0.5757,-1.04706 -0.2634,-1.78653 c -0.1449,-0.98259 -0.6555,-2.74286 -1.1346,-3.91171 l -0.8712,-2.12519 -1.1567,-0.64977 -1.1566,-0.64976 -7.489,-0.29492 c -4.119,-0.1622 -7.6149,-0.4439 -7.7688,-0.62598 l -0.2797,-0.33105 0.9449,-0.24124 c 0.5197,-0.13267 4.4027,-0.4137 8.6289,-0.62448 l 7.684,-0.38326 1.4666,-1.73581 1.4666,-1.73582 0.1442,-2.73952 0.1441,-2.73952 -0.3642,-0.63629 -0.3643,-0.63629 -2.9452,0.54133 c -1.6198,0.29774 -5.567,0.66895 -8.7717,0.82491 l -5.8265,0.28358 -1.3307,-0.54902 -1.3307,-0.54902 -0.4242,0.50187 -0.4242,0.50187 -0.125,5.05343 c -0.1405,5.67971 -0.1405,5.67508 0.078,12.02305 l 0.1587,4.60829 0.645,1.16504 0.645,1.16503 1.8253,-1.52295 1.8253,-1.52295 5.4543,0.0161 5.4543,0.0161 1.349,0.74647 1.349,0.74648 0.1653,2.27612 0.1653,2.27612 -0.4718,1.34782 c -0.2594,0.7413 -0.7613,1.52999 -1.1152,1.75265 l -0.6436,0.40484 -5.1873,0.1077 c -2.853,0.0592 -5.8692,0.0815 -6.7027,0.0494 l -1.5154,-0.0583 -0.9502,-1.21348 -0.9502,-1.2135 -0.9261,0.70629 c -0.5094,0.38847 -1.6444,0.85598 -2.5222,1.03894 -0.8779,0.18296 -1.8093,0.53243 -2.0699,0.77661 l -0.4738,0.44396 -2.9179,0.0771 -2.9179,0.0771 -1.6971,-0.60127 -1.6971,-0.60128 -0.6665,-1.7524 -0.6667,-1.7524 -0.3054,-4.25038 c -0.1679,-2.33771 -0.5322,-5.41923 -0.8094,-6.84783 l -0.504,-2.59745 -0.019,-7.65004 -0.019,-7.65004 -0.4715,-0.55866 -0.4715,-0.55867 -0.6055,1.71507 -0.6054,1.71508 -3.1128,0.0155 c -1.712,0.009 -7.1529,0.10959 -12.0909,0.22462 -4.9379,0.11504 -21.8166,0.34186 -37.5083,0.50406 -15.6916,0.1622 -32.1214,0.37725 -36.5107,0.47789 -4.3893,0.10064 -16.2775,0.18737 -26.4183,0.19275 l -18.4379,0.01 -1.0728,1.17677 c -0.5901,0.64723 -1.0915,1.17661 -1.1144,1.1764 -0.507,-0.005 -6.1297,-1.56413 -6.5849,-1.82626 l -0.639,-0.36799 -8.978,0.18808 c -4.938,0.10345 -9.2474,0.18845 -9.5766,0.18888 -0.3292,4.5e-4 -2.1629,-0.19749 -4.0749,-0.43985 l -3.4764,-0.44065 -2.1099,0.41764 -2.11,0.41764 -15.562,-0.005 c -8.5591,-0.003 -25.2582,0.0535 -37.1093,0.1254 -11.851,0.0719 -30.5253,0.13 -41.4985,0.12916 -10.9732,-9.4e-4 -23.2731,4.7e-4 -27.3332,0.003 -4.06,0.002 -10.8833,0.17144 -15.1629,0.37521 l -7.781,0.37049 -3.5912,-0.48932 c -1.9751,-0.26912 -4.1733,-0.62971 -4.8847,-0.80131 l -1.2935,-0.312 -0.4177,-1.83603 -0.4178,-1.83603 -0.5691,0 c -0.313,0 -0.7439,0.38664 -0.9576,0.85921 l -0.3885,0.85921 0.7708,1.38405 c 0.424,0.76122 0.7721,1.64025 0.7735,1.9534 0,0.31315 0.4516,1.35226 1.0002,2.30916 l 0.9976,1.73979 0,1.56863 0,1.56862 -0.8399,0.92607 -0.8398,0.92606 0.038,5.50455 0.038,5.50456 -1.1602,-0.30162 -1.1603,-0.30161 -0.406,0.85529 -0.4061,0.85529 0.7937,1.00275 0.7937,1.00276 -0.6491,0.76823 c -0.8729,1.03334 -1.3898,0.96778 -1.3898,-0.1764 0,-0.51949 -0.1604,-0.94453 -0.3564,-0.94453 -0.4331,0 -0.8407,1.16676 -0.8407,2.40636 0,0.50177 -0.2245,1.3483 -0.4988,1.88119 l -0.4988,0.96887 0.8978,0.87141 c 1.9323,1.87549 1.1541,2.29086 -4.5076,2.4059 l -4.2611,0.0866 -0.3361,-0.6436 -0.3361,-0.64361 -1.3148,0.67265 -1.3148,0.67265 -1.7956,-0.0307 c -0.9876,-0.0169 -2.6036,-0.0994 -3.5912,-0.18337 -0.9876,-0.084 -4.2197,0.0163 -7.1824,0.22283 -2.9628,0.20654 -8.4394,0.45505 -12.1703,0.55225 -10.6848,0.27838 -18.2011,0.63212 -18.9051,0.88975 -0.3559,0.13025 -2.5489,0.0541 -4.8733,-0.16924 l -4.2263,-0.40607 -1.1536,-0.71538 -1.1536,-0.71538 -1.4816,1.38882 c -0.8149,0.76384 -1.5932,1.80514 -1.7297,2.314 l -0.2481,0.92519 -1.0939,0 c -0.6017,0 -1.4425,-0.30513 -1.8685,-0.67805 l -0.7746,-0.67805 -1.5961,0.2474 -1.5961,0.24741 -1.3426,-1.10421 -1.3426,-1.10422 -0.6692,-2.32854 c -0.8438,-2.93643 -1.1551,-3.03947 -2.9911,-0.99011 l -1.4922,1.66573 -0.7556,0 -0.7556,0 -0.4156,-0.91896 -0.4155,-0.91896 -0.2872,-5.10241 -0.2873,-5.10241 -0.2671,3.06972 c -0.7006,8.04991 -1.1712,12.4124 -1.3829,12.81769 l -0.2319,0.44412 -0.8179,-0.30725 c -0.4499,-0.16899 -2.2753,-0.37176 -4.0564,-0.4506 l -3.2385,-0.14335 -1.1971,0.403 c -0.6584,0.22165 -2.1846,0.64092 -3.3917,0.93171 l -2.1946,0.52872 -3.1922,-0.53669 c -1.7557,-0.29517 -4.2228,-0.59987 -5.4825,-0.67711 -1.2596,-0.0772 -2.7858,-0.36238 -3.3917,-0.63365 -0.6058,-0.27127 -1.6102,-0.62523 -2.232,-0.78659 l -1.1305,-0.29338 -0.2116,0.95808 -0.2117,0.95807 -0.4498,-0.329 c -0.9506,-0.69538 -23.249,-0.81702 -35.9702,-0.19623 -4.1698,0.20348 -8.6589,0.3022 -9.9756,0.21937 -3.0366,-0.19101 -3.6718,-0.18009 -7.6812,0.13209 l -3.292,0.25632 0,-0.74436 0,-0.74436 -1.89537,-0.0842 c -2.46317,-0.10942 -2.21326,-0.13239 -8.54925,0.78568 l -5.45678,0.79069 c -11.0181,-3.88716 -54.85587,0.72561 -82.24681,-1.77331 -9.06887,-0.82736 -18.16892,0.0667 -21.24274,-3.70617 17.49501,-1.98219 49.83961,-0.34134 75.33212,-0.59783 14.00018,-0.14086 29.07252,-1.63868 31.14486,-2.78847 -26.36613,-1.91078 -84.04122,-4.62466 -101.20705,-4.03654 0,-0.58284 -1.37444,-0.48986 -5.2712,0.35659 l -3.47558,0.75497 -0.99796,1.18111 -0.99792,1.18112 -1.81113,-0.81862 -1.81109,-0.81863 0,-0.82528 0,-0.82529 -0.69829,-0.21434 c -2.13079,0.31786 -1.79372,0.9483 -0.0882,1.58898 l -0.22884,0.43826 c -23.9806,-2.77297 -31.54873,-2.13934 -50.25931,0.0274 l -0.51454,0.7935 -0.51454,0.7935 -0.36667,-0.70217 c -0.20166,-0.3862 -0.2774,-1.12898 -0.16835,-1.65063 0.21296,-1.01847 0.23898,-5.45609 0.072,-12.28279 -0.97597,-4.55234 0.45975,-18.65982 -0.39519,-22.98519 0.26709,-0.31607 0.53414,-0.63217 0.8012,-0.94826 l 15.90551,0.0774 c 8.74801,0.0426 16.17481,0.0749 16.504,0.0719 1.35154,-0.0122 56.52958,-0.009 142.42612,0.007 l 91.1514,0.0177 0.9559,0.4301 0.9558,0.4301 -0.1656,0.58742 -0.1656,0.58743 -3.9568,0.11586 c -3.5029,0.10257 -5.9115,0.26302 -7.7144,0.51388 -0.3109,0.0433 -0.4471,0.21849 -0.3027,0.3894 0.1444,0.17091 0.063,0.59595 -0.1819,0.94453 l -0.4444,0.63378 0.4479,0 c 0.2463,0 0.4479,-0.20532 0.4479,-0.45626 l 0,-0.45625 2.6934,0.25462 c 3.436,0.32482 3.0287,0.3584 6.2846,-0.51826 l 2.7932,-0.75208 0.8737,0.4687 0.8736,0.4687 0.421,1.79414 c 0.2315,0.98678 0.4219,2.6848 0.4231,3.77339 0,1.08859 0.1565,2.09207 0.345,2.22997 l 0.3428,0.25072 0.2773,-4.82743 0.2772,-4.82741 0.508,-0.60974 0.5079,-0.60974 1.1664,0.54298 1.1664,0.54298 2.3942,-0.0568 2.3941,-0.0569 0.8131,-1.17511 c 0.4471,-0.64632 0.9339,-1.17512 1.0817,-1.17512 0.4501,0 1.9507,2.05891 2.3234,3.18779 l 0.3509,1.06259 0.762,0 0.762,0 0.6217,1.12301 0.6217,1.123 1.8742,0.33264 1.8742,0.33263 0.8309,-0.98337 0.8308,-0.98338 -0.4975,0 -0.4976,0 -0.3997,-1.24441 -0.3998,-1.2444 0.6174,-1.11522 0.6174,-1.11521 14.0573,0.0212 c 7.7316,0.0117 27.9734,-0.09 44.9818,-0.22595 41.1456,-0.32884 66.0468,-0.31383 68.1983,0.0411 l 1.7607,0.29048 0.5337,-0.86379 0.5336,-0.8638 0,0.56253 0,0.56253 14.4646,0.0265 14.4647,0.0265 4.1897,0.47398 c 2.3044,0.26069 4.6387,0.47564 5.1873,0.47766 0.5487,0.002 9.7063,-0.10331 20.3503,-0.23406 l 19.3527,-0.23774 1.197,-0.43491 1.1971,-0.43491 9.2275,0.21884 9.2274,0.21884 0.2738,-0.52439 0.2739,-0.52439 0.9731,0.28907 0.9731,0.28906 -0.01,-1.82219 c 0,-1.0022 -0.1677,-2.12427 -0.3651,-2.49348 l -0.359,-0.67129 -1.3308,0.048 c -0.7318,0.0264 -4.9903,0.0555 -9.4631,0.0645 l -8.1325,0.0165 -0.6461,-0.40031 -0.6461,-0.40032 -3.7823,0.3778 c -2.0803,0.20779 -3.9382,0.26385 -4.1286,0.12457 -0.5806,-0.42475 -12.9027,-0.18641 -18.6374,0.3605 l -5.4,0.51499 -4.7751,-0.56789 c -2.6263,-0.31234 -5.0444,-0.53201 -5.3736,-0.48815 -0.3292,0.0439 -3.2581,0.1606 -6.5086,0.25944 -3.2505,0.0988 -8.4578,0.41345 -11.5717,0.69915 l -5.6617,0.51945 -3.7907,-0.47498 c -2.0849,-0.26124 -4.99,-0.47867 -6.4557,-0.48317 l -2.6649,-0.008 -0.6445,0.76285 -0.6445,0.76284 -0.6809,-0.68962 -0.6807,-0.68962 -5.1874,0.31477 c -2.853,0.17313 -12.4761,0.27751 -21.3847,0.23196 l -16.1976,-0.0828 -1.16,-1.01467 -1.1601,-1.01466 -7.3819,0.0333 c -9.768,0.0441 -12.1678,0.26777 -15.3973,1.43518 l -1.232,0.44531 -1.7607,-0.94544 -1.7608,-0.94544 -2.2146,-0.0104 -2.2145,-0.0104 -0.4908,0.58078 -0.4907,0.58078 -16.2483,0.006 c -8.9366,0.003 -20.4565,-0.085 -25.5997,-0.19573 l -9.3513,-0.20139 -2.1579,-1.53787 c -1.1868,-0.84582 -2.6776,-1.67301 -3.3131,-1.83819 -0.6354,-0.16517 -1.2577,-0.49648 -1.3829,-0.73625 -0.3069,-0.58748 -1.7768,-0.55742 -1.7768,0.0364 l 0,0.47227 -1.6101,0 -1.6102,0 -0.9465,-0.73406 -0.9466,-0.73406 -0.26,0.49793 -0.26,0.49792 -1.644,0 c -0.9042,0 -2.2202,0.24663 -2.9245,0.54806 l -1.2806,0.54805 -1.089,-1.01388 c -1.348,-1.25495 -1.6523,-1.05119 -1.9929,1.33456 -0.3372,2.36254 -0.046,2.20684 -4.881,2.61196 l -4.083,0.34213 -0.2772,-0.88671 c -0.427,-1.36629 -0.9298,-1.58008 -3.7342,-1.58788 l -2.6008,-0.007 -1.468,1.18066 -1.4681,1.18066 -1.0614,0 -1.0614,0 0.2147,-0.66222 c 0.3594,-1.10838 -0.1829,-1.2455 -1.1959,-0.30239 l -0.9598,0.8935 -8.6631,-0.31864 c -9.7455,-0.35845 -12.8817,-0.34143 -20.0354,0.10872 -4.1278,0.25975 -14.4631,0.34235 -27.7322,0.22165 -1.3168,-0.012 -7.60135,0.0662 -13.96579,0.17366 -6.36444,0.10749 -12.91841,0.064 -14.56439,-0.0966 l -2.99268,-0.29199 -3.79073,0.35419 c -2.0849,0.19481 -4.34502,0.35846 -5.02244,0.36367 -0.67746,0.005 -1.7842,0.2844 -2.45943,0.62043 l -1.22772,0.61095 -3.72545,-0.34362 c -2.04899,-0.18899 -4.2042,-0.2341 -4.78937,-0.10024 l -1.06392,0.24337 -1.61281,-0.51398 c -1.90423,-0.60688 -7.17167,-1.13679 -10.82374,-1.08889 -1.42651,0.0187 -4.11992,0.045 -5.98536,0.0585 -7.56151,0.0545 -8.64758,0.0927 -10.27137,0.36098 l -1.6923,0.27962 -2.49745,-0.51122 c -1.37356,-0.28117 -4.02368,-0.53278 -5.88912,-0.55912 -1.86544,-0.0263 -5.09606,-0.24721 -7.17913,-0.49083 l -3.78746,-0.44294 -2.00753,0.53174 -2.00757,0.53173 -1.572,-0.77738 -1.57199,-0.77739 -4.00521,0.0924 c -2.20286,0.0508 -4.98386,0.062 -6.17997,0.0249 l -2.17476,-0.0675 -0.26759,0.51244 -0.26758,0.51243 -1.5479,-0.005 -1.5479,-0.005 -0.64769,0.685 -0.64774,0.685 -1.94592,-0.0788 c -1.0703,-0.0434 -2.79888,0.0683 -3.84133,0.24813 l -1.89536,0.32699 0,-0.73941 c 0,-0.40668 -0.19876,-0.73941 -0.44172,-0.73941 l -0.44172,0 0.22968,0.70839 0.22967,0.7084 -0.79832,0 c -0.43909,0 -1.46355,-0.32896 -2.2766,-0.73102 l -1.47822,-0.73102 -1.4019,0.26731 c -1.64058,0.31282 -4.83477,-0.26472 -4.92839,-0.89111 -0.0355,-0.23809 0.47401,-0.63705 1.1324,-0.88657 0.65839,-0.24952 1.56776,-0.85165 2.02085,-1.33808 l 0.82375,-0.88442 10.24918,0 c 5.63702,0 10.24914,-0.0736 10.24914,-0.16357 0,-0.09 -0.28251,-0.83378 -0.62774,-1.65293 l -0.62779,-1.48935 -2.06563,-0.0807 c -4.24921,-0.16604 -12.38575,-1.02681 -17.01667,-1.8002 -2.90486,-0.48513 -2.98031,-0.45916 -2.61561,0.9008 l 0.26284,0.98011 0.74761,0 c 0.41116,0 0.87099,0.23628 1.02178,0.52507 l 0.27417,0.52506 -0.52495,0.384 -0.52496,0.38401 -6.40933,-0.25002 -6.40933,-0.25002 -0.78224,0.70601 -0.78229,0.70601 0.44858,1.16521 0.44859,1.16522 1.28134,0.30331 c 0.70476,0.16682 1.84254,0.30657 2.52834,0.31054 0.68584,0.004 1.49443,0.19274 1.79685,0.41947 l 0.54989,0.41223 -0.27836,0.53307 -0.27836,0.53307 -3.12328,-0.16872 -3.12324,-0.16873 -1.50967,-1.05421 -1.50967,-1.05421 -0.82594,0.47032 c -0.801,0.45614 -1.51669,0.607 -7.01078,1.4778 -1.42651,0.22609 -3.34362,0.60812 -4.26026,0.84893 l -1.66661,0.43785 -2.49015,-1.02123 -2.49019,-1.02124 -1.93112,0.59287 c -1.06212,0.32607 -2.09464,0.71247 -2.29447,0.85866 -0.36008,0.2634 -5.55621,-0.46444 -6.92826,-0.97046 -0.39228,-0.14469 -1.16188,-1.10413 -1.71014,-2.13209 l -0.99688,-1.86902 -0.38474,0.28142 -0.38474,0.28141 0,5.40317 0,5.40317 1.16444,0 c 0.64043,0 1.43808,0.12427 1.7725,0.27616 l 0.60808,0.27617 -0.27617,27.23322 c -0.15191,14.97827 -0.25462,29.79892 -0.22828,32.93478 l 0.0479,5.70156 0.48649,1.07589 0.48653,1.0759 10.43876,-0.30629 c 5.74136,-0.16846 19.86575,-0.43219 31.38757,-0.58608 z m 327.99965,-23.14589 c -1.8824,-0.29655 -2.3153,-0.81951 -2.5931,-3.13286 l -0.2364,-1.96851 0.5298,-2.10912 0.5297,-2.10913 1.383,-0.43577 1.3829,-0.43576 17.9561,-0.14013 c 19.7972,-0.15449 43.9137,-0.4087 82.3986,-0.86857 13.9359,-0.16653 39.0709,-0.41676 55.8555,-0.55607 16.7846,-0.1393 30.5802,-0.32761 30.657,-0.41844 0.077,-0.0908 -0.1639,-0.71325 -0.5348,-1.38314 l -0.6743,-1.21799 0.2411,-0.74367 0.2411,-0.74367 1.0996,0.14969 1.0996,0.1497 0.761,1.93617 0.7611,1.93617 7.1437,0.31741 c 3.929,0.17458 7.2736,0.22236 7.4324,0.10618 0.1589,-0.11618 11.6848,-0.34562 25.6134,-0.50988 13.9285,-0.16425 38.0733,-0.5086 53.6552,-0.76521 15.5819,-0.25662 30.1638,-0.47626 32.4042,-0.48809 l 4.0734,-0.0215 1.4069,0.54956 1.4069,0.54956 0.8044,1.21016 0.8042,1.21017 0,1.78913 0,1.78913 -1.0196,1.43423 -1.0197,1.43423 -8.0581,0.19665 c -4.432,0.10815 -8.2377,0.21339 -8.4572,0.23385 -0.2195,0.0204 -1.7457,0.0124 -3.3917,-0.0179 -4.683,-0.0863 -46.159,0.57065 -53.2698,0.84377 -3.5114,0.13487 -14.9135,0.32444 -25.338,0.42127 -10.4245,0.0968 -24.2507,0.31458 -30.7249,0.48391 -11.3513,0.29688 -41.6355,0.5067 -133.6731,0.92611 -23.8118,0.10852 -46.8854,0.29201 -51.2747,0.40776 -4.3892,0.11575 -8.6082,0.11156 -9.3754,-0.009 z m -360.31276,-46.41874 -0.58401,-0.42719 0.70432,-0.31988 c 0.83252,-0.37812 1.37615,0.0943 0.83947,0.72954 l -0.37577,0.44472 z m 422.71286,-0.21194 c -0.1316,-0.40608 -0.1316,-1.07057 0,-1.47666 l 0.2395,-0.73832 0.4018,0.29393 c 0.221,0.16166 0.4018,0.69389 0.4018,1.18272 0,0.48883 -0.1808,1.02106 -0.4018,1.18273 l -0.4018,0.29393 z m -685.75757,68.11778 c 0.26336,-0.31169 0.47883,-0.74339 0.47883,-0.95932 l 0,-0.39261 -1.31195,0.10458 c -1.60639,0.12804 -2.27927,-0.31795 -2.27927,-1.51065 l 0,-0.90767 1.02697,-0.30506 1.02701,-0.30507 0.96811,0.52208 0.96815,0.52207 0,-0.66453 c 0,-0.3655 -0.28215,-0.9985 -0.62702,-1.40667 l -0.62707,-0.74213 -0.94006,0 -0.9401,0 -0.82702,1.24435 -0.82702,1.24435 0,1.19785 0,1.19785 0.66039,0.86365 0.66038,0.86365 1.05542,0 c 0.58046,0 1.27089,-0.25503 1.53425,-0.56672 z m 108.41492,-11.9005 c -2.1948,-0.82153 -3.85047,-1.89102 -4.75131,-3.06915 -0.90431,-1.18264 -0.58114,-1.28191 0.76781,-0.23583 l 0.97621,0.75704 5.20164,0.86456 5.20164,0.86456 9.2703,-0.4161 c 5.09865,-0.22885 10.94264,-0.65713 12.98664,-0.95174 l 3.71635,-0.53563 3.46609,0.25596 c 1.90634,0.14078 4.68738,0.12658 6.18005,-0.0316 l 2.71396,-0.28751 -0.1203,-1.70091 -0.12031,-1.70092 -1.5961,0.11841 c -0.87785,0.0651 -7.79095,0.22403 -15.36243,0.35314 l -13.76634,0.23474 -2.39415,-0.44944 c -1.31678,-0.2472 -3.05748,-0.5729 -3.86822,-0.7238 l -1.47408,-0.27435 -0.12202,-1.99067 c -0.0671,-1.09487 0.0347,-2.4516 0.22657,-3.01496 l 0.34855,-1.02428 2.24511,-1.1835 2.24507,-1.1835 8.18,0.15955 c 4.499,0.0878 11.92556,0.24585 16.50344,0.35133 l 8.32349,0.19178 0.5548,-0.65666 0.55485,-0.65667 0,-1.58005 0,-1.58006 -2.06543,-0.52426 c -3.56493,-0.90487 -14.05029,-1.54989 -26.2653,-1.61574 l -11.77122,-0.0635 -2.78535,0.8449 c -1.53193,0.46469 -3.71791,1.16576 -4.85768,1.55793 l -2.07237,0.71303 -1.48828,1.39982 c -2.5607,2.40851 -2.34651,0.38526 0.29332,-2.7703 l 1.65328,-1.97633 1.43636,-0.51082 1.43633,-0.51082 6.78342,-0.40724 c 3.73087,-0.22398 13.93628,-0.4447 22.67862,-0.4905 l 15.89526,-0.0833 -0.45389,-0.53613 -0.45385,-0.53613 -22.22478,0.1257 c -24.02127,0.13584 -23.72351,0.11474 -26.49773,1.87838 l -1.87877,1.19441 -1.05402,1.80011 c -0.5797,0.99006 -1.29755,2.60811 -1.59518,3.59566 l -0.54112,1.79555 -0.009,2.59746 -0.009,2.59745 0.80938,2.11176 c 1.96088,5.11637 4.77496,7.47393 8.9492,7.49747 l 1.59609,0.009 -1.59609,-0.59743 z m -7.64802,-9.05579 c -0.11025,-0.34003 -0.13388,-1.00256 -0.0525,-1.47228 l 0.14796,-0.85405 0.63397,0.12522 0.63397,0.12522 0.66174,-1.19533 0.66179,-1.19533 1.38321,1.30624 1.38318,1.30624 4e-5,0.76864 c 0,0.42275 -0.23977,1.00414 -0.53278,1.29198 l -0.53281,0.52334 -2.09368,-0.0558 -2.09368,-0.0558 -0.20043,-0.61824 z m -64.15997,5.43461 c 0.4679,-0.89605 -0.21451,-1.11716 -0.90945,-0.29467 l -0.67455,0.79835 0.6605,0 c 0.36327,0 0.77886,-0.22666 0.9235,-0.50368 z m -2.44669,-0.7916 c 0.163,-0.19291 1.04424,-0.56482 1.95829,-0.82646 l 1.66197,-0.47571 0.1328,-0.82789 0.13279,-0.82789 -0.68013,-0.30889 -0.6801,-0.3089 -1.26279,0.80487 -1.26279,0.80488 -0.63988,-0.29062 -0.63988,-0.29062 -0.25832,0.49471 -0.25833,0.4947 0.4315,0.95428 c 0.45365,1.00319 0.87119,1.18782 1.36487,0.60354 z M 1082.6643,337.3323 c -0.4359,-0.51591 -0.7348,0.30454 -0.4219,1.1579 l 0.3106,0.84683 0.1731,-0.86343 c 0.095,-0.47488 0.067,-0.98847 -0.062,-1.1413 z m 4.7267,-17.29751 0.2812,-5.84269 -0.284,-1.79173 -0.284,-1.79173 -0.4499,0.72821 -0.4499,0.72822 0.056,3.24615 c 0.031,1.78539 0.079,4.89318 0.1077,6.9062 l 0.052,3.66005 0.345,0 0.3449,0 0.2813,-5.84268 z m 11.5695,1.32244 c 0.8132,-0.96246 0.7989,-2.5007 -0.034,-3.58913 l -0.6602,-0.86365 -1.1212,0 -1.1212,0 -0.413,0.91348 c -0.2272,0.50242 -0.4037,1.29936 -0.3922,1.771 l 0.021,0.8575 0.6263,-1.06259 0.6262,-1.06259 0.9001,0 c 0.495,0 1.1047,0.29184 1.3548,0.64853 l 0.4547,0.64854 -0.2407,0.74244 c -0.1324,0.40834 -0.719,0.9498 -1.3037,1.20324 l -1.063,0.46079 0.8693,0.0373 0.8693,0.0373 0.6271,-0.74213 z m 423.1938,0.0724 c 0,-0.10863 0.098,-0.4982 0.2167,-0.86571 l 0.2166,-0.66821 -1.1967,0.20788 -1.1967,0.20788 -1.1148,-1.04224 -1.1148,-1.04223 -0.1304,1.01767 -0.1304,1.01766 0.4785,0.6824 0.4785,0.6824 1.7468,0 c 0.9607,0 1.7467,-0.0889 1.7467,-0.1975 z m -481.0238,-2.63608 0,-0.7084 -1.1459,-0.15498 -1.1459,-0.15499 -0.3955,0.46804 -0.3955,0.46803 0.282,0.54003 0.282,0.54003 1.2594,-0.14468 1.2594,-0.14468 z m 8.18,-0.94453 0,-0.47226 -0.7981,0 -0.798,0 0,0.47226 0,0.47227 0.798,0 0.7981,0 z m 130.2767,-0.92669 0.2485,-0.92669 -0.5172,-1.08043 c -0.2845,-0.59424 -0.5189,-1.39921 -0.5209,-1.78883 0,-0.38962 -0.1833,-0.7084 -0.4027,-0.7084 -0.2195,0 -0.4101,0.31878 -0.4236,0.7084 -0.014,0.38962 -0.1556,1.04366 -0.3156,1.45342 l -0.291,0.74502 0.4055,1.2621 0.4054,1.2621 0.5815,0 0.5815,0 z m 340.3138,-0.66555 1.5374,-0.6335 -0.8405,-0.26016 -0.8406,-0.26016 -0.8964,0.88506 c -1.0753,1.06176 -0.958,1.09208 1.0401,0.26876 z m -459.1186,-11.6045 c 1.1652,-1.15037 1.1359,-1.30651 -0.315,-1.68367 l -1.2127,-0.31527 0.2421,-0.90291 0.2421,-0.90292 -0.9247,0.007 c -0.5086,0.004 -1.194,0.22039 -1.5232,0.48091 l -0.5986,0.47367 0.7158,0.49867 0.7158,0.49868 -0.2236,0.83382 -0.2236,0.83382 0.9044,0.51596 c 1.1928,0.68046 1.1655,0.68465 2.2012,-0.33799 z m -481.72745,-1.73725 c 0.33215,-0.94083 0.60388,-2.3222 0.60388,-3.06972 l 0,-1.35912 c -0.53203,0 -1.06407,0 -1.5961,0 l 0,3.06972 c 0,3.52537 0.15331,3.73538 0.99222,1.35912 z m 587.42895,0.27064 c -1.0643,-0.21138 -2.1866,-0.49849 -2.4939,-0.63802 -0.3072,-0.13954 -0.8429,-0.12454 -1.1905,0.0333 l -0.632,0.28703 0.5322,0.39931 c 0.2927,0.21963 1.6994,0.37757 3.1259,0.351 l 2.5937,-0.0483 z m -169.02036,-0.46571 c 0.42452,-0.26889 0.77183,-0.69393 0.77183,-0.94453 l 0,-0.45565 -1.15437,0 -1.15438,0 -0.21472,0.66222 c -0.39511,1.21867 0.43837,1.56981 1.75164,0.73796 z m 56.93446,-0.429 c 0.4938,-0.48755 0.8979,-1.04125 0.8979,-1.23046 l 0,-0.344 -3.691,0.32608 c -4.4562,0.39369 -4.3213,0.39545 -7.205,-0.0938 l -2.317,-0.39308 -3.7593,0.29285 c -2.0676,0.16107 -3.883,0.43924 -4.0342,0.61816 l -0.2748,0.3253 0.2996,0.3542 0.2996,0.3542 8.1412,-0.10513 8.1411,-0.10514 0.9031,0.4294 c 1.2918,0.61427 1.5929,0.56461 2.5988,-0.42861 z m 100.6539,0.44561 0,-0.47226 -1.2968,0.0332 -1.2968,0.0332 0.798,0.40587 c 1.1024,0.56066 1.7956,0.56066 1.7956,0 z m -198.9136,-0.74583 c 2.85303,-0.0587 5.36688,-0.1306 5.58634,-0.1599 l 0.39903,-0.0533 -0.59854,-0.4578 -0.59853,-0.4578 -9.75615,-0.007 -9.75614,-0.007 0.44854,0.53087 c 0.24672,0.29199 1.49466,0.70001 2.77322,0.90672 l 2.32467,0.37583 1.99513,-0.28178 c 1.09731,-0.15498 4.32941,-0.32976 7.18243,-0.38841 z m 20.54976,0.24113 c 5.32258,0.12317 5.63877,0.11443 8.27975,-0.22902 1.37165,-0.17839 2.49391,-0.48904 2.49391,-0.69036 l 0,-0.36603 -2.49391,-0.0368 c -1.37164,-0.0203 -5.44812,0.0883 -9.05881,0.24115 l -6.56495,0.27798 0.7791,0.68323 0.77905,0.68323 1.19708,-0.32093 c 0.65839,-0.1765 2.72334,-0.28559 4.58878,-0.24242 z m 38.90314,0.0358 c 0.4196,-0.80362 0.2033,-0.89716 -2.8528,-1.23332 l -2.8077,-0.30885 -5.0645,0.34571 -5.06434,0.34572 0.38284,0.54599 0.3829,0.54599 7.3712,0.1486 7.3712,0.14861 z m 54.4686,-0.21816 0.1995,-0.45097 -0.9976,-0.32841 c -1.486,-0.48924 -2.9175,-0.46654 -3.5912,0.0569 l -0.5985,0.46503 0.4614,0.3542 c 0.2538,0.19481 1.3311,0.3542 2.3941,0.3542 l 1.9327,0 0.1996,-0.45098 z m 440.3182,-2.63784 c -0.1304,-0.48628 -0.1207,-1.61815 0.022,-2.51529 l 0.2585,-1.63114 3.0548,0.12338 3.0547,0.12338 0.9459,-0.72966 0.9459,-0.72967 2.0468,1.24767 c 1.1257,0.68621 2.8548,1.61047 3.8424,2.05391 0.9876,0.44344 2.0848,1.0981 2.4381,1.45481 l 0.6425,0.64855 1.1141,-0.50132 c 1.4148,-0.63666 6.2717,-0.77452 10.267,-0.29142 l 3.0895,0.37357 0.4017,-1.25057 0.4017,-1.25057 1.2664,0.14801 1.2663,0.14801 0.1418,0.51222 0.1417,0.51221 -0.9091,0.49687 -0.909,0.49687 1.1264,0.34948 1.1264,0.34948 1.6668,-0.4161 1.6667,-0.41609 0.026,-1.41474 c 0.036,-2.00871 -0.6304,-4.34466 -1.5083,-5.28506 l -0.7514,-0.80474 -6.2649,0.81528 c -3.4457,0.4484 -7.6117,0.80574 -9.2576,0.79408 l -2.9927,-0.0212 -1.7559,-1.4082 -1.7559,-1.4082 -2.0349,-0.0931 c -1.1191,-0.0512 -2.7979,-0.0406 -3.7306,0.0237 l -1.6959,0.1168 0,-0.49592 0,-0.49591 1.9692,0 c 1.083,0 2.4427,-0.21314 3.0217,-0.47364 l 1.0525,-0.47365 -0.133,-0.8179 -0.1331,-0.8179 -1.5918,-0.33417 c -2.4604,-0.5165 -7.8206,-0.44538 -11.1945,0.14853 l -3.0513,0.53713 -0.3505,-0.65519 c -0.1929,-0.36036 -0.3534,-1.97089 -0.3567,-3.57897 l -0.01,-2.92378 -0.4256,-0.3113 -0.4256,-0.31129 -0.2727,0.32248 c -0.15,0.17737 -0.3033,1.63315 -0.3407,3.23508 -0.038,1.60192 -0.082,3.2771 -0.1,3.72261 -0.018,0.44552 -0.5704,1.53617 -1.2288,2.42367 l -1.1971,1.61364 0,1.18585 0,1.18585 -0.599,0.27208 c -0.3295,0.14965 -5.6715,0.15915 -11.871,0.0211 l -11.2719,-0.25096 -2.3942,-0.49319 c -1.3167,-0.27125 -4.9639,-0.59268 -8.1047,-0.7143 l -5.7106,-0.22111 -0.9532,0.73919 -0.9532,0.73919 -5.9055,-0.0519 -5.9054,-0.0519 -0.6713,-0.69622 -0.6713,-0.69622 -3.0009,0.0365 c -3.7605,0.0458 -8.527,0.9016 -9.6025,1.72415 l -0.8179,0.6256 -2.9927,-0.69257 c -1.646,-0.38092 -4.1237,-0.92285 -5.506,-1.20429 l -2.5133,-0.51172 -1.876,0.863 -1.8759,0.863 -23.542,0.13525 -23.542,0.13525 -0.1166,0.41406 c -0.1427,0.50678 1.4812,3.83966 1.8709,3.83966 0.1539,0 0.4946,-0.25423 0.7572,-0.56495 l 0.4773,-0.56495 0.5545,0.89753 0.5545,0.89754 7.3277,0.18306 c 4.0303,0.10069 11.0985,0.15821 15.7072,0.12783 39.3697,-0.25948 57.5698,0.0135 63.2454,0.94841 2.0849,0.34345 4.6885,0.60961 5.7859,0.59145 4.5489,-0.0753 10.6065,-0.59592 11.0723,-0.95166 l 0.4994,-0.38141 5.5863,-0.0571 c 3.0725,-0.0314 8.998,-0.10027 13.1678,-0.15301 l 7.5815,-0.0959 1.0139,0.45692 c 0.5577,0.2513 1.2514,0.79549 1.5416,1.20931 l 0.5276,0.7524 0.37,-0.27068 0.3701,-0.27068 -0.2371,-0.88414 z m -0.7337,-7.28858 -0.2239,-0.69056 0.3398,-0.24854 c 0.1869,-0.1367 0.4405,0.0622 0.5637,0.44201 l 0.2239,0.69056 -0.3398,0.24854 c -0.1869,0.13671 -0.4405,-0.0622 -0.5637,-0.44201 z m -147.2992,4.95437 0,-0.70038 1.3966,-0.27779 c 0.7681,-0.15277 1.9739,-0.63622 2.6797,-1.07432 l 1.2831,-0.79655 -0.205,-0.63212 -0.205,-0.63212 -9.4576,0.19005 -9.4577,0.19005 -1.5083,-0.57901 -1.5083,-0.579 -0.4267,0.50499 -0.4267,0.505 0.2668,0.99461 c 0.1467,0.54704 0.7223,1.63554 1.2792,2.41888 l 1.0126,1.42427 7.6386,-0.12809 7.6387,-0.12808 z m -506.14256,-16.78551 1.17724,-0.72053 0,-0.68993 0,-0.68993 -1.49634,-0.74537 c -0.82299,-0.40995 -2.00598,-0.86816 -2.62886,-1.01823 l -1.13255,-0.27287 0.13499,1.12693 0.13495,1.12692 1.19708,0.25205 1.19707,0.25204 -0.0315,1.04972 c -0.0375,1.24771 -0.0486,1.24522 1.4481,0.3292 z m 662.36056,-3.32935 c 1.4265,-0.13558 2.9977,-0.36545 3.4915,-0.51084 l 0.8978,-0.26433 0,-0.62281 c 0,-0.96335 -2.6558,-3.32695 -4.4552,-3.96502 l -1.6172,-0.57344 -3.7551,0.80023 -3.7551,0.80022 -0.9897,0.92136 -0.9897,0.92136 0,1.34316 0,1.34316 0.4988,0.23875 c 0.5033,0.2409 5.888,0.0231 10.6739,-0.4318 z m -974.61695,34.16632 c 1.72558,-1.48861 8.01309,-3.79391 13.56551,-4.97376 l 1.19576,-0.25409 -0.54635,0.77909 -0.5463,0.7791 c -3.41001,0.31852 -7.15985,1.52432 -9.92541,2.61389 -1.61984,0.65841 -3.30428,1.32021 -3.74321,1.47066 l -0.79805,0.27356 z"
       id="path3176"
       style="fill:#000000;display:inline" />
  </g>
</svg>
