<?xml version="1.0" encoding="UTF-8" standalone="no"?>
<svg
   xmlns:dc="http://purl.org/dc/elements/1.1/"
   xmlns:cc="http://creativecommons.org/ns#"
   xmlns:rdf="http://www.w3.org/1999/02/22-rdf-syntax-ns#"
   xmlns:svg="http://www.w3.org/2000/svg"
   xmlns="http://www.w3.org/2000/svg"
   xmlns:sodipodi="http://sodipodi.sourceforge.net/DTD/sodipodi-0.dtd"
   xmlns:inkscape="http://www.inkscape.org/namespaces/inkscape"
   sodipodi:docname="w_e_VSHUD.svg"
   height="100%"
   width="100%"
   inkscape:version="0.48.4 r9939"
   version="1.1"
   id="svg3198"
   viewBox="0 -200 1361 1000">
  <metadata
     id="metadata3208">
    <rdf:RDF>
      <cc:Work
         rdf:about="">
        <dc:format>image/svg+xml</dc:format>
        <dc:type
           rdf:resource="http://purl.org/dc/dcmitype/StillImage" />
        <dc:title></dc:title>
      </cc:Work>
    </rdf:RDF>
  </metadata>
  <defs
     id="defs3206">
    <filter
       id="filter4070"
       inkscape:label="Clean edges"
       inkscape:menu="ABCs"
       inkscape:menu-tooltip="Removes or decreases glows and jaggeries around objects edges after applying some filters"
       height="1"
       width="1"
       y="0"
       x="0"
       color-interpolation-filters="sRGB">
      <feGaussianBlur
         id="feGaussianBlur4072"
         result="result6"
         stdDeviation="0.4" />
      <feComposite
         id="feComposite4074"
         in2="result6"
         operator="in"
         in="SourceGraphic"
         result="result7" />
      <feComposite
         id="feComposite4076"
         in2="result7"
         operator="in"
         result="result8"
         in="result7" />
    </filter>
  </defs>
  <sodipodi:namedview
     pagecolor="#ffffff"
     bordercolor="#666666"
     borderopacity="1"
     objecttolerance="10"
     gridtolerance="10"
     guidetolerance="10"
     inkscape:pageopacity="0"
     inkscape:pageshadow="2"
     inkscape:window-width="1920"
     inkscape:window-height="996"
     id="namedview3204"
     showgrid="false"
     inkscape:zoom="0.59436455"
     inkscape:cx="807.71492"
     inkscape:cy="388.6676"
     inkscape:window-x="1672"
     inkscape:window-y="-8"
     inkscape:window-maximized="1"
     inkscape:current-layer="layer10" />
  <g
     inkscape:groupmode="layer"
     id="layer10"
     inkscape:label="PUMP"
     style="display:inline">
    <path
       style="fill:#000000;display:inline"
       d="M 37.693987,701.01728 C 31.421406,699.26554 21.230479,692.98564 15.047481,687.06195 7.2777256,679.61806 3.8827721,672.56582 4.0553161,664.22828 c 0.2487216,-12.01852 0.2642355,-12.02675 4.1750988,-2.21904 5.7480231,14.41495 18.6722311,26.80389 32.5857481,31.23623 7.427286,2.36607 32.304764,2.7971 63.421837,1.09892 46.55843,-2.54085 51.08978,-3.44565 49.97641,-9.97883 -0.67341,-3.95152 0.72101,-9.52867 3.0987,-12.39359 2.3777,-2.86496 7.70229,-4.32532 11.83242,-3.24526 4.53203,1.18514 7.98809,6.09896 8.71686,12.39358 l 1.20754,10.42988 10.83094,-10.65193 c 5.95701,-5.85855 10.83094,-14.82456 10.83094,-19.92448 0,-5.09987 -2.60214,-12.71288 -5.78253,-16.91772 -8.11502,-10.72901 -7.95865,-72.52636 0.25423,-100.47026 8.91184,-30.3221 31.95416,-72.74184 46.40588,-85.43085 l 12.29247,-10.79317 -8.86167,-8.72095 c -4.87393,-4.79649 -8.86168,-6.7949 -8.86168,-4.44088 0,7.39516 -11.89962,-5.04009 -19.98047,-20.87985 -4.17406,-8.18184 -7.58919,-16.88251 -7.58919,-19.33487 0,-2.45236 3.59732,-9.0321 7.99404,-14.62161 6.19915,-7.88095 6.86239,-10.88092 2.9539,-13.36113 -3.5776,-2.27024 -3.6834,-3.21584 -0.36463,-3.25865 3.17362,-0.041 3.95069,-4.80468 2.41907,-14.82976 -1.24105,-8.1232 -3.81248,-17.42796 -5.71427,-20.67724 -2.30028,-3.9301 -2.77259,-1.95241 -1.41088,5.90778 l 2.04692,11.81557 -4.37234,-11.0771 c -2.40479,-6.09242 -3.72217,-11.72726 -2.92751,-12.52194 1.36826,-1.36824 198.50433,-3.34282 242.57947,-2.42971 15.5637,0.32256 20.67724,1.88935 20.67724,6.33613 0,4.77727 -6.783,6.002 -35.4467,6.4001 -19.49569,0.27058 -37.21904,0.71386 -39.38523,0.98463 -2.16619,0.27058 -4.38161,2.26466 -4.92315,4.43084 -0.56996,2.27982 11.12152,4.42749 27.76095,5.09956 21.47712,0.86746 29.33368,2.6936 31.0714,7.22199 1.27919,3.33353 6.06706,7.57264 10.63964,9.42024 7.16461,2.89497 6.54449,3.39383 -4.48637,3.60895 -8.23832,0.16069 -12.44927,-1.50491 -11.81557,-4.67349 0.75466,-3.77323 -19.71411,-5.40976 -87.63213,-7.00636 -86.0164,-2.02208 -87.60427,-3.42852 -5.39042,-4.77459 37.32954,-0.61118 39.61767,-1.10952 35.48394,-7.72868 -2.43025,-3.89146 -7.64158,-7.0754 -11.58073,-7.0754 -3.93915,0 -6.06672,-1.77234 -4.72795,-3.93852 1.59644,-2.58308 -24.41568,-3.71762 -75.58412,-3.29655 -45.51519,0.37456 -68.99374,1.6799 -56.35639,3.13341 19.42422,2.23409 20.23792,2.67631 7.87705,4.28118 -8.23619,1.06934 -13.3885,3.77141 -12.8002,6.71289 1.52089,7.60446 -6.05103,5.81803 -8.34675,-1.96926 -1.57174,-5.3315 -1.84095,-5.1085 -1.18872,0.98463 0.72178,6.74283 3.24122,7.6865 17.49721,6.55374 10.16846,-0.80794 16.65403,0.34238 16.65403,2.9539 0,2.39288 -7.2296,4.27719 -16.41052,4.27719 -9.02578,0 -15.24433,1.1662 -13.819,2.59151 1.42534,1.42535 0.80613,4.74277 -1.37601,7.37209 -2.91596,3.51352 -0.90245,5.39361 7.59682,7.09347 6.3604,1.27207 35.18928,3.48611 64.06418,4.92005 28.87489,1.43393 56.43984,2.83577 61.25543,3.11521 4.81559,0.27924 8.92964,2.28041 9.14233,4.44659 0.21268,2.16619 3.27339,7.12826 6.80155,11.02684 3.52816,3.89855 6.41483,13.11517 6.41483,20.48134 0,7.65842 -3.28848,17.14341 -7.68012,22.15191 -5.91357,6.74421 -3.55136,5.95977 10.26977,-3.41025 9.87243,-6.69301 20.50644,-15.27989 23.63114,-19.08194 3.12467,-3.80206 13.56065,-11.92715 23.19105,-18.05573 9.6304,-6.12861 15.28588,-11.14291 12.56775,-11.14291 -2.71813,0 -3.84668,-1.77233 -2.5079,-3.93852 1.33879,-2.16619 7.75114,-3.93852 14.2497,-3.93852 6.85027,0 10.79576,1.65012 9.38881,3.92663 -1.59597,2.58229 0.92417,2.65255 7.36113,0.20519 5.38337,-2.04677 25.86653,-4.04667 45.5181,-4.4443 19.65158,-0.39756 35.73016,-2.26229 35.73016,-4.14372 0,-1.88148 51.39772,-3.42085 114.21716,-3.42085 73.51911,0 114.21716,1.40338 114.21716,3.93853 0,2.16618 3.54467,3.93852 7.87705,3.93852 4.37613,0 7.87704,-2.6257 7.87704,-5.90779 0,-5.74004 -6.47323,-7.23778 -27.56966,-6.37879 l -9.8463,0.4009 9.43248,-3.98771 c 5.18786,-2.19325 12.72029,-2.9442 16.73873,-1.66879 6.58572,2.09021 7.31218,-0.1347 7.36653,-22.56226 0.0449,-18.51732 1.11822,-23.37013 4.19653,-18.9734 3.14511,4.4922 3.46319,3.54849 1.32733,-3.93853 -1.54489,-5.41546 -2.99021,-13.39097 -3.21187,-17.72335 -0.22174,-4.33237 -3.06153,-7.87704 -6.31081,-7.87704 -3.24928,0 -5.48597,2.15165 -4.97042,4.7814 0.51559,2.62979 -1.30763,3.91994 -4.05152,2.86701 -2.74389,-1.05296 -8.48275,0.78751 -12.75293,4.08992 -7.39635,5.71996 -7.40703,5.87892 -0.22568,3.35609 5.40688,-1.89939 6.68635,-1.26934 4.52477,2.22811 -1.65753,2.68201 -5.62133,3.8757 -8.80843,2.65271 -3.18709,-1.22299 -9.21102,-0.39531 -13.38644,1.83933 -15.20554,8.13777 -6.99474,0.74828 18.00865,-16.20722 24.78182,-16.80524 25.6004,-17.89657 25.6004,-34.13037 1.2e-4,-14.1443 -1.23319,-16.76999 -7.87693,-16.76999 -4.7022,0 -8.06117,2.77795 -8.33391,6.89241 -0.43166,6.51215 -0.55675,6.50947 -2.26733,-0.048 -0.99577,-3.81737 -3.24786,-6.05229 -5.00468,-4.96652 -1.75678,1.08574 -5.38431,-0.6649 -8.06121,-3.89031 -4.06101,-4.89322 -20.4045,-5.86442 -98.68599,-5.86442 -92.4851,0 -93.90612,0.12445 -99.9501,8.7534 -5.80042,8.28126 -6.14787,8.33435 -6.44204,0.98463 -0.17093,-4.27282 -1.05647,-5.99644 -1.96773,-3.83025 -1.07624,2.55847 -57.18995,3.56216 -160.14057,2.86445 l -158.48375,-1.07411 -15.7974,17.3859 c -8.68856,9.56222 -16.03408,20.17969 -16.32336,23.59435 -0.28929,3.41462 -1.68958,10.84456 -3.11176,16.51099 -1.68042,6.69533 -1.15151,9.41614 1.5106,7.77087 2.25302,-1.39259 4.09639,-5.38117 4.09639,-8.86361 0,-3.48248 0.96307,-5.36872 2.14015,-4.19161 1.17709,1.17706 -0.125,9.39794 -2.89351,18.2686 l -5.03367,16.12845 -33.53782,7.92852 c -18.4458,4.36065 -45.93853,11.50001 -61.09495,15.86523 -15.156413,4.36523 -31.16359,7.93676 -35.57149,7.93676 -6.064947,0 -9.253244,-4.19579 -13.107545,-17.24951 l -5.093176,-17.24951 -9.372471,9.37246 c -5.154861,5.15486 -12.145301,9.37247 -15.534316,9.37247 -4.723926,0 -5.557718,2.5275 -3.573012,10.83093 1.423857,5.95702 3.213532,11.96437 3.977055,13.34967 0.763523,1.38529 7.607824,3.24483 15.209559,4.13229 10.532551,1.22961 13.835684,0.16188 13.881643,-4.48798 0.05313,-5.3749 0.507159,-5.39798 3.812309,-0.19378 2.394369,3.77011 2.363669,6.38581 -0.08484,7.22881 -2.110269,0.72658 -2.648897,3.24317 -1.196957,5.59246 1.772308,2.86764 0.162425,3.23782 -4.898612,1.12638 -10.322242,-4.30642 -27.703661,-7.66795 -25.159718,-4.86581 1.139273,1.25486 11.773286,7.28359 23.631138,13.39716 17.93198,9.24521 23.382198,14.70385 32.390667,32.44051 5.957016,11.72869 10.830938,27.12067 10.830938,34.20442 0,8.18035 -9.524006,31.27384 -26.103423,63.29478 C 5.1911833,648.51094 3.8056677,650.95782 3.8056677,639.87459 c 0,-6.09841 17.7156113,-44.3033 40.7436953,-87.86656 22.409032,-42.39213 41.955153,-82.01694 43.435824,-88.05513 1.480668,-6.03814 0.794779,-18.02468 -1.5242,-26.63674 -2.318979,-8.61201 -9.623127,-21.81622 -16.23144,-29.3427 C 63.621234,400.44702 51.470895,392.2686 43.2288,389.79923 33.92649,387.01217 26.606451,381.71722 23.927517,375.8376 c -2.373608,-5.20953 -5.440062,-16.50352 -6.814341,-25.09777 -2.202374,-13.77289 -1.577253,-15.62597 5.271308,-15.62597 8.201541,0 20.806411,-11.38068 20.806411,-18.78565 0,-8.9113 -8.952464,-9.47026 -20.067039,-1.25288 -6.292629,4.65234 -11.441143,6.80742 -11.441143,4.78912 0,-2.01833 5.663015,-7.25523 12.584477,-11.63758 11.636504,-7.36772 12.50822,-9.40472 11.572146,-27.04123 -0.830632,-15.64992 0.621896,-20.58382 8.092769,-27.48928 5.515539,-5.0981 26.878729,-13.17561 54.188804,-20.48894 24.796041,-6.64011 45.777661,-11.37894 46.625831,-10.53078 0.84818,0.84816 -3.48847,4.45214 -9.63699,8.00883 -10.05,5.81357 -5.53606,5.33776 10.48274,-1.10496 3.24928,-1.30688 1.03386,3.42998 -4.92316,10.52634 -5.95701,7.09631 -10.83093,14.14441 -10.83093,15.6624 0,1.51798 2.759,6.69903 6.13111,11.51336 4.19273,5.98597 10.16961,8.75341 18.90491,8.75341 7.02559,0 14.9006,-2.1268 17.50002,-4.72623 7.56646,-7.56645 5.53055,-27.38738 -3.83736,-37.35905 -10.45574,-11.12964 -2.4809,-12.28295 8.56359,-1.23847 4.87626,4.87628 7.87704,13.1284 7.87704,21.66187 0,7.58166 1.77234,13.78483 3.93853,13.78483 2.16618,0 3.93852,3.01297 3.93852,6.69549 0,5.39279 0.95788,5.72433 4.92315,1.70412 3.94446,-3.99909 3.55298,-6.00368 -1.96926,-10.08356 -7.48318,-5.52866 -9.65467,-12.30367 -2.53273,-7.90206 3.01323,1.8623 3.55949,-0.94882 1.76873,-9.10208 -2.05237,-9.34438 -1.11654,-12.21934 4.502,-13.83071 3.90112,-1.11882 10.63761,-3.23428 14.96998,-4.70102 4.33238,-1.46675 3.00313,0.16108 -2.95389,3.61745 -7.07919,4.10749 -10.83093,9.57089 -10.83093,15.77237 0,5.21846 1.33511,10.31322 2.96691,11.32175 1.63181,1.0085 8.17496,-5.09006 14.54035,-13.55241 l 11.57343,-15.38604 159.17074,0 159.17074,0 11.70166,-9.84631 11.70167,-9.8463 93.92018,0 93.92018,0 11.70167,9.8463 c 6.43594,5.41547 14.5474,9.84631 18.02555,9.84631 3.47811,0 6.55004,-3.10159 6.82648,-6.89242 1.20657,-16.54471 2.47013,-23.80529 4.79835,-27.57245 1.36915,-2.2153 0.29342,-5.55789 -2.39045,-7.42798 -2.68895,-1.87363 -123.60014,-2.51604 -269.31437,-1.4309 l -264.43459,1.96926 7.74196,-10.86997 7.74197,-10.86997 248.74688,0.13825 248.74685,0.13824 14.83819,10.28285 c 8.16097,5.65556 14.83815,11.5908 14.83815,13.18937 0,1.59856 99.69386,4.02343 221.54189,5.38856 121.8481,1.36514 289.3337,3.57953 372.1904,4.92091 l 150.6485,2.43889 0,9.62567 c 0,7.37457 -1.6119,9.11438 -6.8924,7.43932 -7.7941,-2.47244 -482.1692,-10.03669 -634.10217,-10.11121 l -99.4477,-0.049 0,12.23695 c 0,10.13137 1.18597,11.7388 6.89242,9.34202 3.79082,-1.59219 25.12817,-2.95311 47.4163,-3.02428 25.67358,-0.0819 42.19943,1.54611 45.09609,4.44277 3.47059,3.47059 1.53555,4.5722 -8.03108,4.5722 -6.9318,0 -12.60327,1.77233 -12.60327,3.93852 0,2.16619 -2.65851,3.93852 -5.90779,3.93852 -7.14515,0 -7.87405,-6.56347 -0.98463,-8.86605 2.70774,-0.90499 -1.54705,-1.49577 -9.45509,-1.31282 -7.90804,0.18274 -13.66238,1.50187 -12.78744,2.93104 0.87498,1.42914 0.45872,5.54875 -0.925,9.15467 -1.77076,4.61449 -5.27384,5.86398 -11.82837,4.2189 -5.22776,-1.31208 -9.31248,-0.57683 -9.31248,1.67628 0,2.20746 -6.20317,4.01355 -13.78483,4.01355 -11.49954,0 -13.78483,1.41034 -13.78483,8.50729 l 0,8.50728 103.04074,-2.64767 c 66.96808,-1.72082 104.91513,-4.20335 108.39493,-7.09135 2.9449,-2.44397 21.7099,-5.05352 41.7,-5.79896 19.9902,-0.74544 104.5807,-1.9068 187.9789,-2.58076 116.8344,2.92492 130.8369,2.2767 200.8646,-2.32782 13.1121,-1.54552 13.3043,-1.78171 3.9386,-4.83981 -7.5754,-2.47348 -5.3044,-3.1038 9.8463,-2.73287 45.0592,1.10314 76.8012,-0.96946 76.8012,-5.01484 0,-2.47579 -3.3935,-3.12687 -8.2553,-1.5838 -4.5404,1.44107 -88.2833,2.42416 -186.0952,2.18462 -97.812,-0.23946 -180.9415,-0.70838 -184.7324,-1.04189 -10.0484,-0.88401 -8.4429,-7.00735 1.9693,-7.51085 4.8739,-0.23552 82.4136,-1.04422 172.3104,-1.79675 89.8968,-0.75253 174.3887,-2.13681 187.76,-3.07614 l 24.3113,-1.7079 1.2891,27.10054 1.2891,27.10058 -31.5082,0.52745 c -17.3295,0.29026 -27.5204,1.29557 -22.6465,2.23432 4.8739,0.93879 9.0016,4.68515 9.1726,8.32533 0.1926,4.09756 1.0676,4.74332 2.2975,1.69533 1.0925,-2.70773 3.6961,-4.92315 5.7857,-4.92315 2.0896,0 8.0891,4.87392 13.3322,10.83094 6.8213,7.75007 9.5683,15.59226 9.6574,27.56966 0.086,11.60848 -2.2898,19.15296 -7.7526,24.61577 -4.3324,4.33237 -7.8771,9.64938 -7.8771,11.81556 0,2.16619 -2.5285,3.93853 -5.619,3.93853 -3.0904,0 -6.4295,-3.10159 -7.4201,-6.89242 -1.4123,-5.40428 -1.8998,-5.05872 -2.2581,1.60054 -0.3481,6.46989 -2.3332,8.00229 -8.3339,6.43306 -4.404,-1.15166 -7.877,-0.12091 -7.877,2.33799 0,2.41884 -2.4518,4.39787 -5.4485,4.39787 -2.9966,0 -6.3698,3.52333 -7.4959,7.82963 -1.1261,4.3063 -6.2067,9.29641 -11.2903,11.08914 -11.2305,3.9605 -423.0822,3.15118 -435.5879,-0.85595 -6.9173,-2.21653 -8.8616,-5.80586 -8.8616,-16.35897 l 0,-13.51942 -106.05883,0 c -89.02313,0 -107.00773,0.94895 -111.96657,5.90779 -3.24928,3.24928 -9.72606,5.90778 -14.39281,5.90778 -8.35211,0 -8.46783,0.90543 -7.3871,57.79853 0.89661,47.19788 0.0536,58.35505 -4.59649,60.83285 -3.13195,1.66887 -50.88898,7.59343 -106.12676,13.16561 -55.23779,5.57223 -101.68128,10.09948 -103.20777,10.06057 -4.5154,-0.11501 -7.24767,-22.20819 -10.19794,-82.46141 -1.86154,-38.01781 -4.31973,-57.29999 -7.43648,-58.33227 -2.81097,-0.93103 -5.15191,3.62474 -5.90779,11.49725 -1.04004,10.83181 -3.04042,13.24588 -11.81584,14.25974 -9.37758,1.08341 -10.70435,-0.2434 -11.81557,-11.81557 -1.19424,-12.43707 -2.06611,-13.08909 -18.97509,-14.19034 -13.75833,-0.89605 -24.01818,1.91081 -45.8606,12.54656 -15.47548,7.5355 -37.52317,22.0369 -48.99482,32.22535 -11.47166,10.18848 -30.61893,22.84142 -42.54946,28.11766 -12.1575,5.37664 -33.10703,10.5502 -47.66273,11.77047 -14.28396,1.19755 -35.53004,0.12722 -47.21351,-2.37843 -16.84104,-3.61174 -22.26625,-3.51182 -26.18254,0.48223 -11.79808,12.03235 -33.98025,54.47733 -41.67186,79.73799 -10.48469,34.43368 -11.35629,77.63014 -1.92585,95.4455 3.66969,6.93254 6.67216,18.14595 6.67216,24.91871 0,8.25215 -3.65842,15.97256 -11.0907,23.40483 -10.15011,10.15013 -14.24186,11.28348 -48.2469,13.36376 -78.234306,4.78606 -100.541748,5.21193 -111.577263,2.13008 z M 687.13936,500.40791 c 43.32376,-4.44537 81.89777,-9.02217 85.72006,-10.17064 3.8223,-1.14848 6.15887,-3.3676 5.19239,-4.93135 -0.96643,-1.56375 -2.20715,-27.13504 -2.75716,-56.82501 l -0.99995,-53.98182 -33.73136,-0.43548 c -81.85334,-1.05675 -165.91972,0.12367 -169.57247,2.38131 -4.55002,2.81206 -5.41377,80.61187 -0.96226,86.67093 1.59148,2.16619 6.43827,3.93852 10.77064,3.93852 10.86115,0 9.99392,11.51494 -0.98463,13.07413 -7.1227,1.01157 -8.86168,3.78106 -8.86168,14.11302 0,7.06997 1.31803,14.17254 2.92896,15.78348 1.61094,1.61089 10.02953,1.92463 18.70799,0.69715 8.67845,-1.22748 51.22572,-5.86887 94.54947,-10.31424 z m -402.9601,-45.89029 c -2.84313,-1.13772 -6.2401,-0.99782 -7.54884,0.31075 -1.30874,1.30873 1.01745,2.2396 5.16931,2.06859 4.58815,-0.18905 5.52142,-1.12224 2.37953,-2.3795 z m 47.26227,0 c -2.84312,-1.13772 -6.2401,-0.99782 -7.54884,0.31075 -1.30873,1.30873 1.01746,2.2396 5.16931,2.06859 4.58816,-0.18905 5.52142,-1.12224 2.37953,-2.3795 z m 8.85432,-10.82101 c 10.29696,-3.09895 22.09882,-8.69063 26.22635,-12.426 10.96316,-9.92153 9.58972,-28.5637 -3.07856,-41.78654 -9.49428,-9.90992 -13.24266,-11.04492 -36.43134,-11.03169 l -25.84816,0.0158 -6.89242,16.76534 c -3.79083,9.22091 -6.89241,19.87233 -6.89241,23.66981 0,3.79745 2.14832,10.34449 4.77406,14.54895 2.62573,4.20445 3.59443,8.8241 2.15267,10.26587 -1.44175,1.44174 -7.18851,1.4751 -12.77057,0.074 -7.17882,-1.80176 -10.82587,-5.93071 -12.46129,-14.10779 -1.27165,-6.35827 -6.42529,-14.25552 -11.45253,-17.54951 -8.46757,-5.54815 -9.32737,-5.40007 -11.67988,2.01204 -1.44679,4.55844 -0.007,11.86661 3.34706,16.98503 3.23758,4.94116 11.80315,10.87663 19.0346,13.18992 19.11725,6.11546 50.48191,5.84339 71.97242,-0.6243 z m -62.35259,-24.8071 c -1.30874,-1.30873 -2.2396,1.01748 -2.06859,5.16931 0.18897,4.58818 1.12225,5.52142 2.37953,2.37954 1.13772,-2.84314 0.9978,-6.24012 -0.31094,-7.54885 z m -36.21332,-20.18269 c 1.57845,-2.55397 4.49948,-3.63647 6.49117,-2.40553 1.9917,1.23091 2.52669,-0.61437 1.18888,-4.10063 -1.33781,-3.4863 -4.95423,-5.37096 -8.03649,-4.18822 -3.08226,1.18277 -4.59698,0.52094 -3.36604,-1.47077 1.23093,-1.99167 0.16297,-4.90373 -2.37324,-6.47119 -2.97007,-1.83558 -3.55316,-1.13784 -1.63827,1.96052 2.00243,3.23999 0.59383,4.40303 -4.31462,3.56243 -4.98875,-0.85434 -7.40976,1.23678 -7.67474,6.62901 -0.31725,6.45579 -0.0847,6.59195 1.28869,0.75474 1.30283,-5.53729 2.87536,-6.12677 7.06603,-2.64881 3.87915,3.21938 4.37695,7.13869 1.77569,13.98053 -1.98801,5.22886 -2.41282,12.62399 -0.94402,16.43364 2.09547,5.43501 3.20852,4.3082 5.1688,-5.23276 1.37404,-6.68765 3.78971,-14.24898 5.36816,-16.80296 z m 40.84275,-0.8057 c 2.74358,-8.79074 3.95668,-17.65242 2.69577,-19.69261 -1.2609,-2.04016 -10.16347,-3.70942 -19.78347,-3.70942 -12.32474,0 -17.49091,1.62046 -17.49091,5.4864 0,3.01754 2.84239,6.57714 6.31642,7.91025 3.80529,1.46024 5.36461,4.90421 3.92227,8.6629 -1.59103,4.14616 0.25368,6.93148 5.49915,8.30319 4.34131,1.13528 7.89329,3.62978 7.89329,5.54331 0,1.91353 1.34082,3.47918 2.97958,3.47918 1.63877,0 5.22432,-7.19242 7.9679,-15.9832 z m 256.87207,-9.84965 c 0,-3.37713 -1.77233,-5.04486 -3.93852,-3.70607 -2.16619,1.33878 -3.93852,4.10189 -3.93852,6.14023 0,2.03834 1.77233,3.70607 3.93852,3.70607 2.16619,0 3.93852,-2.76311 3.93852,-6.14023 z m 947.30894,-29.60328 c 1.4268,-4.49563 1.5463,-9.22185 0.2654,-10.50274 -1.2809,-1.28089 -2.3289,0.62504 -2.3289,4.23533 0,3.61033 -1.7723,6.56422 -3.9385,6.56422 -2.1662,0 -3.9385,1.77233 -3.9385,3.93852 0,7.18603 7.3031,4.07444 9.9405,-4.23533 z M 110.31605,341.35914 c 18.31895,-5.22985 36.85185,-10.34122 41.18422,-11.3587 6.80934,-1.59912 6.61947,-1.9118 -1.40075,-2.30676 -5.1028,-0.25127 -19.92062,2.30097 -32.92851,5.67163 -13.00789,3.37071 -24.636199,5.14305 -25.840693,3.93853 -1.204495,-1.20448 0.320832,-2.24634 3.389583,-2.31522 3.068767,-0.0689 9.12425,-2.96583 13.45662,-6.43768 7.87705,-6.31239 7.87705,-6.31239 0,-3.43541 -4.33237,1.58234 -10.535548,3.88078 -13.784829,5.10771 -3.249281,1.22689 0.174043,-3.18981 7.607399,-9.81496 7.43335,-6.6251 20.41192,-14.112 28.84127,-16.63746 11.42526,-3.42313 16.69412,-3.45645 20.70102,-0.13115 3.44114,2.8559 11.92486,3.47858 23.58034,1.73074 13.69976,-2.05441 17.65958,-4.15246 15.99996,-8.47735 -1.21299,-3.1609 -2.20544,-7.28414 -2.20544,-9.16262 0,-1.87848 -6.14625,-0.84737 -13.65833,2.29139 -15.39202,6.43118 -34.09803,7.46319 -39.70866,2.19073 -2.05787,-1.93386 -9.10855,-2.67658 -15.66815,-1.65048 -7.77081,1.21555 -14.14217,5.7261 -18.28512,12.94478 -4.728601,8.23912 -10.505342,11.77973 -22.535513,13.8122 -8.897327,1.50318 -16.176958,3.78071 -16.176958,5.06116 0,5.22871 9.628002,28.48773 11.79241,28.48773 1.283127,0 17.321186,-4.27897 35.640131,-9.50881 z m 1417.96595,1.1309 c 3.49,-6.52101 3.315,-9.10027 -0.7894,-11.63695 -3.3024,-2.04094 -6.4716,-1.11775 -8.4794,2.47016 -1.7634,3.15102 -5.57,5.72913 -8.4589,5.72913 -2.889,0 -6.1218,-3.32312 -7.1839,-7.38473 -8.7944,-1.46247 -26.9662,20.62101 -23.7452,12.30803 2.5131,-6.93945 12.9421,-6.14599 12.9421,0.98463 0,4.25797 4.3607,5.90778 15.6155,5.90778 11.8958,0 16.6835,-1.99569 20.0992,-8.37791 z m -709.20212,-8.41201 c 8.33675,-1.54942 7.8839,-1.91219 -2.9539,-2.36634 -9.78963,-0.4102 -12.78602,1.08474 -12.7399,6.35606 0.0394,4.42741 1.09519,5.27372 2.9539,2.36635 1.59148,-2.48939 7.32443,-5.34958 12.7399,-6.35607 z M 192.85476,319.02752 c 5.25136,-2.99265 5.25136,-3.34676 0,-3.18686 -3.24928,0.0989 -12.11096,2.688 -19.69261,5.75351 l -13.78483,5.57364 13.78483,-2.38678 c 7.58165,-1.31271 16.44333,-3.90182 19.69261,-5.75351 z m 201.84929,5.60089 c -2.70773,-1.09258 -7.13857,-1.09258 -9.84631,0 -2.70773,1.09259 -0.49231,1.98655 4.92316,1.98655 5.41547,0 7.63089,-0.89396 4.92315,-1.98655 z m 27.3235,-0.0819 c -2.8431,-1.13772 -6.24008,-0.99783 -7.54885,0.31075 -1.30873,1.30873 1.01748,2.2396 5.16931,2.06859 4.58819,-0.18905 5.52142,-1.12224 2.37954,-2.3795 z m 21.83308,-0.0394 c -3.83206,-0.99857 -9.14907,-0.93291 -11.81556,0.14612 -2.6665,1.07888 0.4688,1.89589 6.96736,1.81562 6.49856,-0.0803 8.68027,-0.96297 4.8482,-1.96154 z M 1462.7917,292.64703 c -5.4449,-7.77319 -9.559,-8.73395 -37.4026,-8.73395 -80.0876,-2.33863 -152.9779,0.32562 -266.6346,0.18404 -1.9356,-0.002 -3.883,-0.006 -5.8425,-0.01 -1.8096,-0.004 -3.6295,-0.008 -5.4599,-0.0135 -10.0849,-0.0289 -20.4877,-0.0808 -31.2396,-0.16082 -35.3359,0 -68.6574,1.67682 -74.048,3.72631 -5.7619,2.19069 -10.3311,7.46575 -11.0873,12.8002 l -1.2864,9.07388 -109.29396,1.04694 c -63.71912,0.61035 -109.29401,2.56886 -109.29401,4.69669 0,2.00739 7.53243,4.19476 16.73872,4.86085 45.87805,1.75253 15.73978,2.5868 90.14229,-3.21368 l 11.52917,20.36762 c -82.19433,-0.21465 -80.10403,-8.72886 -81.938,-1.7155 -1.5326,5.8606 -5.59904,7.43452 -19.20818,7.43452 -14.59242,0 -17.264,1.20932 -17.264,7.81473 0,7.58111 3.26787,7.84605 109.29401,8.86168 l 109.29396,1.04694 1.9693,13.6189 c 1.4949,10.33815 4.3412,14.27423 11.8156,16.33928 5.4154,1.49624 12.1449,2.03767 14.9543,1.20325 2.8094,-0.83445 94.896,-1.62948 204.6369,-1.76682 135.8625,-0.17014 201.153,-1.59738 204.6184,-4.47345 7.5471,-6.26359 15.0923,-47.44979 6.2083,-56.3338 M 158.39269,316.75138 c -2.70774,-1.09259 -7.13858,-1.09259 -9.84631,0 -2.70774,1.09258 -0.49232,1.98655 4.92315,1.98655 5.41547,0 7.63089,-0.89397 4.92316,-1.98655 z m -61.240418,-19.3172 c 6.969818,-9.34469 4.256098,-31.16139 -5.171918,-41.57926 -3.677603,-4.06369 -10.399618,-7.27622 -14.937809,-7.13889 -8.244549,0.24931 -8.244395,0.25246 0.18901,3.6557 10.180121,4.1082 21.098659,18.84615 21.098659,28.47918 0,10.72665 -14.424572,22.75478 -27.288335,22.75478 -6.343837,0 -14.319346,-2.78509 -17.723352,-6.18911 -5.626464,-5.62646 -6.189109,-5.33906 -6.189109,3.16145 0,9.02339 0.775716,9.26514 22.172193,6.91002 15.321248,-1.68644 23.926774,-4.79295 27.850661,-10.05387 z m 1389.917528,3.29966 c -1.3088,-1.30874 -2.2396,1.01747 -2.0686,5.16931 0.189,4.58818 1.1222,5.52141 2.3795,2.37954 1.1377,-2.84315 0.9978,-6.24012 -0.3108,-7.54885 z M 78.6376,278.23773 c 0,-3.12143 -1.571518,-6.64661 -3.492261,-7.83368 -4.336904,-2.68036 -13.163708,7.35578 -9.601976,10.91751 4.685928,4.68593 13.094237,2.70568 13.094237,-3.08383 z m 44.30211,3.06484 c -2.71119,-1.09376 -6.03929,-8.92934 -7.39579,-17.4124 -1.87989,-11.75618 -4.27286,-15.42381 -10.06337,-15.42381 -7.063937,0 -7.166795,0.61421 -1.46588,8.75341 3.37211,4.81433 6.13111,12.78984 6.13111,17.72335 0,6.76863 2.17476,8.89366 8.86168,8.659 4.87392,-0.17093 6.64343,-1.20582 3.93225,-2.29955 z M 1543.7681,260.28193 c 0,-2.3754 -14.4588,-3.75357 -36.4314,-3.47256 -25.219,0.32257 -32.7949,1.39133 -24.6157,3.47256 17.8282,4.53651 61.0471,4.53651 61.0471,0 z M 830.89545,249.25722 c 0,-1.73122 -6.20318,-2.4235 -13.78483,-1.53835 -7.58166,0.8851 -13.78483,2.30155 -13.78483,3.14767 0,0.84607 6.20317,1.53834 13.78483,1.53834 7.58165,0 13.78483,-1.41645 13.78483,-3.14766 z M 805.70532,210.1478 c -1.30877,-1.30873 -2.2396,1.01748 -2.06859,5.16931 0.18905,4.58819 1.12224,5.52142 2.3795,2.37954 1.13772,-2.84314 0.99782,-6.24011 -0.31075,-7.54885 z m 559.84458,-0.0669 c -23.2865,-0.69633 -61.3917,-0.69633 -84.6782,0 -23.2865,0.69629 -4.2339,1.26604 42.3391,1.26604 46.573,0 65.6256,-0.56975 42.3391,-1.26604 z m -317.2894,-3.94593 c -30.9992,-0.66624 -80.62459,-0.66462 -110.27859,0.004 -29.65404,0.66821 -4.29102,1.21335 56.36223,1.21134 60.65326,-0.002 84.91566,-0.54872 53.91636,-1.21496 z M 206.757,465.27511 c -1.42731,-2.30947 -1.44232,-7.83113 -0.0335,-12.27039 1.73729,-5.47376 5.3049,-7.68063 11.08516,-6.85721 6.14214,0.87502 8.52339,3.96511 8.52339,11.06056 0,7.08343 -2.38231,10.1858 -8.49003,11.05618 -4.66952,0.66541 -9.65785,-0.67971 -11.08516,-2.98914 z m -0.13926,-39.59937 c -10.52948,-11.63495 -4.89253,-13.46478 5.94422,-1.9296 5.07955,5.40692 7.42895,9.83079 5.2209,9.83079 -2.20805,0 -7.23236,-3.55554 -11.16512,-7.90119 z m 184.476,-29.51478 c 0,-3.24928 3.24927,-5.90778 7.22064,-5.90778 3.97133,0 7.22061,2.6585 7.22061,5.90778 0,3.24929 -3.24928,5.90779 -7.22061,5.90779 -3.97137,0 -7.22064,-2.6585 -7.22064,-5.90779 z M 111.31043,375.50684 c 16.88696,-0.74005 43.47199,-0.73556 59.07784,0.0118 15.60585,0.74557 1.78925,1.35107 -30.70357,1.34556 -32.49281,-0.004 -45.261233,-0.61555 -28.37427,-1.3556 z m 437.07805,-15.20286 c 1.30873,-1.30873 4.7057,-1.44862 7.54885,-0.31075 3.14187,1.25726 2.20864,2.19053 -2.37954,2.3795 -4.15183,0.17093 -6.47804,-0.75986 -5.16931,-2.06859 z M 184.97771,348.89869 c 0,-3.24928 2.65851,-5.90778 5.90779,-5.90778 3.24928,0 5.90778,2.6585 5.90778,5.90778 0,3.24928 -2.6585,5.90779 -5.90778,5.90779 -3.24928,0 -5.90779,-2.65851 -5.90779,-5.90779 z M 536.1787,334.42096 c 0.96226,-6.79214 3.83679,-9.15341 11.14311,-9.15341 7.22061,0 9.8463,2.10054 9.8463,7.87705 0,5.72019 -3.05113,8.22651 -11.1431,9.1534 -9.68959,1.10988 -10.97395,0.0823 -9.84631,-7.87704 z m 106.65228,1.4717 c -11.37248,-0.65474 -20.67724,-2.81375 -20.67724,-4.79779 0,-1.98403 8.07208,-2.79052 17.938,-1.79222 9.86588,0.9983 17.12529,0.49877 16.13203,-1.10999 -0.99329,-1.60881 2.72648,-3.19761 8.26614,-3.53069 5.53965,-0.3332 8.29385,0.55312 6.12042,1.96926 -2.17347,1.41617 -4.66057,4.34718 -5.52693,6.51337 -0.86636,2.16619 -10.87993,3.4028 -22.25242,2.74806 z M 318.15747,330.6408 c -3.30047,-2.09293 0.17719,-3.30525 9.59169,-3.34369 8.12321,-0.0315 14.76946,0.61926 14.76946,1.44981 0,0.8306 -4.31626,2.33523 -9.59169,3.34369 -5.27544,1.00846 -11.92169,0.35604 -14.76946,-1.44981 z m 406.39786,2.92518 c 0,-0.85135 2.6585,-2.56803 5.90779,-3.81493 3.24928,-1.24686 5.90778,-0.55029 5.90778,1.54788 0,2.09821 -2.6585,3.81493 -5.90778,3.81493 -3.24929,0 -5.90779,-0.69657 -5.90779,-1.54788 z m -444.11436,-5.09672 c 3.76557,-0.98577 10.85491,-1.02154 15.75409,-0.0796 4.89918,0.94206 1.81826,1.74863 -6.84649,1.79234 -8.66475,0.0437 -12.67317,-0.72709 -8.9076,-1.71286 z m 67.08286,0.3265 c 1.30874,-1.30873 4.70571,-1.44863 7.54884,-0.31075 3.14189,1.25726 2.20862,2.19053 -2.37953,2.3795 -4.15186,0.17093 -6.47805,-0.75986 -5.16931,-2.06859 z m 259.94249,-3.93852 c 1.30873,-1.30873 4.70571,-1.44863 7.54885,-0.31075 3.14187,1.25725 2.20864,2.19053 -2.37954,2.3795 -4.15183,0.17093 -6.47804,-0.75986 -5.16931,-2.06859 z m 74.83193,0 c 1.30873,-1.30873 4.70571,-1.44863 7.54885,-0.31075 3.14188,1.25725 2.20864,2.19053 -2.37954,2.3795 -4.15183,0.17093 -6.47804,-0.75986 -5.16931,-2.06859 z m 14.68742,-1.55895 c 0,-2.16618 -8.41859,-4.17534 -18.70798,-4.46475 l -18.70798,-0.52626 18.70798,-2.60868 c 10.28939,-1.43481 27.12657,-1.43481 37.41596,0 l 18.70799,2.60868 -17.72335,0.80306 c -13.78306,0.62454 -15.97213,1.5556 -9.84631,4.18795 7.51612,3.22979 7.47098,3.39757 -0.98463,3.66169 -4.87392,0.15226 -8.86168,-1.4955 -8.86168,-3.66169 z m -134.8944,-2.6084 c 2.70773,-1.09259 7.13857,-1.09259 9.8463,0 2.70774,1.09258 0.49232,1.98655 -4.92315,1.98655 -5.41547,0 -7.63089,-0.89397 -4.92315,-1.98655 z m 2.95389,-5.26864 -27.56966,-2.54756 23.63114,-0.18078 c 12.99712,-0.0992 36.92365,1.07341 53.17005,2.6062 l 29.53892,2.7869 -25.60039,-0.0587 c -14.08022,-0.0315 -38.00675,-1.20507 -53.17006,-2.6062 z m 3.54333,-37.09136 c -11.55129,-5.06718 -17.40327,-12.96112 -17.26786,-23.29325 0.0354,-2.63975 1.68777,-2.08269 3.87822,1.30677 2.6372,4.08078 3.83656,4.35718 3.87823,0.89384 0.0461,-3.84659 2.12353,-3.67586 8.92197,0.73332 7.24925,4.70153 25.3444,5.5465 99.4477,4.64371 49.82231,-0.60692 94.57378,-2.47288 99.4477,-4.14655 7.32624,-2.51577 8.86168,-1.6226 8.86168,5.15478 0,4.50882 -3.98776,10.34051 -8.86168,12.95931 -5.96915,3.20726 -37.78697,5.14383 -97.47844,5.93295 -68.18544,0.90145 -91.43205,-0.0634 -100.82752,-4.18488 z m 34.81134,-5.07943 c -4.89916,-0.94205 -11.98851,-0.90629 -15.75409,0.0796 -3.76558,0.98577 0.24301,1.75658 8.9076,1.71286 8.66475,-0.0437 11.74566,-0.85029 6.84649,-1.79234 z m 74.87786,-0.11816 c -11.37249,-0.79558 -29.98201,-0.79558 -41.35449,0 -11.37248,0.79559 -2.06772,1.44655 20.67724,1.44655 22.74497,0 32.04973,-0.65096 20.67725,-1.44655 z m 39.13907,0.21308 c -2.84314,-1.13772 -6.24012,-0.99783 -7.54885,0.31075 -1.30873,1.30873 1.01748,2.2396 5.16931,2.06859 4.58818,-0.18905 5.52142,-1.12224 2.37954,-2.3795 z m -474.34584,3.71308 c 13.53868,-0.76907 35.69287,-0.76907 49.23154,0 13.53867,0.76908 2.46158,1.39833 -24.61577,1.39833 -27.07734,0 -38.15444,-0.62925 -24.61577,-1.39833 z m 122.24855,-0.004 c 13.62356,-0.77128 34.89158,-0.76494 47.26228,0.0158 12.37067,0.77908 1.22414,1.41011 -24.77011,1.40235 -25.99425,-0.008 -36.11573,-0.64521 -22.49217,-1.41649 z m 78.61612,0.14061 c 4.87392,-0.93879 12.84943,-0.93879 17.72335,0 4.87392,0.93874 0.88616,1.70683 -8.86168,1.70683 -9.74784,0 -13.7356,-0.76809 -8.86167,-1.70683 z m 39.38522,0.17093 c 2.70774,-1.09259 7.13857,-1.09259 9.84631,0 2.70773,1.09258 0.49231,1.98655 -4.92315,1.98655 -5.41547,0 -7.63089,-0.89397 -4.92316,-1.98655 z m 1073.10529,6.96883 c 4.681,-0.56232 12.4608,-0.12398 17.6513,-1.18969 8.2701,-13.6547 6.6376,-77.90771 -0.944,-77.90771 -2.2454,0 -10.2971,-0.75838 -18.2347,1.02602 -2.275,23.62368 0.5555,65.96689 1.5274,78.07138 z M 941.46388,243.03726 c 0.9237,-0.86198 26.49216,-2.51013 56.81878,-3.66255 30.32664,-1.15241 58.68404,-0.65017 63.01634,1.11606 4.5831,1.86848 -19.1768,3.40005 -56.8188,3.66259 -35.58262,0.24813 -63.93998,-0.25403 -63.01632,-1.1161 z m 161.18962,-0.24623 c 0,-0.95525 1.7724,-2.83219 3.9385,-4.17098 2.1662,-1.33878 3.9386,-0.55722 3.9386,1.73681 0,2.29404 -1.7724,4.17098 -3.9386,4.17098 -2.1661,0 -3.9385,-0.78156 -3.9385,-1.73681 z m -451.94547,-4.91666 c 3.79083,-0.99061 9.994,-0.99061 13.78483,0 3.79083,0.99066 0.68924,1.80121 -6.89242,1.80121 -7.58165,0 -10.68324,-0.81055 -6.89241,-1.80121 z m -466.77901,-7.89874 c -3.27639,-3.27638 -11.91321,-7.36425 -19.19292,-9.08413 l -13.23583,-3.12703 11.81557,-0.26348 c 6.49856,-0.14494 16.12777,2.12503 21.39824,5.04442 8.26706,4.57928 12.54231,4.28976 31.14013,-2.10881 20.54963,-7.07012 31.43068,-9.32701 27.87314,-5.78128 -0.90258,0.8996 -13.3861,6.05505 -27.74115,11.45654 -23.29609,8.76585 -26.74007,9.18097 -32.05718,3.86385 z m 97.2813,-10.68667 c -1.53066,-6.09865 -0.60223,-12.70245 2.27291,-16.16677 2.75842,-3.32368 11.40559,-5.85662 19.99385,-5.85662 10.55393,0 16.28383,2.14988 18.93555,7.10462 2.09125,3.90756 2.59669,8.96041 1.1232,11.22861 -1.4735,2.26819 -7.10992,5.13118 -12.52539,6.36225 -5.41547,1.23102 -13.75369,3.45318 -18.52938,4.93812 -7.11708,2.21294 -9.14975,0.84044 -11.27074,-7.61021 z m 23.89234,-10.20783 c 7.5944,-3.26342 7.56741,-3.39481 -0.75219,-3.66168 -4.74608,-0.15226 -9.7246,1.4955 -11.06338,3.66168 -2.87906,4.65841 0.97485,4.65841 11.81557,0 z m 37.41596,2.02047 c 0,-6.83385 3.06858,-11.46453 9.55588,-14.42031 5.25573,-2.39471 13.99928,-3.23873 19.43011,-1.87569 5.43083,1.36305 11.04035,6.15237 12.46561,10.64295 1.42526,4.49059 1.98647,8.67724 1.24713,9.30362 -0.73933,0.62642 -10.649,2.32621 -22.02148,3.77736 -20.23881,2.58253 -20.67725,2.42503 -20.67725,-7.42793 z m 61.10599,5.95189 c -1.48892,-2.40911 0.14494,-8.73312 3.63096,-14.05336 4.21174,-6.42794 10.00724,-9.67309 17.27511,-9.67309 6.01538,0 13.06388,2.1268 15.66331,4.72623 2.59942,2.59942 4.72623,7.91643 4.72623,11.81557 0,5.4441 -3.12432,7.08934 -13.4627,7.08934 -7.4045,0 -16.0869,1.007 -19.29423,2.23775 -3.20734,1.23079 -7.04972,0.26664 -8.53868,-2.14244 z m 60.98822,-6.21302 c 0,-5.22228 3.36732,-11.16138 7.61813,-13.43635 10.22153,-5.47037 25.17314,-5.1571 30.97939,0.64915 2.59943,2.59942 4.72623,7.91643 4.72623,11.81557 0,5.51287 -3.2843,7.15633 -14.76946,7.39068 -8.1232,0.16581 -17.87105,0.89506 -21.66188,1.62078 -5.00074,0.95729 -6.89241,-1.2493 -6.89241,-8.03983 z"
       id="path4106"
       inkscape:connector-curvature="0"
       sodipodi:nodetypes="cssssssssscssssscsssssscssscscssscsssssssssssssssssssssssscssssssssssssssssssscssssscscssscsssssssssssccscssscscscsssscssssssscsscssssssssssssssssssssssssssssssssssssssssscscccccccsssssscccccsssscssscssssssssccssssscscsccsssssscsscccssccsscssscsssssssscsssssscsssssssssssssssssccsscscscsssscsscccccccccccssccsssscssscsccssssscssssssssssssssssssssssssssssssssssscsscssscsscssssssssssscccsccssccsscssscscsssssscccccccsccccssscsccssccccssscssssscsssssscssssssscscccssssssssscssssssssssccsccssssccsccccsssccsssssssssccccccccccsssssssssssssscsssscssssssssccscccccccccccccccccsscsscsssssssscccsccccscscsssssssccsccsssscccccssssccscccsscssssccscccssscscsssccsccscsssssccsssssssssssssssscsscsssssscssssscs" />
  </g>
</svg>
