<?xml version="1.0" encoding="UTF-8" standalone="no"?>
<svg
   xmlns:dc="http://purl.org/dc/elements/1.1/"
   xmlns:cc="http://creativecommons.org/ns#"
   xmlns:rdf="http://www.w3.org/1999/02/22-rdf-syntax-ns#"
   xmlns:svg="http://www.w3.org/2000/svg"
   xmlns="http://www.w3.org/2000/svg"
   xmlns:sodipodi="http://sodipodi.sourceforge.net/DTD/sodipodi-0.dtd"
   xmlns:inkscape="http://www.inkscape.org/namespaces/inkscape"
   viewBox="0 -200 1654 1000"
   id="svg4363"
   version="1.1"
   inkscape:version="0.48.4 r9939"
   width="100%"
   height="100%"
   sodipodi:docname="l_VSHUD.svg">
  <metadata
     id="metadata4373">
    <rdf:RDF>
      <cc:Work
         rdf:about="">
        <dc:format>image/svg+xml</dc:format>
        <dc:type
           rdf:resource="http://purl.org/dc/dcmitype/StillImage" />
        <dc:title></dc:title>
      </cc:Work>
    </rdf:RDF>
  </metadata>
  <defs
     id="defs4371" />
  <sodipodi:namedview
     pagecolor="#ffffff"
     bordercolor="#666666"
     borderopacity="1"
     objecttolerance="10"
     gridtolerance="10"
     guidetolerance="10"
     inkscape:pageopacity="0"
     inkscape:pageshadow="2"
     inkscape:window-width="1920"
     inkscape:window-height="996"
     id="namedview4369"
     showgrid="false"
     inkscape:zoom="0.34582829"
     inkscape:cx="-256.33281"
     inkscape:cy="492.40888"
     inkscape:window-x="1672"
     inkscape:window-y="-8"
     inkscape:window-maximized="1"
     inkscape:current-layer="layer22" />
  <g
     inkscape:groupmode="layer"
     id="layer22"
     inkscape:label="POOLCUE"
     style="opacity:0.52845528">
    <path
       style="fill:#000000"
       d="m 31.369812,629.32115 c -0.867945,-3.23921 -2.714707,-6.54571 -4.103918,-7.34778 -1.389213,-0.80205 -2.874827,-4.27341 -3.301368,-7.71414 -0.426538,-3.44072 -2.286807,-8.77255 -4.133941,-11.8485 -8.48941,-14.13712 1.345674,-20.26769 84.028655,-52.37826 6.52443,-2.53382 136.96156,-55.81389 148.13233,-60.50812 C 528.10774,373.49418 785.02049,269.59144 729.37023,296.459 c -11.99652,5.79187 -12.15692,8.35404 -1.87387,29.94061 9.10496,19.11367 21.17731,11.42957 -99.43627,63.29141 -28.99385,12.46688 -111.21689,47.88534 -182.71785,78.70771 -71.50096,30.82238 -142.23575,61.29887 -157.18844,67.72551 -14.95266,6.42666 -28.1843,11.10885 -29.4036,10.40489 -2.79809,-1.61549 -13.84157,-24.94693 -17.261,-36.4671 l -2.58463,-8.70777 -9.46671,3.71293 c -5.20672,2.04211 -15.19105,6.18598 -22.18744,9.20864 l -12.72068,5.49567 21.31784,-0.85792 c 24.40421,-0.98212 29.89933,2.39788 20.59479,12.66773 -35.67111,39.37181 -86.70419,67.45985 -74.16521,40.8197 4.49149,-9.5426 4.41164,-9.78664 -2.70097,-8.25602 -9.61594,2.06933 -9.56234,4.19209 -6.6661,14.79995 4.01586,14.70864 -5.38515,14.69176 -10.55254,13.53883 -1.01529,-0.84772 -1.81667,-0.0882 -1.74934,1.6866 0.21236,5.5978 -6.88004,2.83971 -10.9733,-6.56377 -2.80812,-6.45106 -3.06507,-11.65274 -0.72499,-14.67592 3.02464,-3.90753 2.36478,-5.24117 -3.98503,-8.05393 -5.74456,-2.54469 -6.76253,-4.05735 -4.15314,-6.17084 4.40183,-3.56533 -5.15003,-6.60333 -12.36547,-3.93287 -6.4537,2.38857 -4.05955,13.46881 7.27461,33.66658 2.92184,5.2068 5.16097,8.80178 5.90446,11.68585 0.1841,0.71416 3.68679,0.71299 6.4714,0.80286 1.93487,0.0625 127.30904,-54.00607 127.19633,-53.58522 -0.39357,1.4697 -134.29009,59.36895 -136.18618,60.79376 -4.87586,3.66396 -16.04482,7.38038 -35.021103,15.36296 -42.340408,17.81095 -49.258506,18.57551 -52.675985,5.82132 z m 38.328695,-8.5709 c 33.468363,-13.85177 34.304653,-14.36291 31.683823,-19.36539 -1.575696,-3.00762 -1.31156,-3.66829 0.95755,-2.39502 6.34033,3.55769 6.56632,-4.91686 0.58734,-22.0229 -6.456239,-18.47161 -15.613459,-21.03892 -12.483172,-3.49977 l 1.390382,7.79032 -2.891034,-8.06261 c -3.174443,-8.853 -10.122853,-9.44114 -14.918847,-1.26279 -1.384239,2.36019 -3.861277,3.00001 -5.581179,1.44142 -2.556946,-2.31718 -2.923024,-1.81008 -2.113917,2.92817 0.538201,3.15182 2.521591,6.62147 4.407532,7.71033 1.885949,1.08885 2.499176,2.94351 1.362729,4.12148 -4.541911,4.70782 7.123556,21.30311 13.353893,18.99724 4.894202,-1.81139 5.190292,-3.21181 2.140689,-10.12493 -7.339825,-16.63854 -10.913868,-29.46789 -7.692147,-27.61175 1.836912,1.05832 5.656541,8.48906 8.488081,16.51276 2.831525,8.0237 6.106154,15.14159 7.276943,15.81756 2.570665,1.48417 -8.687686,8.92361 -14.031897,9.27218 -6.88093,0.44879 -9.299892,-2.68406 -14.909367,-19.30938 l -5.5486,-16.44497 -7.033481,3.3726 c -3.86842,1.85491 -11.67978,4.92005 -17.358601,6.81143 -11.901645,3.96395 -14.333167,10.53546 -5.735001,15.49962 4.361913,2.51835 5.161221,4.81681 2.985541,8.58519 -2.350676,4.07149 -1.697861,5.42586 3.126196,6.48572 4.616504,1.01423 5.698317,2.79361 4.454435,7.32648 -2.529412,9.21756 0.197679,8.96771 28.082109,-2.57299 z m 43.839653,-18.04251 c 4.08005,-3.61798 -1.60854,-5.64704 -5.95709,-2.12485 -2.32992,1.88715 -2.43063,3.34632 -0.26159,3.79019 1.93972,0.39694 4.73815,-0.35249 6.21868,-1.66534 z m 30.59049,-23.98997 c 2.75023,2.98209 2.92548,2.37781 0.87391,-3.01323 -2.81518,-7.39764 -9.85167,-7.73729 -9.6336,-0.46503 0.092,3.06849 0.89465,3.67199 2.725,2.04891 1.42701,-1.2654 4.14262,-0.62219 6.03469,1.42935 z m -4.31067,-20.21065 c 0.49915,-0.86454 -0.2429,-1.26362 -1.64894,-0.88695 -1.40608,0.37676 -2.83656,-1.90321 -3.1788,-5.06669 -0.57381,-5.30352 -0.92806,-5.50404 -4.54636,-2.57339 -2.15827,1.74814 -2.77304,3.843 -1.36615,4.65525 1.40688,0.81228 1.08537,2.26919 -0.71443,3.23758 -2.29994,1.23748 -1.219,1.82685 3.63745,1.98327 3.80029,0.12264 7.31809,-0.48452 7.81723,-1.34907 z m 3.25116,5.8659 c 2.88995,-1.06959 4.6944,-2.26806 4.00988,-2.66328 -0.68453,-0.39521 -3.60911,0.15655 -6.49907,1.22615 -2.88994,1.06959 -4.69439,2.26807 -4.00986,2.66327 0.68452,0.39522 3.6091,-0.15655 6.49905,-1.22614 z m 13.2161,-5.64535 c 2.88995,-1.06959 4.69439,-2.26807 4.00986,-2.66327 -0.68452,-0.39521 -3.60909,0.15655 -6.49905,1.22614 -2.88995,1.06959 -4.69439,2.26807 -4.00987,2.66327 0.68453,0.39521 3.60911,-0.15654 6.49906,-1.22614 z m -3.81774,-7.99502 c 8.41266,-3.92138 6.87523,-6.72699 -4.71294,-8.60037 -6.95944,-1.1251 -8.22075,-0.42935 -7.44607,4.10728 1.27392,7.4605 3.79462,8.39196 12.15901,4.49309 z m 58.78401,-0.98693 c 14.26134,-11.68944 26.35061,-26.4625 21.537,-26.31818 -1.7509,0.0525 -3.14268,1.45483 -3.09287,3.11627 0.0498,1.66149 -3.85521,4.07811 -8.67787,5.37035 -5.94819,1.5938 -10.82031,5.61041 -15.14791,12.48801 -7.04465,11.19557 -12.47252,15.28758 -14.72508,11.101 -0.81411,-1.51304 -1.84168,-0.40377 -2.29906,2.48188 -0.5573,3.51627 -1.43179,4.09367 -2.68173,1.77062 -1.21176,-2.25215 -2.11399,-1.81128 -2.60266,1.27181 -0.41135,2.59543 -1.95274,4.02334 -3.42532,3.17315 -1.47256,-0.85019 -3.02855,0.66976 -3.45775,3.37765 -0.97486,6.15068 15.98685,-2.59804 34.57325,-17.83256 z m -34.69532,10.55625 c 2.12896,-1.7244 2.28855,-2.96449 0.37403,-2.90709 -1.83627,0.0551 -3.94726,1.15414 -4.69103,2.44239 -2.06721,3.58054 0.17249,3.82163 4.317,0.4647 z m 2.74614,-10.74004 9.22995,-5.4056 -9.25774,2.15298 c -5.09174,1.18413 -9.47622,1.33752 -9.74327,0.34087 -0.26706,-0.99666 -1.67469,0.24754 -3.12812,2.76493 -3.71961,6.44257 2.03741,6.50811 12.89918,0.14682 z m -4.31547,-7.41794 c 0.25055,-1.2244 1.78346,-1.93933 3.40643,-1.58872 1.62298,0.35061 5.64737,0.0572 8.94308,-0.65205 3.29571,-0.70924 6.32258,-0.0566 6.72634,1.45026 1.76993,6.60545 6.59612,6.66576 10.69731,0.13363 2.41661,-3.84881 3.43432,-7.55184 2.26174,-8.22883 -1.17255,-0.67698 -2.81682,-0.0446 -3.65389,1.40522 -0.83708,1.44986 -2.22204,1.33491 -3.07772,-0.25538 -0.85568,-1.59034 -5.19633,-2.68581 -9.64592,-2.4344 -4.44958,0.25138 -8.32665,-0.42556 -8.61571,-1.50436 -0.28908,-1.07879 -4.95548,-0.55036 -10.36983,1.17434 -5.41434,1.72468 -8.08331,3.14055 -5.93103,3.14635 2.15228,0.006 3.95954,1.55515 4.01616,3.443 0.1183,3.94569 4.55821,7.25753 5.24304,3.91094 z m -0.40396,-9.36025 c 2.88995,-1.0696 5.81452,-1.62135 6.49905,-1.22615 0.68453,0.39522 -1.11991,1.59369 -4.00987,2.66328 -2.88995,1.06959 -5.81452,1.62136 -6.49906,1.22614 -0.68453,-0.39521 1.11992,-1.59369 4.00988,-2.66327 z m 12.51243,3.29923 c 7.59838,-2.73663 14.68351,1.3328 11.60471,6.66547 -1.06095,1.83759 -1.97592,1.20879 -2.81898,-1.93719 -0.96275,-3.59305 -2.99293,-4.34789 -8.88028,-3.30163 -7.57451,1.34611 -7.5738,1.33534 0.0944,-1.42642 z m 81.32389,0.18383 c 3.93249,-2.44251 3.93539,-7.07729 0.0143,-23.2242 -5.73964,-23.63561 -4.43824,-22.09634 -14.42356,-17.05978 -8.8776,4.4778 -8.47993,21.93231 0.53221,23.36073 2.25758,0.35782 2.87269,1.31349 1.36685,2.12369 -2.61556,1.4073 1.88828,14.55495 5.74958,16.78427 1.01626,0.58673 4.05859,-0.30637 6.76068,-1.98471 z m 9.85987,-13.28378 c -2.141,-5.65319 -4.84698,-10.02024 -6.01327,-9.70455 -2.73653,0.74071 3.22616,16.4026 7.0186,18.4354 1.5881,0.85118 1.1357,-3.07766 -1.00533,-8.73085 z m 11.26731,2.73808 c 2.14045,-1.73367 3.50319,-5.42744 3.02834,-8.20834 -1.06074,-6.21196 3.24155,-4.22364 4.99136,2.30676 0.82252,3.06968 1.80213,3.77687 2.81106,2.02934 0.85172,-1.47522 0.65143,-5.10629 -0.44512,-8.06906 -1.09651,-2.96276 -2.85709,-12.00303 -3.91241,-20.08951 l -1.91873,-14.70273 5.51476,18.9488 c 5.95247,20.45278 11.27002,28.03392 7.8526,11.19527 -1.51884,-7.48374 -1.36063,-8.30255 0.57694,-2.98582 5.7568,15.79691 9.28692,10.2592 4.70378,-7.37878 -2.6699,-10.27482 -4.25687,-19.71632 -3.52662,-20.98115 0.73023,-1.26481 3.42696,5.25107 5.99274,14.47974 4.1492,14.92396 12.15481,23.4582 15.7243,16.76259 2.03181,-3.81122 -10.35159,-40.99808 -12.94093,-38.86115 -1.54244,1.27292 -8.23955,4.12715 -14.88243,6.34277 -33.33542,11.11828 -49.31089,29.50747 -29.42915,33.87555 2.8929,0.63557 5.70221,4.32453 6.65103,8.73348 1.98947,9.24489 4.08812,10.74958 9.20848,6.60224 z m -3.569,-7.67378 c -1.06205,-2.903 -3.04066,-11.09204 -4.39685,-18.19781 -1.82671,-9.57096 -1.06807,-8.27747 2.92695,4.9903 4.86834,16.1683 5.72725,20.25469 3.9775,18.92417 -0.31712,-0.24118 -1.44555,-2.81365 -2.5076,-5.71666 z m 16.11175,-28.63964 c -0.81685,-5.73561 -0.67798,-5.77283 1.48241,-0.39722 1.31104,3.26221 2.13952,6.35419 1.8411,6.87107 -1.18281,2.04869 -2.46562,-0.45007 -3.32351,-6.47385 z m 18.99055,7.64529 -2.08244,-10.32933 3.36122,9.98668 c 3.14155,9.33408 3.5666,12.26714 1.61438,11.14004 -0.44586,-0.25743 -1.74778,-5.11626 -2.89316,-10.79739 z m -5.38938,-19.70616 c -0.81684,-5.7356 -0.67798,-5.77282 1.48243,-0.39721 1.31102,3.26221 2.13951,6.35418 1.84109,6.87106 -1.18282,2.04871 -2.46563,-0.45005 -3.32352,-6.47385 z m 19.14569,17.51001 c -3.91942,-15.98952 -0.73533,-17.52743 3.74127,-1.80702 4.83624,16.98339 7.50954,13.53554 3.24911,-4.19051 -2.18749,-9.10143 -2.04064,-11.43707 0.47367,-7.53332 2.0043,3.1119 4.084,8.23373 4.62157,11.38185 0.53756,3.14813 2.2503,6.43594 3.80607,7.30621 1.81821,1.01656 2.32724,0.39692 1.42523,-1.7353 -0.77192,-1.82467 -2.74909,-10.03752 -4.3937,-18.25071 l -2.99019,-14.93312 4.87493,15.87453 c 6.94372,22.61137 11.44529,18.2723 5.35582,-5.16251 l -5.07927,-19.54725 -8.96392,3.97762 c -4.93015,2.18768 -8.60287,4.64571 -8.16163,5.46228 0.44125,0.81658 -1.28789,1.54736 -3.84254,1.62396 -4.94486,0.14827 0.42869,33.69253 5.90363,36.85349 1.45082,0.83764 1.4418,-3.35644 -0.0201,-9.3202 z m 2.61581,-25.55959 c -1.27859,-2.43639 -1.30253,-4.70372 -0.0532,-5.03846 1.24935,-0.33476 2.70274,1.91665 3.22978,5.00316 1.09284,6.39996 0.16888,6.41021 -3.17659,0.0353 z m 29.26308,21.91283 c 0.44408,-2.80177 1.62977,-3.25627 3.25621,-1.24821 4.81522,5.94492 10.84069,-3.0738 8.70716,-13.03258 l -2.04643,-9.55218 4.86254,10.26055 c 6.93337,14.63029 8.1601,8.95075 2.47972,-11.48065 -2.6699,-9.60322 -4.24845,-18.50986 -3.50789,-19.79255 0.74055,-1.28268 3.39941,5.7907 5.90857,15.71856 5.02353,19.87637 7.84736,23.26365 14.10985,16.92527 2.29689,-2.3247 5.37521,-3.53446 6.84072,-2.68835 1.46553,0.84613 1.38524,-3.68077 -0.1784,-10.05975 -1.56364,-6.37897 -1.68689,-10.93068 -0.27389,-10.11487 1.41301,0.8158 3.29445,4.85385 4.18097,8.97346 1.81289,8.42431 8.30915,10.33396 6.89039,2.02551 -0.73222,-4.28816 -0.3002,-4.537 2.30115,-1.32533 2.38572,2.9454 3.40209,2.69543 3.98465,-0.98006 0.59829,-3.77481 1.5903,-3.93614 4.22221,-0.68673 4.82638,5.95871 4.29443,-1.05369 -1.42225,-18.74853 -2.5299,-7.83084 -3.89099,-15.46561 -3.02467,-16.96615 0.86636,-1.50056 3.99092,6.02174 6.9435,16.71619 5.14361,18.63051 9.39818,23.41617 6.53956,7.35587 -1.36792,-7.68518 -1.36708,-7.685 1.50158,0.3087 5.77218,16.08442 8.18654,5.96911 3.1033,-13.00178 l -5.23433,-19.53483 -24.81966,10.2363 -24.81966,10.23629 5.69085,18.71642 c 3.12997,10.29402 5.25605,19.46952 4.72463,20.38997 -0.53145,0.92049 -3.33576,-6.90897 -6.23182,-17.39875 -5.30341,-19.20929 -8.13436,-21.64407 -18.024,-15.50147 -4.52817,2.81253 -4.70706,6.5404 -1.11502,23.23353 l 4.27855,19.88352 -5.73693,-19.46924 c -8.71097,-29.56211 -20.31256,-25.16811 -13.50526,5.11499 3.808,16.94037 8.07195,23.95485 9.4141,15.48688 z m 31.93065,-33.11616 c -2.17563,-8.52423 -3.25391,-15.58885 -2.39612,-15.69915 0.85777,-0.11033 3.11616,7.14023 5.01861,16.11227 4.34386,20.48543 2.64311,20.21755 -2.62249,-0.41312 z m 20.52449,-9.78407 c -0.52606,-3.0808 0.15758,-4.8874 1.54613,-4.08572 1.36905,0.79041 2.91355,3.92242 3.43225,6.95999 0.52606,3.08079 -0.15759,4.88739 -1.54612,4.08571 -1.36905,-0.79042 -2.91358,-3.92241 -3.43226,-6.95998 z m 31.54875,-8.896 -4.38804,-18.02786 6.41168,16.34618 c 3.5264,8.99039 7.2095,16.13239 8.18464,15.8711 3.40742,-0.91302 -8.74185,-38.43949 -12.40928,-38.32953 -6.60198,0.19796 -7.35716,5.98984 -2.96269,22.72267 5.91806,22.53425 10.61755,23.82428 5.16369,1.41744 z m 14.28235,-1.81282 -3.26185,-14.16076 5.47362,12.45398 c 7.85648,17.87568 10.41352,14.3683 4.15236,-5.69558 -2.93079,-9.39168 -4.59059,-18.32631 -3.68847,-19.85475 0.90229,-1.52832 3.44437,4.61009 5.64948,13.64118 4.3322,17.74276 10.89025,26.18085 7.3093,9.40474 l -2.17179,-10.17457 4.01259,9.53149 4.0126,9.53147 8.54017,-3.41778 c 4.69706,-1.87978 8.84803,-5.36032 9.22433,-7.73454 0.4801,-3.02892 1.69028,-3.14552 4.05664,-0.39076 2.74876,3.19995 3.15506,2.97363 2.19701,-1.22384 -1.5758,-6.90398 1.02021,-10.97341 3.21579,-5.04106 4.79766,12.96299 5.62291,1.12719 0.97834,-14.03192 -2.94901,-9.62513 -4.20587,-17.81002 -2.793,-18.1886 1.41288,-0.37856 4.07208,6.32588 5.90931,14.89881 1.83724,8.57293 4.25971,15.34079 5.38327,15.03974 1.12358,-0.30105 1.30663,-3.96863 0.40677,-8.15017 -1.88758,-8.77133 1.19466,-8.44685 3.55836,0.37461 4.20671,15.69968 14.79269,6.87442 11.11496,-9.26624 l -2.70475,-11.87044 5.33279,12.32034 c 7.27045,16.79687 9.00237,11.57372 3.14647,-9.48908 -6.53638,-23.51028 -18.7651,-24.90577 -13.35635,-1.52415 5.41618,23.41366 4.65815,28.69497 -1.23635,8.6141 l -5.60565,-19.09691 -33.51396,13.86229 c -39.42057,16.30544 -36.70324,13.33407 -31.31143,34.23845 5.26824,20.42535 10.52593,25.18144 5.9694,5.39993 z m 20.22676,-17.71899 c -2.50187,-9.76215 -3.2934,-16.04357 -1.75896,-13.95875 2.66009,3.61428 9.4406,33.51686 7.32282,32.29417 -0.55827,-0.32233 -3.06201,-8.57327 -5.56386,-18.33542 z m 11.07319,9.07028 c -0.81684,-5.7356 -0.67797,-5.77281 1.48242,-0.39721 2.26894,5.64571 2.40737,8.4511 0.35868,7.26828 -0.51688,-0.29842 -1.34538,-3.3904 -1.8411,-6.87107 z m 3.64443,-17.80938 c -0.81685,-5.73562 -0.67798,-5.77283 1.48241,-0.39722 2.26894,5.6457 2.40738,8.45109 0.35869,7.26827 -0.51689,-0.29841 -1.34539,-3.39039 -1.8411,-6.87105 z m 6.4155,0.38507 c -0.81684,-5.73561 -0.67797,-5.77283 1.48242,-0.39721 2.26894,5.6457 2.40738,8.45109 0.35868,7.26827 -0.51688,-0.29841 -1.34538,-3.39039 -1.8411,-6.87106 z m 48.00774,-1.93907 c 0.54186,-0.93856 0.066,-5.93467 -1.05754,-11.1025 -1.12352,-5.16783 -0.9123,-7.4738 0.4694,-5.12443 1.38167,2.34941 2.80681,7.1718 3.16697,10.71645 0.36013,3.54466 2.21639,6.39801 4.12499,6.34077 1.96199,-0.0587 1.33053,-8.33836 -1.45287,-19.05004 -3.77854,-14.54145 -6.05015,-18.75357 -9.77126,-18.11815 -7.51366,1.28301 -8.26831,5.05444 -4.20044,20.99239 3.5673,13.97672 6.51566,19.16481 8.72075,15.34551 z m 12.87986,-14.20006 -1.56974,-8.26394 4.48783,8.53408 c 7.28749,13.85791 9.12502,8.73594 3.96988,-11.06568 -4.50615,-17.30868 -5.21378,-18.34151 -11.42592,-16.677 -6.21211,1.66456 -6.34306,2.85692 -2.11408,19.25298 4.51158,17.49163 9.60987,23.79132 6.65203,8.21956 z m 15.25143,-6.28033 -0.2109,-12.5677 3.66533,11.86414 c 5.612,18.16522 7.12348,9.30941 1.72516,-10.10759 -7.64306,-27.49081 -18.29406,-22.15134 -11.14019,5.58473 5.28669,20.49679 6.23075,21.32458 5.9606,5.22642 z m 28.82905,-14.05552 -1.15846,-12.28504 3.43937,11.10506 c 4.45258,14.3767 12.19837,13.94463 12.87846,-0.71839 l 0.43653,-9.4112 4.39046,8.53089 4.39046,8.53089 -2.17336,-12.85875 c -2.69709,-15.95785 -6.64115,-24.74737 -11.04542,-24.61533 -6.11885,0.18348 -6.73488,5.63167 -2.62834,23.24521 l 4.05756,17.40337 -5.39398,-17.84233 c -2.9667,-9.8133 -5.98377,-17.52179 -6.70458,-17.13 -0.72086,0.3918 -6.57933,2.4129 -13.01884,4.4913 l -11.70822,3.77895 4.00189,17.13543 4.0019,17.13545 8.69649,-2.10524 8.6965,-2.10524 z m -15.89745,0.77836 c -1.56364,-6.37898 -2.28291,-11.2748 -1.59839,-10.87958 0.68453,0.39521 2.52394,5.93773 4.08758,12.31671 1.56364,6.37898 2.2829,11.27479 1.59837,10.87957 -0.68452,-0.39521 -2.52392,-5.93772 -4.08756,-12.3167 z m 6.80059,-6.03044 c -2.18568,-8.56352 -3.13974,-15.08839 -2.12012,-14.49971 1.96308,1.13338 4.39404,9.30626 6.85325,23.0405 2.40728,13.44442 -0.4273,8.32948 -4.73313,-8.54079 z m 38.8641,-4.6269 -1.64515,-8.10143 4.30182,8.35751 c 5.76836,11.20668 7.38361,7.20276 3.43448,-8.51352 -3.65782,-14.55694 -5.08194,-16.10375 -10.66392,-11.58253 -2.54733,2.06324 -3.01102,7.16693 -1.28934,14.19072 3.11667,12.71469 8.31392,17.72324 5.86211,5.64925 z m 22.42689,-1.77292 c 2.23327,4.15065 7.21706,-6.7281 5.36939,-11.72041 -3.37585,-9.12129 0.79933,-9.93411 4.42987,-0.86243 5.85033,14.6185 9.64028,9.87135 4.59264,-5.75259 -2.57081,-7.95755 -6.25136,-14.42096 -8.17894,-14.36317 -5.16503,0.15487 -9.20988,8.69979 -5.99623,12.66738 1.52887,1.8876 2.62205,6.78571 2.42931,10.88468 -0.28186,5.99316 -1.10837,4.89129 -4.22031,-5.62637 -2.12836,-7.19352 -5.32994,-12.77572 -7.11462,-12.40494 -2.46351,0.5118 9.89107,-6.09081 19.59022,-10.46949 0.58542,-0.2643 2.57486,6.1116 4.42094,14.16863 1.84612,8.05703 4.28106,13.11783 5.41101,11.24624 1.13002,-1.8716 0.85044,-6.88691 -0.62121,-11.14513 -1.47163,-4.25826 -1.73639,-7.19993 -0.58836,-6.53712 1.14804,0.66283 3.23574,5.01166 4.63933,9.66408 2.82424,9.3613 9.60376,11.10817 11.81647,3.04472 1.01092,-3.68391 2.49469,-4.24912 5.13964,-1.95796 5.71856,4.95369 10.56056,-6.61306 7.96031,-19.01597 l -2.21026,-10.54297 5.27819,12.06137 c 2.90305,6.63374 6.42612,11.44377 7.82902,10.68896 4.60644,-2.47855 -10.09272,-30.87219 -15.26492,-29.48631 -2.94455,0.789 -4.05427,2.3654 -3.13249,4.44982 0.78512,1.77535 2.58793,8.97852 4.00628,16.00698 l 2.57875,12.77904 -5.74946,-14.31483 c -9.1307,-22.73344 -19.14452,-19.27154 -13.01349,4.49895 2.38782,9.2576 3.45343,17.06998 2.36806,17.36082 -1.08538,0.29081 -3.71193,-6.28277 -5.8368,-14.60797 l -3.86338,-15.13676 -11.91515,4.03691 c -6.55333,2.22028 -12.56897,5.16932 -13.36809,6.55343 -0.7991,1.38409 -3.50538,2.19123 -6.01394,1.79365 -7.22787,-1.14562 -8.40664,4.33445 -4.35063,20.22593 3.09877,12.14101 4.54311,14.32056 8.09042,12.2087 2.375,-1.41396 4.84481,-1.59211 5.48843,-0.39587 z m -8.2439,-8.60853 c -0.81685,-5.73561 -0.67797,-5.77283 1.48242,-0.39722 1.31102,3.26222 2.13952,6.35418 1.84109,6.87107 -1.1828,2.0487 -2.46561,-0.45006 -3.32351,-6.47385 z m -17.42231,-12.81941 c 5.85231,-4.74018 5.81019,-5.83724 -0.18472,-4.81358 -6.12071,1.04515 -9.26543,4.60736 -5.8223,6.59524 1.22258,0.70586 3.92573,-0.0958 6.00702,-1.78166 z m 107.13213,-29.97894 c 0.41574,-2.62315 4.58047,-7.22048 9.25483,-10.21629 4.67444,-2.9958 8.44762,-7.15694 8.385,-9.24695 -0.0657,-2.18363 0.60091,-2.47139 1.56665,-0.67653 0.92432,1.71792 3.34513,1.77531 5.37962,0.12741 2.43119,-1.9692 2.33393,-3.07198 -0.28377,-3.21756 -2.19048,-0.12181 -1.37678,-0.69464 1.80825,-1.27279 3.18511,-0.57823 7.51278,-2.29754 9.61713,-3.82072 2.10435,-1.52317 12.25767,-6.33539 22.56296,-10.69382 10.30536,-4.35845 31.45304,-13.37403 46.99501,-20.03469 15.54191,-6.66063 28.97625,-10.77534 29.85414,-9.14383 0.87782,1.63154 1.55016,1.43568 1.49403,-0.43521 -0.056,-1.8709 2.73378,-4.59813 6.1996,-6.06049 4.49441,-1.89632 5.74042,-1.63445 4.34483,0.91324 -1.0762,1.96462 -0.93021,3.29696 0.32453,2.96077 1.25467,-0.33619 2.38148,-3.72476 2.50411,-7.53005 0.33333,-10.34758 8.22162,-16.32617 14.06825,-10.66245 3.80669,3.68753 7.96732,3.22624 21.36061,-2.36819 9.14818,-3.82125 18.33904,-6.97514 20.42421,-7.00862 4.02404,-0.0647 -3.68668,3.61865 -17.16364,8.19885 -4.47792,1.52184 -6.89858,3.48464 -5.37925,4.36182 1.51926,0.87716 13.3927,-1.97078 26.38541,-6.32875 23.05139,-7.73186 23.68634,-7.74681 26.23546,-0.61783 1.97015,5.50973 2.42566,5.89908 1.85326,1.58378 -0.41752,-3.1471 0.13189,-5.96071 1.22078,-6.25249 1.0889,-0.29178 -1.2369,-2.10618 -5.16846,-4.03202 -3.93157,-1.92583 -7.55234,-2.3591 -8.04615,-0.9628 -0.49388,1.39628 -4.3505,2.25267 -8.5704,1.90304 -9.21766,-0.76369 -9.33148,-0.69026 22.92213,-14.78964 13.9062,-6.07899 24.52652,-9.04509 25.55342,-7.13661 0.9664,1.79617 1.7117,1.74739 1.656,-0.10836 -0.055,-1.8558 30.0791,-24.60164 44.3898,-30.53546 13.244,-7.80949 31.1138,-11.22282 48.3063,-14.24618 5.0745,-0.89238 -3.9735,3.07701 0.8468,2.14957 7.5484,-1.45243 28.6814,-7.90197 34.7479,-10.08872 -52.01,42.87872 -54.7736,50.04558 -62.5151,55.06732 -6.1573,3.99425 -41.408,10.71627 -40.3655,11.34611 1.0425,0.62979 0.2263,1.27874 -1.8139,1.44197 -6.979,0.55843 -34.6689,15.22933 -38.00543,20.13647 -1.83267,2.69527 -4.405,4.28105 -5.71631,3.52395 -1.31132,-0.7571 -8.31454,0.42688 -15.5628,2.63104 -9.01861,2.74257 -11.29395,2.73845 -7.20811,-0.013 11.12347,-7.49079 1.51568,-6.69001 -15.21028,1.26775 -11.44292,5.44423 -18.16051,11.8244 -24.01863,18.49226 -8.21639,9.35207 -14.69573,18.00218 -22.14357,11.45676 -5.50934,-4.84175 -6.84559,-4.86882 -9.54488,-0.19346 -1.7263,2.99004 -3.83737,4.13797 -4.6913,2.55093 -0.85386,-1.58701 -5.33499,-0.15517 -9.958,3.1819 -9.39896,6.78449 -19.57535,11.23462 -22.21112,9.71288 -0.95664,-0.55232 -0.40036,-1.72467 1.23623,-2.60516 8.27327,-4.45141 -3.1866,-3.32445 -16.77253,1.64942 -15.43032,5.6491 -19.08796,5.13121 -23.72665,-3.35938 -2.07441,-3.79702 -2.28258,-3.56314 -1.45589,1.63585 0.53053,3.33644 1.83826,6.24507 2.90611,6.46358 1.06785,0.2185 1.30714,1.49597 0.53187,2.83881 -0.77526,1.34282 -3.10218,1.49289 -5.17093,0.33348 -2.06867,-1.15949 -4.30998,-0.44689 -4.98053,1.58338 -0.67062,2.03026 -1.91334,2.40153 -2.76153,0.82502 -0.84827,-1.57652 -3.84252,-1.54939 -6.65399,0.0603 -2.8114,1.60967 -4.41657,1.64397 -3.56689,0.0763 0.84969,-1.56767 4.0118,-3.27165 7.02704,-3.78652 3.0153,-0.5149 5.43485,-2.5186 5.37685,-4.4527 -0.0657,-2.19031 0.68496,-2.04754 1.9903,0.3785 1.45097,2.69663 2.05636,2.58269 1.96784,-0.37026 -0.0928,-3.09639 -2.80804,-3.21326 -9.90747,-0.42643 -5.3788,2.1114 -9.74535,4.97952 -9.70355,6.37363 0.0418,1.39409 -0.84088,2.00534 -1.96135,1.35844 -1.12046,-0.64693 -4.87066,0.33122 -8.33364,2.17366 -3.46299,1.84248 -4.68176,3.30151 -2.7084,3.24236 2.19048,-0.0658 2.14719,1.05947 -0.11091,2.88848 -2.03441,1.64786 -4.538,1.4868 -5.56345,-0.35785 -1.02546,-1.84469 -1.42141,-0.57108 -0.87976,2.83001 0.96895,6.08491 -1.48396,6.56773 -7.8126,1.53774 -0.89342,-0.71 -1.96395,0.85128 -2.37894,3.46965 -0.58927,3.71829 3.41917,3.67617 18.30709,-0.19239 10.4839,-2.7242 19.34815,-6.76104 19.69843,-8.97079 0.3502,-2.2097 1.2319,-2.91162 1.95925,-1.55975 0.72735,1.35183 8.21236,0.52357 16.63333,-1.8406 34.96686,-9.81687 18.41652,0.90754 -20.74739,13.444 -12.44486,3.98365 -22.33837,8.59227 -21.98556,10.24143 0.35282,1.64915 -0.23541,1.49227 -1.30713,-0.34865 -1.07181,-1.8409 -4.31357,-2.83186 -7.204,-2.20213 -2.89044,0.62972 -10.68371,2.3552 -17.31844,3.83436 -9.96822,2.22237 -11.9318,1.86118 -11.30708,-2.07996 z m 19.84591,-9.36983 c -0.32393,-1.20888 -2.51344,-0.63096 -4.86552,1.28424 -3.39902,2.76769 -3.27818,3.21867 0.58897,2.19795 2.67601,-0.70635 4.6004,-2.27331 4.27655,-3.48219 z m 92.88023,-44.79249 c 1.03515,-1.79286 -2.31714,-1.94293 -7.5186,-0.33662 -13.8253,4.2695 -25.20993,10.4811 -24.44467,13.33722 0.82744,3.08807 29.37929,-8.52499 31.96327,-13.0006 z m 6.17429,6.99829 c 4.00269,-2.48615 4.05292,-3.26483 0.24922,-3.86773 -2.61936,-0.41516 -4.50434,0.20864 -4.18877,1.38623 0.31549,1.17758 -2.72377,3.31977 -6.75393,4.76043 -7.01808,2.50868 -7.05279,2.58164 -0.82296,1.72661 3.57755,-0.49101 8.75998,-2.29349 11.51644,-4.00557 z m 27.01587,-8.71578 c 7.52174,-2.9059 13.17856,-6.36075 12.57063,-7.67748 -0.60792,-1.31671 0.27691,-5.17905 1.96635,-8.58294 3.6092,-7.2719 2.22936,-16.81242 -1.49784,-10.35671 -1.29714,2.24659 -1.66958,5.36481 -0.82781,6.92934 2.54941,4.73814 -23.86645,21.10114 -29.17628,18.07297 -1.6348,-0.93392 -4.07711,-1.10218 -5.42567,-0.37657 -8.62638,4.64143 11.01092,6.38704 22.39062,1.99139 z m 26.53222,-0.54291 c 1.97284,-1.14274 2.19093,-1.77651 0.48455,-1.40847 -1.70623,0.36809 -3.89857,-1.48228 -4.87185,-4.11194 -1.3985,-3.77869 -1.93545,-3.73466 -2.56061,0.20988 -0.94194,5.94296 1.98865,8.18298 6.94784,5.3105 z m 13.45636,-16.39837 11.99308,-8.11622 -10.6637,1.21062 c -11.61496,1.31855 -14.01525,3.15491 -10.41769,7.97013 1.28713,1.72276 -0.56956,0.85263 -4.1257,-1.93346 -5.43246,-4.25602 -6.32043,-4.21345 -5.55554,0.26635 1.52605,8.93686 6.23102,9.0879 18.76955,0.60258 z m 70.09757,-28.48726 c 1.4735,-2.45148 3.3181,-3.26947 4.0992,-1.81769 0.7811,1.45176 2.3914,0.60273 3.5785,-1.88674 1.3233,-2.77548 3.4173,-3.37149 5.4131,-1.54088 1.79,1.64198 2.8859,1.60917 2.4352,-0.0729 -1.8194,-6.78995 -8.0383,-8.06857 -19.8234,-4.07573 -11.79238,3.9953 -12.31828,4.54446 -10.64011,11.11166 2.00888,7.8614 9.71266,6.97556 14.93751,-1.71769 z m -11.90026,-2.19939 c 1.49239,-2.58488 8.38776,-3.59311 8.93791,-1.30689 0.17861,0.74226 -2.07643,1.88905 -5.01113,2.54843 -2.93469,0.65938 -4.70175,0.1007 -3.92678,-1.24154 z m 36.04376,-12.22116 c -0.7345,-4.6043 -0.3422,-4.89767 2.2856,-1.7088 2.175,2.63936 64.6353,-36.82756 69.1996,-40.08377 6.2006,-4.42362 -41.2822,16.08653 -47.3061,16.85491 -19.9292,2.54203 -35.5801,23.40196 -27.0962,28.30013 3.0914,1.78481 3.6377,1.15508 2.9171,-3.36247 z M 738.2338,301.31627 c 2.35215,-1.9152 4.54159,-2.49312 4.86552,-1.28423 0.32393,1.20887 -1.60054,2.77584 -4.27655,3.48218 -3.86715,1.02071 -3.98799,0.56974 -0.58897,-2.19795 z m 29.55319,-22.62133 c 15.9701,-6.75193 29.51252,-12.00145 30.09425,-11.66561 1.73392,1.00106 -28.47952,14.06497 -44.37327,19.18646 -8.11667,2.61545 -1.69108,-0.76893 14.27902,-7.52085 z m 29.18322,32.61378 c 2.4085,-0.8914 155.29713,-65.05038 206.56499,-85.87619 10.2476,-4.16276 16.4351,-5.73924 16.5491,-5.67339 0.6845,0.3952 -217.14125,92.80767 -220.03123,93.87725 -2.88992,1.0696 -64.7615,27.17871 -65.44601,26.7835 -0.6845,-0.39521 59.47316,-28.04159 62.36315,-29.11117 z m 14.26492,-50.93662 c 6.73527,-2.81273 78.35296,-32.7272 78.9682,-32.37198 1.72914,0.99831 -83.05748,37.24144 -87.38126,37.37108 -2.10808,0.0632 1.67779,-2.18639 8.41306,-4.9991 z m 126.68273,-14.98731 c 0.79041,-1.36905 2.95693,-2.53474 4.81445,-2.59045 1.8576,-0.0558 2.73072,1.01888 1.9403,2.38794 -0.79042,1.36905 -2.95694,2.53474 -4.81454,2.59044 -1.85759,0.0558 -2.73063,-1.01887 -1.94021,-2.38793 z m 70.90314,-25.28862 c 3.4861,-2.25084 6.6269,-3.01559 6.9794,-1.6995 0.3527,1.31611 -2.4995,3.15769 -6.3382,4.09243 -6.6723,1.62469 -6.7005,1.51938 -0.6412,-2.39293 z m -27.53017,-29.71572 c 4.05882,-1.30746 7.93971,-2.05384 8.62421,-1.65862 0.68451,0.39521 -2.07621,1.7883 -6.13503,3.09576 -4.05882,1.30745 -72.94961,28.17653 -73.63411,27.78131 -0.68458,-0.3952 67.08611,-27.91099 71.14493,-29.21845 z m 55.09867,19.82575 c 4.6056,-3.21689 15.1209,-7.40392 22.913,-10.00361 16.5825,-5.68495 14.7756,-5.01562 -0.024,2.01502 -7.8053,3.70798 -18.1161,8.20962 -22.913,10.00364 l -9.0184,4.30084 z m 34.0183,-21.84478 c 0,-3e-5 0,1.4e-4 0,1.1e-4 z m -19.1102,-27.25978 c -28.1273,16.04496 -38.3491,21.82104 -56.59937,24.76573 -0.68451,-0.39521 52.54057,-23.45827 56.59937,-24.76573 z"
       id="path4393"
       inkscape:connector-curvature="0"
       sodipodi:nodetypes="ssssssssssssscsscssssscsssssssssssssssssscscssssssssssscssssssssssssssssscsssscsscscssssssssssssssscscssssssssscsssssscscsscscssssssssscscscccsssssccsscssssssscssssssssssssssscsssssscscssscscsssscsscsscssssccscssssscssssssssssssssssssscccssssscsssscsssssssscsssssccsscsscccsssssssssssscsssscssccsssssssssscssscscscscssscscsssssscssssccsscccssscsssccccccscscsssssscssssscsssssssscscsssssscssscscsscscsscsscsssscssccscccsccsscsssscsscsssssssssssccsscscsssssssssssscssscscssscccscscsscssccssscssscssccsssssssscsssscccsssscscccssccscssssssscsssssscssssssssssssscsssscscssscsscscsssssscscssccscscccccc" />
  </g>
</svg>
