<?xml version="1.0" encoding="UTF-8" standalone="no"?>
<svg
   xmlns:dc="http://purl.org/dc/elements/1.1/"
   xmlns:cc="http://creativecommons.org/ns#"
   xmlns:rdf="http://www.w3.org/1999/02/22-rdf-syntax-ns#"
   xmlns:svg="http://www.w3.org/2000/svg"
   xmlns="http://www.w3.org/2000/svg"
   xmlns:sodipodi="http://sodipodi.sourceforge.net/DTD/sodipodi-0.dtd"
   xmlns:inkscape="http://www.inkscape.org/namespaces/inkscape"
   viewBox="0 -200 1000 1000"
   id="svg2985"
   version="1.1"
   inkscape:version="0.48.4 r9939"
   width="100%"
   height="100%"
   sodipodi:docname="w_n_VSHUD.svg">
  <metadata
     id="metadata2995">
    <rdf:RDF>
      <cc:Work
         rdf:about="">
        <dc:format>image/svg+xml</dc:format>
        <dc:type
           rdf:resource="http://purl.org/dc/dcmitype/StillImage" />
        <dc:title></dc:title>
      </cc:Work>
    </rdf:RDF>
  </metadata>
  <defs
     id="defs2993" />
  <sodipodi:namedview
     pagecolor="#ffffff"
     bordercolor="#666666"
     borderopacity="1"
     objecttolerance="10"
     gridtolerance="10"
     guidetolerance="10"
     inkscape:pageopacity="0"
     inkscape:pageshadow="2"
     inkscape:window-width="1920"
     inkscape:window-height="996"
     id="namedview2991"
     showgrid="false"
     inkscape:zoom="5.3400704"
     inkscape:cx="19.485176"
     inkscape:cy="448.65864"
     inkscape:window-x="1672"
     inkscape:window-y="-8"
     inkscape:window-maximized="1"
     inkscape:current-layer="layer3" />
  <g
     inkscape:groupmode="layer"
     id="layer3"
     inkscape:label="Bullet"
     style="opacity:0.55555556">
    <path
       style="fill:#000000;display:inline"
       d="m 11.316196,397.16998 c 0.469305,-2.39509 0.719028,-2.65103 3.458685,-3.54474 3.697876,-1.20629 3.646693,-1.11049 3.646693,-6.82611 0,-5.08764 0,-5.08764 -2.002838,-7.43733 -5.26568,-6.17759 -5.544187,-8.1247 -4.629319,-32.3646 0.361666,-9.5825 0.600569,-40.76241 0.65531,-85.52658 0.08567,-70.05155 0.09143,-70.44718 1.028658,-70.58896 3.343736,-0.5058 3.058565,0.33778 3.105535,-9.18653 0.133135,-26.99487 2.829257,-48.66709 7.517718,-60.42963 3.385222,-8.49293 4.42772,-11.02384 6.114596,-14.84456 0.972691,-2.20313 1.92691,-4.53585 2.120488,-5.18382 0.403989,-1.352315 4.754361,-9.719923 7.227768,-13.902059 12.543283,-21.208698 47.297084,-20.260906 57.191012,1.559691 0.754745,1.664556 1.884101,3.799901 2.50968,4.745211 0.625573,0.945311 1.967568,3.7306 2.982208,6.189533 1.01464,2.458934 2.68876,6.379374 3.72026,8.712094 1.0315,2.33272 2.45702,6.14989 3.16781,8.48261 0.7108,2.33272 2.10703,6.89212 3.10274,10.13201 4.93111,16.04506 5.36703,20.07674 5.85976,54.19445 0.10632,7.36209 0.27706,8.11288 2.14781,9.44497 1.3859,0.98685 1.3859,0.98685 1.37866,31.23297 -0.004,16.63536 0.20478,40.53128 0.46393,53.10204 0.25914,12.57076 0.71511,39.55546 1.01326,59.96601 0.60817,41.63329 0.9837,37.39171 -3.82827,43.23909 -4.85037,5.89403 -4.36731,14.32414 0.88095,15.37379 6.41328,1.28266 5.13118,12.40921 -1.82143,15.80703 -13.28493,6.4925 -83.524014,7.50384 -96.286917,1.38639 -1.083493,-0.51933 -2.500145,-1.17723 -3.148123,-1.46199 -7.488604,-3.29096 -8.891142,-5.56248 -7.576634,-12.27098 z m 2.331695,-23.04285 c 0.873553,1.66676 2.411026,4.01419 3.416607,5.21652 1.828332,2.18606 1.828332,2.18606 1.828332,7.60021 0,5.95183 -0.01621,5.98853 -3.063164,6.93444 -3.856096,1.1971 -4.005678,1.42388 -4.005678,6.07305 0,4.88321 0.525536,5.67979 4.005998,6.07209 2.444679,0.27555 3.492319,-0.55162 3.519115,-2.77852 0.0082,-0.68505 0.333083,-1.3676 0.72187,-1.51679 0.388786,-0.14919 0.706884,-0.60848 0.706884,-1.02064 0,-0.85039 10.039268,-0.73925 16.022708,0.17739 1.684741,0.2581 5.820014,0.59881 9.189495,0.75715 13.132575,0.61711 12.519616,0.3562 12.90246,5.49209 0.420879,5.64612 2.431988,6.69668 12.915986,6.74703 11.124132,0.0534 16.624752,-1.04562 11.999858,-2.3976 -1.2315,-0.36 -1.513835,-0.67345 -1.440993,-1.59976 0.549768,-6.99132 0.983041,-7.98524 3.480934,-7.98524 3.638474,0 4.426697,-1.13205 1.132207,-1.62609 -6.918747,-1.03753 -6.843996,-13.8444 0.08122,-13.91502 5.875508,-0.0599 5.533532,-6.95799 -0.39595,-7.98683 -1.895571,-0.3289 -4.034089,-0.88138 -4.75226,-1.22773 -0.757289,-0.36521 -1.994473,-0.51796 -2.94535,-0.36366 -2.25473,0.36589 -2.037113,-2.10563 0.245444,-2.78755 -0.04529,-50.97459 -3.475146,-95.05136 0.170716,-156.94761 -0.05965,-2.39036 -1.183372,-6.5116 0.01599,-8.75263 0.618727,-1.00112 -0.07363,-2.06359 -1.126891,-1.7293 -0.968921,0.30753 -1.32529,-0.41539 -0.46644,-0.94618 0.263117,-0.16262 0.783709,-1.02638 1.156863,-1.91947 1.239536,-1.83579 3.321638,-4.94893 1.441029,-6.78346 -0.610824,-0.50694 -0.610824,-0.65868 0,-1.26951 0.961061,-0.96106 0.876489,-1.34079 -0.499414,-2.24232 -1.779166,-1.16575 -1.147084,-1.51191 3.416965,-1.87128 5.94656,-0.46824 8.438633,-1.11213 4.555916,-1.17714 -1.584566,-0.0265 -4.023316,-0.28558 -5.419445,-0.57567 -1.39613,-0.29009 -3.06858,-0.57506 -3.716557,-0.63326 -0.647977,-0.0582 -1.539307,-0.13896 -1.980727,-0.17946 -0.441426,-0.0405 -1.154799,-0.81585 -1.585278,-1.72301 -2.559576,-3.79856 -1.094833,3.05418 -4.280716,1.70279 1.816355,-13.71935 1.186634,-10.46497 4.520331,-16.95828 4.473123,-12.95255 3.179317,-34.06458 19.344897,-32.34399 0.06887,-4.78822 6.772347,-2.80649 4.527579,-4.90706 -1.15366,-6.30521 -1.851603,-13.43711 -3.333982,-20.35954 -0.616233,-1.56372 1.302684,-1.50885 2.594694,0.0742 1.721976,2.10985 2.948506,0.88809 1.711856,-1.7052 -0.96861,-2.03121 -0.982992,-2.74347 -0.0707,-3.50062 0.88064,-0.73087 0.1875,-1.7528 -1.335981,-1.96973 -1.055444,-0.15028 -1.022324,-1.14055 0.03421,-1.02316 0.764783,0.085 0.763765,-1.08526 -0.0014,-1.57362 -0.834326,-0.53252 -3.018876,-3.92147 -3.432578,-5.325047 -0.19099,-0.647977 -0.839542,-1.767062 -1.441228,-2.486856 -0.601681,-0.719793 -0.974105,-1.62107 -0.827611,-2.002838 0.182711,-0.47598 -0.04563,-0.694124 -0.726512,-0.694124 -1.186962,0 -1.256524,-0.813176 -0.271278,-3.171202 0.396911,-0.949938 0.598858,-2.047169 0.448768,-2.43829 -0.515484,-1.34333 -4.705073,-6.600157 -5.277334,-6.621659 -0.31487,-0.01183 -0.809378,-0.464144 -1.098913,-1.005143 -2.847405,-5.320429 -14.618977,-9.041182 -17.608476,-5.565681 -0.580205,0.674527 -1.461949,1.454198 -1.959431,1.732602 -9.827139,25.373748 -3.514912,50.087888 -5.993301,79.746438 -1.473844,55.65091 -2.873398,159.5186 -2.503616,208.51551 -0.426652,0.58348 -0.564085,1.46024 -0.381473,2.43365 0.228941,1.22036 0.0897,1.64383 -0.703335,2.13909 -1.600127,0.9993 -0.914647,4.6321 0.874034,4.6321 1.096815,0 1.777361,4.19397 0.972705,5.99446 -0.437839,0.9797 -0.69727,2.07587 -0.57652,2.43593 0.131315,0.39158 0.0095,0.52486 -0.303108,0.33165 -0.287461,-0.17766 -0.915815,-0.1126 -1.39635,0.14457 -0.480531,0.25717 -2.870648,0.46164 -5.311368,0.45436 -7.483415,-0.0223 -8.096166,0.0303 -8.908833,0.76581 -1.061896,0.961 -1.995266,0.89586 -2.937886,-0.20504 -0.587841,-0.68655 -1.177014,-0.85579 -2.343199,-0.67309 -4.698805,0.73613 -10.396226,-2.82697 -8.388529,-5.2461 0.640485,-0.77174 0.375134,-0.94302 -3.259867,-2.10427 -4.739277,-1.51401 -5.951178,-2.86857 -4.165009,-4.65532 0.415087,-0.41522 0.625781,-2.98324 0.71336,-8.69467 0.159873,-10.42595 0.463339,-21.75728 0.702977,-26.24878 0.103714,-1.94394 -0.01701,-4.38361 -0.268314,-5.42151 -0.301929,-1.24706 -0.290351,-2.84538 0.03412,-4.71256 0.36069,-2.0755 0.347141,-3.00105 -0.05103,-3.48696 -0.37142,-0.45324 -0.568024,-4.38452 -0.624546,-12.48828 -0.04538,-6.50475 -0.191556,-14.0535 -0.324856,-16.775 -0.133304,-2.72151 -0.04571,-8.02314 0.194648,-11.78141 0.240355,-3.75827 0.521827,-11.71071 0.625489,-17.6721 -0.170683,-21.97868 1.259872,-45.64269 -0.343308,-64.79773 -0.139138,-1.68474 -0.3934,-3.96843 -0.565031,-5.07486 -0.372222,-2.39954 0.04824,-3.03151 2.570763,-3.86402 1.621319,-0.53508 1.80256,-0.73637 1.448981,-1.60924 -1.068465,-2.63768 -1.525791,-17.27418 -0.833666,-26.68111 0.219308,-2.9807 0.37848,-6.16168 0.35372,-7.06884 -0.0738,-2.70363 -0.04284,-3.84361 0.196632,-7.24261 0.376797,-5.34798 1.298447,-11.75273 1.907696,-13.25704 0.314922,-0.77757 1.1647,-3.95855 1.888394,-7.06884 0.723689,-3.11029 1.587351,-6.29127 1.919238,-7.06884 0.331887,-0.77757 0.843322,-2.36806 1.136524,-3.53442 0.293196,-1.16636 0.846102,-3.24435 1.228673,-4.61774 0.382631,-1.3734 0.695645,-2.92401 0.695645,-3.4458 0,-0.91444 1.992664,-5.55344 2.681235,-6.24202 0.184845,-0.18484 0.378819,-1.16746 0.431044,-2.18359 0.05223,-1.01613 0.556049,-3.337305 1.119596,-5.158167 2.343726,-7.572727 -1.717903,-2.117681 -5.942276,7.980887 -0.921598,2.20312 -2.52812,6.0203 -3.570048,8.48261 -5.120914,12.10187 -6.449036,16.21273 -7.840981,24.26969 -1.463594,8.47173 -1.555909,9.09549 -1.987669,13.4308 -0.219412,2.20312 -0.624047,5.7022 -0.899185,7.77573 -0.275143,2.07353 -0.605799,10.21967 -0.734796,18.10254 -0.250949,15.33548 -0.269898,15.44426 -2.73133,15.68285 -1.496488,0.14505 -1.496488,0.14505 -1.612389,74.60352 -0.06374,40.95216 -0.30356,77.32136 -0.532925,80.82044 -0.942441,14.3775 -0.489008,23.96241 1.294588,27.36555 z m 15.134999,15.1792 c 0.476336,-0.40786 0.763694,-1.00833 0.63857,-1.33439 -0.499969,-1.3029 11.172201,-1.5497 19.396135,-0.41011 2.591908,0.35916 5.608951,0.6569 6.704537,0.66165 2.759916,0.012 3.690878,1.46043 3.587541,5.58177 -0.108243,4.31687 -2.455065,5.22881 -10.998963,4.27401 -1.943931,-0.21724 -6.079204,-0.49885 -9.189494,-0.6258 -7.662875,-0.31276 -10.418281,-1.31019 -9.959292,-3.60515 0.147221,-0.73609 0.08815,-1.44929 -0.131268,-1.5849 -0.871885,-0.53886 -0.899171,-2.22809 -0.04777,-2.95708 z M 72.882143,199.09968 c 0.63309,0.24294 0.741408,0.78219 0.570667,2.84109 -0.138657,1.67204 -0.01814,2.65532 0.352335,2.87478 0.884218,0.52378 1.298306,3.64373 0.564447,4.25278 -1.478284,3.58386 -0.858725,70.54986 -1.328722,73.80841 -0.06962,87.97473 -5.288867,37.59893 -3.000303,-66.18186 -0.904273,-7.48304 -1.684395,-17.1369 2.841576,-17.5952 z m -1.200987,-6.67617 c 2.009785,-0.44142 2.743149,0.32452 1.543557,1.61212 -0.915005,0.98215 -0.915005,0.98215 -1.978922,-0.15034 -1.063913,-1.13249 -1.063913,-1.13249 0.435365,-1.46178 z m -0.72893,211.29592 c 0.121674,-0.12167 0.969935,-0.13382 1.885025,-0.027 1.820891,0.21258 2.262411,1.36394 0.942965,2.45899 -1.384673,1.14917 -4.086045,-1.17395 -2.82799,-2.43201 z m 0.745457,4.9974 c 0.510884,-0.31575 2.803371,1.83587 2.803371,2.63112 0,0.59057 -1.247316,0.56922 -2.387261,-0.0409 -0.978116,-0.52348 -1.229394,-2.08763 -0.416115,-2.59026 z m 4.549719,-200.38675 c 0.286005,-1.48491 1.552445,-1.36352 1.552445,0.14879 0,1.5158 -1.40557,20.75159 -1.999202,20.38471 -0.454276,-0.28076 0.07854,-18.62176 0.446757,-20.5335 z M 54.029226,380.22076 c 0.404083,0 0.603631,-0.21206 0.443442,-0.47125 -0.06604,-0.10685 0.140975,-1.97014 -0.01317,-5.06992 -1.242817,-0.89447 -0.990689,-3.55026 -0.650437,-5.19469 0.454775,-3.34631 0.974157,-7.53281 0.443883,-10.57155 -0.03186,-0.18256 0.019,4.89656 -1.068644,10.3344 -0.987683,0.97024 -1.03347,4.74051 0.187174,5.61173 0.273479,2.32397 -0.07695,4.85951 -0.07695,4.89003 0,0.25919 0.330614,0.47125 0.734702,0.47125 z M 83.808362,189.069 c 0.453584,0.13296 4.180721,0.3063 8.282525,0.3852 8.424333,0.16204 8.800513,0.0157 8.800513,-3.42334 0,-0.96932 0.31247,-1.99658 0.70688,-2.32391 1.00554,-0.83452 0.87842,-2.70258 -0.22405,-3.29261 -0.68321,-0.36563 -0.92202,-0.96573 -0.8974,-2.25504 0.0185,-0.96626 -0.34187,-3.13525 -0.800704,-4.81999 -0.853001,-3.13202 -1.255318,-7.50418 -1.243786,-13.51667 0.0048,-2.46852 -0.17181,-3.45308 -0.652251,-3.63745 -0.424937,-0.16306 -0.658741,-0.98289 -0.658741,-2.30989 0,-2.45315 -3.627895,-5.51257 -6.536865,-5.51257 -1.819892,0 -3.793178,1.96177 -3.815878,3.79362 -0.0082,0.66093 -0.279973,1.46678 -0.603962,1.79077 -0.399738,0.39974 -0.607911,2.43692 -0.647694,6.33839 -0.07019,6.88346 -0.556521,12.56875 -1.318288,15.41106 -0.350954,1.30948 -1.051066,8.09874 -1.150784,11.1596 -0.04907,1.50613 0.130322,2.0281 0.760485,2.21283 z m 1.936246,177.07223 c -0.535361,0.34524 -0.529446,0.48463 0.03596,0.84844 0.551073,0.35458 0.565705,0.56894 0.07888,1.15553 -0.605649,0.72976 -0.313357,2.65044 0.403348,2.65044 0.213625,0 0.529174,-0.56084 0.701215,-1.2463 0.225388,-0.89802 0.456077,-1.10303 0.82549,-0.73362 0.768666,0.76866 0.82786,3.29575 0.09152,3.90686 -0.355304,0.29487 -0.529791,0.72417 -0.38775,0.95399 0.142037,0.22983 -0.365727,0.41786 -1.128366,0.41786 -1.372166,0 -2.445621,1.62616 -1.598925,2.42217 1.454895,1.36782 14.31081,1.16948 17.67786,-0.27273 2.25494,-0.96586 2.61686,-6.94061 0.43914,-7.24965 -1.07125,-0.15202 -1.07125,-0.15202 -0.13333,-1.88502 -1.71879,-52.72994 1.78393,-94.35435 0.47741,-147.83609 -0.96048,-1.1838 -0.11735,-7.75287 1.15886,-9.02908 0.74867,-0.74867 1.06957,-1.42505 0.82789,-1.74497 -0.21707,-0.28733 -0.68356,-1.26465 -1.03666,-2.17182 -0.3531,-0.90717 -1.05029,-2.21306 -1.5493,-2.90197 -0.78931,-1.08968 -0.88238,-1.87321 -0.71563,-6.02477 0.23141,-5.76144 0.88882,-5.37129 -9.125738,-5.41579 -7.929827,-0.0353 -8.27087,0.096 -7.441356,2.86471 0.436793,1.4579 0.406416,2.55536 -0.148366,5.3596 -0.383692,1.93947 -0.599819,4.26854 -0.480275,5.17571 0.119548,0.90717 -0.09085,2.37604 -0.467529,3.26417 1.367687,54.94017 2.09096,109.2444 1.495652,157.49233 z m -1.780057,27.12143 c -0.03473,0.82287 0.155085,1.63098 0.421783,1.79581 0.311322,0.19241 0.327523,0.59375 0.04524,1.12118 -0.745009,1.39206 0.130755,2.11404 2.223815,1.8333 1.373231,-0.18419 2.246195,-0.0124 3.228675,0.63533 1.72443,1.13689 2.640924,1.12488 3.702848,-0.0485 0.469131,-0.51838 1.444263,-0.94251 2.166967,-0.94251 2.562093,0 3.596443,-4.00036 2.195225,-8.49003 -0.47931,-1.53577 -0.801612,-1.8776 -1.770321,-1.8776 -0.65138,0 -1.897183,-0.20445 -2.76846,-0.45433 -1.174945,-0.33697 -2.010666,-0.2761 -3.235419,0.23563 -0.908204,0.37947 -2.247778,0.68995 -2.976821,0.68995 -2.768639,0 -3.89456,0.79599 -3.513714,2.48407 0.188809,0.83688 0.314884,2.19486 0.280167,3.01773 z m 1.860844,13.11282 c -0.534419,4.65743 2.672922,5.76196 13.084804,4.50611 4.961421,-0.59844 4.982431,-0.61356 4.657881,-3.35391 -0.15143,-1.27862 -0.0264,-2.89239 0.28885,-3.72754 1.00552,-2.66392 -3.25147,-3.15274 -12.560968,-1.44234 -5.876658,1.0797 -6.141518,1.19713 -5.727307,2.53928 0.170948,0.55393 0.286481,1.21921 0.25674,1.4784 z m 9.882185,-22.04996 c 0.518381,0.13556 0.942512,0.53984 0.942512,0.8984 0,0.35855 0.39553,0.65192 0.878958,0.65192 0.483429,0 1.418156,0.42413 2.07717,0.94251 1.54318,1.21387 1.66417,1.19315 3.73741,-0.63974 l 1.74536,-1.54301 -1.74536,-0.6409 c -0.95994,-0.35249 -2.48758,-0.59203 -3.394745,-0.53232 -1.326478,0.0873 -1.741659,-0.1035 -2.120653,-0.9747 -0.259191,-0.5958 -0.869976,-1.15839 -1.357298,-1.25021 -1.694198,-0.31919 -2.428792,2.65253 -0.763354,3.08805 z m 7.47107,15.99771 c 7.90152,-0.40047 10.26844,-4.07976 2.62455,-4.07976 -1.74687,0 -2.17408,-0.18018 -2.51413,-1.06032 -2.09251,-5.4161 -2.86893,-6.34702 -2.86893,-3.43981 0,3.47986 -0.968925,6.44415 -2.369023,7.2477 -2.304649,1.32269 -1.060877,1.64584 5.127533,1.33219 z M 99.0033,103.59011 c 1.1032,1.18098 1.47016,1.3552 1.68349,0.79926 0.34852,-0.90821 -1.037502,-3.62351 -1.849603,-3.62351 -1.639788,0 -1.583859,0.9509 0.166113,2.82425 z m 3.89094,9.78185 c 0.66714,-0.22238 0.5938,-0.9802 -0.11782,-1.21741 -0.25919,-0.0864 -0.47125,0.19636 -0.47125,0.62834 0,0.43199 0.26508,0.69707 0.58907,0.58907 z m 1.12304,86.46133 c 0.37349,0 0.23929,-13.02497 0.38841,-13.26624 0.34627,-0.56028 -0.53618,-1.12377 -1.15801,-0.73945 -0.70117,0.43335 -0.008,14.00569 0.7696,14.00569 z m 7.64849,-15.14648 c 1.31189,1.62011 2.21447,-0.13091 1.47776,-2.86686 -0.59622,-2.21417 -1.04124,-2.36404 -1.74339,-0.5871 -0.74003,1.87277 -0.7112,2.24762 0.26563,3.45396 z m 3.32066,16.20545 c 0.28091,0.71859 0.42677,0.45373 0.64884,-1.17814 0.20615,-1.51484 0.0952,-2.29861 -0.39548,-2.79517 -0.77384,-0.78302 -0.96159,2.16154 -0.25336,3.97331 z"
       id="path3018"
       inkscape:connector-curvature="0"
       sodipodi:nodetypes="ssssssssssssssssssssssssssssscssssscsssssssssssssscccscccssscsssccccccssssccsscsssssscccssssccsscssssssscscsssccsssssssssscscssssssssssscccsscsssssccssccccssssccscccscccssssssccsccsscsssccsccsscssssccsssssscssssccscssssssscccscssssssssssccssscsssssssscssscsssssssscssssssscsssssscscc" />
  </g>
</svg>
