<?xml version="1.0" encoding="UTF-8" standalone="no"?>
<svg
   xmlns:dc="http://purl.org/dc/elements/1.1/"
   xmlns:cc="http://creativecommons.org/ns#"
   xmlns:rdf="http://www.w3.org/1999/02/22-rdf-syntax-ns#"
   xmlns:svg="http://www.w3.org/2000/svg"
   xmlns="http://www.w3.org/2000/svg"
   xmlns:sodipodi="http://sodipodi.sourceforge.net/DTD/sodipodi-0.dtd"
   xmlns:inkscape="http://www.inkscape.org/namespaces/inkscape"
   viewBox="0 -200 1000 1000"
   id="svg2985"
   version="1.1"
   inkscape:version="0.48.4 r9939"
   width="100%"
   height="100%"
   sodipodi:docname="p_VSHUD.svg">
  <metadata
     id="metadata2995">
    <rdf:RDF>
      <cc:Work
         rdf:about="">
        <dc:format>image/svg+xml</dc:format>
        <dc:type
           rdf:resource="http://purl.org/dc/dcmitype/StillImage" />
        <dc:title></dc:title>
      </cc:Work>
    </rdf:RDF>
  </metadata>
  <defs
     id="defs2993" />
  <sodipodi:namedview
     pagecolor="#ffffff"
     bordercolor="#666666"
     borderopacity="1"
     objecttolerance="10"
     gridtolerance="10"
     guidetolerance="10"
     inkscape:pageopacity="0"
     inkscape:pageshadow="2"
     inkscape:window-width="1920"
     inkscape:window-height="996"
     id="namedview2991"
     showgrid="false"
     inkscape:zoom="0.57204939"
     inkscape:cx="-23.44001"
     inkscape:cy="718.83741"
     inkscape:window-x="1672"
     inkscape:window-y="-8"
     inkscape:window-maximized="1"
     inkscape:current-layer="layer3" />
  <g
     inkscape:groupmode="layer"
     id="layer3"
     inkscape:label="BOLT"
     style="opacity:0.5203252">
    <path
       style="fill:#000000"
       d="m 73.998086,507.13532 c -3.710215,1.67072 -9.020724,3.68671 -11.801134,4.47997 -6.069259,1.73157 -8.419655,3.59846 -9.814772,7.79576 -1.230557,3.70219 -3.746779,5.07304 -8.197615,4.46607 -3.552409,-0.48444 -24.815607,-6.91363 -26.547614,-8.02699 -0.600552,-0.38605 -0.43161,-3.34553 0.375428,-6.57662 1.189214,-4.76117 1.031101,-6.31087 -0.834128,-8.17571 -1.265811,-1.26554 -4.984159,-6.41639 -8.2629984,-11.44632 -5.541831,-8.50148 -5.885135,-9.45383 -4.876497,-13.52733 1.426067,-5.75929 17.4419244,-62.93291 22.0429324,-78.68914 3.984267,-13.64418 6.253167,-18.09185 25.895157,-50.76157 8.992381,-14.95665 14.385692,-22.96113 16.034675,-23.79784 2.632594,-1.33582 2.059762,0.53617 20.046243,-65.51094 13.357257,-49.04841 24.926337,-92.03586 30.766847,-114.32094 9.66402,-36.87416 23.87491,-91.002468 27.58589,-105.072891 3.80049,-9.651413 8.80689,-31.682371 13.53425,-40.8052302 4.72737,-9.1228598 17.22416,-17.8787358 18.60086,-16.9937708 1.17827,0.757412 10.17035,13.5497885 8.5538,26.1166635 -1.61655,12.5668755 -6.26373,22.9440095 -8.62408,32.6446245 0.64896,2.820724 -6.3996,32.562018 -13.21002,55.739388 -1.03567,3.524806 -4.41532,16.438406 -7.51019,28.696916 -9.08819,35.99748 -21.50882,83.22388 -32.01976,121.74742 -2.41283,8.84332 -8.26695,31.94089 -13.0091,51.32793 -7.27385,29.73725 -8.36959,35.7679 -7.00731,38.56649 2.23287,4.58709 4.30366,68.32167 2.46914,75.99517 -0.81047,3.39022 -4.73419,17.32553 -8.719265,30.9674 -3.985113,13.64186 -9.087981,32.30503 -11.339704,41.4737 -2.251741,9.16866 -4.834575,17.56575 -5.739628,18.6602 -0.905052,1.09445 -4.68118,3.35687 -8.391407,5.02759 z M 175.67669,-16.179265 c -16.39829,7.7198852 -18.50042,29.613442 -23.13687,40.77873 5.79575,-9.31 8.33855,-8.04699 11.91414,-10.362188 0,0 9.69538,-28.134482 11.22273,-30.416542 z m -3.39205,33.614066 c 1.7663,1.325158 4.83326,3.668778 5.90857,12.37296 -0.33415,-7.326686 1.7896,-11.923314 -3.84807,-20.7081486 0,0 4.21055,-14.0309084 -2.0605,8.3351886 z M 151.11515,29.599507 C 147.82592,39.60588 147.57999,42.683705 135.52379,88.252886 116.54502,159.9875 111.55253,179.70702 77.462687,304.39649 72.353644,323.0837 71.322679,325.6515 68.878,325.77827 c -1.701884,0.0882 -6.71725,7.68868 -22.838982,34.61084 -14.859079,24.81359 -13.983166,22.65403 -24.34912,60.03229 -3.156231,11.38096 -7.347762,26.28699 -9.314508,33.1245 -1.966749,6.83752 -4.4730414,15.7455 -5.5695234,19.7955 l -1.993615,7.36365 5.5556094,8.58705 c 3.055578,4.72288 6.884623,9.69419 8.508985,11.04736 2.674708,2.22817 2.812476,3.01674 1.460072,8.35743 -0.82131,3.24341 -0.895363,6.28148 -0.164551,6.75125 0.730811,0.46978 4.62249,1.78967 8.648176,2.9331 3.008816,0.85456 5.477484,1.56666 7.513175,2.12681 l 1.263782,-3.83359 c -0.346373,-0.9595 0.344139,-4.63001 1.53447,-8.15669 2.178044,-6.45308 6.261185,-20.63906 9.421263,-32.73206 0.937562,-3.5879 4.109755,-15.03479 7.049315,-25.43755 14.90206,-52.73663 34.497735,-125.00824 41.049115,-151.39488 5.377257,-21.65773 17.505967,-64.44544 19.773857,-73.06844 20.1858,-76.75085 41.15965,-164.577445 49.20682,-195.35785 -13.16883,-3.641421 -14.51719,-0.927483 -14.51719,-0.927483 z M 27.705556,516.22701 c -0.864248,-0.55556 -0.93387,-2.81105 -0.167974,-5.44144 0.719455,-2.47092 2.998669,-10.26317 5.064898,-17.31611 3.949546,-13.48146 9.665743,-33.9583 15.749156,-56.41742 1.997969,-7.37619 4.874594,-17.87019 6.392499,-23.32001 1.517915,-5.4498 3.442113,-12.44166 4.275981,-15.53747 6.293402,-23.36454 8.846485,-32.64844 10.920659,-39.71127 1.311295,-4.46514 3.931706,-13.98095 5.82313,-21.14627 16.010912,-60.65414 25.932535,-97.92188 28.277435,-106.21607 1.53012,-5.41221 4.02971,-14.70881 5.55464,-20.65908 1.52493,-5.95028 2.90225,-10.93055 3.06071,-11.06725 0.15846,-0.13672 2.81884,-9.82629 5.91195,-21.53238 3.0931,-11.70609 5.74868,-21.39151 5.90126,-21.52315 0.15259,-0.13164 25.14451,-90.711732 27.33886,-98.968566 6.72017,-25.286437 7.44861,-23.319291 8.27441,-22.788451 1.05397,0.677505 -36.92217,144.095427 -55.48155,214.623157 -3.01824,11.46966 -7.78104,29.89427 -10.583983,40.94358 -2.802955,11.04931 -5.730476,22.4249 -6.505608,25.2791 -0.77513,2.85418 -2.533974,9.49517 -3.90863,14.75771 -7.129531,27.29447 -17.524387,63.68157 -19.492585,68.23363 -1.2288,2.84194 -2.123501,5.96924 -1.98822,6.94955 0.246886,1.78917 -8.297584,33.47852 -18.069709,67.01606 -2.879569,9.88257 -5.417505,18.99425 -5.639853,20.24818 -1.017816,5.73989 -6.539329,22.22026 -7.812632,23.3188 -0.833701,0.71927 -2.02745,0.83274 -2.894844,0.27517 z"
       id="path3013"
       inkscape:connector-curvature="0"
       sodipodi:nodetypes="ssssssssssssssczszccsssscsssscccccccccssssssscsssssccsssssccsssssssssscscssssssssssss" />
  </g>
</svg>
