<?xml version="1.0" encoding="UTF-8" standalone="no"?>
<svg
   xmlns:dc="http://purl.org/dc/elements/1.1/"
   xmlns:cc="http://creativecommons.org/ns#"
   xmlns:rdf="http://www.w3.org/1999/02/22-rdf-syntax-ns#"
   xmlns:svg="http://www.w3.org/2000/svg"
   xmlns="http://www.w3.org/2000/svg"
   xmlns:xlink="http://www.w3.org/1999/xlink"
   xmlns:sodipodi="http://sodipodi.sourceforge.net/DTD/sodipodi-0.dtd"
   xmlns:inkscape="http://www.inkscape.org/namespaces/inkscape"
   viewBox="0 -200 1208 1000"
   id="svg3087"
   version="1.1"
   inkscape:version="0.48.4 r9939"
   width="100%"
   height="100%"
   sodipodi:docname="c_VSHUD.svg">
  <metadata
     id="metadata3097">
    <rdf:RDF>
      <cc:Work
         rdf:about="">
        <dc:format>image/svg+xml</dc:format>
        <dc:type
           rdf:resource="http://purl.org/dc/dcmitype/StillImage" />
        <dc:title></dc:title>
      </cc:Work>
    </rdf:RDF>
  </metadata>
  <defs
     id="defs3095" />
  <sodipodi:namedview
     pagecolor="#ffffff"
     bordercolor="#666666"
     borderopacity="1"
     objecttolerance="10"
     gridtolerance="10"
     guidetolerance="10"
     inkscape:pageopacity="0"
     inkscape:pageshadow="2"
     inkscape:window-width="1920"
     inkscape:window-height="996"
     id="namedview3093"
     showgrid="false"
     inkscape:zoom="0.472"
     inkscape:cx="113.72386"
     inkscape:cy="617.6367"
     inkscape:window-x="1672"
     inkscape:window-y="-8"
     inkscape:window-maximized="1"
     inkscape:current-layer="layer2" />
  <g
     inkscape:groupmode="layer"
     id="layer1"
     inkscape:label="IMG"
     style="display:none">
    <image
       y="-1597.0345"
       x="-1560.0406"
       id="image3111"
       xlink:href="file:///F:/Dev/HL_Modding/VS2013/template_mp/fontsrc/images/claws01.jpg"
       height="1727.8317"
       width="1403.1094"
       transform="matrix(-0.96777713,-0.25180831,0.26599628,-0.96397406,0,0)" />
  </g>
  <g
     inkscape:groupmode="layer"
     id="layer3"
     inkscape:label="CLAW"
     style="display:inline">
    <path
       style="fill:#000000;display:inline"
       d="m 990.4481,203.29532 c 15.856,7.47713 4.47797,14.6166 -26.67153,16.73573 -13.93662,0.94814 -30.02525,3.09087 -35.75249,4.76163 l -10.41315,3.0377 10.61074,-6.72905 c 5.83593,-3.70096 17.47621,-6.92442 25.86735,-7.16321 8.39111,-0.2388 15.32827,-1.60962 15.41594,-3.0463 0.25053,-4.10723 8.74613,-13.45017 11.15056,-12.26267 1.19202,0.58872 5.5987,2.68851 9.79258,4.66617 z m 144.2888,82.02679 c 5.2914,8.8998 -2.0146,11.29287 -22.1126,7.24291 -16.8689,-3.39923 -20.4192,-5.04959 -16.5571,-7.69679 2.7039,-1.85334 8.0303,-2.55945 11.8364,-1.56914 3.8061,0.99032 6.3572,-0.0195 5.6692,-2.24402 -0.6881,-2.22453 1.2559,-3.39233 4.32,-2.59507 3.0641,0.79725 5.1594,3.43443 4.6563,5.8604 -0.7317,3.52874 -0.315,3.63717 2.0844,0.54237 3.3019,-4.25884 7.4091,-4.07209 10.1034,0.45934 z m -37.3785,-7.96548 c -5.4469,0.65513 -18.1438,-0.17582 -28.2152,-1.84657 -10.0714,-1.67076 -29.0904,-3.40027 -42.2644,-3.84332 -26.7965,-0.90124 -45.07096,-4.59145 -38.59261,-7.7931 5.04492,-2.49325 93.64561,5.12961 108.52641,9.33722 l 10.4495,2.95465 -9.9037,1.19119 z m 50.0335,19.93613 c 0.6881,2.22453 -0.357,3.6262 -2.3224,3.11482 -1.9654,-0.51138 -4.1363,-2.74984 -4.8244,-4.97437 -0.688,-2.22453 0.3571,-3.6262 2.3224,-3.11482 1.9654,0.51137 4.1364,2.74984 4.8244,4.97437 z M 795.12623,220.42939 c 3.24178,10.48094 6.52011,15.22262 9.40602,13.60467 2.43645,-1.36596 7.69723,-1.52016 11.69061,-0.34268 6.92581,2.0423 6.84201,2.21805 -1.81849,3.81426 -4.99356,0.92038 -9.38069,2.76603 -9.74918,4.10145 -0.36849,1.33541 -14.81041,6.82855 -32.09316,12.20697 -17.28275,5.37845 -31.78504,11.09037 -32.22732,12.69318 -0.44228,1.60285 -13.59139,7.09527 -29.22025,12.20542 -15.62886,5.11018 -32.63864,10.84253 -37.79955,12.73859 -12.55259,4.61175 -61.17167,-12.03749 -62.1721,-21.29036 -0.7517,-6.95245 3.00628,-9.39522 15.02131,-9.7641 11.22199,-0.34453 9.67553,5.65724 -1.91976,7.45 -7.59038,1.17363 -6.15145,2.42001 10.04625,8.70183 11.83037,4.58812 19.73755,6.12071 21.12869,4.09527 1.39405,-2.0297 3.88066,-1.01396 6.66794,2.72382 3.79448,5.08846 4.34709,4.98288 3.77685,-0.72161 -0.72978,-7.30021 3.31257,-7.79698 7.40711,-0.91032 1.6987,2.85706 10.78165,1.0854 26.5507,-5.17879 35.71887,-14.18914 65.61805,-27.31921 73.44978,-32.25506 3.82491,-2.41063 9.97388,-5.0705 13.66439,-5.9109 5.99478,-1.36505 6.10953,-3.07172 1.07653,-16.01056 -3.09843,-7.96546 -5.44309,-11.5579 -5.21031,-7.98323 0.23276,3.5747 -1.15616,6.96009 -3.08652,7.52308 -4.03993,1.17826 -4.72353,-13.83298 -0.79363,-17.42693 5.63883,-5.15677 11.44667,0.55497 16.20399,15.93597 z m 276.64477,64.18359 c 2.9069,3.0661 1.354,4.01268 -5.7556,3.50839 -6.6211,-0.46964 -9.3194,-2.20208 -8.4331,-5.41436 1.4664,-5.31416 8.2012,-4.40947 14.1887,1.90597 z m -258.89794,-68.161 c 0.95919,1.61322 1.01287,5.39278 0.11926,8.39901 -1.33436,4.48876 -1.99021,4.15745 -3.66955,-1.85358 -2.0748,-7.42647 0.35885,-11.91319 3.55029,-6.54543 z m -8.62199,-2.23593 c -0.46012,2.26987 -0.70026,7.22818 -0.53382,11.0184 0.28763,6.55061 0.1847,6.53194 -2.08186,-0.37767 -1.31143,-3.99792 -1.07122,-8.9562 0.53386,-11.0184 2.10629,-2.70613 2.68554,-2.60109 2.08182,0.37767 z m 300.01973,99.13347 c -48.0424,9.13423 -76.3377,11.2742 -128.68387,9.7323 -61.77597,-1.81966 -161.30892,21.53222 -223.18211,52.36179 -15.8748,7.90994 -36.76428,18.03128 -46.42106,22.49187 -9.65678,4.46058 -20.1664,11.31788 -23.35471,15.23841 -3.18831,3.92054 -20.79287,12.01659 -39.12123,17.99125 -45.04741,14.68447 -47.82836,21.73381 -4.56617,11.57457 19.13012,-4.49229 35.52548,-6.91741 36.43414,-5.38908 2.23285,3.75541 33.81087,-1.45842 32.59727,-5.38217 -0.52784,-1.70654 2.2669,-1.31892 6.21054,0.86137 4.11848,2.277 6.66448,2.32896 5.98189,0.1221 -0.65359,-2.11318 1.57734,-3.36738 4.95765,-2.78712 3.38034,0.58015 21.77232,0.63848 40.87117,0.12939 19.09884,-0.50908 45.73681,-0.23334 59.19548,0.61281 13.45869,0.84611 29.46444,1.02254 35.56841,0.39205 6.10392,-0.63048 13.77341,-0.31809 17.04332,0.6942 4.80794,1.48827 4.82548,1.96308 0.0919,2.48117 -7.93775,0.8688 -17.22277,6.31546 -15.55313,9.12361 0.74676,1.25603 -0.70334,1.52875 -3.22211,0.60612 -10.55024,-3.86443 -54.5302,-8.37985 -57.26446,-5.87936 -1.63306,1.49344 -3.99459,1.65811 -5.24784,0.36591 -3.45803,-3.56553 -81.06065,2.09321 -101.02835,7.36692 -18.0597,4.7698 -20.62661,6.91351 -16.77604,14.01034 3.2931,6.06934 4.07147,32.63412 1.00659,34.35241 -1.45113,0.81358 -4.7892,-10.27218 -7.41789,-24.635 -3.90235,-21.32188 -5.78495,-25.36889 -10.25862,-22.05276 -3.01355,2.23376 -19.11761,6.64276 -35.78683,9.79776 -16.66922,3.15496 -36.24213,9.46374 -43.49539,14.01946 l -13.18772,8.28312 11.08364,-10.72193 c 8.25828,-7.98875 10.03132,-11.41912 6.95545,-13.45705 -8.40731,-5.57019 24.94238,-27.27084 54.93261,-35.74466 17.00417,-4.80456 29.30019,-10.40789 29.87148,-13.6125 0.53399,-2.99563 2.49524,-5.04998 4.35824,-4.56524 1.863,0.48474 2.82431,-0.93873 2.13626,-3.16327 -0.68806,-2.22453 -4.18722,-4.80858 -7.77597,-5.74234 -6.95007,-1.80836 -15.68536,-21.67978 -10.74721,-24.44829 1.61555,-0.90576 4.76818,2.22156 7.0058,6.9496 10.30869,21.78165 18.43879,23.83799 44.97914,11.37633 13.40996,-6.29646 23.99058,-12.71275 23.5125,-14.25848 -0.47809,-1.54568 8.50617,-5.75831 19.96502,-9.36136 11.45885,-3.60305 21.2233,-7.96079 21.69875,-9.68384 0.47546,-1.72308 6.35702,-4.30008 13.07013,-5.72671 6.71312,-1.42662 11.90634,-1.50909 11.54051,-0.18332 -0.36583,1.32577 14.31266,-5.69038 32.61886,-15.59147 35.25141,-19.06606 48.10133,-22.99423 23.88453,-7.30139 -21.98324,14.24546 -20.00007,15.67755 7.65319,5.52661 7.03171,-2.58122 24.97327,-7.18747 39.87013,-10.23612 14.89686,-3.04866 26.7904,-6.50539 26.43012,-7.68158 -0.36031,-1.17623 4.51236,-1.17464 10.82809,0.004 29.37652,5.47985 82.8418,3.58593 130.1136,-4.60912 30.2109,-5.23883 55.7061,-7.56308 62.7736,-5.72418 10.1058,2.62946 5.2562,4.35995 -32.1489,11.47176 z m -53.2305,-31.22374 c -2.7224,0.32339 -6.7425,-0.72261 -8.9336,-2.32444 -2.1911,-1.60182 0.036,-1.86644 4.9498,-0.58799 4.9134,1.27844 6.7061,2.58905 3.9838,2.91243 z m -95.03572,-19.93607 c -0.42734,1.54869 -8.50138,2.70236 -17.94229,2.56368 -10.70148,-0.15716 -17.70096,1.68907 -18.58777,4.90289 -0.78235,2.83524 -3.03049,4.73659 -4.99587,4.22521 -7.72397,-2.00972 -0.0366,-11.57951 10.2095,-12.70959 20.04965,-2.21136 32.09941,-1.81972 31.31643,1.01781 z m -20.03045,10.90611 c 1.01383,9.37667 -6.3525,14.6385 -8.57605,6.12592 -1.18989,-4.5554 -0.15727,-7.80213 3.05415,-9.60257 3.44861,-1.93341 5.04568,-0.92787 5.5219,3.47665 z m -29.47152,-5.00874 c 0.73895,2.38903 -3.58309,2.76349 -10.55882,0.91484 -8.93808,-2.36876 -10.28072,-3.60861 -5.52154,-5.09883 8.14933,-2.55176 14.50879,-0.89708 16.08036,4.18399 z m -199.061,-43.61107 c -6.0462,12.54651 -19.61186,24.63619 -27.6514,24.64287 -3.03223,0.002 -1.29669,-1.95077 3.85682,-4.34065 5.15351,-2.38987 12.02437,-9.87184 15.26866,-16.6266 3.24429,-6.75477 7.6722,-12.79864 9.8398,-13.43082 2.34816,-0.68483 1.81709,3.25818 -1.31388,9.7552 z m 160.48706,44.6048 c -20.35631,3.72203 -34.18006,10.28195 -38.08859,18.07453 -1.67328,3.33605 -5.66786,6.21164 -8.87686,6.39021 -4.74659,0.26411 -4.75209,-0.42454 -0.0296,-3.69306 3.95453,-2.73698 4.95246,-5.45157 3.13063,-8.51573 -4.95319,-8.33082 39.3232,-21.05768 56.42232,-16.21807 1.96676,0.55674 -3.68429,2.33962 -12.55794,3.96212 z m 52.18641,16.79895 c -1.36189,2.36981 -2.68182,5.05395 -2.93314,5.96471 -0.25132,0.9108 -1.79869,0.27254 -3.4386,-1.41835 -1.6399,-1.69088 -2.22842,-5.70838 -1.30783,-8.92776 1.32266,-4.62539 2.04746,-4.69261 3.45475,-0.32034 0.9795,3.04322 2.88796,4.37658 4.24098,2.96302 1.35305,-1.41351 1.34578,-0.63112 -0.0162,1.73872 z M 672.36109,217.62393 c 2.70896,2.8632 0.35274,6.61821 -9.15297,14.58672 -16.2481,13.62052 -19.40012,9.67984 -4.06433,-5.08128 6.34488,-6.10712 8.92621,-9.69091 5.73635,-7.964 -8.19732,4.43776 -13.60457,2.25827 -6.50759,-2.623 6.64879,-4.57299 8.79565,-4.40701 13.98854,1.08156 z m -21.6295,12.517 c -1.89127,6.36957 -10.72139,11.74469 -9.06542,5.51845 0.86192,-3.23465 3.43873,-6.42855 5.72958,-7.09669 2.29085,-0.66814 3.79197,0.0421 3.33584,1.57824 z m 155.63365,57.45015 c -1.45854,2.17738 -7.32198,4.8407 -13.02987,5.91849 -5.70789,1.0778 -12.3542,5.4089 -14.76954,9.62465 -2.41534,4.21575 -11.32281,10.43012 -19.79439,13.8097 -21.37615,8.52764 -21.64346,4.02563 -0.30331,-5.10803 9.55338,-4.08891 18.18192,-10.37742 19.17448,-13.9745 0.99257,-3.59707 7.3661,-8.55423 14.16338,-11.01595 14.15673,-5.12697 18.34922,-4.91226 14.55925,0.74564 z M 665.59463,257.1945 c -5.06331,4.58735 -7.0994,4.61953 -10.42685,0.16482 -3.41077,-4.56624 -4.01788,-4.36546 -3.46688,1.14657 0.36742,3.67524 -0.71751,6.32174 -2.41095,5.88112 -4.66734,-1.21441 -4.86223,-11.87047 -0.24171,-13.21806 12.25424,-3.57398 22.87362,0.29319 16.54639,6.02555 z m 86.61168,35.68928 c -1.30716,4.73716 -34.72965,24.31278 -40.41202,23.66943 -7.37895,-0.83541 -12.78566,4.73227 -14.38006,14.8083 -0.73322,4.63371 -2.72008,8.06405 -4.41516,7.623 -1.69512,-0.44106 -2.65116,-2.36341 -2.12454,-4.27189 0.52662,-1.90848 -0.70711,-3.90309 -2.74164,-4.43245 -2.52697,-0.6575 -3.12419,1.42634 -1.88467,6.57606 2.07235,8.61014 -6.95424,11.90939 -11.52959,4.21406 -1.75774,-2.95636 -5.54792,-3.55058 -11.46081,-1.79677 -11.03329,3.27254 -11.91854,6.0571 -3.41951,10.75593 6.74374,3.72839 7.53051,12.03907 0.97829,10.33424 -1.96537,-0.51138 -3.14254,-2.49127 -2.61592,-4.39975 0.52663,-1.90848 -0.65054,-3.88837 -2.61592,-4.39974 -1.96537,-0.51138 -4.51751,2.49165 -5.6714,6.67337 -1.99389,7.22587 -2.2495,7.22366 -5.14837,-0.0434 -2.11359,-5.2983 -4.16994,-6.62273 -6.69594,-4.31261 -2.00511,1.83366 -5.54644,2.78369 -7.86965,2.11115 -2.3232,-0.67254 0.41962,-3.30607 6.09517,-5.85229 8.08428,-3.62685 9.042,-4.96181 4.42207,-6.16388 -3.2434,-0.84391 -21.18562,5.19139 -39.87153,13.41176 l -33.9744,14.94619 2.84529,-10.31139 c 1.98425,-7.19092 7.36096,-12.67503 17.76714,-18.122 19.1769,-10.0379 26.12566,-31.54352 8.53441,-26.41299 -4.9182,1.43441 -5.11365,3.17356 -1.19151,10.60189 6.24197,11.82204 0.35453,9.93954 -7.52456,-2.40595 -7.68277,-12.03789 -20.22418,-10.8017 -53.38533,5.2621 l -21.0124,10.17873 8.59907,17.4575 c 8.91764,18.10431 9.97535,24.98476 3.08722,20.08253 -2.20089,-1.56636 -5.96594,-10.07309 -8.3668,-18.90386 l -4.36516,-16.05588 -16.50989,4.53923 c -18.21813,5.00892 -39.64799,19.83056 -42.2368,29.21245 -6.20319,22.48043 -104.55829,30.5286 -112.79158,9.22949 -3.67731,-9.51312 -15.62444,-17.89621 -12.82605,-8.99983 1.41736,4.50595 4.54568,8.70489 6.95184,9.33096 2.40616,0.62606 5.23429,4.70911 6.28471,9.07343 2.52984,10.511 -0.44536,9.26444 -11.71056,-4.90655 -10.63694,-13.38062 -15.04367,-15.68189 -14.14689,-7.38767 0.52976,4.89974 -0.45707,4.57953 -6.65439,-2.15915 -8.50275,-9.24547 -8.2727,-12.12604 1.40156,-17.54979 3.91598,-2.19547 5.59398,-4.3888 3.72887,-4.87408 -6.21613,-1.61739 -12.75029,5.7997 -19.88288,22.56963 -7.70847,18.12391 -17.61325,27.55853 -13.7709,13.11717 3.6977,-13.89741 -18.60347,14.63116 -28.94286,37.02505 -10.3904,22.50426 -24.4504,41.01462 -36.79788,48.44534 -4.88375,2.93905 -12.52306,10.5701 -16.97626,16.95792 -9.19831,13.19442 -47.36377,27.55206 -62.65959,23.5722 -8.89873,-2.31538 -62.449435,26.50904 -62.111413,33.43236 0.08441,1.72944 8.209702,10.68944 18.056168,19.91114 18.016785,16.87358 54.327365,72.25988 60.452805,92.2116 3.0508,9.93702 12.04822,23.8102 44.22341,68.18845 l 12.39856,17.1009 8.01157,-6.94755 c 4.62278,-4.0088 6.81947,-8.17667 5.19328,-9.85343 -4.26248,-4.39496 3.63778,-12.86135 8.68172,-9.30369 2.78725,1.96598 5.07124,0.6505 6.24291,-3.59566 1.0162,-3.68271 5.6372,-8.70384 10.26884,-11.15801 4.63166,-2.45422 13.51941,-10.00888 19.7505,-16.78819 7.17599,-7.80728 15.83018,-12.90139 23.60672,-13.89552 6.75258,-0.86328 15.52366,-4.21384 19.49131,-7.44573 8.30582,-6.76567 10.7393,-12.24253 4.65061,-10.46674 -2.29085,0.66813 -3.49347,-1.21952 -2.67244,-4.19495 0.82102,-2.97536 3.90481,-4.78215 6.85288,-4.01508 2.94806,0.76706 4.90021,3.06135 4.3381,5.09847 -0.56439,2.04534 2.24055,3.55944 6.26426,3.38142 4.00743,-0.17731 17.68745,1.77518 30.40002,4.33889 39.33271,7.9321 95.01352,2.58913 91.49709,-8.7798 -0.59566,-1.92591 0.16227,-2.86589 1.6843,-2.08889 6.58236,3.36039 25.00992,-1.63465 23.69581,-6.42305 -0.75681,-2.75763 -0.36673,-3.49241 0.86677,-1.63287 3.47792,5.243 18.24621,-3.78331 20.69199,-12.64686 1.20386,-4.36279 4.18786,-8.51534 6.63112,-9.22795 7.3649,-2.14798 7.90898,3.43828 0.84251,8.65023 -10.01976,7.39025 11.77845,-2.61808 25.94258,-11.91112 6.23246,-4.08908 13.88291,-6.52488 17.00103,-5.41289 14.48792,5.16673 23.25975,1.56864 24.60859,-10.09421 3.42389,-29.60509 7.41842,-48.3687 10.48765,-49.26382 3.7817,-1.10297 3.69794,-0.0485 -3.10446,39.08697 -3.49551,20.11029 -6.57551,29.40834 -10.91158,32.94035 -5.64419,4.59757 -5.08498,4.84561 8.50757,3.77295 8.00187,-0.6315 16.73161,-0.6537 19.3994,-0.0493 13.51447,3.06155 30.28865,-7.88112 31.27512,-20.40235 1.03961,-13.19588 7.71272,-15.66247 8.30361,-3.06926 0.38479,8.2011 18.17018,11.84294 30.85534,6.3181 9.5268,-4.14927 52.57651,-10.50892 59.29814,-8.76 8.25169,2.14703 48.05512,-3.21427 56.50887,-7.61142 3.932,-2.04518 19.40181,-8.89843 34.37742,-15.22942 52.72618,-22.29016 53.19089,-22.60892 25.80286,-17.69902 -13.52248,2.42423 -35.41068,3.67309 -48.64047,2.7753 -13.22979,-0.8978 -30.45057,-0.3125 -38.26839,1.30064 -16.2744,3.35807 -66.72532,4.12669 -94.23049,1.43561 -10.25554,-1.00341 -22.5508,-1.72833 -27.32276,-1.611 -5.44249,0.13387 -8.26714,-1.26951 -7.5785,-3.76515 0.71934,-2.60692 -5.41797,-5.31499 -17.80174,-7.85496 -36.26894,-7.439 1.23953,-40.13379 43.36013,-37.79547 12.95987,0.71949 21.67992,-0.62298 22.46223,-3.45808 0.77951,-2.82494 3.71442,-3.28744 7.51769,-1.18474 5.18152,2.8647 6.35919,1.85136 6.94816,-5.97852 0.39006,-5.18532 2.26283,-9.02362 4.16146,-8.52961 1.89877,0.49405 11.80221,-1.87697 22.00774,-5.2689 16.51383,-5.48859 18.64295,-5.4461 19.35049,0.38597 0.64433,5.31095 1.25103,5.08555 3.20055,-1.18894 1.90386,-6.1279 4.49166,-7.19928 12.4111,-5.13871 5.50305,1.43186 12.03893,1.46339 14.52418,0.0701 6.31514,-3.5405 72.32962,-16.09564 75.6127,-14.38062 1.47947,0.77288 5.55139,-0.19904 9.04876,-2.15979 3.49736,-1.96075 16.3549,-2.71406 28.57236,-1.67403 40.47107,3.4452 136.16553,-19.47038 140.04693,-33.53652 0.2874,-1.04161 -5.6367,0.9051 -13.1646,4.32603 -14.13412,6.42304 -20.96995,4.82014 -10.41214,-2.44138 3.72852,-2.56447 4.54903,-4.48492 2.1795,-5.10146 -2.09002,-0.5438 -5.22475,0.31416 -6.96605,1.90659 -4.09071,3.74101 -13.75284,1.26091 -12.51824,-3.21327 0.52039,-1.88592 7.69107,-2.7504 15.93484,-1.92103 8.24379,0.82934 16.22629,0.37614 17.73879,-1.0071 6.2311,-5.69843 16.6277,1.07364 14.3456,9.34424 -5.4739,19.8375 -126.63262,52.78187 -140.71484,38.26191 -2.61994,-2.70139 -70.03956,7.44101 -91.96929,13.83556 -18.23649,5.31766 -60.70609,11.80158 -59.97628,9.15674 0.29882,-1.08291 -2.61476,-0.5591 -6.47465,1.1641 -3.85988,1.7232 -10.92222,3.8949 -15.69409,4.82607 -4.80145,0.93693 -10.25908,5.55876 -12.22064,10.34911 -3.34751,8.17512 -30.72645,17.58593 -42.35806,14.55947 -6.76518,-1.76025 -24.29218,2.15322 -25.25398,5.63876 -0.50657,1.83583 2.48437,1.92702 6.64655,0.20262 6.80056,-2.81742 6.92428,-2.66533 1.22085,1.50078 -3.49073,2.54979 -8.05705,3.48334 -10.14738,2.07458 -2.09037,-1.40878 -8.23189,-0.7657 -13.64784,1.42907 -9.82178,3.98021 -9.80825,3.99682 5.25252,6.45793 8.30482,1.35712 16.23203,4.37222 17.61612,6.69994 3.33219,5.60443 96.43514,10.88733 121.15174,6.87446 10.20403,-1.65666 22.26932,-2.08483 26.81177,-0.95149 4.54245,1.13319 19.00105,0.60675 32.13031,-1.17025 48.29631,-6.53675 53.60699,-6.56356 54.28702,-0.27409 1.34887,12.47553 -85.90888,50.18595 -123.88742,53.5408 -14.3908,1.27121 -30.66129,2.99076 -36.15667,3.82127 -5.49539,0.83053 -13.5421,1.88517 -17.88159,2.34368 -4.33949,0.4585 -15.97477,2.0263 -25.85618,3.48395 -9.88141,1.45769 -21.03409,2.83801 -24.78375,3.06744 -3.74965,0.2294 -7.46631,2.76824 -8.25925,5.64186 -1.97102,7.143 -18.55478,10.11375 -54.58191,9.77755 -55.82301,-0.5209 -69.80318,1.62369 -102.46827,15.71876 -48.62376,20.98134 -77.66901,24.08014 -133.44571,14.2372 -16.61246,-2.9316 -22.05108,-2.18228 -31.8507,4.38836 -6.49961,4.358 -17.58824,9.05778 -24.64141,10.44397 -8.70811,1.71143 -14.53589,5.72918 -18.15808,12.51835 -2.93376,5.49892 -8.90238,11.92459 -13.2636,14.27928 -4.36122,2.35469 -11.32016,9.22047 -15.46428,15.25729 C 209.11726,777.5345 196.43151,767.36775 121.59784,635.035 102.5813,601.40688 72.993405,564.45023 63.006536,561.85173 52.402502,559.09264 62.346993,547.82702 90.3717,530.85115 c 19.12863,-11.58712 31.71729,-16.85134 37.00655,-15.47511 17.21499,4.47921 53.49152,-10.02199 69.44325,-27.75927 6.22795,-6.92503 15.89091,-17.26018 21.47323,-22.96697 5.58236,-5.70678 17.76484,-24.25398 27.07219,-41.21597 30.01005,-54.69107 96.40701,-116.32983 118.98252,-110.45586 8.9604,2.33143 7.08986,6.22022 -10.59061,22.01753 -15.23147,13.60911 -22.03505,26.64387 -16.75082,32.09236 1.53914,1.58694 5.34513,0.58401 8.45783,-2.22875 4.98619,-4.50577 5.15683,-4.27642 1.43429,1.92804 -11.04493,18.40893 57.99053,35.4112 71.33691,17.56907 1.82172,-2.43535 5.52548,-3.85199 8.23062,-3.14814 6.20198,1.61371 19.80852,-6.7401 21.60962,-13.26732 1.46783,-5.31943 30.70789,-24.01149 44.27626,-28.30412 4.56692,-1.44485 5.62876,-2.3027 2.35967,-1.90636 -3.26911,0.39638 -0.0135,-2.03306 7.23466,-5.3987 7.24816,-3.36564 14.88982,-5.68239 16.98145,-5.14831 2.09189,0.53314 9.88518,-2.72607 17.31898,-7.24472 7.43381,-4.51868 11.19846,-7.62435 8.36589,-6.90151 -2.8567,0.72896 -4.65293,-0.48755 -4.03367,-2.73179 0.63769,-2.31096 3.35294,-2.46849 6.3318,-0.36741 2.86842,2.02326 7.42102,2.70093 10.11687,1.50597 2.69585,-1.19497 10.99792,-2.40523 18.44905,-2.68948 l 13.54751,-0.51678 -12.98111,-1.53585 c -9.32949,-1.1038 -11.20843,-2.10332 -6.67951,-3.55314 3.46589,-1.10953 9.12229,-1.30906 12.56976,-0.44337 3.44707,0.86715 6.69901,0.0125 7.22563,-1.89599 1.82696,-6.62094 -33.88372,-13.26076 -37.56241,-6.98413 -1.9876,3.39125 -2.47021,1.4085 -1.20808,-4.96321 2.06798,-10.43997 2.01986,-10.48239 -2.99615,-2.63912 l -5.09791,7.97131 -0.054,-10.24159 c -0.0371,-7.0398 -2.40426,-10.8531 -7.57181,-12.19765 18.65159,6.8832 27.53217,11.97622 30.85989,14.06252 2.38941,0.88316 13.49377,4.36243 24.67637,7.73163 13.02104,3.92312 17.25555,6.19505 11.77628,6.31831 -10.76687,0.24222 -8.69791,7.69859 3.73478,13.4598 6.32753,2.93214 11.71315,2.74494 17.03439,-0.59218 5.77684,-3.62283 12.93927,-3.567 27.80381,0.21666 24.59131,6.25938 18.39894,-3.25696 -6.85592,-10.53635 -15.48646,-4.46374 -19.16611,-9.34489 -7.90985,-10.49249 6.69134,-0.68218 35.25969,14.39094 40.88014,21.56904 6.61173,8.44405 -5.9275,12.26357 -24.44389,7.44575 -13.18519,-3.43069 -19.51775,-3.14585 -26.67187,1.19965 -13.9936,8.49987 -15.14895,16.56906 -1.75903,12.28563 5.69481,-1.82178 14.29777,-2.28621 19.1177,-1.0321 8.27191,2.15229 39.80757,-9.52651 86.96537,-32.20647 10.36668,-4.9857 19.80276,-9.51397 20.96907,-10.06281 1.16634,-0.5488 1.77784,0.24427 1.35894,1.76238 z M 604.12073,343.7523 c -3.23661,2.22611 -5.08073,4.25668 -4.09804,4.51237 0.98269,0.25569 4.43484,-1.35648 7.67146,-3.5826 3.23661,-2.22611 5.08073,-4.25668 4.09804,-4.51237 -0.98269,-0.25569 -4.43484,1.35648 -7.67146,3.5826 z M 507.382,333.45801 c -3.23661,2.22612 -5.08072,4.25669 -4.09804,4.51238 0.98269,0.25568 4.43485,-1.35648 7.67146,-3.5826 3.23661,-2.22612 5.08073,-4.25669 4.09804,-4.51237 -0.98269,-0.25569 -4.43484,1.35648 -7.67146,3.58259 z m -185.52957,20.22007 c -3.14573,11.1184 -0.33511,8.82422 6.62233,-5.40521 3.97239,-8.12441 4.17882,-10.27575 0.6963,-7.25703 -2.72246,2.35989 -6.01587,8.05789 -7.31863,12.66224 z m 228.02334,283.8178 c -1.17745,4.26709 -0.94289,4.10966 11.09983,-7.44153 l 9.14986,-8.77658 -9.61934,6.2771 c -5.29064,3.45245 -10.0743,7.92589 -10.63035,9.94101 z m -24.7713,-0.73608 c 2.34989,3.95226 22.49376,-4.88995 24.05849,-10.56054 1.22982,-4.4569 -1.46944,-4.14097 -11.83211,1.38485 -7.38396,3.93745 -12.88585,8.06651 -12.22638,9.17569 z m -300.97308,96.00539 c 2.30299,1.67356 5.41907,2.35224 6.92461,1.50829 1.50557,-0.84408 -0.37869,-2.21336 -4.18722,-3.04282 -4.2088,-0.91659 -5.28239,-0.31472 -2.73742,1.53467 z M 586.4698,255.04091 c -0.52663,1.90849 -2.83182,4.01661 -5.12267,4.68474 -2.29085,0.66814 -3.7343,-0.34671 -3.20768,-2.2552 0.52662,-1.90848 2.83182,-4.0166 5.12267,-4.68473 2.29084,-0.66814 3.7343,0.34671 3.20768,2.25519 z m 237.92343,67.71386 c -0.56086,2.03257 -31.10304,12.57192 -34.14145,11.78135 -1.18158,-0.30743 -1.50202,-2.90121 -0.71209,-5.76393 0.78993,-2.86272 1.97438,-4.29984 2.63214,-3.1936 0.65771,1.10626 8.28094,0.54535 16.94048,-1.24644 8.65954,-1.79178 15.53595,-2.50161 15.28092,-1.57738 z M 525.44351,280.23925 c 2.95902,3.05099 2.35231,4.10503 -2.65677,4.6157 -3.57028,0.36402 -5.9245,2.49476 -5.23163,4.73501 0.69291,2.24022 -0.44307,3.63007 -2.52444,3.08852 -4.38837,-1.14182 -1.67761,-13.98534 3.2554,-15.42404 1.82752,-0.533 5.04837,0.81017 7.15744,2.98481 z m -21.86026,-2.62638 c -1.47879,5.17733 -2.02516,5.17035 -3.75807,-0.048 -1.68196,-5.06498 -2.37297,-4.92768 -4.05216,0.80521 -1.62562,5.54979 -2.39725,5.75038 -3.91682,1.01801 -2.27586,-7.08772 1.27125,-11.00412 8.30816,-9.17317 2.83207,0.73688 4.37057,4.06598 3.41889,7.398 z m 1.86307,11.0997 c 1.04912,1.76448 1.24679,5.6024 0.43929,8.52877 -1.07774,3.90576 -2.24202,4.01903 -4.37836,0.42589 -1.6006,-2.69207 -1.7983,-6.53004 -0.4393,-8.52877 1.35903,-1.99872 3.32928,-2.19037 4.37837,-0.42589 z m -27.23639,-1.57693 c 1.09541,4.5512 0.72613,8.98442 -0.82059,9.8516 -1.54676,0.86714 -2.78853,-2.25117 -2.75953,-6.92957 0.0354,-5.70943 -1.20956,-7.35182 -3.78646,-4.99522 -2.11161,1.93106 -5.3529,1.95031 -7.2029,0.0428 -1.84999,-1.90752 -2.03741,-4.68108 -0.4164,-6.16349 5.10982,-4.67301 12.91633,-0.40463 14.98588,8.19385 z m 17.36304,5.83924 c -0.82101,2.97536 -3.10079,4.99135 -5.06617,4.47997 -1.96538,-0.51137 -3.16797,-2.39909 -2.67243,-4.19494 0.49554,-1.79585 2.77532,-3.81184 5.06617,-4.47998 2.29084,-0.66813 3.49346,1.21952 2.67243,4.19495 z m -83.58951,-9.81224 c -3.85501,0.39303 -43.03075,35.04751 -41.65789,30.80244 1.26766,-3.91942 40.23089,-41.02697 40.61109,-37.94644 37.94009,-7.89888 100.19596,-18.08821 111.28817,-13.75575 43.34012,-20.38883 146.76686,-49.26798 112.89161,-43.93729 -9.19244,1.82608 185.46129,-39.60702 159.72447,-32.21935 -14.64405,4.20354 136.68078,0.22463 102.59825,8.94256 -14.3643,3.67422 -88.92187,-4.94517 -110.08449,-0.55544 -49.05057,10.17451 -93.53192,10.94735 -147.65405,30.27019 -6.19486,6.02841 -33.8789,11.12564 -52.65206,17.07274 -7.53612,2.38735 -45.25631,18.96135 -57.35927,23.29911 13.50211,10.50806 -2.34538,2.79997 -14.88353,-0.73643 -77.99214,10.35574 -99.85151,17.88047 -102.8223,18.76366 z m 42.35321,7.67034 c -0.84078,3.70768 -0.19834,4.60334 1.61913,2.25767 3.14915,-4.06443 9.06542,-0.43481 7.65034,4.69345 -1.49998,5.43595 -12.83918,-1.98552 -12.40319,-8.11787 0.23636,-3.32485 1.3518,-5.80531 2.4785,-5.51216 1.12677,0.29318 1.42165,3.2987 0.65522,6.67891 z m -17.7183,8.57468 c -1.02921,4.21387 -0.52959,9.04504 1.11032,10.73593 5.08218,5.24019 -1.93729,6.54664 -8.95862,4.71974 -3.66572,-0.95379 -10.34594,-6.41282 -14.84493,-12.13118 -5.38896,-6.84946 -7.05308,-7.88628 -4.87722,-3.03867 1.81656,4.04708 1.97176,8.10457 0.34489,9.01666 -3.51499,1.97063 -10.15586,-12.53507 -8.60365,-18.79296 1.49281,-6.01788 10.28252,-3.16958 13.91853,4.51032 3.5252,7.44582 11.69925,13.32263 18.62916,3.96526 l 5.15289,-6.64666 -1.8713,7.66158 z m 68.75474,20.5108 c -4.61054,2.89138 -9.18681,5.04786 -10.1695,4.79218 -0.98269,-0.25569 1.98555,-2.83057 6.59609,-5.72195 4.61054,-2.89139 9.18681,-5.04787 10.1695,-4.79218 0.98269,0.25569 -1.98555,2.83057 -6.59609,5.72195 z m -94.01524,-2.8144 c -0.9235,1.4383 1.96454,8.14834 6.41789,14.91115 7.85494,11.92847 1.05352,8.15271 -9.13334,-5.07031 -5.37607,-6.97836 -4.89181,-14.87223 0.82115,-13.38576 1.96537,0.51137 2.81781,2.1066 1.8943,3.54492 z m 24.77805,10.83311 c -0.52662,1.90849 -1.6666,3.28547 -2.5333,3.05996 -0.86669,-0.22551 -2.13877,-2.23009 -2.82682,-4.45462 -0.68806,-2.22453 0.45192,-3.60151 2.5333,-3.05996 2.08137,0.54156 3.35344,2.54614 2.82682,4.45462 z m 16.33462,29.35408 c -14.43672,10.83178 -35.27333,21.74837 -36.76181,19.26001 -2.06382,-3.45013 11.39747,-13.47657 18.51625,-13.79152 4.29067,-0.18985 11.49906,-4.28523 16.01858,-9.10083 4.51951,-4.8156 9.97489,-8.29834 12.12308,-7.7394 2.14816,0.55894 -2.30508,5.67622 -9.8961,11.37174 z m -67.7851,-16.94631 c 0.80976,2.61807 -0.77994,2.74323 -4.19874,0.33138 -3.73247,-2.63271 -5.03082,-2.35892 -4.03783,0.85152 0.805,2.60258 -0.37333,4.25399 -2.6185,3.66981 -4.97055,-1.2933 -0.66756,-8.46882 5.28664,-8.81587 2.34613,-0.13672 4.85193,1.64669 5.56843,3.96316 z m 193.75418,80.4051 c 6.17238,29.32488 1.0063,29.72455 -6.92204,0.53554 -6.27468,-23.10084 -6.44787,-26.3289 -1.34146,-25.00025 1.81197,0.47146 5.53056,11.48059 8.2635,24.46471 z m -33.57484,-14.93198 c -1.2913,4.67967 -0.54284,9.78162 1.66323,11.33765 5.48599,3.86952 18.43267,59.59283 13.5506,58.32255 -2.14848,-0.55902 -4.71667,-6.66643 -5.70712,-13.57202 -0.99044,-6.9056 -5.39526,-21.85351 -9.78846,-33.21757 -8.28484,-21.43068 -8.62422,-28.09688 -1.53563,-30.16427 2.34424,-0.6837 3.13876,2.50496 1.81738,7.29366 z m -80.15899,-17.63598 c 3.78218,6.36128 2.89201,11.16596 -1.84058,9.93457 -1.89623,-0.49338 -4.30713,-4.46787 -5.35756,-8.83219 -2.10335,-8.73901 2.26032,-9.40731 7.19814,-1.10238 z m -8.92846,7.16059 c -0.42355,1.42392 -2.93013,4.52114 -5.56681,6.88353 -3.17083,2.84104 -3.8807,7.06351 -2.0966,12.47133 4.74805,14.39192 2.26832,42.10218 -6.40813,71.60825 l -8.4392,28.69943 4.30183,-32.35261 c 9.70173,-72.96325 2.93424,-85.14033 -21.74685,-39.13028 -11.49851,21.43527 -34.94178,47.83204 -53.65979,60.42015 -7.46103,5.01762 -9.78225,5.64728 -6.16872,1.67326 3.18644,-3.50433 5.03792,-7.64246 4.11437,-9.19579 -0.92355,-1.55333 3.71128,-6.00663 10.29964,-9.89618 14.38968,-8.49521 34.70045,-31.94294 33.92025,-39.15909 -0.30783,-2.84711 3.08787,-8.33967 7.54598,-12.20573 9.25268,-8.02382 11.13326,-11.704 5.07838,-9.93808 -7.9968,2.33227 -2.62177,-4.08153 9.99268,-11.92381 11.35374,-7.05856 10.56969,-7.00018 -7.33147,0.54597 -11.02466,4.6474 -25.21325,9.22245 -31.5302,10.1668 -6.31693,0.9444 -13.03111,2.97405 -14.92039,4.51039 -1.88923,1.53631 -4.38001,1.20387 -5.53505,-0.73879 -2.55678,-4.30023 10.86947,-9.97854 26.85733,-11.35866 l 11.77028,-1.01605 -8.33448,-4.39297 c -7.69335,-4.05499 -6.78813,-4.666 11.76656,-7.9425 11.05558,-1.95227 23.64784,-5.20388 27.98273,-7.2258 7.23082,-3.37264 7.55862,-3.16328 3.96936,2.5355 -2.85064,4.52606 -2.17979,4.39174 2.47206,-0.49509 6.10792,-6.41636 13.29028,-7.98207 11.66624,-2.54318 z m 30.61297,30.31866 c 3.50264,6.51515 7.99601,26.4948 9.98525,44.39918 1.98928,17.90439 4.9299,35.40548 6.53477,38.89131 11.23978,24.41317 15.85255,70.25621 6.42073,63.81059 -2.21536,-1.51393 -3.22279,-4.28466 -2.23876,-6.15714 0.98406,-1.87251 -2.47674,-22.64693 -7.69065,-46.16537 -5.21393,-23.51849 -9.74874,-51.1988 -10.07742,-61.51185 -0.32865,-10.31304 -3.57561,-24.11079 -7.21544,-30.66164 -3.63982,-6.55085 -5.59841,-12.4822 -4.35241,-13.18076 1.246,-0.69855 5.13126,4.06051 8.63393,10.57568 z m 209.76639,70.34702 c -0.52662,1.90848 -1.6666,3.28546 -2.5333,3.05995 -0.86669,-0.2255 -2.13877,-2.23008 -2.82682,-4.45461 -0.68805,-2.22454 0.45193,-3.60152 2.5333,-3.05996 2.08137,0.54156 3.35344,2.54614 2.82682,4.45462 z M 607.5375,476.6694 c -5.92055,9.56859 -7.91878,11.07576 -10.01348,7.55266 -0.86613,-1.45675 2.14752,-5.55394 6.69696,-9.10485 l 8.27171,-6.45625 z M 417.78059,456.40177 c -9.81122,23.89856 -60.00692,72.24198 -54.57668,52.56275 0.80707,-2.92484 4.5595,-6.6983 8.33875,-8.38547 8.97733,-4.00776 27.42356,-23.24489 41.21146,-42.97845 l 10.99406,-15.73494 z m 152.44965,42.29912 c 1.45101,7.60621 1.89246,16.53221 0.98093,19.83559 -0.91151,3.30334 -0.067,12.59537 1.87672,20.64896 1.94371,8.05354 1.83102,15.13953 -0.25044,15.74659 -5.00563,1.4599 -6.18183,-3.14121 -6.82891,-26.71392 -0.2978,-10.84901 -2.43421,-24.66028 -4.7476,-30.69173 -4.97526,-12.97153 -4.67555,-15.51882 1.63277,-13.87745 2.58405,0.67235 5.88548,7.44574 7.33653,15.05196 z M 385.3866,470.21377 c -1.20205,4.35624 -20.01862,17.81299 -22.93942,16.40526 -1.28751,-0.62062 -5.60415,-0.65256 -9.59251,-0.0712 -4.30912,0.62815 -8.17928,-0.88125 -9.5379,-3.71978 -1.25748,-2.62727 -1.44427,-3.7797 -0.4151,-2.56098 1.0292,1.21876 8.88523,-0.65426 17.45785,-4.16223 20.69405,-8.46817 26.08858,-9.73796 25.02708,-5.89105 z m -15.19335,-3.02706 c -1.48173,2.17923 -6.57974,4.31231 -11.32893,4.74016 -11.51395,1.03734 -10.38473,-0.89432 3.03184,-5.18632 7.05627,-2.25729 10.02669,-2.09758 8.29709,0.44616 z m 56.78563,59.19933 c -0.51728,2.93367 3.43094,9.05268 8.77389,13.59786 5.34295,4.54515 12.347,14.73552 15.56455,22.64528 l 5.85013,14.38136 c -2.53475,-3.81904 -13.06986,-20.34134 -17.28278,-18.4775 -1.89179,1.0606 -2.27689,-0.20342 -0.85575,-2.80893 1.42111,-2.60551 0.99853,-5.23806 -0.93906,-5.85013 -8.27895,-2.61522 -16.95108,-17.1655 -13.63177,-22.87163 2.33681,-4.01706 3.15575,-4.21728 2.52079,-0.61631 z m -45.55341,-8.13355 c -2.63086,4.42924 -6.91995,10.00763 -9.53136,12.39642 -3.29985,3.01853 -3.2891,1.88696 0.0353,-3.70993 2.63086,-4.42923 6.91995,-10.00762 9.53136,-12.39641 3.29984,-3.01853 3.2891,-1.88697 -0.0353,3.70992 z m -9.28683,-0.0279 c -0.51374,1.86181 -4.2712,5.76547 -8.34996,8.67479 -6.99245,4.98772 -7.0363,4.85764 -0.76753,-2.2782 8.14027,-9.26624 10.33403,-10.80533 9.11749,-6.39659 z m -21.91135,3.06772 c -4.61054,2.89139 -9.99083,4.83867 -11.95621,4.32729 -1.96538,-0.51138 0.19884,-3.29545 4.80938,-6.18684 4.61054,-2.89138 9.99083,-4.83866 11.95621,-4.32728 1.96538,0.51137 -0.19884,3.29545 -4.80938,6.18683 z M 223.05494,489.43102 c -8.52565,20.11418 6.26041,44.22721 -16.77902,7.42304 3.39204,-2.02281 18.61146,-14.61886 16.77902,-7.42304 z m 290.67115,88.22351 c 10.66331,4.52688 11.28685,11.43025 0.78566,8.69792 -9.33612,-2.42919 -17.17912,-8.27727 -16.14191,-12.03612 0.47027,-1.70427 1.99652,-2.55097 3.39165,-1.88147 1.39513,0.66945 6.7792,3.01834 11.9646,5.21967 z m -62.24613,55.55236 c -0.53088,1.92393 -8.13894,4.3296 -16.90677,5.34597 -8.76786,1.01636 -18.36916,4.36218 -21.33628,7.43519 -6.36643,6.59369 -12.87126,5.89928 -10.92171,-1.16592 0.75263,-2.72754 10.00834,-7.85045 20.56822,-11.38426 19.4559,-6.51082 30.35367,-6.59885 28.59654,-0.23098 z m -10.44662,23.97881 c -0.8261,2.99378 -4.45044,6.75955 -8.05409,8.36834 -8.33601,3.72145 -6.84467,-1.4146 2.451,-8.44108 5.6879,-4.29935 6.80551,-4.28485 5.60309,0.0727 z m -214.02986,0.77578 c 15.46734,8.19162 24.14836,16.22114 14.47387,13.3876 -8.00768,-2.34536 -36.06231,-18.51614 -38.11594,-21.97016 -2.43402,-4.09386 4.37127,-1.62339 23.64207,8.58256 z"
       id="path3123"
       inkscape:connector-curvature="0"
       sodipodi:nodetypes="ssscsscsscssscscsccssssccccsccccscsssssssssssssssscssssccsscsccsccsssccsssssscssccssscsccssssssssscssscsssssscsssssssscccsccsscsssssssssssssssscsssscsssscccccssscccssssssscsssssssssssssssscsssssssssssssccsssscsssssscssscssssssssssssssssscssscsssssssssssssscsssscsssscssscsssssssssssssssssssscsscsscssssssssssssssssssssscscsssssssssssssssssssssssssssssssscscscscsscsscsssscsccssssssssssssscccsssssscssssssssscssssssccsccsssssssscsssscssscsssscccssccccssssccssssscccccssscsccccssssccssssscsscccsssssssssssssssssssssscsscsssssssssssssssscssscssssssssssssssscssssscsssssssssssssssssscssssscsssssssssccssssccsssssssccsssssssssssssssssscccssscssssssscssccssss" />
  </g>
  <g
     inkscape:groupmode="layer"
     id="layer2"
     inkscape:label="SCALE"
     style="display:none">
    <g
       transform="matrix(1,0,0,-1,0,800)"
       id="g3089">
      <path
         d="m 1206,43 1,-1 q 1,-4 -4,-6 l -10,-3 q -2,-2 -5,2 l -50,55 Q 591,311 45,532 q -31,8 -40,51 -8,35 39,75 -1,1 0,1 l 74,43 q 2,2 4,0 l 30,-14 q 2,0 3,-2 1,-4 -2,-6 l -42,-32 h -1 L 62,617 Q 50,599 52,591 54,581 71,569 L 1155,134 q 1,1 2,0 l 7,-8 q 9,-7 42,-83 z M 92,649 83,653 Q 57,634 45,626 26,607 30,588 34,572 54,556 L 1150,113 q 1,1 1,0 l 16,-19 q 4,-2 4,-3 l 2,-1 q -12,26 -16,29 l -6,6 L 66,559 q -6,2 -14,12.5 -8,10.5 -11,16.5 -2,15 13,35 1,1 2,1 z m -3,16 15,18 -26,-15 4,-8 z m 31,27 -27,-31 v -1 l -5,-3 8,-5 q 1,0 1,-1 l 7,5 36,27 -7,3 -22,-20 q -2,-2 -5,0 -2,2 0,4 l 21,18 z M 1143,98 q 2,0 3,-1 l 18,-22 1,11 q -1,3 -20,21 L 51,551 q -21,11 -27,36 -3,22 16,43 l 1,1 36,26 -3,8 Q 56,653 50,650 8,614 14,585 22,548 48,542 h 1 L 1143,98 v 0 z m 51,-54 q -8,19 -16,36 l -7,4 -1,-15 23,-25 h 1 z"
         id="path3091"
         inkscape:connector-curvature="0"
         style="fill:currentColor" />
    </g>
  </g>
</svg>
