<?xml version="1.0" encoding="UTF-8" standalone="no"?>
<svg
   xmlns:dc="http://purl.org/dc/elements/1.1/"
   xmlns:cc="http://creativecommons.org/ns#"
   xmlns:rdf="http://www.w3.org/1999/02/22-rdf-syntax-ns#"
   xmlns:svg="http://www.w3.org/2000/svg"
   xmlns="http://www.w3.org/2000/svg"
   xmlns:xlink="http://www.w3.org/1999/xlink"
   xmlns:sodipodi="http://sodipodi.sourceforge.net/DTD/sodipodi-0.dtd"
   xmlns:inkscape="http://www.inkscape.org/namespaces/inkscape"
   viewBox="0 -200 1513 1000"
   id="svg4263"
   version="1.1"
   inkscape:version="0.48.4 r9939"
   width="100%"
   height="100%"
   sodipodi:docname="g_VSHUD.svg">
  <metadata
     id="metadata4273">
    <rdf:RDF>
      <cc:Work
         rdf:about="">
        <dc:format>image/svg+xml</dc:format>
        <dc:type
           rdf:resource="http://purl.org/dc/dcmitype/StillImage" />
        <dc:title></dc:title>
      </cc:Work>
    </rdf:RDF>
  </metadata>
  <defs
     id="defs4271" />
  <sodipodi:namedview
     pagecolor="#ffffff"
     bordercolor="#666666"
     borderopacity="1"
     objecttolerance="10"
     gridtolerance="10"
     guidetolerance="10"
     inkscape:pageopacity="0"
     inkscape:pageshadow="2"
     inkscape:window-width="1920"
     inkscape:window-height="996"
     id="namedview4269"
     showgrid="false"
     inkscape:zoom="0.37805684"
     inkscape:cx="178.03248"
     inkscape:cy="917.6592"
     inkscape:window-x="1672"
     inkscape:window-y="-8"
     inkscape:window-maximized="1"
     inkscape:current-layer="layer16" />
  <g
     inkscape:groupmode="layer"
     id="layer15"
     inkscape:label="IMG"
     style="opacity:0.53472218;display:none">
    <image
       y="-483.979"
       x="1.5420041"
       id="image4288"
       xlink:href="file:///F:/Dev/HL_Modding/VS2013/template_mp/fontsrc/images/crossbow.jpg"
       height="1520.4965"
       width="1520.4965" />
  </g>
  <g
     inkscape:groupmode="layer"
     id="layer16"
     inkscape:label="XBOW"
     style="display:inline;opacity:0.75">
    <path
       style="fill:#000000"
       d="M 68.797981,532.38247 C 67.991969,531.07829 66.196295,517.67891 64.807598,502.60608 59.366643,443.55017 46.339174,382.25434 26.635976,323.00389 11.859058,278.56751 12.452568,278.00923 77.566829,275.09743 c 20.209933,-0.90376 72.096871,-3.824 115.304321,-6.48946 132.6951,-8.18592 260.1015,-15.40209 279.10294,-15.80812 20.50884,-0.43825 30.74994,4.54495 41.45862,20.17327 47.50165,69.32412 163.48781,39.54251 169.74757,-43.58585 1.67361,-22.22524 9.2374,-40.46578 21.54214,-51.95029 6.70126,-6.25454 7.48003,-6.35157 61.0152,-7.60248 l 54.22731,-1.26709 19.62875,-19.0062 c 10.79583,-10.45342 20.03883,-19.86149 20.53998,-20.90683 2.48021,-5.17318 11.1163,-1.33053 14.23841,6.3354 11.70443,28.73891 10.52827,49.46804 -3.44521,60.71916 -6.50309,5.23616 -6.50309,5.23616 11.23603,3.63674 9.75652,-0.87965 54.23105,-1.71968 98.83228,-1.86671 l 81.09313,-0.2673 -26.6087,-5.97173 c -14.6348,-3.28445 -37.4422,-7.83354 -50.68319,-10.10909 -28.07298,-4.82451 -30.40993,-6.26176 -30.40993,-18.70229 0,-15.43902 24.63075,-23.24213 33.48085,-10.60685 2.84414,4.06058 11.88656,5.80981 59.06297,11.42551 63.7813,7.59232 138.9694,18.98578 185.7273,28.14386 43.6093,8.54136 100.4994,9.23501 102.5873,1.25086 0.729,-2.78757 3.4278,-5.09336 5.9974,-5.12397 10.0498,-0.11961 25.9211,-9.91376 34.1862,-21.09605 5.1507,-6.96861 11.2434,-12.13412 15.4672,-13.11345 3.8329,-0.8887 6.9689,-2.66558 6.9689,-3.94863 0,-2.62022 12.6483,-3.15482 18.799,-0.79458 2.2047,0.846 4.0085,3.04743 4.0085,4.89207 0,1.84461 2.5658,3.71827 5.7018,4.16365 4.019,0.57079 8.0743,5.27764 13.74,15.94758 8.3427,15.71126 19.1001,24.1417 30.8056,24.1417 3.8474,0 6.4511,1.80673 7.304,5.06833 1.1064,4.23095 3.4746,5.07473 14.3342,5.10712 19.0138,0.0568 20.4234,1.61142 18.4634,20.36363 -1.8342,17.54883 -4.7109,22.67404 -12.7339,22.68704 -2.9653,0.005 -13.1938,6.76206 -22.7298,15.01612 -9.5361,8.25407 -23.4337,18.19873 -30.8835,22.0992 -12.8288,6.71672 -13.7211,7.83244 -16.8729,21.09565 -3.9698,16.70615 -12.2356,20.66175 -53.8664,25.77787 -23.9043,2.93767 -23.9043,2.93767 -25.5048,12.41107 -3.6667,21.70319 -36.8066,28.63653 -38.7878,8.11494 -0.9101,-9.4268 -7.28,-11.33008 -8.5328,-2.54951 -1.2659,8.87298 -9.6712,9.05615 -9.7139,0.2116 -0.07,-14.52267 -2.5229,-18.16887 -14.8022,-22.00582 -22.1058,-6.90744 -21.8152,-6.95771 -35.831,6.20099 -16.4712,15.46396 -8.3929,14.51836 -135.7118,15.88579 -119.46138,1.28303 -109.3849,2.8245 -131.55688,-20.12531 -43.2153,-44.73129 -106.53549,-31.53974 -106.53549,22.19471 0,42.3585 -13.67111,52.59595 -70.40436,52.72147 -36.23521,0.0801 -54.71758,-8.94191 -58.67959,-28.64415 -0.60903,-3.0286 -1.78052,-8.68135 -2.60331,-12.56169 -2.31471,-10.91605 -10.57503,-13.30827 -28.29434,-8.19421 -42.93956,12.39304 -69.97041,42.19112 -76.73449,84.58996 -3.70811,23.2434 -12.28878,27.8499 -42.98644,23.07706 -31.08422,-4.83295 -44.52285,-13.79085 -45.45697,-30.30066 -0.84663,-14.96351 -5.61674,-22.83752 -13.83507,-22.83752 -6.11298,0 -8.76961,0.7201 -248.79623,67.43832 -188.171248,52.3044 -207.1814,56.98808 -210.369149,51.83021 z M 192.87115,496.99851 C 559.78804,394.87604 516.15141,362.3108 526.93946,367.22616 c 7.81252,3.55961 22.96776,55.90068 20.86582,65.47071 -2.89092,13.1623 16.47278,24.53635 47.24801,27.75301 20.74051,2.16782 26.15062,-1.90293 28.3486,-21.33044 7.228,-63.8871 110.92158,-125.51072 119.19134,-70.83372 2.5762,17.03313 5.68574,18.37892 4.49712,1.94636 -1.29737,-17.93562 4.42355,-25.79454 22.27669,-30.60189 15.60384,-4.20166 17.76482,-2.50684 17.76482,13.93282 0,17.8825 5.46107,31.67516 12.54149,31.67516 6.20558,0 6.374,-1.63396 1.3964,-13.54702 -4.42508,-10.59066 -4.90665,-22.73315 -1.17793,-29.70031 5.67753,-10.60856 48.31998,-5.12213 55.45937,7.13548 2.15303,3.69653 2.59587,3.11061 2.66011,-3.51962 0.0585,-6.04615 -0.98685,-7.87001 -4.35772,-7.60248 -6.70239,0.53195 -5.319,-7.12525 1.46082,-8.0857 4.27825,-0.60607 5.45813,-1.97527 4.30085,-4.99108 -0.87712,-2.28573 -0.81291,-3.37405 0.14268,-2.41845 0.9556,0.95558 3.96748,-1.09759 6.69309,-4.56265 21.70988,-27.59962 86.86582,-19.70896 118.84657,14.39287 l 14.23907,15.18342 108.66774,-1.7578 c 117.4812,-1.90039 122.6056,-2.52554 122.6056,-14.95709 0,-11.65724 -9.2476,-12.61496 -124.815,-12.92628 l -105.80878,-0.28504 -12.63561,-10.6545 c -24.9812,-21.06448 -88.26925,-36.09359 -96.42451,-22.89812 -4.77337,7.72349 -10.64107,-2.90904 -9.46068,-17.14314 0.88328,-10.65113 0.29409,-13.60363 -2.89817,-14.52322 -2.20376,-0.63484 -24.5102,-5.33981 -49.56983,-10.45547 -57.38121,-11.71375 -66.35009,-15.17106 -56.76166,-21.8805 2.87006,-2.0083 2.81502,-2.25764 -0.30886,-1.39914 -2.09069,0.57455 -3.80124,3.2272 -3.80124,5.89479 0,3.61964 -2.08955,5.05162 -8.23603,5.64426 -7.19268,0.6935 -8.23602,0.0355 -8.23602,-5.19503 0,-3.29403 -1.0816,-7.07249 -2.40355,-8.39659 -1.4576,-1.45998 -1.57381,-8.39149 -0.29533,-17.61242 2.51282,-18.12312 5.04103,-15.54705 -16.90009,-17.2199 -26.72105,-2.03728 -41.22089,15.03584 -41.22089,48.53633 0,86.87856 -130.38399,122.66963 -182.50132,50.09755 -16.73775,-23.30693 -8.53946,-22.68178 -169.74704,-12.94391 -77.35525,4.67268 -177.5633,10.49568 -222.68453,12.93998 -91.080878,4.93401 -93.646368,5.50772 -89.238185,19.95639 1.275703,4.18136 2.41748,6.17701 2.53728,4.43478 0.119789,-1.74224 1.747871,-3.1677 3.617932,-3.1677 3.510528,0 10.744906,19.6438 8.179253,22.20943 -0.793497,0.7935 -1.460186,-0.17283 -1.481529,-2.14732 -0.03026,-2.79948 -0.48978,-2.87949 -2.086722,-0.36324 -1.187533,1.87115 1.544224,15.71182 6.502231,32.94409 11.911861,41.40139 22.715037,97.20838 26.356451,136.15202 3.079016,32.92904 5.027147,39.88252 10.632239,37.94987 1.640332,-0.56557 52.01843,-14.67631 111.95134,-31.3572 z M 83.843988,520.28542 C 84.622881,504.23096 59.161311,343.84856 46.512037,328.97915 69.483964,328.24954 38.72209,296.57341 38.47397,294.48273 c 114.2157,-22.0736 143.9465,-4.22896 268.79195,-9.70115 163.96377,14.49249 160.59295,13.40923 182.33146,32.24488 6.84277,5.92903 18.42834,14.61423 25.74573,19.30045 24.60511,15.75769 19.909,24.34216 -19.63974,35.90136 -220.88532,64.55972 -345.88325,96.92032 -351.74153,91.06205 -2.36521,-2.36521 -3.04099,-2.36521 -3.04099,0 0,3.25087 -41.838353,55.34263 -57.076862,56.9951 z M 319.57919,414.41267 c 78.05215,-21.92673 155.02729,-43.52959 171.05585,-48.00631 33.98346,-9.4915 37.92256,-14.02501 20.63053,-23.74367 -5.49662,-3.08924 -15.70954,-10.75574 -22.69538,-17.03663 -23.04171,-20.71646 -11.07391,-20.05494 -182.17378,-10.06982 -83.34572,4.86392 -157.30667,8.84767 -164.35767,8.85277 -22.691,0.0152 -23.5955,2.085 -15.6689,35.83417 3.71982,15.83792 9.20299,43.05088 12.18483,60.47324 6.60876,38.61389 8.91254,41.74766 27.07235,36.82594 6.62154,-1.79459 75.90002,-21.20294 153.95217,-43.12969 z M 597.0698,441.581 c 0,-1.55448 1.15897,-3.54263 2.57549,-4.41808 1.41652,-0.87545 1.91943,-2.65332 1.11752,-3.95081 -0.80189,-1.29746 0.0347,-2.49318 1.85929,-2.65712 1.82449,-0.16396 -2.23095,-1.22856 -9.01209,-2.36586 -11.03153,-1.85014 -13.01408,-1.43289 -18.83408,3.9637 -7.20855,6.68416 -10.65022,6.12819 -10.65022,-1.72047 0,-3.10272 1.27392,-4.7071 3.1677,-3.9894 2.16927,0.82211 3.29345,-1.98422 3.56665,-8.90352 1.38196,-35.00043 68.44885,-108.3261 99.07984,-108.3261 22.20432,0 24.57974,32.45447 3.15472,43.10182 -24.38769,12.11967 -48.24304,39.01328 -58.18354,65.59394 -5.09263,13.61757 -17.84128,30.53253 -17.84128,23.6719 z m 14.66473,-37.33663 c 11.9541,-29.91376 33.96734,-54.19323 63.79821,-70.36607 9.35017,-5.06921 6.59685,-14.92547 -4.63893,-16.60648 -25.88757,-3.87306 -102.5933,81.98776 -87.82472,98.30687 9.93402,10.97697 21.59141,6.36763 28.66544,-11.33432 z m 539.04937,-64.6211 60.8199,-1.40565 -65.677,-0.56425 c -36.1223,-0.31034 -65.1884,-1.05287 -64.5912,-1.65007 3.883,-3.88294 135.3846,-1.99206 136.1559,1.95781 0.7475,3.82856 -4.8046,4.14688 -63.3541,3.63207 l -64.1733,-0.56426 z m -153.74592,-5.80901 c -1.8546,-1.82677 -9.85748,-8.58497 -17.78419,-15.01822 -10.44125,-8.47403 -13.35814,-12.1013 -10.58661,-13.16484 6.70489,-2.57291 36.40252,17.93874 36.40252,25.1426 0,5.20902 -4.2116,6.80334 -8.03172,3.04046 z m -274.018,-26.31117 c -1.89761,-3.07034 -0.60673,-38.31644 1.47972,-40.40289 6.2857,-6.28571 101.64564,-8.09482 110.21734,-2.09099 7.52803,5.27283 8.07924,27.94987 0.89504,36.82197 -5.0743,6.2665 -108.98936,11.50131 -112.5921,5.67191 z m 577.81172,-12.46343 c -9.151,0.0646 -43.6368,17.88281 -41.2299,20.7829 14.2853,-1.17031 29.4498,9.91498 36.4502,5.50051 -7.4061,-19.95734 4.7118,-23.70257 18.9454,-24.53689 -3.4126,-0.54109 -7.8468,-1.81336 -14.1657,-1.74652 z M 840.29873,396.00442 c 12.34127,-6.20048 20.40588,-19.13268 19.98521,-32.04783 -0.33862,-10.39543 -0.33862,-10.39543 -2.01854,1.00829 -3.67415,24.94068 -12.7927,30.09732 -56.37646,31.88162 -21.01293,0.86024 -32.60864,0.39657 -33.68625,-1.34701 -0.90378,-1.46236 -2.85594,-2.65884 -4.33812,-2.65884 -1.69939,0 -1.52952,1.4042 0.45984,3.80124 4.90102,5.90535 63.93754,5.41 75.97432,-0.63747 z m -53.16687,-9.1897 c 0,-0.52668 -1.71056,-5.05152 -3.80124,-10.05525 -2.09068,-5.0037 -3.80124,-14.26596 -3.80124,-20.58276 0,-12.9417 -1.30441,-13.50834 -15.00568,-6.51847 -21.80795,11.1256 -11.764,37.69065 14.37214,38.01262 4.52981,0.0557 8.23602,-0.32944 8.23602,-0.85614 z m 52.87334,-5.99154 c 14.34921,-10.68182 13.69965,-28.91807 -1.25258,-35.16551 -23.06312,-9.6364 -40.34313,0.70039 -32.00825,19.14713 2.24395,4.96629 4.16588,12.28183 4.27097,16.25674 0.23188,8.77463 17.06838,8.63619 28.98986,-0.23847 z m 491.3831,-28.5291 c 1.7409,-2.78758 4.8661,-5.06833 6.945,-5.06833 2.0789,0 3.7798,-1.14037 3.7798,-2.53416 0,-1.39379 -2.1478,-2.53416 -4.7728,-2.53416 -12.0776,0 -8.4015,-22.00792 4.0668,-24.347 9.309,-1.74637 14.131,1.69376 11.6041,8.2787 -1.7619,4.59157 13.3703,4.48726 38.1993,-0.26333 25.2167,-4.82473 28.9216,-7.05837 30.758,-18.54387 0.8331,-5.20978 2.5147,-11.32757 3.737,-13.59511 5.4524,-10.11501 6.1812,-24.06331 1.0265,-19.64378 -7.2803,6.24187 -36.7405,14.5471 -65.394,18.43544 -9.822,-5.66921 55.517,-12.01449 65.8414,-30.80686 3.8755,-7.77359 9.8891,2.7968 8.1873,14.39145 -1.418,9.66136 -0.8737,9.65726 14.5856,-0.10998 20.7445,-13.10635 32.8667,-24.96584 25.8451,-25.28487 -6.8163,-0.3097 10.6957,-5.53278 23.9119,-7.13191 0.96,-0.11607 2.5577,-5.62794 3.5505,-12.24844 0.9928,-6.6205 1.9179,-12.60745 2.0559,-13.30434 0.1378,-0.6969 -5.7362,-1.41853 -13.0536,-1.6036 -7.3174,-0.18499 -13.3043,0.7375 -13.3043,2.05019 0,1.31267 1.3165,1.573 2.9257,0.5785 1.7716,-1.09494 2.2394,-0.69778 1.1859,1.00685 -0.9569,1.54827 -3.4073,2.17514 -5.4453,1.39308 -2.0381,-0.78207 -3.0746,-2.44283 -2.3035,-3.69055 0.7712,-1.24775 -5.5074,-2.26864 -13.9524,-2.26864 -18.0308,0 -21.0746,-4.92572 -3.3173,-5.36841 6.6205,-0.16498 12.8516,-0.17866 13.8467,-0.0304 0.9952,0.14825 1.2036,-1.309 0.4632,-3.23851 -2.3006,-5.99524 -20.8301,-8.58378 -38.3844,-5.36223 -7.309,1.34133 -10.7702,1.08609 -10.7702,-0.79423 0,-1.52392 5.6261,-3.51709 12.5024,-4.42926 11.1539,-1.47962 12.2005,-2.14182 9.7036,-6.13992 -2.2912,-3.66888 -4.1043,-4.02627 -9.9999,-1.97107 -3.9606,1.38069 -8.8141,1.89142 -10.7854,1.13495 -1.9714,-0.75647 -4.9993,0.32962 -6.7288,2.41356 -4.4257,5.33261 -12.2316,9.22987 -22.5676,11.26744 -7.3256,1.44409 -6.2227,1.75883 6.3354,1.808 23.1013,0.0905 41.0016,3.20943 35.64,6.20996 -2.3816,1.33279 -7.0985,1.72847 -10.482,0.87927 -5.2935,-1.32858 -6.1518,-0.65335 -6.1518,4.83969 0,7.04507 2.2828,8.02825 7.4674,3.21598 2.7521,-2.55446 3.0341,-2.5019 1.4565,0.27149 -1.4839,2.60894 -0.6598,3.02776 3.4136,1.73491 4.1966,-1.33193 5.0371,-0.83759 3.8474,2.26267 -0.8372,2.18182 -2.8257,4.00322 -4.4188,4.04754 -1.5931,0.0443 -0.683,1.75491 2.0226,3.80124 2.7055,2.04636 3.7004,3.72066 2.2109,3.72066 -1.4895,0 -4.1404,-1.72561 -5.8908,-3.8347 -1.7503,-2.10908 -5.0169,-3.53454 -7.2591,-3.1677 -2.8694,0.46948 -4.5466,-1.95956 -5.6637,-8.20257 -1.2887,-7.20188 -1.6974,-7.67835 -2.1734,-2.53416 -0.5862,6.3354 -0.5862,6.3354 -2.2909,0.24379 -2.5885,-9.24974 -30.7341,-10.52828 -30.7341,-1.39605 0,4.06746 -1.6574,4.14037 -92.4969,4.06855 -156.9476,-0.12418 -246.383,-1.47833 -192.5962,-2.91629 53.2173,-1.42275 53.2173,-1.42275 13.9378,-1.9862 -118.36394,-1.69791 -153.93547,-7.04144 -52.1614,-7.83567 22.1844,-0.17309 39.5731,-1.07702 38.6415,-2.00863 -0.9316,-0.93163 -62.1316,-1.50745 -135.99995,-1.27957 -87.68163,0.27044 -134.30611,-0.46112 -134.30611,-2.10739 0,-1.38692 4.5981,-2.52166 10.21804,-2.52166 12.04491,0 28.84919,-6.37973 26.56011,-10.08353 -0.87946,-1.42301 -0.23188,-2.58728 1.43887,-2.58728 11.57229,0 11.06054,-37.72861 -0.67087,-49.46003 -0.71243,-0.71243 -10.55392,8.41408 -21.86996,20.28112 -20.57468,21.57643 -20.57468,21.57643 -37.28121,21.57643 -10.49236,0 -16.12395,0.9426 -15.14032,2.53416 0.88828,1.43727 -1.24077,2.53416 -4.91875,2.53416 -13.00653,0 -2.40941,12.5129 11.01339,13.0044 l 9.11033,0.3336 -8.86956,1.86697 c -8.86957,1.86696 -8.86957,1.86696 1.26708,2.60613 9.70292,0.70751 9.78424,0.78287 1.90062,1.76124 -6.10492,0.75761 -8.23603,2.29197 -8.23603,5.92983 0,3.81234 -1.8383,4.94605 -8.23602,5.07927 -15.58567,0.32458 0.1594,4.40815 67.70401,17.55953 44.39186,8.64337 70.94026,12.62266 81.59035,12.22943 11.82508,-0.43658 16.9654,0.48365 20.48281,3.66686 7.92027,7.16772 37.35145,12.20761 42.31324,7.24582 4.46623,-4.4662 13.45663,-0.98406 12.12003,4.69428 -0.383,1.62711 0.4723,2.23609 1.9006,1.35334 1.4283,-0.88275 2.5946,-0.68242 2.5917,0.44518 0,1.1276 7.4095,1.66778 16.472,1.20041 11.7595,-0.60645 16.4774,-1.83342 16.4774,-4.28522 0,-5.02091 4.4685,-6.96871 11.7781,-5.13411 3.8811,0.97408 5.9181,2.92432 5.1487,4.92933 -2.4262,6.32268 32.8252,5.47948 36.2214,-0.86638 3.5062,-6.55142 10.6261,-6.66533 16.4204,-0.26272 6.4625,7.14101 33.2477,7.08741 35.1195,-0.0702 1.6383,-6.26482 11.8678,-6.63359 11.9221,-0.42979 0.033,3.78996 0.396,3.88208 2.4953,0.63354 2.21,-3.41965 3.6247,-1.83846 2.8343,3.1677 -0.7961,5.04164 32.0465,1.92477 33.3783,-3.1677 0.9126,-3.48997 3.4566,-5.06832 8.1691,-5.06832 4.9759,0 6.4542,1.01534 5.4163,3.72007 -2.9617,7.71802 22.7191,2.57431 36.965,-7.40393 5.419,-3.79567 17.8169,-4.42316 27.4705,-1.87341 4.1354,1.09227 -13.5111,-10.30101 -10.2136,-10.16576 2.8534,0.11704 71.3784,-4.85773 75.3508,-1.56219 83.8397,7.78976 122.783,24.74546 -10.4668,53.56802 3.3115,3.31154 -6.8497,9.17505 -18.6015,10.73399 -12.1131,1.60684 -12.4685,1.89117 -11.4068,9.12473 1.2599,8.58439 8.6668,9.19715 10.2504,0.84801 2.066,-10.89221 18.9585,-12.3904 28.2453,-2.50507 6.4211,6.83493 2.2629,9.16147 -4.8688,2.72412 -8.1542,-7.36032 -18.8897,-6.12725 -20.409,2.3442 -0.9724,5.42194 -2.9942,7.83474 -7.0491,8.41227 -4.4136,0.62863 -5.6855,2.47114 -5.6855,8.23602 0,4.18692 -1.2436,7.14989 -2.851,6.7927 -1.568,-0.34845 -3.3237,0.64243 -3.9016,2.20193 -0.6696,1.80691 1.2891,2.38819 5.3996,1.60242 8.0478,-1.53843 14.0238,3.182 14.0238,11.07735 0,7.71031 9.9908,8.36428 14.6168,0.9568 z M 1223.0075,251.43447 c 0,-2.28302 -15.5804,-3.04099 -62.5093,-3.04099 -34.3801,0 -62.0229,-0.48638 -61.4284,-1.08082 0.5944,-0.59446 29.3118,-1.59677 63.8164,-2.22737 61.1572,-1.11767 69.7339,-0.2225 62.9415,6.56999 -2.0708,2.07081 -2.8202,2.01214 -2.8202,-0.22081 z m 42.6124,70.79275 c 2.0865,-1.32311 -2.6518,-2.70362 -12.6708,-3.69156 -15.3402,-1.51264 -66.0823,-14.76192 -52.477,-13.70229 4.3532,0.33905 10.4054,-2.59662 17.7391,-8.60439 16.0427,-13.14203 41.7731,-29.36152 51.8598,-32.69044 10.9161,-3.60264 10.9756,-5.99015 0.2314,-9.28765 -6.8821,-2.11215 -9.5953,-1.76999 -14.5715,1.8377 -13.13,9.51917 -46.1687,15.89233 -48.7842,9.41048 -1.0225,-2.53416 -1.3182,-2.53416 -1.4782,0 -0.2725,4.31387 -43.5406,4.42847 -47.8423,0.1267 -2.3652,-2.3652 -3.041,-2.3652 -3.041,0 0,5.47093 -47.4959,4.11817 -48.9364,-1.39378 -0.9557,-3.65736 -1.2104,-3.72063 -1.4529,-0.36102 -0.2217,3.07419 -4.1161,4.47327 -15.8706,5.70186 -23.1035,2.4148 -29.2791,2.02518 -33.4123,-2.10801 -3.2921,-3.29206 -3.9065,-3.29206 -5.1698,0 -2.6705,6.95916 -44.2382,5.22536 -47.1287,-1.96575 -1.2605,-3.13603 -2.3641,-4.2764 -2.4525,-2.53416 -0.33267,6.56061 -40.90819,0.61303 -49.68979,-7.28359 -4.35576,-3.9168 -8.89868,-4.56574 -28.51149,-4.07288 -12.83159,0.32245 -23.32915,-0.269 -23.32796,-1.31434 0.005,-4.63181 -4.13334,-1.21285 -7.3624,6.08211 -5.97585,13.50034 -2.26376,15.85673 27.90233,17.71207 36.2551,2.22983 50.33358,7.54617 75.36544,28.45971 l 10.49137,8.76528 93.1505,-1.35101 c 101.6271,-1.47394 88.2199,-2.5647 156.5045,12.73269 2.7876,0.62449 5.6385,1.25025 6.3354,1.3906 0.6969,0.14039 2.7669,-0.69591 4.6,-1.85833 z m 114.1367,-115.64739 c 1.1993,-6.36338 4.8662,-8.7813 13.3925,-8.83077 6.5108,-0.0378 21.7381,-9.92319 15.5441,-10.09113 -4.7133,-0.12772 -11.1644,-11.46553 -9.2953,-16.33636 2.8129,-7.33019 14.7737,-4.18591 15.733,4.1359 0.643,5.57819 1.6081,6.4578 5.0683,4.61977 2.3508,-1.24865 6.319,-2.90681 8.8182,-3.68477 10.2009,-3.1753 0.2976,-10.62865 -18.6126,-14.0081 -18.153,-3.24411 -18.153,-3.24411 -29.5394,9.77223 -12.4145,14.19163 -21.9412,20.24561 -32.9246,20.92274 -3.9021,0.24049 0.2286,1.09585 9.1793,1.90062 24.3649,2.19068 23.6404,7.79863 -1.0075,7.79863 -13.5644,0 -18.8452,0.84415 -17.6256,2.81748 0.9577,1.54964 0.1697,3.84107 -1.7511,5.09211 -2.1658,1.41059 5.1605,2.02492 19.2866,1.6173 20.4982,-0.59152 22.8745,-1.16477 23.7341,-5.72565 z m -155.193,-9.58093 c 2.444,-2.44394 -205.8056,-32.09826 -226.09281,-32.19515 -4.83885,-0.0228 -10.49672,-2.47567 -14.70198,-6.37298 -10.20157,-9.4545 -15.27805,-7.61252 -15.71429,5.70186 -0.23745,7.25153 0.51974,8.23747 6.33541,8.24811 3.63287,0.008 28.27227,4.62044 54.75427,10.25284 26.482,5.6324 51.2666,10.89747 55.0769,11.70017 3.8103,0.80269 6.2977,2.47897 5.5276,3.72506 -1.2823,2.07472 132.7339,1.02107 134.8149,-1.05991 z"
       id="path4291"
       inkscape:connector-curvature="0"
       sodipodi:nodetypes="sssssssssscscsssscssssssccssssssssssscsssssssssssssssssssssssssssssssssssscssscsscssscssssssssssssssssssssssssscsccccssssscssssscssssssscssssssssssssssccsscsccssssscsssccccccsssssssssssscscssccccsssscscssccssscsccsccccscccssscscssssssscscccscssssssssssssssssssssscssssssssssscsssssssccccssscsccssssssssssssccsscssssssssssccssccsssccsscssscsscssscsscssscsscsssscsccsscs" />
  </g>
  <g
     inkscape:groupmode="layer"
     id="layer14"
     inkscape:label="SCALE"
     style="display:none">
    <g
       transform="matrix(1,0,0,-1,0,800)"
       id="g4265">
      <path
         d="m 267,457 q 0,16 16,16 16,0 16,-16 0,-17 -16,-17 -16,0 -16,17 z m 16,-12 q 11,0 11,12 0,4 -2,6 l -15,-15 q 3,-3 6,-3 z m 0,23 q -11,0 -11,-11 0,-4 2,-7 l 16,16 q -3,2 -7,2 z m 538,27 q 17,0 17,-16 0,-17 -17,-17 -16,0 -16,17 0,16 16,16 z m 0,-5 q -11,0 -11,-11 0,-4 3,-6 l 16,15 q -4,2 -8,2 z m 0,-22 q 11,0 11,11 0,4 -1,7 l -16,-16 q 3,-2 6,-2 z m 289,-99 q 15,0 15,-17 0,-17 -15,-17 -17,0 -17,17 0,17 17,17 z m 0,-5 q -12,0 -12,-12 0,-4 2,-7 l 16,15 q -3,4 -6,4 z m 0,-24 q 11,0 11,12 0,4 -3,7 l -15,-15 q 3,-4 7,-4 z M 612,480 q 17,0 17,-17 0,-15 -17,-15 -16,0 -16,15 0,17 16,17 z m 0,-5 q -11,0 -11,-12 0,-3 3,-6 l 15,16 q -4,2 -7,2 z m 0,-22 q 12,0 12,10 0,4 -3,7 l -16,-15 q 3,-2 7,-2 z m 311,61 q 12,0 12,-12 0,-12 -12,-12 -13,0 -13,12 0,12 13,12 z m 0,-20 q 7,0 7,8 0,7 -7,7 -8,0 -8,-7 0,-8 8,-8 z m 586,64 q 6,-6 1,-22 v -1 l -2,-5 q -30,-66 -35,-104 -2,-11 -2,-22 0,-34 19,-53 2,-1 2,-4 v 1 -1 q 5,-12 0,-18 -4,-7 -18,-7 h -322 q -7,-6 -14,-10 -19,-10 -69,-10 -23,0 -44,30 v 0 q -32,56 -70,76 -72,36 -182,36 H 655 q -19,-6 -55,-14 -32,-7 -69,-13 l -20,-45 q -13,-89 -75,-182 -31,-49 -59,-78 -4,-3 -7,-1 l -85,58 q -2,1 -2,3 -3,21 -1,26 h 1 q 50,49 80,117 17,39 24,74 -10,1 -17,2 L 251,244 v -36 q 0,-6 -6,-4 -63,15 -122,46 Q 10,309 10,385 v 53 H 9 v 9 6 q 1,2 1,4 v 18 q 0,36 10,63 1,3 5,2 l 17,-1 9,19 H 35 l -4,2 v 6 q 32,43 73,71 h 1 v 25 h 18 v -13 q 70,42 147,42 15,0 24,-1 4,-1 4,-5 v -9 l 1,-26 161,-89 h 7 v 17 h 80 v -17 h 65 l 13,17 h -54 q -4,0 -4,4 l -2,70 q 0,5 5,5 h 291 q 2,0 3,-1 12,-12 12,-39 0,-24 -9,-38 -1,-1 -6,-1 h -16 l 7,-18 h 84 q 3,0 4,-2 l 10,-28 q 2,-2 4,-3 6,-26 22,-39 14,-9 52,-16.5 38,-7.5 58,-16.5 1,2 3,2 144,2 223,24 128,35 180,75 1,0 3,1 l -2,-1 2,1 q 9,4 14,1 z m -11,-12 h -3 3 z m -644,6 12,-22 h 76 l -8,22 h -80 z m -3,-14 H 631 l -4,-9 h 227 z m -403,-44 18,24 v 1 H 238 l -183,-55 180,2 q 0,8 5,13 9,15 34,15 H 448 z M 274,484 q -28,0 -28,-18 0,-9 6,-21 9,-19 121,-42 l 67,81 H 274 z M 43,454 q 4,-22 12,-43 l 146,44 q -101,0 -158,-1 z m -1,23 v -6 l 159,48 H 47 Q 42,499 42,477 z M 93,596 Q 75,578 64,561 h 139 l -80,26 v -16 h -18 v 23 l -12,2 v 0 z m 12,8 v 1 q -1,-1 -2,-1 h 2 z m 184,45 v 1 0 21 q -95,-2 -166,-52 v 2 -23 l 40,-12 q 45,42 127,44 l -1,19 v 0 z M 59,551 54,542 h 413 v 9 H 59 z m -6,-14 -4,-5 -1,-4 h 419 v 9 H 53 z m 424,-28 h 59 v 9 h -59 v -9 z m 70,19 h 67 l -8,23 h -59 v -23 z m 84,12 h 219 l -17,33 H 642 z m 170,47 q 4,15 4,29 0,16 -4,31 h -8 q 7,-31 -1,-60 h 9 v 0 z m 65,30 q 0,20 -7,30 h -53 q 7,-31 0,-60 h 54 q 6,13 6,30 z M 576,587 h 211 q 3,15 3,29 0,16 -2,31 H 575 z m 40,-35 4,-11 9,26 z M 478,522 h 59 v 44 h -59 v -44 z m -179,122 1,-19 q -2,-4 -4,-6 -20,0 -44,-3 -50,-10 -79,-33 l 65,-22 h 212 z m -23,37 q -82,1 -153,-43 v 0 -6 q 66,44 153,49 z M 109,576 h 9 v 81 h -9 v -81 z m -4,49 Q 72,602 45,568 h 10 q 18,26 49,49 h 1 v 8 0 z M 28,530 Q 20,505 20,475 20,439 32,408 73,303 240,264 v 4 q -43,11 -83,33 -70,37 -102,90 -23,40 -23,86 0,25 7,52 l -11,1 v 0 z M 20,385 q 0,-64 96,-119 56,-31 124,-51 v 39 Q 83,290 32,385 25,396 20,411 v -26 0 z m 344,8 q -110,24 -121,48 -4,7 -5,14 L 61,403 q 23,-45 80,-81 52,-33 105,-45 5,-1 5,-6 0,-14 0,-10 v 0 -4 -5 z m 33,-6 q -7,-36 -24,-78 -30,-67 -82,-118 0,-4 1,-13 56,50 88,123 19,44 27,84 l -10,2 v 0 z m 44,-8 q -15,2 -28,5 -8,-39 -28,-83 -34,-77 -89,-127 l 27,-19 q 58,51 92,134 19,47 26,90 z m -152,-189 -2,-1 q 1,0 2,1 z m 82,-68 q 35,36 64,84 52,84 65,164 -26,3 -54,8 -6,-44 -26,-91 -35,-83 -92,-134 l 43,-31 v 0 z m 154,304 q 83,13 125,28 v 1 h 4 q 11,4 13,7 0,13 -8,22 H 446 l -69,-82 q 62,-13 126,-22 l 1,2 18,41 q 1,3 3,3 z m 243,93 H 546 v -13 q 0,-7 -5,-7 h -69 q -6,0 -6,7 v 3 l -11,-15 h 207 q 2,0 4,-2 12,-11 12,-30 0,-4 -4,-7 h 94 v 64 z m 364,-198 q 9,4 17.5,15 8.5,11 8.5,22 0,1 -1,3 l -1,6 q -2,26 -14,39 -20,28 -69,44 -7,3 -54,12 -33,7 -49,18.5 -16,11.5 -26,39.5 h -78 -5 -81 v -65 q 105,-2 178,-38 42,-21 75,-79 19,-25 36,-25 48,0 63,8 z m 324,174 q -36,-20 -93,-37 L 1185,358 h 260 q -12,21 -12,48 0,42 23,89 z m -121,-44 -36,-8 -132,-71 v -2 l 1,-6 q 1,-4 1,-6 z m -61,-12 q -63,-11 -133,-16 20,-19 25,-43 z m 226,99 q 2,7 2,9 v 1 l -3,-2 v 0 q -54,-39 -184,-76 -70,-19 -207,-22 14,-9 24,-18 v 3 h 6 q 245,18 330,82 2,1 3,1 6,0 6,-4 0,-3 -3,-5 v 0 q -6,-8 -17,-33 -13,-37 -13,-68 0,-30 14,-51 2,-3 1,-5 -2,-3 -4,-3 h -288 q -3,-7 -6,-15 h 313 q 9,0 10,3 l 1,1 q 0,3 -2,8 v 1 q -22,21 -22,59 0,11 1,24 4,26 15,55 6,16 22,52 l 1,3 v 0 z"
         id="path4267"
         inkscape:connector-curvature="0"
         style="fill:currentColor" />
    </g>
  </g>
</svg>
