<?xml version="1.0" encoding="UTF-8" standalone="no"?>
<svg
   xmlns:dc="http://purl.org/dc/elements/1.1/"
   xmlns:cc="http://creativecommons.org/ns#"
   xmlns:rdf="http://www.w3.org/1999/02/22-rdf-syntax-ns#"
   xmlns:svg="http://www.w3.org/2000/svg"
   xmlns="http://www.w3.org/2000/svg"
   xmlns:xlink="http://www.w3.org/1999/xlink"
   xmlns:sodipodi="http://sodipodi.sourceforge.net/DTD/sodipodi-0.dtd"
   xmlns:inkscape="http://www.inkscape.org/namespaces/inkscape"
   viewBox="0 -200 1654 1000"
   id="svg4363"
   version="1.1"
   inkscape:version="0.48.4 r9939"
   width="100%"
   height="100%"
   sodipodi:docname="l_VSHUD.svg">
  <metadata
     id="metadata4373">
    <rdf:RDF>
      <cc:Work
         rdf:about="">
        <dc:format>image/svg+xml</dc:format>
        <dc:type
           rdf:resource="http://purl.org/dc/dcmitype/StillImage" />
        <dc:title></dc:title>
      </cc:Work>
    </rdf:RDF>
  </metadata>
  <defs
     id="defs4371" />
  <sodipodi:namedview
     pagecolor="#ffffff"
     bordercolor="#666666"
     borderopacity="1"
     objecttolerance="10"
     gridtolerance="10"
     guidetolerance="10"
     inkscape:pageopacity="0"
     inkscape:pageshadow="2"
     inkscape:window-width="1920"
     inkscape:window-height="996"
     id="namedview4369"
     showgrid="false"
     inkscape:zoom="0.34582829"
     inkscape:cx="-256.33281"
     inkscape:cy="492.40888"
     inkscape:window-x="1672"
     inkscape:window-y="-8"
     inkscape:window-maximized="1"
     inkscape:current-layer="layer22" />
  <g
     inkscape:groupmode="layer"
     id="layer21"
     inkscape:label="IMG"
     style="opacity:0.70731704;display:none"
     sodipodi:insensitive="true">
    <image
       y="-488.49884"
       x="203.27707"
       id="image4387"
       xlink:href="file:///F:/Dev/HL_Modding/VS2013/template_mp/fontsrc/images/PoolCue.jpg"
       height="989.88812"
       width="989.88812"
       transform="matrix(0.8660254,0.5,-0.5,0.8660254,0,0)" />
  </g>
  <g
     inkscape:groupmode="layer"
     id="layer22"
     inkscape:label="POOLCUE"
     style="opacity:0.52845528">
    <path
       style="fill:#000000"
       d="m 30.35219,716.00992 c -1.16287,-4.33989 -3.637158,-8.76993 -5.498419,-9.84454 -1.861264,-1.07458 -3.851686,-5.72551 -4.423164,-10.33539 -0.571475,-4.60987 -3.063859,-11.75344 -5.538644,-15.87459 -11.3740898,-18.94087 1.80293,-27.1546 112.581377,-70.17626 8.74142,-3.3948 183.50075,-74.77931 198.46732,-81.06863 369.93976,-155.45693 714.15084,-294.66556 639.59073,-258.66847 -16.0729,7.75994 -16.2878,11.19272 -2.5106,40.11436 12.1988,25.60844 28.3733,15.3133 -133.22447,84.79767 -38.84589,16.70309 -149.0081,64.15666 -244.80491,105.45239 -95.79681,41.29575 -190.5671,82.12807 -210.60068,90.73847 -20.03354,8.61042 -37.76125,14.88361 -39.39487,13.94044 -3.74888,-2.16443 -18.5449,-33.42383 -23.12624,-48.85852 l -3.46289,-11.66665 -12.68347,4.97457 c -6.97595,2.73602 -20.35293,8.28796 -29.72667,12.33771 l -17.04314,7.36309 28.56159,-1.14944 c 32.6967,-1.31584 40.05904,3.21268 27.59285,16.97219 -47.79207,52.75025 -116.16606,90.38254 -99.36637,54.69013 6.01769,-12.78514 5.91071,-13.11211 -3.61875,-11.06139 -12.88341,2.77248 -12.8116,5.61655 -8.93122,19.82894 5.38043,19.70659 -7.21501,19.68398 -14.13827,18.13929 -1.36028,-1.13578 -2.43397,-0.11811 -2.34376,2.2597 0.28452,7.49992 -9.21786,3.80464 -14.702,-8.79413 -3.76231,-8.64311 -4.10658,-15.61231 -0.97134,-19.66275 4.05241,-5.23531 3.16832,-7.02211 -5.33913,-10.79064 -7.69655,-3.40937 -9.06042,-5.43603 -5.56437,-8.26767 5.89756,-4.77683 -6.9,-8.84713 -16.56722,-5.26925 -8.64666,3.20019 -5.43898,18.04547 9.7465,45.1064 3.91467,6.97605 6.91465,11.7926 7.91078,15.65667 0.24666,0.95682 4.93955,0.95526 8.67037,1.07567 2.59233,0.0837 170.56833,-72.3572 170.41732,-71.79334 -0.5273,1.96909 -179.92153,79.54236 -182.4619,81.45132 -6.53267,4.90896 -21.49681,9.88822 -46.92119,20.58326 -56.72757,23.86306 -65.99642,24.88742 -70.57515,7.79939 z m 51.35269,-11.48327 c 44.84083,-18.55857 45.96129,-19.2434 42.4499,-25.94571 -2.11111,-4.0296 -1.75722,-4.91476 1.28293,-3.20884 8.49475,4.76659 8.79753,-6.58759 0.78691,-29.50623 -8.65005,-24.74821 -20.91887,-28.18788 -16.72492,-4.68898 l 1.86283,10.43745 -3.8734,-10.80226 c -4.25311,-11.86123 -13.56257,-12.64921 -19.98823,-1.69188 -1.8546,3.16217 -5.17333,4.0194 -7.47765,1.93121 -3.42579,-3.10455 -3.91626,-2.42514 -2.83222,3.92315 0.72108,4.2228 3.37842,8.87143 5.9052,10.33028 2.52679,1.45884 3.34839,3.94371 1.82578,5.52195 -6.08524,6.30753 9.54412,28.54186 17.89151,25.45245 6.55724,-2.42689 6.95394,-4.30317 2.86809,-13.56535 -9.83388,-22.29228 -14.62237,-39.481 -10.30592,-36.99415 2.46109,1.41793 7.57862,11.37362 11.37231,22.12375 3.79367,10.75013 8.18101,20.28667 9.74963,21.19233 3.44417,1.98849 -11.63974,11.95583 -18.7999,12.42284 -9.21905,0.60129 -12.45997,-3.59609 -19.97553,-25.87065 l -7.434,-22.03293 -9.42344,4.5186 c -5.1829,2.4852 -15.64854,6.59186 -23.25701,9.12593 -15.945795,5.31089 -19.203541,14.11538 -7.68374,20.76635 5.84408,3.37408 6.91499,6.45356 4.00002,11.50242 -3.14943,5.45497 -2.27479,7.26955 4.18847,8.68955 6.18518,1.35887 7.63459,3.74287 5.96804,9.816 -3.3889,12.34967 0.26485,12.01492 37.62434,-3.44728 z m 58.73626,-24.17332 c 5.46643,-4.84736 -2.15512,-7.56588 -7.9813,-2.84686 -3.12162,2.5284 -3.25655,4.48339 -0.35048,5.07809 2.59884,0.53181 6.34816,-0.47227 8.33178,-2.23123 z m 40.98505,-32.14169 c 3.68475,3.99539 3.91955,3.18578 1.17087,-4.03712 -3.77178,-9.91134 -13.19925,-10.36641 -12.90707,-0.62305 0.12324,4.11115 1.19864,4.91972 3.65094,2.74513 1.91191,-1.69538 5.55028,-0.83362 8.08526,1.91504 z m -5.77542,-27.07818 c 0.66876,-1.15831 -0.32543,-1.693 -2.20924,-1.18834 -1.88387,0.50479 -3.80042,-2.54992 -4.25896,-6.78834 -0.76878,-7.10564 -1.24341,-7.37429 -6.09119,-3.44782 -2.89165,2.34216 -3.71532,5.14884 -1.83037,6.2371 1.88493,1.08828 1.45418,3.04025 -0.95719,4.33769 -3.08146,1.65798 -1.63322,2.44762 4.87345,2.65718 5.09161,0.16432 9.80475,-0.64915 10.4735,-1.80747 z m 4.3559,7.85911 c 3.87195,-1.43303 6.28954,-3.03874 5.37242,-3.56825 -0.91713,-0.5295 -4.83547,0.20975 -8.70743,1.64279 -3.87194,1.43303 -6.28953,3.03875 -5.37241,3.56825 0.91713,0.52951 4.83547,-0.20975 8.70742,-1.64279 z m 17.7069,-7.56362 c 3.87194,-1.43304 6.28953,-3.03876 5.3724,-3.56825 -0.91712,-0.5295 -4.83546,0.20975 -8.70741,1.64278 -3.87195,1.43304 -6.28954,3.03876 -5.37242,3.56825 0.91713,0.5295 4.83547,-0.20974 8.70743,-1.64278 z m -5.11501,-10.71171 c 11.27127,-5.25385 9.21142,-9.0128 -6.31438,-11.52276 -9.32424,-1.5074 -11.01414,-0.57523 -9.97623,5.50293 1.7068,9.99556 5.08403,11.24353 16.29061,6.01983 z m 78.75867,-1.32229 c 19.10731,-15.66148 35.30448,-35.45439 28.85522,-35.26103 -2.34585,0.0703 -4.21055,1.94918 -4.14381,4.17518 0.0667,2.22605 -5.16521,5.46384 -11.6266,7.19517 -7.96936,2.13537 -14.49702,7.51682 -20.29513,16.73141 -9.4384,14.9998 -16.71065,20.48226 -19.72862,14.87309 -1.09075,-2.02717 -2.46748,-0.54097 -3.08027,3.32522 -0.74668,4.71109 -1.91831,5.48468 -3.59298,2.37227 -1.62352,-3.01743 -2.83232,-2.42675 -3.48704,1.70397 -0.55113,3.47735 -2.61628,5.39046 -4.58924,4.25137 -1.97292,-1.13907 -4.05764,0.89735 -4.63268,4.52538 -1.30611,8.24066 21.41914,-3.48086 46.32115,-23.89203 z m -46.4847,14.14324 c 2.85238,-2.31035 3.06619,-3.97181 0.50113,-3.89491 -2.46024,0.0738 -5.28853,1.54632 -6.28503,3.27231 -2.76964,4.79719 0.2311,5.12021 5.7839,0.6226 z m 3.67927,-14.38948 12.36627,-7.2424 -12.4035,2.88455 c -6.8219,1.5865 -12.69621,1.79201 -13.05401,0.4567 -0.3578,-1.33533 -2.24375,0.33165 -4.19104,3.70444 -4.98353,8.63174 2.72971,8.71955 17.28228,0.19671 z m -5.78185,-9.93854 c 0.33568,-1.64044 2.38947,-2.5983 4.56393,-2.12856 2.17446,0.46975 7.56633,0.0766 11.98191,-0.87361 4.41559,-0.95024 8.47098,-0.0758 9.01194,1.94305 2.37134,8.84997 8.83746,8.93077 14.33222,0.17904 3.23777,-5.15663 4.60129,-10.11794 3.03028,-11.02497 -1.57099,-0.90701 -3.77397,-0.0598 -4.89548,1.88272 -1.12152,1.94251 -2.97708,1.7885 -4.12352,-0.34217 -1.14643,-2.13073 -6.96203,-3.59844 -12.92358,-3.2616 -5.96153,0.3368 -11.15602,-0.57016 -11.54331,-2.01554 -0.3873,-1.44536 -6.63934,-0.73736 -13.89347,1.57338 -7.25411,2.31073 -10.82999,4.20771 -7.94638,4.21547 2.88362,0.008 5.30499,2.08359 5.38084,4.61293 0.1585,5.28643 6.10709,9.72362 7.02462,5.23986 z m -0.54123,-12.54084 c 3.87195,-1.43304 7.79028,-2.17228 8.70741,-1.64279 0.91714,0.52952 -1.50045,2.13522 -5.37241,3.56826 -3.87195,1.43303 -7.79028,2.17229 -8.70742,1.64278 -0.91713,-0.5295 1.50046,-2.13522 5.37242,-3.56825 z m 16.76412,4.42031 c 10.1803,-3.66653 19.67294,1.78568 15.54796,8.93037 -1.42145,2.462 -2.64733,1.61954 -3.77685,-2.59543 -1.28989,-4.81396 -4.00992,-5.8253 -11.89778,-4.42352 -10.14831,1.80351 -10.14736,1.78909 0.12651,-1.91112 z m 108.95755,0.24629 c 5.26874,-3.27247 5.27263,-9.48214 0.0191,-31.11573 -7.68995,-31.66693 -5.94634,-29.60462 -19.32465,-22.85664 -11.89418,5.99934 -11.36139,29.38485 0.71306,31.29864 3.0247,0.47941 3.84882,1.75981 1.8313,2.84532 -3.50432,1.88549 2.52991,19.50068 7.70327,22.48752 1.36158,0.7861 5.43769,-0.41047 9.05794,-2.65911 z m 13.21023,-17.79757 c -2.86851,-7.57414 -6.49398,-13.42509 -8.05656,-13.00214 -3.6664,0.9924 4.3224,21.97616 9.40349,24.69971 2.12774,1.14041 1.52161,-4.12344 -1.34693,-11.69757 z m 15.09591,3.66847 c 2.86777,-2.32277 4.69357,-7.27167 4.05737,-10.99751 -1.42118,-8.32277 4.34301,-5.65883 6.68741,3.09059 1.10201,4.11275 2.41448,5.06024 3.76625,2.7189 1.14113,-1.97649 0.87278,-6.84139 -0.59638,-10.8109 -1.4691,-3.96951 -3.82792,-16.08164 -5.24183,-26.91588 l -2.57071,-19.69868 7.38866,25.38755 c 7.97511,27.40259 15.09955,37.55978 10.52089,14.9994 -2.03493,-10.0267 -1.82297,-11.12374 0.77299,-4.0004 7.71294,21.16466 12.44259,13.74525 6.30211,-9.88606 -3.57713,-13.76618 -5.70335,-26.41588 -4.72496,-28.1105 0.97837,-1.69459 4.59144,7.03537 8.02906,19.39992 5.55909,19.99508 16.28498,31.42924 21.06738,22.45848 2.72221,-5.10626 -13.86904,-54.92913 -17.33823,-52.06607 -2.06656,1.70545 -11.03932,5.52954 -19.93944,8.49802 -44.66271,14.89624 -66.06661,39.53404 -39.4291,45.38638 3.8759,0.85154 7.63981,5.79399 8.91103,11.7011 2.66549,12.38628 5.47726,14.40225 12.3375,8.84566 z m -4.78173,-10.28131 c -1.42294,-3.88943 -4.07387,-14.86109 -5.8909,-24.38138 -2.44741,-12.82315 -1.43099,-11.09014 3.92152,6.68599 6.5226,21.66224 7.67336,27.13718 5.32905,25.35455 -0.42487,-0.32313 -1.93674,-3.76972 -3.35967,-7.65916 z m 21.58647,-38.37132 c -1.09441,-7.68456 -0.90835,-7.73442 1.98614,-0.53219 1.75652,4.37069 2.86652,8.51332 2.4667,9.20584 -1.58473,2.74483 -3.30344,-0.603 -4.45284,-8.67365 z m 25.4435,10.24314 -2.79005,-13.83921 4.50335,13.38013 c 4.20904,12.50578 4.77853,16.43548 2.16294,14.92539 -0.59736,-0.3449 -2.34166,-6.85474 -3.87624,-14.46631 z m -7.22068,-26.40226 c -1.0944,-7.68455 -0.90835,-7.73441 1.98615,-0.53219 1.75651,4.37071 2.86651,8.51332 2.4667,9.20584 -1.58474,2.74485 -3.30345,-0.60298 -4.45285,-8.67365 z m 25.65135,23.45986 c -5.25123,-21.42272 -0.98519,-23.4832 5.01254,-2.42104 6.47958,22.7543 10.06127,18.13489 4.35315,-5.61443 -2.93079,-12.19408 -2.73405,-15.32336 0.63462,-10.09313 2.68536,4.16932 5.47173,11.03154 6.19197,15.24938 0.72022,4.21786 3.01495,8.62285 5.09936,9.78884 2.43604,1.36199 3.11804,0.53179 1.90953,-2.32495 -1.03422,-2.44469 -3.68323,-13.44824 -5.88667,-24.45225 l -4.00625,-20.00736 6.53141,21.26866 c 9.30319,30.29465 15.33437,24.48117 7.17572,-6.91673 l -6.80519,-26.18935 -12.00984,5.32921 c -6.60541,2.93104 -11.52611,6.2243 -10.93493,7.31835 0.59118,1.09405 -1.72551,2.07314 -5.14823,2.17577 -6.62511,0.19865 0.57436,45.14117 7.90967,49.37621 1.94381,1.12227 1.93172,-4.49695 -0.0269,-12.48718 z m 3.50465,-34.24467 c -1.71305,-3.26427 -1.74512,-6.30203 -0.0713,-6.75052 1.67387,-0.44851 3.62112,2.56793 4.32725,6.70322 1.46419,8.57465 0.22626,8.58839 -4.25599,0.0473 z m 39.20661,29.35875 c 0.59497,-3.7538 2.18355,-4.36274 4.36266,-1.67235 6.45142,7.96499 14.52432,-4.11826 11.66583,-17.46101 l -2.7418,-12.79799 6.51482,13.74706 c 9.2893,19.60163 10.93288,11.99219 3.32232,-15.38175 -3.57713,-12.86636 -5.69207,-24.79946 -4.69987,-26.518 0.99219,-1.71853 4.55453,7.75836 7.91629,21.05968 6.73051,26.63031 10.51388,31.16858 18.90434,22.67644 3.07737,-3.11463 7.20169,-4.73546 9.16518,-3.60185 1.96351,1.13364 1.85594,-4.93148 -0.23902,-13.47802 -2.09496,-8.54654 -2.26009,-14.64491 -0.36695,-13.55189 1.89315,1.09301 4.41389,6.50318 5.60165,12.02262 2.4289,11.28688 11.13258,13.84542 9.23173,2.71378 -0.98103,-5.74527 -0.40221,-6.07866 3.08307,-1.77568 3.19638,3.94625 4.55811,3.61134 5.33862,-1.31308 0.80159,-5.05748 2.13069,-5.27363 5.65691,-0.92008 6.46638,7.98347 5.75367,-1.41173 -1.90552,-25.11923 -3.38956,-10.49174 -5.21315,-20.72079 -4.05245,-22.7312 1.16074,-2.01045 5.34703,8.06791 9.30288,22.39631 6.8914,24.9611 12.59166,31.37292 8.76169,9.85537 -1.83273,-10.29658 -1.83161,-10.29634 2.01181,0.4136 7.73355,21.54986 10.96831,7.99739 4.1578,-17.41975 l -7.01295,-26.17272 -33.25331,13.71457 -33.25332,13.71455 7.62459,25.07622 c 4.19352,13.7919 7.04204,26.08521 6.33004,27.31843 -0.71203,1.23326 -4.46924,-9.25663 -8.34938,-23.31081 -7.10549,-25.73656 -10.89839,-28.99866 -24.1485,-20.76882 -6.06683,3.76821 -6.30651,8.76281 -1.4939,31.12822 l 5.73238,26.63989 -7.68632,-26.08484 c -11.67093,-39.60724 -27.21472,-33.72017 -18.09431,6.85305 5.10195,22.69667 10.81477,32.09465 12.61299,20.74928 z m 42.7806,-44.36894 c -2.91491,-11.42075 -4.35958,-20.88591 -3.21031,-21.03368 1.14923,-0.14783 4.17501,9.56645 6.72392,21.58717 5.81989,27.44633 3.54123,27.08742 -3.51361,-0.55349 z m 27.49866,-13.10868 c -0.70482,-4.12764 0.21112,-6.54812 2.0715,-5.47403 1.83425,1.05899 3.90357,5.25524 4.59852,9.32497 0.70481,4.12764 -0.21114,6.54812 -2.07149,5.47403 -1.83425,-1.05901 -3.9036,-5.25524 -4.59853,-9.32497 z m 42.26893,-11.91883 -5.87908,-24.15369 8.59035,21.90058 c 4.72467,12.04529 9.65927,21.61413 10.96576,21.26405 4.56525,-1.22326 -11.71231,-51.50113 -16.62592,-51.3538 -8.84532,0.26522 -9.85711,8.02517 -3.9694,30.44377 7.929,30.19133 14.22536,31.91971 6.91829,1.89909 z m 19.13546,-2.42882 -4.37021,-18.97255 7.33354,16.68581 c 10.52609,23.94979 13.95201,19.25062 5.56332,-7.63092 -3.92667,-12.58295 -6.15047,-24.55355 -4.94181,-26.60135 1.20889,-2.04763 4.61476,6.17659 7.56916,18.27643 5.80427,23.7717 14.59073,35.07703 9.79299,12.60044 l -2.90977,-13.63186 5.37606,12.77027 5.37608,12.77024 11.4421,-4.57914 c 6.29311,-2.51852 11.85456,-7.18174 12.35873,-10.36271 0.64323,-4.05815 2.26463,-4.21437 5.43507,-0.52355 3.68279,4.28729 4.22715,3.98407 2.94355,-1.63969 -2.11125,-9.24994 1.36688,-14.70215 4.30851,-6.754 6.42789,17.36778 7.53356,1.5102 1.31078,-18.79993 -3.95108,-12.89573 -5.63502,-23.86183 -3.74205,-24.36904 1.89296,-0.5072 5.45575,8.47539 7.91727,19.96138 2.46153,11.486 5.70715,20.55355 7.2125,20.15021 1.50537,-0.40334 1.75062,-5.31716 0.54498,-10.91958 -2.52897,-11.7518 1.6006,-11.31707 4.76748,0.50191 5.63614,21.03438 19.81922,9.21032 14.8918,-12.41489 l -3.62382,-15.90399 7.14486,16.50677 c 9.74093,22.5044 12.06135,15.50644 4.21564,-12.71345 -8.75743,-31.49901 -25.14144,-33.36869 -17.89481,-2.04206 7.25658,31.36957 6.24098,38.44546 -1.65646,11.54115 l -7.51044,-25.58599 -44.90192,18.57266 c -52.81557,21.84599 -49.1749,17.86496 -41.95097,45.87259 7.05838,27.36583 14.10262,33.73804 7.99779,7.23482 z m 27.09976,-23.73985 c -3.352,-13.07931 -4.41248,-21.49514 -2.35665,-18.7019 3.56398,4.8424 12.6485,44.9058 9.8111,43.26764 -0.74797,-0.43185 -4.10248,-11.48644 -7.45445,-24.56574 z m 14.83584,12.15234 c -1.09441,-7.68455 -0.90835,-7.7344 1.98614,-0.53219 3.03992,7.56411 3.22539,11.32277 0.48056,9.73803 -0.69252,-0.39983 -1.80254,-4.54246 -2.4667,-9.20584 z m 4.88279,-23.86097 c -1.09441,-7.68457 -0.90835,-7.73442 1.98614,-0.53219 3.03992,7.56409 3.22539,11.32275 0.48056,9.73801 -0.69252,-0.39981 -1.80254,-4.54244 -2.4667,-9.20582 z m 8.59548,0.51591 c -1.09441,-7.68455 -0.90835,-7.73441 1.98614,-0.53217 3.03992,7.56409 3.2254,11.32275 0.48056,9.738 -0.69252,-0.39981 -1.80254,-4.54243 -2.4667,-9.20583 z m 64.32064,-2.59795 c 0.72599,-1.25748 0.0884,-7.95126 -1.41688,-14.8751 -1.50529,-6.92385 -1.2223,-10.01339 0.6289,-6.8657 1.85116,3.14773 3.76055,9.60876 4.24309,14.35787 0.4825,4.74913 2.96952,8.57203 5.52666,8.49534 2.62866,-0.0787 1.78263,-11.17171 -1.94655,-25.52319 -5.06248,-19.4826 -8.10598,-25.12599 -13.09152,-24.27465 -10.06678,1.71897 -11.07786,6.77192 -5.62773,28.12555 4.77945,18.72597 8.72966,25.67697 11.68403,20.55988 z m 17.25641,-19.02521 -2.10313,-11.072 6.01278,11.43393 c 9.76376,18.5668 12.22568,11.70439 5.31883,-14.82577 -6.03733,-23.19012 -6.98541,-24.5739 -15.30842,-22.3438 -8.32297,2.23017 -8.49841,3.82769 -2.83243,25.7951 6.0446,23.43524 12.87528,31.87554 8.91237,11.01254 z m 20.43382,-8.41437 -0.28256,-16.83817 4.9108,15.89554 c 7.51895,24.33772 9.54402,12.47272 2.31137,-13.54212 -10.24015,-36.83212 -24.51034,-29.67831 -14.9256,7.4824 7.08309,27.46155 8.34794,28.57062 7.98599,7.00235 z m 38.62509,-18.83155 -1.5521,-16.45947 4.60806,14.87854 c 5.96556,19.26186 16.34335,18.68297 17.25453,-0.9625 l 0.58486,-12.60911 5.88233,11.42967 5.88233,11.42966 -2.91186,-17.22811 c -3.61356,-21.38029 -8.8978,-33.15647 -14.79863,-32.97956 -8.19802,0.24582 -9.02338,7.5453 -3.52144,31.14387 l 5.4363,23.317 -7.22684,-23.90512 c -3.97477,-13.14783 -8.01703,-23.47565 -8.98278,-22.95073 -0.9658,0.52494 -8.81497,3.2328 -17.4426,6.01744 l -15.68665,5.06302 5.36173,22.95801 5.36173,22.95803 11.65154,-2.82059 11.65155,-2.8206 z m -21.29936,1.04284 c -2.09496,-8.54654 -3.05864,-15.10594 -2.14152,-14.57643 0.91714,0.5295 3.38157,7.95536 5.47653,16.5019 2.09496,8.54654 3.05863,15.10593 2.1415,14.57642 -0.91712,-0.5295 -3.38155,-7.95535 -5.47651,-16.50189 z m 9.11141,-8.07957 c -2.92836,-11.47338 -4.20661,-20.21538 -2.84052,-19.42667 2.63012,1.5185 5.88712,12.4685 9.18196,30.8696 3.22527,18.01281 -0.57249,11.15982 -6.34144,-11.44293 z m 52.07003,-6.1991 -2.20417,-10.85428 5.76357,11.19737 c 7.72843,15.01468 9.89254,9.65024 4.60151,-11.40639 -4.90074,-19.50335 -6.80878,-21.57576 -14.2875,-15.51825 -3.4129,2.76433 -4.03416,9.60224 -1.72745,19.0127 4.17571,17.03511 11.13897,23.74555 7.85404,7.56885 z m 30.04749,-2.37535 c 2.99213,5.56103 9.6694,-9.0143 7.19389,-15.70298 -4.52295,-12.22069 1.07095,-13.3097 5.93513,-1.15548 7.83826,19.58583 12.91602,13.22561 6.15321,-7.70731 -3.44437,-10.6615 -8.37555,-19.32117 -10.95812,-19.24374 -6.9201,0.2075 -12.33937,11.65596 -8.03374,16.97173 2.04838,2.529 3.51302,9.09147 3.25479,14.58326 -0.37764,8.02962 -1.485,6.55334 -5.65436,-7.5382 -2.85158,-9.63785 -7.14105,-17.11687 -9.53216,-16.6201 -3.3006,0.68571 13.25204,-8.16045 26.24694,-14.027 0.78434,-0.35411 3.44978,8.18831 5.92316,18.9831 2.47342,10.79478 5.73575,17.57523 7.24965,15.06768 1.514,-2.50756 1.13943,-9.22707 -0.83229,-14.93222 -1.97168,-5.7052 -2.32641,-9.64645 -0.78828,-8.75841 1.53814,0.88806 4.33523,6.71461 6.21576,12.94791 3.78391,12.54224 12.86709,14.8827 15.83168,4.0793 1.35442,-4.93569 3.34238,-5.69296 6.88608,-2.62327 7.6617,6.63695 14.149,-8.86016 10.6652,-25.47755 l -2.9613,-14.12544 7.0717,16.15979 c 3.8895,8.88787 8.6097,15.33234 10.4893,14.32104 6.1717,-3.32075 -13.5222,-41.36247 -20.4519,-39.50568 -3.9451,1.0571 -5.4319,3.16916 -4.1969,5.96186 1.0519,2.37861 3.4673,12.0294 5.3676,21.44611 l 3.455,17.12133 -7.7031,-19.17897 c -12.2333,-30.45821 -25.64979,-25.81996 -17.43545,6.02767 3.1992,12.40332 4.6269,22.87032 3.17272,23.25999 -1.45419,0.38962 -4.97323,-8.41764 -7.82012,-19.57172 l -5.17615,-20.28019 -15.96389,5.40864 c -8.78014,2.97472 -16.83987,6.92584 -17.91054,8.78027 -1.07063,1.8544 -4.69649,2.9358 -8.05745,2.40313 -9.68389,-1.53491 -11.2632,5.80728 -5.82897,27.09865 4.15173,16.26649 6.08685,19.18664 10.83952,16.35718 3.18202,-1.89442 6.49107,-2.13311 7.35339,-0.53038 z m -11.04516,-11.5337 c -1.09441,-7.68455 -0.90834,-7.73441 1.98614,-0.53219 1.75651,4.37071 2.86653,8.51332 2.4667,9.20584 -1.58472,2.74485 -3.30343,-0.60298 -4.45284,-8.67365 z m -23.34237,-17.17541 c 7.84091,-6.35088 7.78449,-7.82071 -0.24748,-6.44922 -8.20051,1.40029 -12.4138,6.17293 -7.80071,8.83629 1.63802,0.94571 5.25969,-0.12838 8.04819,-2.38707 z m 143.53537,-40.1657 c 0.557,-3.51449 6.1369,-9.67399 12.3996,-13.68776 6.26281,-4.01377 11.31811,-9.58885 11.23421,-12.38904 -0.088,-2.92563 0.8051,-3.31117 2.099,-0.90642 1.2384,2.30166 4.4818,2.37856 7.2076,0.17071 3.2573,-2.63834 3.127,-4.11584 -0.3802,-4.31088 -2.9348,-0.1632 -1.8446,-0.93068 2.4227,-1.70529 4.2674,-0.77471 10.0656,-3.07823 12.885,-5.11899 2.8194,-2.04073 16.4228,-8.48813 30.2298,-14.32755 13.8071,-5.83944 42.1407,-17.91849 62.9638,-26.84242 20.823,-8.9239 38.8223,-14.43678 39.9985,-12.25088 1.1761,2.18593 2.0769,1.92352 2.0017,-0.5831 -0.075,-2.50663 3.6627,-6.16056 8.3062,-8.11983 6.0216,-2.54069 7.691,-2.18983 5.8212,1.22356 -1.4419,2.63219 -1.2463,4.41726 0.4348,3.96683 1.681,-0.45043 3.1907,-4.99043 3.355,-10.08874 0.4466,-13.86366 11.0153,-21.87376 18.8486,-14.28553 5.1002,4.94055 10.6746,4.32251 28.6189,-3.17289 12.2567,-5.1197 24.5706,-9.34527 27.3643,-9.39013 5.3914,-0.0867 -4.9394,4.84825 -22.9958,10.9848 -5.9995,2.03895 -9.2427,4.66871 -7.2071,5.84395 2.0355,1.17522 17.9435,-2.64044 35.3511,-8.47924 30.8842,-10.35913 31.7349,-10.37916 35.1502,-0.82777 2.6396,7.38193 3.2499,7.90357 2.483,2.12194 -0.5594,-4.21647 0.1767,-7.98614 1.6356,-8.37707 1.4589,-0.39092 -1.6572,-2.82185 -6.9247,-5.40208 -5.2675,-2.58023 -10.1186,-3.16072 -10.7802,-1.28996 -0.6617,1.87073 -5.8288,3.01812 -11.4826,2.54968 -12.3498,-1.02319 -12.5023,-0.9248 30.711,-19.81512 18.6315,-8.14461 32.8606,-12.11858 34.2364,-9.56161 1.2948,2.40651 2.2933,2.34115 2.2187,-0.14518 -0.074,-2.4864 40.2999,-32.961213 59.4733,-40.911328 17.7443,-10.463139 41.6863,-15.03631 64.7207,-19.087003 6.7988,-1.195605 -5.3237,4.122569 1.1345,2.879985 10.1134,-1.945961 38.4273,-10.587036 46.5552,-13.516832 -69.6828,57.448798 -73.3855,67.050938 -83.7575,73.779058 -8.2496,5.35148 -55.4784,14.35763 -54.0817,15.20149 1.3968,0.84379 0.3032,1.71325 -2.4302,1.93194 -9.3505,0.74818 -46.4493,20.40422 -50.9196,26.9788 -2.4554,3.61111 -5.9018,5.73574 -7.6587,4.72137 -1.7569,-1.01435 -11.1398,0.57194 -20.851,3.52507 -12.0831,3.67448 -15.1316,3.66897 -9.6574,-0.0174 14.9032,-10.03614 2.0307,-8.96325 -20.3787,1.69853 -15.3312,7.29417 -24.3314,15.84231 -32.1801,24.77589 -11.0083,12.52987 -19.6893,24.11927 -29.6679,15.34974 -7.3814,-6.48697 -9.1717,-6.52324 -12.7882,-0.2592 -2.3129,4.00605 -5.1413,5.54404 -6.2854,3.41773 -1.144,-2.12627 -7.1478,-0.2079 -13.3417,4.2631 -12.5927,9.08984 -26.227,15.05212 -29.7584,13.01329 -1.2817,-0.74 -0.5364,-2.31071 1.6563,-3.49038 11.0845,-5.96399 -4.2694,-4.4541 -22.4718,2.20988 -20.6735,7.56865 -25.574,6.87478 -31.7889,-4.50089 -2.7793,-5.08724 -3.0582,-4.77388 -1.9506,2.19171 0.7108,4.47016 2.4629,8.36713 3.8936,8.65989 1.4307,0.29275 1.7513,2.0043 0.7126,3.80343 -1.0387,1.79911 -4.1563,2.00017 -6.928,0.4468 -2.7716,-1.55348 -5.7745,-0.59874 -6.6729,2.1214 -0.8985,2.72014 -2.5635,3.21757 -3.6999,1.10537 -1.1365,-2.11222 -5.1482,-2.07587 -8.915,0.0808 -3.7667,2.15663 -5.9173,2.20259 -4.7789,0.10224 1.1384,-2.10036 5.375,-4.38335 9.4148,-5.07317 4.0399,-0.68987 7.2816,-3.37441 7.2039,-5.96572 -0.088,-2.93457 0.9177,-2.74329 2.6666,0.50711 1.944,3.61294 2.7551,3.46029 2.6365,-0.49607 -0.1243,-4.14853 -3.7622,-4.30511 -13.274,-0.57133 -7.2065,2.82885 -13.0568,6.67155 -13.0008,8.53937 0.056,1.8678 -1.1266,2.68676 -2.6278,1.82004 -1.5012,-0.86675 -6.5257,0.44377 -11.1654,2.91227 -4.6397,2.46855 -6.2726,4.42335 -3.6287,4.3441 2.9348,-0.0881 2.8768,1.41948 -0.1486,3.86998 -2.7257,2.20779 -6.08,1.99201 -7.4539,-0.47945 -1.3739,-2.47151 -1.9044,-0.76513 -1.1787,3.79164 1.2982,8.15255 -1.9882,8.79943 -10.4673,2.06026 -1.197,-0.95125 -2.6313,1.14054 -3.1873,4.64863 -0.7895,4.98176 4.581,4.92532 24.5278,-0.25777 14.0463,-3.64987 25.9226,-9.05842 26.3919,-12.01903 0.4692,-2.96056 1.6505,-3.90098 2.625,-2.08976 0.9745,1.81119 11.0029,0.70148 22.2853,-2.46603 46.8485,-13.15261 24.6744,1.21593 -27.7973,18.01224 -16.6736,5.33729 -29.9289,11.5119 -29.4562,13.72145 0.4727,2.20952 -0.3154,1.99934 -1.7513,-0.46713 -1.436,-2.46643 -5.7793,-3.79412 -9.6519,-2.9504 -3.8726,0.84369 -14.314,3.15548 -23.2032,5.13726 -13.35541,2.97753 -15.98621,2.49361 -15.14921,-2.78672 z m 26.58951,-12.55368 c -0.434,-1.61965 -3.3675,-0.84536 -6.5188,1.72062 -4.554,3.70814 -4.3921,4.31237 0.7891,2.94481 3.5853,-0.94636 6.1636,-3.04577 5.7297,-4.66543 z m 124.4407,-60.01287 c 1.3869,-2.40207 -3.1045,-2.60313 -10.0734,-0.451 -18.5231,5.72027 -33.7762,14.04255 -32.7509,17.86917 1.1086,4.13739 39.3623,-11.42175 42.8243,-17.41817 z m 8.2723,9.37629 c 5.3628,-3.33093 5.4301,-4.37421 0.3339,-5.18197 -3.5094,-0.55623 -6.0349,0.27954 -5.6121,1.85727 0.4227,1.57772 -3.6493,4.44782 -9.0489,6.37801 -9.4028,3.36112 -9.4493,3.45887 -1.1026,2.31331 4.7932,-0.65786 11.7366,-3.07282 15.4297,-5.36665 z m 36.1958,-11.67738 c 10.0776,-3.89331 17.6566,-8.52211 16.8421,-10.28626 -0.8145,-1.76413 0.371,-6.93888 2.6345,-11.49941 4.8356,-9.74287 2.9869,-22.52523 -2.0068,-13.87589 -1.7379,3.00998 -2.2369,7.18776 -1.1091,9.28392 3.4157,6.34814 -31.9762,28.27125 -39.0903,24.21412 -2.1903,-1.25127 -5.4625,-1.47671 -7.2693,-0.50453 -11.5576,6.21857 14.7524,8.55733 29.9989,2.66805 z m 35.5478,-0.72739 c 2.6432,-1.53103 2.9354,-2.38016 0.6492,-1.88706 -2.286,0.49317 -5.2233,-1.98596 -6.5273,-5.50916 -1.8737,-5.06269 -2.5931,-5.0037 -3.4307,0.28119 -1.262,7.96236 2.6644,10.96354 9.3087,7.115 z m 18.0288,-21.97049 16.0683,-10.87409 -14.2872,1.62198 c -15.5617,1.7666 -18.7776,4.22695 -13.9576,10.67836 1.7245,2.30815 -0.7631,1.14236 -5.5276,-2.59044 -7.2784,-5.7022 -8.4681,-5.64517 -7.4433,0.35685 2.0446,11.97359 8.3483,12.17595 25.1474,0.80734 z m 93.9166,-38.16716 c 1.9741,-3.28449 4.4455,-4.38043 5.4921,-2.43534 1.0465,1.94507 3.204,0.80754 4.7944,-2.52784 1.773,-3.71859 4.5785,-4.51712 7.2524,-2.06447 2.3983,2.19992 3.8666,2.15596 3.2627,-0.0977 -2.4376,-9.09716 -10.7696,-10.81025 -26.5593,-5.46065 -15.7994,5.35289 -16.504,6.08866 -14.2556,14.88737 2.6915,10.53268 13.013,9.34584 20.0133,-2.30135 z m -15.944,-2.94674 c 1.9995,-3.46321 11.2379,-4.81404 11.975,-1.75097 0.2393,0.99448 -2.782,2.53095 -6.7139,3.41439 -3.9319,0.88343 -6.2994,0.13491 -5.2611,-1.66342 z m 48.2913,-16.37388 c -0.9841,-6.16882 -0.4584,-6.56188 3.0623,-2.28944 2.914,3.53621 86.5982,-49.34147 92.7134,-53.704131 8.3076,-5.926753 -55.3097,21.552691 -63.3806,22.582161 -26.701,3.40581 -47.6701,31.35389 -36.3034,37.91644 4.1419,2.39129 4.8738,1.54758 3.9083,-4.50503 z M 977.40679,276.5498 c 3.1514,-2.56598 6.0848,-3.34027 6.5188,-1.72061 0.434,1.61965 -2.1444,3.71906 -5.7297,4.66542 -5.1812,1.36755 -5.3431,0.76333 -0.7891,-2.94481 z m 39.59531,-30.308 c 21.3967,-9.04622 39.5408,-16.07951 40.3202,-15.62956 2.3231,1.34122 -38.1568,18.84422 -59.45121,25.70597 -10.8747,3.50418 -2.2657,-1.0302 19.13101,-10.07641 z m 39.0996,43.69586 c 3.2269,-1.1943 208.0667,-87.15434 276.7552,-115.05671 13.7297,-5.57725 22.0197,-7.68941 22.1725,-7.60119 0.9171,0.52949 -290.9253,124.34349 -294.7973,125.77651 -3.8719,1.43304 -86.76731,36.41397 -87.68441,35.88446 -0.9171,-0.5295 79.68201,-37.57005 83.55401,-39.00307 z m 19.1121,-68.24476 c 9.0239,-3.76848 104.9771,-43.84781 105.8014,-43.37189 2.3167,1.33753 -111.2802,49.89598 -117.0732,50.06968 -2.8244,0.0846 2.2479,-2.92933 11.2718,-6.69779 z m 169.7292,-20.07996 c 1.059,-1.83425 3.9617,-3.39604 6.4504,-3.47067 2.4888,-0.0747 3.6586,1.36509 2.5996,3.19935 -1.059,1.83425 -3.9617,3.39604 -6.4505,3.47067 -2.4888,0.0747 -3.6585,-1.36508 -2.5995,-3.19935 z m 94.9959,-33.88162 c 4.6706,-3.01567 8.8786,-4.04029 9.351,-2.27699 0.4725,1.76332 -3.3489,4.23067 -8.492,5.48302 -8.9395,2.17676 -8.9773,2.03567 -0.859,-3.20603 z m -36.8849,-39.81305 c 5.438,-1.75173 10.6376,-2.75173 11.5547,-2.22222 0.9171,0.5295 -2.7817,2.39596 -8.2197,4.14769 -5.438,1.75172 -97.7377,37.75085 -98.6548,37.22134 -0.9172,-0.5295 89.8818,-37.39508 95.3198,-39.14681 z m 73.8211,26.56249 c 6.1705,-4.30999 20.2589,-9.91976 30.6988,-13.40282 22.2171,-7.61668 19.7963,-6.71991 -0.032,2.69973 -10.4575,4.96794 -24.2719,10.99922 -30.6987,13.40284 l -12.0829,5.76226 z m 45.5776,-29.26758 c 0,-4e-5 0,1.8e-4 0,1.4e-4 z m -25.6038,-36.522588 c -37.6849,21.496998 -51.38,29.235778 -75.8317,33.181058 -0.9171,-0.5295 70.3937,-31.42933 75.8317,-33.181058 z"
       id="path4393"
       inkscape:connector-curvature="0"
       sodipodi:nodetypes="ssssssssssssscsscssssscsssssssssssssssssscscssssssssssscssssssssssssssssscsssscsscscssssssssssssssscscssssssssscsssssscscsscscssssssssscscscccsssssccsscssssssscssssssssssssssscsssssscscssscscsssscsscsscssssccscssssscssssssssssssssssssscccssssscsssscsssssssscsssssccsscsscccsssssssssssscsssscssccsssssssssscssscscscscssscscsssssscssssccsscccssscsssccccccscscsssssscssssscsssssssscscsssssscssscscsscscsscsscsssscssccscccsccsscsssscsscsssssssssssccsscscsssssssssssscssscscssscccscscsscssccssscssscssccsssssssscsssscccsssscscccssccscssssssscsssssscssssssssssssscsssscscssscsscscsssssscscssccscscccccc" />
  </g>
  <g
     inkscape:groupmode="layer"
     id="layer20"
     inkscape:label="SCALE"
     style="display:inline"
     sodipodi:insensitive="true">
    <g
       transform="matrix(1,0,0,-1,0,800)"
       id="g4365">
      <path
         d="m 1654,627 -3.5,-11 q 0,0 -8.5,-27 -8.5,-27 -10.5,-34.5 -2,-7.5 -9.5,-34.5 -4,-15 -4,-29.5 0,-14.5 1.5,-26 1.5,-11.5 3,-19 1.5,-7.5 1.5,-8.5 2,-2 0,-4 -3,-3 -6,-3 h -43 q -18,0 -41.5,8.5 -23.5,8.5 -46.5,24.5 -11,7 -27,19.5 -16,12.5 -32,25.5 -16,13 -29,24 -13,11 -17,15 -2,-1 -19.5,-2.5 -17.5,-1.5 -37.5,-3.5 -20,-2 -37,-3.5 -17,-1.5 -18,-1.5 -1,-1 -15,-13.5 Q 1241,510 1224,495 1207,480 1190.5,465.5 1174,451 1168,445 l 47,-167 v -5 q -3,-3 -4,-3 l -105,-21 q -3,0 -5,2 -3,3 -3,4 v 32 q 0,11 -5.5,39 -5.5,28 -11.5,54 -2,-3 -6,-3 h -53 q -14,0 -23,5.5 -9,5.5 -14.5,13.5 -5.5,8 -8,17.5 -2.5,9.5 -3.5,17.5 -13,0 -23,-0.5 -10,-0.5 -18,-0.5 h -16 q -2,0 -3,-2 0,-2 -1,-11 l -2,-18 q -2,-11 -3,-24 0,-4 -7,-4 -101,-7 -182,-13 -35,-3 -68,-5.5 Q 617,350 590.5,348 564,346 546.5,344.5 529,343 527,343 V 323 L 516,82 q 0,-6 -6,-6 l -101,1 q -6,0 -6,6 l -3,20 q -3,48 -5,88 -2,34 -3.5,62.5 -1.5,28.5 -1.5,33.5 -2,0 -15.5,1 -13.5,1 -33.5,2 -20,1 -45,2 -25,1 -51,3 -61,3 -136,7 -2,0 -3,1 -1,1 -2,1 l -18,15 q -3,0 -3,4 v 81 q 0,5 3,5 l 12,7 q 1,0 1,1 0,1 2,1 h 140 52.5 q 0,0 46.5,0.5 46.5,0.5 34.5,0.5 H 390 v 12.5 q 0,0 0.5,19.5 0.5,19.5 0.5,19.5 V 483 q -11,1 -37.5,2 -26.5,1 -60.5,2 -34,1 -71,2.5 -37,1.5 -70,2.5 -33,1 -57,1.5 Q 71,494 64,494 44,494 26.5,502 9,510 8,512 q -3,3 -3,6 v 20 q 0,6 6,6 h 90 v 14 H 11 q -6,0 -6,6 v 21 q 0,2 1,3 1,1 2,3 16,8 33.5,12.5 17.5,4.5 31.5,7 14,2.5 23.5,3 9.5,0.5 10.5,0.5 h 154 v 24 q 0,6 4,6 l 85,21 2,2 h 79 v 3 125 q 0,7 6,7 h 42 q 8,0 8,-7 V 667 h 333 q 3,0 7,1 4,1 14,3 9,2 20,5 l 1,2 h 383 q 5,0 5,-3 8,-7 14,-13 5,-5 9.5,-10 4.5,-5 6.5,-6 h 327 q 2,0 2,-2 l 41,-9 q 3,0 3,-3 1,-1 1,-5 z m -173,5 v -12 h 123 v 12 h -123 z m -208,2 q -7,8 -13,14 -5,5 -10,9.5 -5,4.5 -6,6.5 H 961 v -44 -2 h 315 v 2 h 1 195 v 12 h -195 q -3,0 -4,2 z M 1171,465 q 4,3 7.5,6.5 3.5,3.5 9.5,8.5 l -69,-3 -2,-2 q -1,-1 -1,-4 v -2 q 2,-1 2.5,-2 0.5,-1 2.5,-2 h 50 z m 20,17 q 8,9 21,19 L 841,480 v -36 h 72 3 q 6,0 26,0.5 20,0.5 47,1.5 27,1 56,2.5 29,1.5 54,2.5 25,1 42,1.5 17,0.5 18,0.5 0,1 9,9 h -49 q -4,1 -4,7 -2,3 1,8 l -129,-5 q -1,0 -1,1 v 1 l 1,1 z m -113,-46 h -19 q 0,0 -19,-2 2,-3 2,-12 0,-3 -0.5,-6.5 -0.5,-3.5 -2.5,-6.5 h 39 v 27 z m -153,52 v 29 q -35,-3 -58.5,-5 -23.5,-2 -25.5,-2 v -28 z m 3,1 q 1,0 9,0.5 8,0.5 17.5,0.5 9.5,0 17.5,0.5 8,0.5 9,0.5 v 29 q -27,-3 -53,-3 v -28 z m 84,38 q 33,2 64,4 31,2 55.5,3.5 24.5,1.5 39.5,2.5 l 15,1 q 5,5 11,10 9,8 26,23 h -17 l -30,-21 -131,-5 -35,26 H 826 q 0,-1 -2,-3 l -18,-15 v -32 q 0,-6 -6,-6 H 672 q 0,-1 -8,-3.5 -8,-2.5 -18,-6 -10,-3.5 -19,-6.5 l -12,-4 v -70 l -1,-1 q -1,-1 -1,-2 h 286 q 0,3 0.5,5 0.5,2 0.5,4 v 3 q 0,2 1,2.5 1,0.5 2,2.5 h -65 q -1,0 -1,1 v 2 71 q 0,4 1,4 z M 95,340 391,323 v 69 H 110 l -6,-2 q -2,-1 -4.5,-1.5 Q 97,388 95,387 v -47 z m 71,55 h 151 v 11 q -37,0 -77.5,-1 -40.5,-1 -73.5,-1 v -9 z m 237,-43 h 2 108 V 494 H 405 403 V 352 z m 124,70 q 6,1 17,2 11,1 22.5,2.5 11.5,1.5 21.5,3 10,1.5 13,1.5 v 69 q 0,6 5,6 l 63,21 2,2 h 123 v 21 H 572 v -40 q 0,-4 -3,-4 -6,-5 -19.5,-13 Q 536,485 527,483 v -61 z m 487,149 q 4,-3 9,-6.5 5,-3.5 10,-7.5 5,-4 12,-9 l 20.5,0.5 q 0,0 44.5,1 44.5,1 44.5,1 0,0 21.5,0.5 0,2 10,8.5 10,6.5 15,11.5 h -187 z m 213,5 v -2 q 4,4 7,6.5 3,2.5 7,5.5 h -90 q -1,0 -4.5,-3.5 -3.5,-3.5 -5.5,-6.5 h 86 z m 17,13 q 9,10 17,16.5 8,6.5 12,11.5 H 903 q -35,0 -54.5,5 -19.5,5 -21.5,7 v -53 h 311 l 12,12 v 1 h 94 z m -380,75 q -1,0 -5,-1.5 -4,-1.5 -10,-3 l -12,-3 q 0,0 -10,-1.5 v -24 q 9,-4 20,-7 10,-2 24,-4 14,-2 32,-2 h 51 v 2 44 H 864 z M 487,653 v -19 q 2,1 3,2 1,1 3,1 h 21 q 8,0 8,-8 0,-8 -8,-8 h -21 q -2,0 -3,1 -1,1 -3,2 v -10 h 24 q 2,0 2,-2 6,-1 15.5,-3 9.5,-2 19.5,-5 10,-3 17,-8 7,-5 7,-11 v -23 h 225 q 2,2 8.5,7.5 6.5,5.5 8.5,7.5 v 76 H 487 z m -14,-39 v 45 43 h -29 v -32 -11 -45 h 29 z m -29,175 v -79 h 29 v 79 h -29 z m -91,-136 -11.5,-3 q 0,0 -25.5,-6.5 -25.5,-6.5 -26.5,-6.5 -1,0 -15.5,-3 v -20 h 157 v 10 l -4,-2 q 0,0 -4,-1 h -20 q -3,0 -6,2 -3,2 -3,6 0,4 3,6 3,2 6,2 h 20 q 2,0 4,-1 l 4,-2 v 19 H 353 z M 107,571 q 5,0 5,-3 8,2 25,4 17,2 34,2 h 284 q 9,2 19.5,3 10.5,1 10.5,5 0,2 -4,3 -4,1 -9,3 -7,1 -14,3 -7,2 -9,9 H 437 267 107 Q 93,599 78,597 65,595 49,591.5 33,588 19,580 v -9 h 88 z M 64,507 q 8,0 32,-0.5 24,-0.5 56.5,-1.5 32.5,-1 69,-2.5 36.5,-1.5 70.5,-2.5 34,-1 60.5,-2 26.5,-1 38.5,-1 v 24 q 0,8 6,8 6,0 6,-8 v -23 h 2 108 v 23 q 0,8 7,8 7,0 7,-8 v -24 q 5,2 14,6.5 9,4.5 17,9.5 v 72 q -2,2 -16,7 -14,5 -31,8 h -32 -28 q 2,-5 8.5,-7 6.5,-2 13.5,-4 6,-1 11,-2.5 5,-1.5 5,-4.5 0,-3 -4.5,-5 -4.5,-2 -10.5,-3 -6,-1 -11.5,-1.5 Q 457,572 455,571 H 171 q -16,0 -32.5,-1.5 Q 122,568 113,567 q 2,-2 2,-3 v -26 q 0,-8 -8,-8 H 19 v -9 q 5,-3 18,-8.5 Q 50,507 64,507 z M 318,406 v -11 h 73 v 11 h -73 z m -216,-2 q -1,-1 -7,-5 v -9 l 15,5 h 53 v 9 h -61 z m 8,-88 q 1,0 19.5,-1 18.5,-1 46.5,-2.5 28,-1.5 61.5,-3.5 33.5,-2 64.5,-3.5 31,-1.5 55,-3 24,-1.5 34,-1.5 v 19 L 95,337 v -10 q 3,-2 8.5,-6 5.5,-4 6.5,-5 z M 416,91 q 3,0 15.5,-0.5 12.5,-0.5 27,-0.5 14.5,0 27,-0.5 Q 498,89 502,89 q 0,2 1,9 1,7 1,17 l -91,-6 v -4 q 0,-2 1,-5 0,-3 2,-9 z m 88,27 q 1,24 2.5,59 1.5,35 3.5,67 2,38 3,79 v 25 h -108 -2 v -59 -5 q 1,-12 2,-36 1,-24 2.5,-50.5 1.5,-26.5 3,-50 Q 412,124 413,112 z m 23,239 q 12,1 43.5,3.5 31.5,2.5 71.5,5 40,2.5 83.5,6 43.5,3.5 80,6 36.5,2.5 61,4 24.5,1.5 27.5,1.5 0,5 1.5,14.5 1.5,9.5 3.5,20.5 H 607 v 1 l -80,-10 v -52 z m 545,33 q 2,2 4,8 1,3 2,5 v 1 h -24.5 -13 -6 -1.5 v 5 q 5,8 4,15 -1,7 -3,10 -13,0 -24.5,-0.5 Q 998,433 987,433 q 0,-4 1,-11.5 1,-7.5 5,-14.5 4,-7 11,-12 7,-5 18,-5 h 50 z m 40,-127 q 4,1 17,3.5 13,2.5 27.5,5.5 14.5,3 27,6 12.5,3 16.5,4 -1,4 -7,25.5 -6,21.5 -13.5,47.5 -7.5,26 -14,50.5 -6.5,24.5 -9.5,35.5 -8,-2 -25,-2 -17,0 -39,-2 v -38 q 0,-1 -1,-1 -1,0 -1,-2 2,-6 5.5,-21 3.5,-15 7.5,-32 4,-17 6.5,-33 2.5,-16 2.5,-23 v -24 z m 498,181 q -2,7 -4,17.5 -2,10.5 -2,24.5 0,15 5,37 3,13 7.5,28 4.5,15 8.5,29 4,14 8,25.5 4,11.5 6,18.5 -5,2 -14.5,3.5 -9.5,1.5 -14.5,3.5 v -14 q 0,-3 -3,-3 h -127 -3 -4 -194 q -1,0 -15,-13 -14,-13 -31,-28 l -44,-40 q 0,-1 -1,-1 -33,-2 -67,-4 -29,-2 -66,-4 -37,-2 -72,-4 v -29 l 232,13 q 9,8 17,16 8,8 15,14 8,7 15,13 4,2 5,3 l 117,11 q 1,0 2,-1 1,-1 2,-1 1,0 13,-10.5 12,-10.5 29,-24.5 17,-14 35,-28 18,-14 30,-22 20,-15 42,-22.5 22,-7.5 38,-7.5 h 35 z M 548,629 q 0,8 7,8 h 22 q 7,0 7,-8 0,-8 -7,-8 h -22 q -7,0 -7,8 z m 61,0 q 0,8 9,8 h 21 q 8,0 8,-8 0,-8 -8,-8 h -21 q -9,0 -9,8 z m 62,0 q 0,8 9,8 h 21 q 2,0 5,-2 3,-2 3,-6 0,-4 -3,-6 -3,-2 -5,-2 h -21 q -9,0 -9,8 z m 62,0 q 0,8 8,8 h 21 q 9,0 9,-8 0,-8 -9,-8 h -21 q -8,0 -8,8 z M 609,593 q 0,7 9,7 h 21 q 8,0 8,-7 0,-10 -8,-10 h -21 q -9,0 -9,10 z m 62,0 q 0,7 9,7 h 21 q 2,0 5,-2.5 3,-2.5 3,-4.5 0,-4 -3,-7 -3,-3 -5,-3 h -21 q -9,0 -9,10 z m 62,0 q 0,7 8,7 h 21 q 9,0 9,-7 0,-10 -9,-10 h -21 q -8,0 -8,10 z m 783,1 q 5,0 8,-3.5 3,-3.5 3,-8.5 0,-11 -11,-11 -5,0 -8.5,3 -3.5,3 -3.5,8 0,5 3.5,8.5 3.5,3.5 8.5,3.5 z m 0,-18 q 6,0 6,6 0,6 -6,6 -6,0 -6,-6 0,-6 6,-6 z m 37,18 q 5,0 8.5,-3.5 3.5,-3.5 3.5,-8.5 0,-5 -3.5,-8 -3.5,-3 -8.5,-3 -11,0 -11,11 0,5 3,8.5 3,3.5 8,3.5 z m 0,-18 q 6,0 6,6 0,6 -6,6 -7,0 -7,-6 0,-6 7,-6 z m -37,-18 q 11,0 11,-11 0,-5 -3,-8.5 -3,-3.5 -8,-3.5 -5,0 -8.5,3.5 -3.5,3.5 -3.5,8.5 0,5 3.5,8 3.5,3 8.5,3 z m 0,-17 q 6,0 6,6 0,6 -6,6 -6,0 -6,-6 0,-6 6,-6 z m 37,17 q 5,0 8.5,-3 3.5,-3 3.5,-8 0,-5 -3.5,-8.5 -3.5,-3.5 -8.5,-3.5 -5,0 -8,3.5 -3,3.5 -3,8.5 0,11 11,11 z m 0,-17 q 6,0 6,6 0,6 -6,6 -7,0 -7,-6 0,-6 7,-6 z m -662,15 h 2 v -17 h -32 v 17 h 30 z m -1,-1 h -26 v -13 h 26 v 13 z m 45,1 h 2 v -17 h -30 v 17 h 28 z m -1,-1 h -26 v -13 h 26 v 13 z m 45,1 h 2 v -17 h -30 v 17 h 28 z m -1,-1 h -24 v -13 h 24 v 13 z m 199,-256 v -1 h -1 l -45,-9 h -1 l -23,106 q -1,7 0,13 2,12 12,16 7,1 12.5,-1.5 5.5,-2.5 9.5,-7 4,-4.5 5.5,-8.5 l 1.5,-4 z m -46,-7 q 1,0 7.5,1 6.5,1 14,2.5 7.5,1.5 14,2.5 6.5,1 7.5,1 0,1 -5,17 -5,16 -10,36 -6,23 -14,51 l -1.5,3.5 q 0,0 -4.5,7.5 -4.5,7.5 -7.5,6 -3,-1.5 -10.5,1 -8,-2 -10,-7.5 -2,-5.5 -2,-10.5 v -7 q 6,-29 11,-52 2,-10 3.5,-19 1.5,-9 3.5,-17 2,-9 4,-16 z"
         id="path4367"
         inkscape:connector-curvature="0"
         style="fill:currentColor" />
    </g>
  </g>
</svg>
