<?xml version="1.0" encoding="UTF-8" standalone="no"?>
<svg
   xmlns:dc="http://purl.org/dc/elements/1.1/"
   xmlns:cc="http://creativecommons.org/ns#"
   xmlns:rdf="http://www.w3.org/1999/02/22-rdf-syntax-ns#"
   xmlns:svg="http://www.w3.org/2000/svg"
   xmlns="http://www.w3.org/2000/svg"
   xmlns:xlink="http://www.w3.org/1999/xlink"
   xmlns:sodipodi="http://sodipodi.sourceforge.net/DTD/sodipodi-0.dtd"
   xmlns:inkscape="http://www.inkscape.org/namespaces/inkscape"
   viewBox="0 -200 1000 1000"
   id="svg4612"
   version="1.1"
   inkscape:version="0.48.4 r9939"
   width="100%"
   height="100%"
   sodipodi:docname="o_VSHUD.svg">
  <metadata
     id="metadata4622">
    <rdf:RDF>
      <cc:Work
         rdf:about="">
        <dc:format>image/svg+xml</dc:format>
        <dc:type
           rdf:resource="http://purl.org/dc/dcmitype/StillImage" />
        <dc:title></dc:title>
      </cc:Work>
    </rdf:RDF>
  </metadata>
  <defs
     id="defs4620" />
  <sodipodi:namedview
     pagecolor="#ffffff"
     bordercolor="#666666"
     borderopacity="1"
     objecttolerance="10"
     gridtolerance="10"
     guidetolerance="10"
     inkscape:pageopacity="0"
     inkscape:pageshadow="2"
     inkscape:window-width="1920"
     inkscape:window-height="996"
     id="namedview4618"
     showgrid="false"
     inkscape:zoom="0.944"
     inkscape:cx="-55.401551"
     inkscape:cy="490.51065"
     inkscape:window-x="1672"
     inkscape:window-y="-8"
     inkscape:window-maximized="1"
     inkscape:current-layer="layer31" />
  <g
     inkscape:groupmode="layer"
     id="layer30"
     inkscape:label="IGM"
     style="display:none">
    <image
       y="124.23757"
       x="4.0250044"
       id="image4640"
       xlink:href="file:///F:/Dev/HL_Modding/VS2013/template_mp/fontsrc/images/shell.png"
       height="289.41492"
       width="204.68127" />
  </g>
  <g
     inkscape:groupmode="layer"
     id="layer31"
     inkscape:label="SHELL">
    <path
       style="fill:#000000"
       d="m 53.819776,406.06401 c -12.169603,-0.87941 -23.51474,-2.81087 -33.288218,-5.66719 -4.813798,-1.40685 -5.761792,-1.84536 -7.287316,-3.37088 -1.894343,-1.89435 -2.458418,-3.35009 -2.458601,-6.34507 -1.68e-4,-2.76708 0.337982,-3.70677 1.934097,-5.37467 l 0.931049,-0.97293 0.0703,-122.70078 c 0.06679,-116.57703 0.09445,-122.73766 0.554329,-123.43951 0.628361,-0.95899 1.384102,-1.32333 4.880598,-2.35294 9.478025,-2.791 19.026811,-4.60067 30.262016,-5.73521 6.102418,-0.61622 25.514015,-0.70308 31.500007,-0.14094 11.89788,1.11733 23.235853,3.24449 32.390873,6.07699 3.2307,0.99956 3.64771,1.21025 4.26743,2.15606 0.45643,0.69659 0.48509,7.10819 0.55174,123.41647 l 0.0703,122.68171 1.08508,1.17718 c 2.82095,3.06037 2.47559,8.397 -0.75243,11.62686 -1.44883,1.44964 -2.43909,1.90235 -7.21342,3.29766 -16.795157,4.90842 -38.454972,7.04326 -57.497834,5.66719 z m 27.235814,-5.77748 c 9.415325,-0.79009 19.82646,-2.62772 27.89077,-4.92292 4.87664,-1.38795 6.03657,-1.96457 6.47355,-3.21809 0.4157,-1.19249 0.37406,-2.41617 -0.0883,-2.59358 -0.21323,-0.0818 -1.39233,0.16859 -2.62021,0.55648 -8.17391,2.58214 -20.036163,4.79143 -31.380741,5.84453 -7.128903,0.66176 -23.715137,0.66006 -30.812234,-0.003 -11.579139,-1.08207 -23.105749,-3.22729 -31.372401,-5.83873 -1.232468,-0.38933 -2.415316,-0.64093 -2.628552,-0.55911 -0.476046,0.18268 -0.513897,1.78895 -0.06535,2.7734 0.441017,0.96792 1.596609,1.61721 4.35451,2.44664 8.173442,2.45815 18.228179,4.36436 28.61136,5.42426 8.13671,0.83055 22.332889,0.87108 31.637562,0.0903 z m 0.275109,-9.87091 c 11.152208,-1.10146 20.680751,-2.86082 29.230361,-5.39712 l 1.85698,-0.55089 0,-21.72198 c 0,-11.94709 -0.10127,-21.72198 -0.22505,-21.72198 -0.12378,0 -2.39826,0.55253 -5.05441,1.22784 -7.87847,2.00306 -16.113142,3.39361 -25.670326,4.3348 -2.294824,0.226 -7.864842,0.35221 -15.543672,0.35221 -12.225706,0 -14.831785,-0.14095 -23.384285,-1.26472 -6.074321,-0.79814 -10.876498,-1.71192 -17.245388,-3.28153 -3.054285,-0.75273 -5.623118,-1.3686 -5.708517,-1.3686 -0.0854,0 -0.155271,9.77489 -0.155271,21.72198 l 0,21.72198 1.856988,0.55155 c 10.716234,3.18286 21.421999,4.92273 36.383196,5.91288 3.498154,0.23151 19.657922,-0.12122 23.659394,-0.51642 z M 64.22348,143.12011 c 0.04791,-0.58207 0.02839,-1.21131 -0.04337,-1.39832 -0.09987,-0.26027 -1.636768,-0.12402 -6.552175,0.58087 -3.531935,0.50649 -6.545498,0.96576 -6.696808,1.0206 -0.577207,0.2092 2.392498,0.49535 7.290394,0.70247 2.799237,0.11838 5.27522,0.20116 5.502185,0.18396 0.273052,-0.0207 0.442134,-0.38932 0.499774,-1.08958 z m 10.504598,0.79347 c 2.647926,-0.0846 5.185809,-0.26455 5.639739,-0.39997 0.45393,-0.13541 0.639629,-0.26063 0.412664,-0.27825 -0.226965,-0.0176 -3.229786,-0.44023 -6.672932,-0.93914 -3.443149,-0.49891 -6.321479,-0.8459 -6.396289,-0.77109 -0.201862,0.20186 -0.164901,2.39972 0.04387,2.60849 0.09894,0.0989 0.625084,0.1245 1.169214,0.0568 0.54413,-0.0677 3.155811,-0.19227 5.803734,-0.27684 z M 46.259282,140.7434 c 4.209501,-0.60563 7.703432,-1.15095 7.764292,-1.21181 0.168694,-0.16869 -0.853469,-0.33944 -8.59463,-1.43572 l -7.15284,-1.01296 -3.301311,0.60344 c -5.428795,0.99232 -8.261451,1.71636 -7.776571,1.98771 0.56629,0.31691 9.46526,2.13302 10.554877,2.15405 0.468897,0.009 4.296678,-0.47907 8.506183,-1.08471 z m 53.19188,0.13203 c 2.627718,-0.53083 4.968728,-1.07207 5.202258,-1.20276 0.47239,-0.26436 -2.23541,-0.96126 -7.641495,-1.96667 l -3.163756,-0.58838 -7.015285,0.99964 c -8.29979,1.18267 -8.86909,1.27743 -8.698718,1.4478 0.185861,0.18586 14.115663,2.21357 15.438894,2.24738 0.60524,0.0155 3.250385,-0.40619 5.878102,-0.93701 z m -35.177235,-4.57669 0,-1.41917 -5.570962,0.20082 c -4.803135,0.17315 -8.667066,0.51991 -7.771836,0.69746 0.715559,0.14192 12.438747,1.88223 12.861356,1.90927 0.400279,0.0256 0.481442,-0.20845 0.481442,-1.38838 z m 10.83066,0.31258 c 3.157624,-0.45054 5.819305,-0.83466 5.914848,-0.8536 0.801649,-0.15891 -3.31398,-0.51297 -7.873236,-0.67733 l -5.570962,-0.20082 0,1.43164 0,1.43164 0.894105,-0.15618 c 0.491758,-0.0859 3.477618,-0.52481 6.635245,-0.97535 z"
       id="path4643"
       inkscape:connector-curvature="0"
       sodipodi:nodetypes="ssssscsssssssscsssscsscsscscsssccsscssssssssscsssssssscscccsscscssscsscsssscsscsscsscsssscccss" />
  </g>
  <g
     inkscape:groupmode="layer"
     id="layer29"
     inkscape:label="SCALE"
     style="display:none"
     sodipodi:insensitive="true">
    <g
       transform="matrix(1,0,0,-1,0,800)"
       id="g4614">
      <path
         d="M 413,500 V 308 H 0 v 192 h 413 v 0 z m 164,15 h 24 V 294 h -24 v 14 H 432 v 192 h 145 v 15 0 z"
         id="path4616"
         inkscape:connector-curvature="0"
         style="fill:currentColor" />
    </g>
  </g>
</svg>
