<?xml version="1.0" encoding="UTF-8" standalone="no"?>
<svg
   xmlns:dc="http://purl.org/dc/elements/1.1/"
   xmlns:cc="http://creativecommons.org/ns#"
   xmlns:rdf="http://www.w3.org/1999/02/22-rdf-syntax-ns#"
   xmlns:svg="http://www.w3.org/2000/svg"
   xmlns="http://www.w3.org/2000/svg"
   xmlns:xlink="http://www.w3.org/1999/xlink"
   xmlns:sodipodi="http://sodipodi.sourceforge.net/DTD/sodipodi-0.dtd"
   xmlns:inkscape="http://www.inkscape.org/namespaces/inkscape"
   viewBox="0 -200 1000 1000"
   id="svg2985"
   version="1.1"
   inkscape:version="0.48.4 r9939"
   width="100%"
   height="100%"
   sodipodi:docname="p_VSHUD.svg">
  <metadata
     id="metadata2995">
    <rdf:RDF>
      <cc:Work
         rdf:about="">
        <dc:format>image/svg+xml</dc:format>
        <dc:type
           rdf:resource="http://purl.org/dc/dcmitype/StillImage" />
        <dc:title></dc:title>
      </cc:Work>
    </rdf:RDF>
  </metadata>
  <defs
     id="defs2993" />
  <sodipodi:namedview
     pagecolor="#ffffff"
     bordercolor="#666666"
     borderopacity="1"
     objecttolerance="10"
     gridtolerance="10"
     guidetolerance="10"
     inkscape:pageopacity="0"
     inkscape:pageshadow="2"
     inkscape:window-width="1920"
     inkscape:window-height="996"
     id="namedview2991"
     showgrid="false"
     inkscape:zoom="0.57204939"
     inkscape:cx="-23.44001"
     inkscape:cy="718.83741"
     inkscape:window-x="1672"
     inkscape:window-y="-8"
     inkscape:window-maximized="1"
     inkscape:current-layer="layer3" />
  <g
     inkscape:groupmode="layer"
     id="layer2"
     inkscape:label="IMG"
     style="opacity:0.55284555;display:none">
    <image
       y="-129.45125"
       x="-556.25421"
       id="image3009"
       xlink:href="file:///F:/Dev/HL_Modding/VS2013/template_mp/fontsrc/images/Bolt%20xBow.jpg"
       height="722.06348"
       width="657.69098"
       transform="matrix(0.56228916,-0.82694069,0.95248324,0.30459101,0,0)" />
  </g>
  <g
     inkscape:groupmode="layer"
     id="layer3"
     inkscape:label="BOLT"
     style="opacity:0.5203252">
    <path
       style="fill:#000000"
       d="m 118.68615,507.13122 c -3.15138,2.57406 -7.75916,5.89582 -10.23952,7.38167 -5.41429,3.24341 -7.20141,5.65502 -7.46265,10.07038 -0.23043,3.89453 -2.30611,5.86992 -6.762384,6.43559 -3.556745,0.4515 -25.759414,-0.2553 -27.720564,-0.88245 -0.680005,-0.21746 -1.282789,-3.11982 -1.339517,-6.44969 -0.08359,-4.90673 -0.637406,-6.3627 -2.921735,-7.68124 -1.550228,-0.89481 -6.475015,-4.90777 -10.943971,-8.91768 -7.553343,-6.77747 -8.131434,-7.60851 -8.211466,-11.80427 -0.113139,-5.93214 0.559371,-65.30282 0.925591,-81.713 0.317132,-14.21047 1.357581,-19.09382 11.87474,-55.73407 4.814908,-16.77441 7.952733,-25.90204 9.328971,-27.13703 2.197155,-1.97167 2.12835,-0.0152 2.407705,-68.46706 0.207455,-50.83423 0.256356,-95.35122 0.130052,-118.38859 C 67.542403,105.72484 67.259625,49.762864 67.202463,35.211407 68.375485,24.905219 67.509271,2.3291938 69.714381,-7.7063424 71.919491,-17.741879 81.724276,-29.433813 83.283112,-28.935319 c 1.334156,0.426644 13.330752,10.455809 15.021831,23.0128721 1.69108,12.5570634 -0.111954,23.7833849 0.118831,33.7643619 1.356905,2.556646 2.246126,33.108834 1.666516,57.259119 -0.0881,3.672754 -0.0103,17.021046 0.17302,29.662876 0.53831,37.12309 0.764,85.95498 0.58184,125.8863 -0.0418,9.16648 0.28165,32.99217 0.71882,52.94597 0.67056,30.60659 1.17301,36.71535 3.2132,39.066 3.34401,3.85288 21.83996,64.87979 22.054,72.76664 0.0946,3.48446 -0.0887,17.96047 -0.40721,32.16892 -0.31855,14.20845 -0.41716,33.5564 -0.21913,42.99545 0.19801,9.43904 -0.12349,18.21849 -0.71444,19.50989 -0.59095,1.2914 -3.65285,4.45407 -6.80424,7.02814 z M 81.456354,-24.668214 C 67.614883,-12.96719 71.250848,8.7244342 69.662175,20.709274 c 3.188657,-10.492819 5.971702,-9.930969 8.826244,-13.0927113 0,0 2.083277,-29.6851707 2.967935,-32.2847767 z M 86.879853,8.6784055 C 88.928937,9.5012592 92.49797,10.971234 95.789444,19.100518 93.570397,12.109967 94.432093,7.1202965 86.712831,0.09393663 c 0,0 0.435614,-14.64258763 0.167022,8.58446887 z M 69.580152,25.907677 c -0.587318,10.516731 -0.02826,13.55333 0.120515,60.690154 0.234198,74.202379 0.515611,94.542129 -0.14064,223.806009 -0.09835,19.37278 -0.429592,22.11991 -2.758161,22.87509 -1.621051,0.52573 -4.498387,9.16525 -13.102817,39.34267 -7.930538,27.8139 -7.643407,25.50122 -7.981942,64.28876 -0.103078,11.81005 -0.293821,27.29302 -0.423874,34.40658 -0.130053,7.11357 -0.245391,16.36669 -0.256294,20.56248 l -0.01983,7.62873 7.588797,6.85655 c 4.173833,3.77111 9.159077,7.582 11.078317,8.46865 3.160262,1.45998 3.497432,2.18602 3.573383,7.69476 0.04613,3.34546 0.760912,6.29918 1.588409,6.5638 0.827496,0.26462 4.928183,0.5323 9.112637,0.59484 3.127469,0.0467 5.696325,0.0956 7.807629,0.10979 l 0.228512,-4.03006 c -0.582905,-0.83715 -0.86592,-4.56131 -0.62892,-8.2759 0.433648,-6.79692 0.706057,-21.55632 0.628559,-34.05515 -0.023,-3.7083 0.07843,-15.58617 0.225394,-26.39528 0.745041,-54.79661 0.96774,-129.67736 0.466521,-156.86052 -0.411397,-22.3115 0.22976,-66.78039 0.188573,-75.69654 C 86.508325,145.12299 84.036318,54.86058 83.842728,23.046232 70.18015,22.937232 69.580152,25.907677 69.580152,25.907677 z M 76.324101,527.8945 c -0.978587,-0.31294 -1.629602,-2.47356 -1.570598,-5.21255 0.05542,-2.57293 0.240189,-10.68957 0.410577,-18.03697 0.325709,-14.04431 0.547335,-35.30288 0.610614,-58.57122 0.02079,-7.64197 0.08335,-18.52292 0.139018,-24.1799 0.05568,-5.65697 0.104686,-12.90861 0.108887,-16.11475 0.03177,-24.19727 0.09501,-33.82561 0.270512,-41.18462 0.110951,-4.65238 0.179201,-14.52216 0.151656,-21.93286 -0.233094,-62.73133 -0.29514,-101.29711 -0.17684,-109.91559 0.0772,-5.62382 0.08548,-15.25058 0.01841,-21.39278 -0.06708,-6.14221 -0.02568,-11.30926 0.092,-11.48232 0.117679,-0.17307 0.179562,-10.22103 0.137516,-22.3288 -0.04205,-12.10777 0.01627,-22.15048 0.129583,-22.31713 0.113319,-0.16665 0.809802,-94.12868 0.79236,-102.67211 -0.05343,-26.16413 1.159327,-24.452547 2.094382,-24.153529 1.193402,0.381634 1.630564,148.741659 1.957494,221.669729 0.05317,11.86002 0.2213,30.88953 0.373637,42.2878 0.152325,11.39827 0.268777,23.14395 0.258777,26.10151 -0.01,2.95755 0.0099,9.82747 0.04413,15.26648 0.177733,28.2097 -0.445255,66.04732 -1.168228,70.95368 -0.451381,3.06314 -0.50619,6.31545 -0.121797,7.22734 0.701546,1.66431 0.650028,34.48534 -0.108965,69.40933 -0.223652,10.29112 -0.316834,19.74919 -0.207066,21.01794 0.502459,5.80774 -0.565478,23.15563 -1.511072,24.54629 -0.619133,0.91054 -1.742837,1.32911 -2.724987,1.01503 z"
       id="path3013"
       inkscape:connector-curvature="0"
       sodipodi:nodetypes="ssssssssssssssczszccsssscsssscccccccccssssssscsssssccsssssccsssssssssscscssssssssssss" />
  </g>
  <g
     inkscape:groupmode="layer"
     id="layer1"
     inkscape:label="Scale"
     style="display:none"
     sodipodi:insensitive="true">
    <g
       transform="matrix(1,0,0,-1,0,800)"
       id="g2987">
      <path
         d="m 61.9688,348.506 q -26.5859,1.88184 -47.9346,7.99121 -7.96875,2.2793 -10.4932,4.75195 -3.53906,3.46582 -3.54102,8.94727 0,4.72656 2.78516,7.57812 l 1.34082,1.37207 0.100586,173.008 q 0.102539,173.01 0.798828,174.05 1.07129,1.60156 7.02832,3.31836 19.9375,5.74902 43.5771,8.08691 6.5918,0.65137 22.7432,0.72168 16.1514,0.0713 22.617196,-0.52344 26.3633,-2.42383 46.6426,-8.56934 5.15625,-1.56055 6.14453,-3.04004 0.69434,-1.03516 0.79493,-174.017 l 0.10156,-172.981 1.5625,-1.66016 q 7.50879,-7.97363 -1.08301,-16.3945 -2.4209,-2.36914 -10.3887,-4.64844 -38.7988,-11.1045 -82.796902,-7.99121 z m 39.2202,8.147 q 21.6406,1.77734 40.1621,6.94043 8.55664,2.38477 9.32227,4.53711 1.13379,3.18262 -0.12695,3.65723 -0.55664,0.20996 -3.77441,-0.78418 -18.9287,-5.85547 -45.1865,-8.24121 -7.700203,-0.7002 -22.202103,-0.69922 -14.5029,0.002 -22.168,0.70313 -26.3555,2.41113 -45.1758,8.23242 -3.22559,0.99804 -3.78613,0.78906 -0.513672,-0.19239 -0.545898,-1.53125 -0.032227,-1.33789 0.452148,-2.37891 0.864258,-1.85742 6.27051,-3.45117 18.1504,-5.34375 41.2002,-7.64746 21.25,-2.125 45.558603,-0.12598 z m 0.397,13.916 q 23.8232,2.30469 42.0918,7.61133 l 2.67285,0.77637 v 30.627 q 0,30.6299 -0.32324,30.6299 -0.3252,0 -7.27832,-1.73242 -16.71,-4.15918 -36.9668,-6.11133 -5.139652,-0.49707 -22.381802,-0.49707 -19.8174,0 -33.6738,1.7832 -12.1143,1.55859 -24.833,4.62695 -7.99902,1.93066 -8.2207,1.93066 -0.223633,0 -0.223633,-30.6299 v -30.627 l 2.6748,-0.77832 q 21.8604,-6.35742 52.3906,-8.33594 3.77832,-0.24512 16.7637,0.0322 12.9844,0.27735 17.307595,0.69434 z M 76.9512,719.257 q 0.125,1.49316 -0.06348,1.97168 -0.1875,0.47949 -9.43457,-0.81934 -9.25,-1.29883 -9.64355,-1.43848 l 10.499,-0.99023 q 7.30566,-0.30469 7.92285,-0.25977 0.59375,0.043 0.719727,1.53613 z m 15.1269,-1.119 q 6.93652,0.21777 8.12109,0.56445 l 0.59375,0.39258 q -0.59082,0.0449 -9.60938,1.32422 -9.01367,1.2793 -9.21094,1.08691 -0.217773,-0.21289 -0.189453,-1.83496 0.02734,-1.62207 0.25293,-1.84277 0.259766,-0.25293 1.68457,-0.0801 1.44238,0.17481 8.35742,0.38965 z m -40.9951,4.47 q 11.0225,1.55273 11.1797,1.70898 0.276367,0.26953 -12.376,2.02441 l -10.2998,1.42773 -4.75488,-0.85059 q -12.2959,-2.20117 -11.1973,-2.80273 5.18359,-2.84375 15.1982,-3.03711 1.22656,-0.0225 12.25,1.5293 z m 76.596,-0.185 q 6.87988,1.35938 7.49121,1.69531 1.05469,0.57812 -11.0039,2.77246 l -4.55469,0.83105 -10.1025,-1.41016 -12.5273,-2.04199 q 2.74707,-2.67578 22.2334,-3.16895 1.58398,-0.04 8.46387,1.32227 z m -50.6565,6.452 v 2.00098 l -8.02051,-0.28223 -11.1924,-0.98339 q 11.5439,-2.25099 18.5215,-2.69336 0.691406,-0.043 0.691406,1.958 z m 15.5966,-0.44 q 8.23535,1.14941 8.51758,1.20312 l -11.3369,0.95605 -8.02246,0.28223 v -2.01855 -2.01855 q 2.60156,0.44531 10.8418,1.5957 z"
         id="path2989"
         inkscape:connector-curvature="0"
         style="fill:currentColor" />
    </g>
  </g>
</svg>
